<svg width="38" height="36" viewBox="0 0 38 36" fill="none" xmlns="http://www.w3.org/2000/svg">
<path opacity="0.804766" fill-rule="evenodd" clip-rule="evenodd" d="M19.1603 29.6595C18.902 29.5089 18.5828 29.5089 18.3246 29.6595L8.17864 35.5742C7.55513 35.9376 6.79692 35.3868 6.94994 34.6815L9.43989 23.2044C9.50327 22.9122 9.40461 22.6086 9.18164 22.4095L0.421163 14.5879C-0.117204 14.1073 0.172404 13.2159 0.890483 13.1435L12.5753 11.965C12.8727 11.935 13.131 11.7473 13.2514 11.4738L17.983 0.725046C18.2738 0.0644934 19.211 0.0644934 19.5018 0.725046L24.2335 11.4738C24.3539 11.7473 24.6122 11.935 24.9096 11.965L36.5944 13.1435C37.3124 13.2159 37.6021 14.1073 37.0637 14.5879L28.3032 22.4095C28.0802 22.6086 27.9816 22.9122 28.045 23.2044L30.5349 34.6815C30.6879 35.3868 29.9297 35.9376 29.3062 35.5742L19.1603 29.6595Z" fill="#984100"/>
</svg>
