<svg width="14" height="13" viewBox="0 0 14 13" fill="none" xmlns="http://www.w3.org/2000/svg">
<path opacity="0.804766" fill-rule="evenodd" clip-rule="evenodd" d="M7.32052 10.7906C7.22963 10.7376 7.11727 10.7376 7.02639 10.7906L3.45553 12.8723C3.23609 13.0002 2.96924 12.8063 3.0231 12.5581L3.89943 8.51871C3.92174 8.4159 3.88702 8.30904 3.80854 8.23898L0.725296 5.48617C0.535818 5.317 0.637745 5.00329 0.890473 4.9778L5.00293 4.56302C5.1076 4.55246 5.1985 4.48642 5.24089 4.39013L6.90619 0.607129C7.00853 0.374648 7.33838 0.374648 7.44072 0.607129L9.10602 4.39013C9.1484 4.48642 9.2393 4.55246 9.34398 4.56302L13.4564 4.9778C13.7092 5.00329 13.8111 5.317 13.6216 5.48617L10.5384 8.23898C10.4599 8.30904 10.4252 8.4159 10.4475 8.51871L11.3238 12.5581C11.3777 12.8063 11.1108 13.0002 10.8914 12.8723L7.32052 10.7906Z" fill="#984100"/>
</svg>
