<svg width="14" height="13" viewBox="0 0 14 13" fill="none" xmlns="http://www.w3.org/2000/svg">
<path opacity="0.804766" fill-rule="evenodd" clip-rule="evenodd" d="M6.76132 10.7905C6.67043 10.7375 6.55807 10.7375 6.46718 10.7905L2.89633 12.8721C2.67689 13.0001 2.41004 12.8062 2.46389 12.5579L3.34023 8.51859C3.36253 8.41578 3.32781 8.30892 3.24934 8.23885L0.166092 5.48604C-0.0233863 5.31687 0.0785411 5.00317 0.331269 4.97768L4.44373 4.5629C4.5484 4.55234 4.6393 4.4863 4.68168 4.39001L6.34699 0.607007C6.44933 0.374526 6.77917 0.374526 6.88151 0.607007L8.54681 4.39001C8.5892 4.4863 8.6801 4.55234 8.78477 4.5629L12.8972 4.97768C13.15 5.00317 13.2519 5.31687 13.0624 5.48604L9.97916 8.23885C9.90069 8.30892 9.86597 8.41578 9.88827 8.51859L10.7646 12.5579C10.8185 12.8062 10.5516 13.0001 10.3322 12.8721L6.76132 10.7905Z" fill="#FFA867"/>
</svg>
