<svg width="38" height="36" viewBox="0 0 38 36" fill="none" xmlns="http://www.w3.org/2000/svg">
<path opacity="0.804766" fill-rule="evenodd" clip-rule="evenodd" d="M19.2391 29.6595C18.9809 29.5089 18.6617 29.5089 18.4034 29.6595L8.2575 35.5742C7.63399 35.9376 6.87578 35.3868 7.0288 34.6815L9.51875 23.2044C9.58212 22.9122 9.48347 22.6086 9.26049 22.4095L0.50002 14.5879C-0.038347 14.1073 0.251261 13.2159 0.96934 13.1435L12.6541 11.965C12.9515 11.935 13.2098 11.7473 13.3303 11.4738L18.0619 0.725046C18.3527 0.0644934 19.2899 0.0644934 19.5807 0.725046L24.3123 11.4738C24.4327 11.7473 24.691 11.935 24.9884 11.965L36.6732 13.1435C37.3913 13.2159 37.6809 14.1073 37.1425 14.5879L28.3821 22.4095C28.1591 22.6086 28.0604 22.9122 28.1238 23.2044L30.6138 34.6815C30.7668 35.3868 30.0086 35.9376 29.3851 35.5742L19.2391 29.6595Z" fill="#984100"/>
</svg>
