<svg width="40" height="40" viewBox="0 0 40 40" fill="none" xmlns="http://www.w3.org/2000/svg">
<path opacity="0.804766" fill-rule="evenodd" clip-rule="evenodd" d="M20.3337 32.8927C20.0677 32.7296 19.7326 32.7296 19.4665 32.8927L8.71391 39.4837C8.09457 39.8633 7.32094 39.3201 7.46773 38.6087L10.1329 25.6919C10.1912 25.4093 10.0985 25.1168 9.88817 24.9193L0.477584 16.0849C-0.0399861 15.599 0.252017 14.7298 0.95796 14.6549L13.4334 13.3319C13.7345 13.2999 13.9943 13.1065 14.1112 12.8272L19.1348 0.828046C19.4191 0.149002 20.3812 0.149001 20.6655 0.828045L25.689 12.8272C25.806 13.1065 26.0658 13.2999 26.3669 13.3319L38.8423 14.6549C39.5483 14.7298 39.8403 15.599 39.3227 16.0849L29.9121 24.9193C29.7018 25.1168 29.6091 25.4093 29.6674 25.6919L32.3325 38.6087C32.4793 39.3201 31.7057 39.8633 31.0864 39.4837L20.3337 32.8927Z" fill="#984100"/>
</svg>
