<svg width="38" height="36" viewBox="0 0 38 36" fill="none" xmlns="http://www.w3.org/2000/svg">
<path opacity="0.804766" fill-rule="evenodd" clip-rule="evenodd" d="M19.3966 29.6595C19.1384 29.5089 18.8191 29.5089 18.5609 29.6595L8.41497 35.5742C7.79146 35.9376 7.03325 35.3868 7.18627 34.6815L9.67622 23.2044C9.73959 22.9122 9.64094 22.6086 9.41797 22.4095L0.657491 14.5879C0.119124 14.1073 0.408732 13.2159 1.12681 13.1435L12.8116 11.965C13.109 11.935 13.3673 11.7473 13.4877 11.4738L18.2194 0.725046C18.5102 0.0644934 19.4473 0.0644934 19.7381 0.725046L24.4698 11.4738C24.5902 11.7473 24.8485 11.935 25.1459 11.965L36.8307 13.1435C37.5488 13.2159 37.8384 14.1073 37.3 14.5879L28.5395 22.4095C28.3166 22.6086 28.2179 22.9122 28.2813 23.2044L30.7712 34.6815C30.9243 35.3868 30.166 35.9376 29.5425 35.5742L19.3966 29.6595Z" fill="#984100"/>
</svg>
