<svg width="38" height="36" viewBox="0 0 38 36" fill="none" xmlns="http://www.w3.org/2000/svg">
<path opacity="0.804766" fill-rule="evenodd" clip-rule="evenodd" d="M19.4752 29.6595C19.217 29.5089 18.8977 29.5089 18.6395 29.6595L8.49358 35.5742C7.87007 35.9376 7.11187 35.3868 7.26488 34.6815L9.75483 23.2044C9.81821 22.9122 9.71955 22.6086 9.49658 22.4095L0.736104 14.5879C0.197737 14.1073 0.487345 13.2159 1.20542 13.1435L12.8902 11.965C13.1876 11.935 13.4459 11.7473 13.5663 11.4738L18.298 0.725046C18.5888 0.0644934 19.526 0.0644934 19.8167 0.725046L24.5484 11.4738C24.6688 11.7473 24.9271 11.935 25.2245 11.965L36.9093 13.1435C37.6274 13.2159 37.917 14.1073 37.3786 14.5879L28.6182 22.4095C28.3952 22.6086 28.2965 22.9122 28.3599 23.2044L30.8498 34.6815C31.0029 35.3868 30.2447 35.9376 29.6212 35.5742L19.4752 29.6595Z" fill="#FFA867"/>
</svg>
