<svg width="14" height="13" viewBox="0 0 14 13" fill="none" xmlns="http://www.w3.org/2000/svg">
<path opacity="0.804766" fill-rule="evenodd" clip-rule="evenodd" d="M6.99813 10.7906C6.90725 10.7376 6.79489 10.7376 6.704 10.7906L3.13315 12.8723C2.9137 13.0002 2.64685 12.8063 2.70071 12.5581L3.57704 8.51871C3.59935 8.4159 3.56463 8.30904 3.48615 8.23898L0.402908 5.48617C0.21343 5.317 0.315358 5.00329 0.568085 4.9778L4.68054 4.56302C4.78521 4.55246 4.87612 4.48642 4.9185 4.39013L6.5838 0.607129C6.68614 0.374648 7.01599 0.374648 7.11833 0.607129L8.78363 4.39013C8.82602 4.48642 8.91692 4.55246 9.02159 4.56302L13.134 4.9778C13.3868 5.00329 13.4887 5.317 13.2992 5.48617L10.216 8.23898C10.1375 8.30904 10.1028 8.4159 10.1251 8.51871L11.0014 12.5581C11.0553 12.8063 10.7884 13.0002 10.569 12.8723L6.99813 10.7906Z" fill="#984100"/>
</svg>
