<svg width="14" height="13" viewBox="0 0 14 13" fill="none" xmlns="http://www.w3.org/2000/svg">
<path opacity="0.804766" fill-rule="evenodd" clip-rule="evenodd" d="M7.43917 10.7905C7.34829 10.7375 7.23593 10.7375 7.14504 10.7905L3.57419 12.8721C3.35474 13.0001 3.08789 12.8062 3.14175 12.5579L4.01808 8.51859C4.04039 8.41578 4.00567 8.30892 3.92719 8.23885L0.843948 5.48604C0.65447 5.31687 0.756398 5.00317 1.00912 4.97768L5.12158 4.5629C5.22625 4.55234 5.31716 4.4863 5.35954 4.39001L7.02484 0.607007C7.12718 0.374526 7.45703 0.374526 7.55937 0.607007L9.22467 4.39001C9.26706 4.4863 9.35796 4.55234 9.46263 4.5629L13.5751 4.97768C13.8278 5.00317 13.9297 5.31687 13.7403 5.48604L10.657 8.23885C10.5785 8.30892 10.5438 8.41578 10.5661 8.51859L11.4425 12.5579C11.4963 12.8062 11.2295 13.0001 11.01 12.8721L7.43917 10.7905Z" fill="#984100"/>
</svg>
