<svg width="15" height="15" viewBox="0 0 15 15" fill="none" xmlns="http://www.w3.org/2000/svg">
<path opacity="0.804766" fill-rule="evenodd" clip-rule="evenodd" d="M7.88526 11.9285C7.79162 11.8711 7.67369 11.8711 7.58005 11.9285L3.79567 14.2482C3.57769 14.3818 3.30542 14.1906 3.35708 13.9402L4.29507 9.39419C4.31559 9.29474 4.28298 9.19178 4.20895 9.12228L0.8969 6.01301C0.714742 5.842 0.817512 5.53608 1.06597 5.50973L5.45669 5.04409C5.56266 5.03285 5.6541 4.96477 5.69525 4.86647L7.4633 0.64338C7.56335 0.404391 7.90196 0.40439 8.00202 0.643379L9.77006 4.86647C9.81121 4.96477 9.90265 5.03285 10.0086 5.04409L14.3993 5.50973C14.6478 5.53608 14.7506 5.842 14.5684 6.01301L11.2564 9.12228C11.1823 9.19178 11.1497 9.29474 11.1702 9.39419L12.1082 13.9402C12.1599 14.1906 11.8876 14.3818 11.6696 14.2482L7.88526 11.9285Z" fill="#984100"/>
</svg>
