<svg width="139" height="115" viewBox="0 0 139 115" fill="none" xmlns="http://www.w3.org/2000/svg">
<path d="M84.8278 55.1884C84.8278 55.1884 84.0332 54.9218 83.6621 54.388C83.2909 53.8548 81.9137 53.2677 80.748 53.2677C79.5823 53.2677 78.2051 53.8543 77.8339 54.388C77.4633 54.9218 76.6682 55.1884 76.6682 55.1884M76.2803 54.0018C76.2803 54.0018 77.8204 52.6814 78.5284 52.2812C79.2358 51.8811 81.2016 51.681 82.0087 52.0413C82.8158 52.4017 84.3146 54.0018 84.3146 54.0018M75.6138 61.3614C75.6138 61.3614 76.5714 62.1618 76.3632 63.2418C76.155 64.3218 75.0312 64.2019 74.2399 64.2422C73.4491 64.282 73.0328 65.2426 72.1586 65.2023C71.2844 65.2421 70.868 64.282 70.0772 64.2422C69.2865 64.2019 68.1622 64.3224 67.954 63.2418C67.7458 62.1613 68.7033 61.3614 68.7033 61.3614M71.2001 63.5219C71.2001 63.5219 70.3673 63.1616 70.7003 61.7219C71.0333 60.2817 71.4911 60.6017 71.4911 58.322C71.4911 56.0418 71.4911 53.2682 71.4911 53.2682M76.8626 68.3401C76.8626 68.3401 75.8233 68.4566 75.1557 68.4267C74.4886 68.3967 74.1938 68.2199 73.694 68.2398C72.695 68.2797 72.7414 68.6004 72.1582 68.6209C71.5756 68.6009 71.6219 68.2802 70.6224 68.2398C70.1227 68.2199 69.8278 68.3967 69.1608 68.4267C68.4937 68.4566 67.4538 68.3401 67.4538 68.3401M74.6978 67.6418C74.6978 67.6418 73.6575 67.1217 73.3659 67.2019C73.0743 67.282 72.1587 67.922 72.1587 67.922C72.1587 67.922 71.2431 67.282 70.9516 67.2019C70.66 67.1217 69.6196 67.6418 69.6196 67.6418M75.3238 69.0019C75.3238 69.0019 73.4507 70.2024 72.1601 70.2024C70.8696 70.2024 68.9965 69.0019 68.9965 69.0019M75.3213 49.8009C75.3213 49.8009 78.8599 46.4404 85.1873 49.8009M60.1125 55.1884C60.1125 55.1884 60.9071 54.9218 61.2783 54.388C61.6489 53.8548 63.0266 53.2677 64.1923 53.2677C65.3581 53.2677 66.7353 53.8543 67.1064 54.388C67.4775 54.9218 68.2722 55.1884 68.2722 55.1884M68.6622 54.0018C68.6622 54.0018 67.122 52.6814 66.4141 52.2812C65.7062 51.8811 63.7409 51.681 62.9338 52.0413C62.1267 52.4017 60.6279 54.0018 60.6279 54.0018M69.6194 49.8009C69.6194 49.8009 66.0813 46.4404 59.7534 49.8009M90.2354 47.8484C95.9533 57.2722 92.6386 69.366 82.8318 74.8606C73.0249 80.3552 60.4396 77.17 54.7216 67.7461C49.0037 58.3223 52.3184 46.2285 62.1253 40.7339C71.9322 35.2393 84.5175 38.4245 90.2354 47.8484ZM75.3094 38.2443C75.0048 30.8313 74.2843 23.4554 73.1502 16.1759L72.4701 11.8108L71.7899 16.1759C70.6558 23.4554 69.9353 30.8307 69.6306 38.2443C70.5593 38.1207 71.506 38.0521 72.4701 38.0521C73.4342 38.0521 74.3808 38.1207 75.3094 38.2443ZM69.6342 77.3772C69.9389 84.7903 70.6594 92.1661 71.7935 99.4457L72.4736 103.811L73.1538 99.4457C74.2879 92.1661 75.0084 84.7908 75.313 77.3772C74.3844 77.5008 73.4377 77.5694 72.4736 77.5694C71.5095 77.5694 70.5629 77.5008 69.6342 77.3772ZM92.834 60.5387C100.548 60.2464 108.224 59.554 115.799 58.4635L120.342 57.8098L115.799 57.1562C108.224 56.0662 100.549 55.3738 92.834 55.081C92.9626 55.9735 93.034 56.8833 93.034 57.8098C93.034 58.7364 92.9621 59.6462 92.834 60.5387ZM52.1097 55.0838C44.3953 55.3766 36.7202 56.0691 29.1443 57.159L24.6018 57.8127L29.1443 58.4664C36.7197 59.5564 44.3948 60.2488 52.1097 60.5416C51.9811 59.6491 51.9097 58.7393 51.9097 57.8127C51.9102 56.8867 51.9816 55.9764 52.1097 55.0838ZM64.1965 32.2904C61.2704 30.9429 58.4664 27.9373 57.8353 25.0276C57.2042 22.1179 56.2761 17.8738 52.1135 18.0084C52.1135 18.0084 55.6625 20.2315 55.5398 24.0054C55.4548 26.6323 54.2602 29.8646 56.4336 32.0877C58.6065 34.3108 60.6306 36.3879 60.6306 38.8241C60.6306 40.9797 59.7564 42.2864 59.7564 42.2864L59.7722 42.2801C62.5664 40.1659 65.9426 38.7341 69.6344 38.2434C69.6344 38.2434 67.9013 33.9966 64.1965 32.2904ZM80.7493 32.2903C83.6753 30.9428 86.4793 27.9372 87.1104 25.0275C87.7415 22.1178 88.6701 17.8737 92.8322 18.0083C92.8322 18.0083 89.2833 20.2314 89.4059 24.0052C89.4909 26.6322 90.6855 29.8645 88.5127 32.0876C86.3392 34.3107 84.3157 36.3877 84.3157 38.824C84.3157 40.9796 85.1899 42.2862 85.1899 42.2862L85.1741 42.28C82.3799 40.1658 79.0037 38.734 75.3119 38.2432C75.3119 38.2432 77.0444 33.9965 80.7493 32.2903ZM80.7481 83.2992C83.6741 84.6467 86.4781 87.6522 87.1092 90.5619C87.7403 93.4716 88.669 97.7158 92.8316 97.5812C92.8316 97.5812 89.2826 95.358 89.4053 91.5842C89.4903 88.9573 90.6849 85.7245 88.5115 83.5018C86.338 81.2787 84.3145 79.2017 84.3145 76.7654C84.3145 74.6098 85.1887 73.3032 85.1887 73.3032L85.1729 73.3095C82.3787 75.4237 79.0025 76.8555 75.3107 77.3462C75.3107 77.3462 77.0427 81.5929 80.7481 83.2992ZM64.1953 83.2992C61.2692 84.6467 58.4647 87.6522 57.8342 90.5619C57.2031 93.4716 56.2744 97.7158 52.1123 97.5812C52.1123 97.5812 55.6613 95.358 55.5387 91.5842C55.4537 88.9573 54.259 85.7245 56.4324 83.5018C58.6059 81.2787 60.6294 79.2017 60.6294 76.7654C60.6294 74.6098 59.7553 73.3032 59.7553 73.3032L59.7711 73.3095C62.5652 75.4237 65.9415 76.8555 69.6332 77.3462C69.6332 77.3462 67.9002 81.5929 64.1953 83.2992ZM60.0775 42.0473C54.4074 37.0118 48.4708 32.2864 42.3118 27.9098L38.619 25.2855L41.3499 28.8347C45.9044 34.7531 50.8224 40.4578 56.062 45.9064C56.6277 45.1879 57.2468 44.4961 57.9286 43.8415C58.6103 43.1858 59.3303 42.5909 60.0775 42.0473ZM84.8595 73.5745C90.5296 78.6094 96.4662 83.3354 102.625 87.712L106.318 90.3368L103.587 86.7876C99.0326 80.8692 94.1146 75.1645 88.875 69.7159C88.3093 70.4344 87.6902 71.1262 87.0084 71.7808C86.3267 72.436 85.6067 73.0309 84.8595 73.5745ZM88.8739 45.9035C94.1139 40.4549 99.0314 34.7501 103.586 28.8317L106.317 25.2831L102.624 27.9074C96.465 32.284 90.5284 37.0099 84.8583 42.0448C85.6061 42.5884 86.326 43.1834 87.0073 43.8385C87.6891 44.4932 88.3076 45.1855 88.8739 45.9035ZM56.0643 69.7179C50.8242 75.1665 45.9068 80.8712 41.3523 86.7896L38.6214 90.3383L42.3147 87.714C48.4737 83.3374 54.4103 78.6114 60.0804 73.5765C59.3326 73.0329 58.6127 72.438 57.9315 71.7828C57.2492 71.1282 56.63 70.4364 56.0643 69.7179ZM99.0175 49.8417C100.42 47.0299 103.548 44.3354 106.576 43.729C109.603 43.1225 114.02 42.2301 113.88 38.2301C113.88 38.2301 111.567 41.6404 107.639 41.5226C104.906 41.4409 101.542 40.293 99.2285 42.3815C96.915 44.4695 94.7535 46.4146 92.2177 46.4146C89.9745 46.4146 88.6148 45.5745 88.6148 45.5745L88.6213 45.5897C90.8214 48.2748 92.3114 51.5191 92.8221 55.0667C92.8221 55.0667 97.242 53.4024 99.0175 49.8417ZM99.0175 65.7493C100.42 68.561 103.548 71.2555 106.576 71.862C109.603 72.4684 114.02 73.3608 113.88 77.3604C113.88 77.3604 111.567 73.95 107.639 74.0678C104.906 74.1495 101.542 75.2975 99.2285 73.2095C96.915 71.1209 94.7535 69.1764 92.2177 69.1764C89.9745 69.1764 88.6148 70.0164 88.6148 70.0164L88.6213 70.0012C90.8214 67.3167 92.3114 64.0718 92.8221 60.5243C92.8221 60.5243 97.242 62.1886 99.0175 65.7493ZM45.935 65.7478C44.5327 68.5596 41.4051 71.2541 38.3771 71.8605C35.3491 72.467 30.9325 73.3594 31.0726 77.3589C31.0726 77.3589 33.386 73.9486 37.3132 74.0664C40.0469 74.1481 43.4106 75.2961 45.7241 73.208C48.0376 71.1195 50.199 69.175 52.7349 69.175C54.978 69.175 56.3378 70.015 56.3378 70.015L56.3313 69.9998C54.1311 67.3148 52.6411 64.0704 52.1305 60.5228C52.1305 60.5228 47.71 62.1872 45.935 65.7478ZM45.935 49.8403C44.5327 47.0285 41.4051 44.334 38.3771 43.7276C35.3491 43.1211 30.9325 42.2287 31.0726 38.2286C31.0726 38.2286 33.386 41.639 37.3132 41.5212C40.0469 41.4395 43.4106 40.2915 45.7241 42.3801C48.0376 44.4686 50.199 46.4131 52.7349 46.4131C54.978 46.4131 56.3378 45.5731 56.3378 45.5731L56.3313 45.5883C54.1311 48.2733 52.6411 51.5177 52.1305 55.0653C52.1305 55.0653 47.71 53.4009 45.935 49.8403ZM82.007 54.4792C82.007 55.1481 81.4429 55.6907 80.7464 55.6907C80.0505 55.6907 79.4858 55.1486 79.4858 54.4792C79.4858 53.8104 80.0499 53.2682 80.7464 53.2682C81.4429 53.2677 82.007 53.8104 82.007 54.4792ZM62.9338 54.4792C62.9338 55.1481 63.4978 55.6907 64.1943 55.6907C64.8903 55.6907 65.4549 55.1486 65.4549 54.4792C65.4549 53.8104 64.8908 53.2682 64.1943 53.2682C63.4984 53.2677 62.9338 53.8104 62.9338 54.4792Z" stroke="#D97122" stroke-width="1.5" stroke-miterlimit="10" stroke-linecap="round" stroke-linejoin="round"/>
</svg>
