<svg width="369" height="53" viewBox="0 0 369 53" fill="none" xmlns="http://www.w3.org/2000/svg">
<g filter="url(#filter0_d_1_28073)">
<path d="M4.01752 18.3578C3.96573 12.8429 4.04507 1.9206 4.04507 1.76112C4.04507 1.51946 4.08722 0.354657 4.08722 0.000233635C20.7069 0.000225024 316.629 0.027563 364.839 7.05138e-09C364.89 5.51488 364.942 11.0402 364.994 16.5547C364.993 17.1501 365.008 17.7857 364.994 18.1321C364.932 19.6015 364.979 21.3945 364.994 22.8652C365.01 24.5986 364.977 25.9633 364.994 27.6966C365.004 28.9566 364.983 29.6183 364.994 30.8782C363.05 30.7216 360.262 31.0006 358.666 30.4166C356.759 29.7187 354.872 30.153 353.339 30.2728C351.578 30.4104 350.143 30.3244 348.559 29.9915C347.914 29.8559 347.185 29.9012 346.494 29.8644C346.033 29.419 345.338 29.0122 345.156 28.5201C344.672 27.2135 343.103 27.0474 341.597 26.8632C341.113 26.8042 340.143 27.0612 340.048 27.2936C339.581 28.4443 338.404 28.5566 336.955 28.4994C335.913 28.4584 334.865 28.4981 333.819 28.5014C333.382 28.3455 332.962 28.0878 332.504 28.0513C330.599 27.8997 328.684 27.7706 326.768 27.7224C325.687 27.6951 324.452 27.6561 323.559 27.9719C322.932 28.1941 321.278 28.1892 321.865 29.2637C322.683 30.6993 322.141 31.8122 320.126 32.5761C318.943 34.0557 316.937 34.0038 314.787 34.0698C312.555 34.1381 310.351 34.6029 308.132 34.8859C307.302 34.992 306.416 35.2769 305.972 34.4109C305.881 34.2316 305.039 34.0531 304.677 34.1364C301.715 34.818 299.958 33.4444 297.975 32.4392C297.025 31.672 296.002 30.9393 295.145 30.1274C294.3 29.3264 293.289 28.8937 291.801 28.9095C288.144 28.9482 284.486 28.9226 280.831 28.9846C279.982 28.9991 279.143 29.2601 278.299 29.4075C276.836 29.2748 275.393 28.8258 273.895 28.4883C272.943 28.2739 271.899 28.0966 270.912 28.1278C268.362 28.2076 265.823 28.4361 263.274 28.5493C262.676 28.5759 261.989 28.4646 261.459 28.2723C259.154 27.4368 256.822 27.4289 254.39 27.9696C253.956 28.0661 253.403 27.9348 252.908 27.8905C251.374 27.7529 249.771 27.3458 248.323 27.5211C245.71 27.8376 243.402 27.6672 241.102 26.7812C239.868 26.3058 238.603 26.378 237.422 27.1105C236.852 27.463 235.925 27.6301 235.121 27.7165C234.15 27.8209 233.13 27.7037 232.147 27.7769C231.701 27.8104 230.993 28.0221 230.915 28.2371C230.444 29.5283 229.899 30.8618 231.528 32.0108C232.049 33.4536 232.663 34.9125 229.897 35.7053C229.765 35.7431 229.706 35.8977 229.616 35.9991C228.954 36.7473 228.09 37.2929 226.788 37.5523C225.128 37.8828 224.225 38.7252 223.81 39.8325C223.262 41.2947 221.359 41.8716 219.6 42.1647C216.24 42.7254 212.434 42.3269 209.902 44.4643C209.807 44.5444 209.589 44.5855 209.422 44.5953C207.681 44.6981 205.938 44.8737 204.197 44.8701C200.107 44.8612 196.015 44.8064 191.931 44.6813C190.626 44.6413 189.344 44.3048 188.043 44.1361C186.422 43.926 184.791 43.7543 183.167 43.5566C181.769 43.3866 180.325 43.3039 178.991 43.0018C177.206 42.5977 175.328 41.9284 173.618 42.6322C170.685 43.8403 167.47 43.4601 164.437 43.5084C160.698 43.5681 156.932 43.0537 153.192 42.7152C152.411 42.6443 151.694 42.256 150.943 42.0193C150.213 41.7895 149.466 41.3571 148.749 41.3771C145.668 41.4625 142.597 41.8046 139.519 41.8259C133.908 41.8646 128.296 41.7327 122.683 41.6972C121.939 41.6926 121.081 41.7018 120.466 41.9329C117.502 43.0478 114.297 42.6079 111.181 42.6489C109.937 42.6654 108.615 42.1375 107.445 42.2829C101.965 42.9651 97.2153 41.7409 92.5656 40.0358C91.9017 39.7922 91.0121 39.8046 90.2192 39.7518C89.8333 39.7262 89.4097 39.8969 89.0375 39.8519C86.9486 39.5991 84.8865 39.1973 82.7835 39.0538C79.3106 38.8168 75.8123 38.7508 72.3273 38.5883C68.9472 38.4308 65.7753 39.194 62.5056 39.4997C57.8989 39.9301 53.1989 39.8946 48.5457 40.1237C45.6776 40.2652 42.8262 40.5528 39.961 40.7314C35.6469 40.9999 31.6616 42.6466 27.153 42.104C26.8853 42.0718 26.5844 42.1726 26.2972 42.2044C22.9244 42.5797 19.5473 42.9382 16.18 43.3347C14.5859 43.5225 12.8293 43.5589 11.4687 44.0599C9.3515 44.8393 6.40344 45.038 4.01752 44.9943C4.01752 36.5701 4.01752 28.4267 4.01752 19.7618C4.01166 19.3121 4.13916 18.8062 4.01752 18.3578Z" fill="#FFEFE3"/>
</g>
<defs>
<filter id="filter0_d_1_28073" x="0" y="0" width="369" height="53" filterUnits="userSpaceOnUse" color-interpolation-filters="sRGB">
<feFlood flood-opacity="0" result="BackgroundImageFix"/>
<feColorMatrix in="SourceAlpha" type="matrix" values="0 0 0 0 0 0 0 0 0 0 0 0 0 0 0 0 0 0 127 0" result="hardAlpha"/>
<feOffset dy="4"/>
<feGaussianBlur stdDeviation="2"/>
<feComposite in2="hardAlpha" operator="out"/>
<feColorMatrix type="matrix" values="0 0 0 0 0 0 0 0 0 0 0 0 0 0 0 0 0 0 0.25 0"/>
<feBlend mode="normal" in2="BackgroundImageFix" result="effect1_dropShadow_1_28073"/>
<feBlend mode="normal" in="SourceGraphic" in2="effect1_dropShadow_1_28073" result="shape"/>
</filter>
</defs>
</svg>
