<svg width="283" height="44" viewBox="0 0 283 44" fill="none" xmlns="http://www.w3.org/2000/svg">
<circle cx="19.2728" cy="24.4073" r="18.9297" transform="rotate(-1 19.2728 24.4073)" fill="#F9F9F9"/>
<g clip-path="url(#clip0_1_22800)">
<path d="M33.5494 24.1583C33.4206 16.7823 26.9244 10.9144 19.0397 11.0521C11.155 11.1897 4.86756 17.2807 4.9963 24.6567C5.11266 31.3228 10.4298 36.7569 17.2724 37.6396L17.1095 28.307L13.4846 28.3703L13.4172 24.5098L17.0421 24.4465L16.9908 21.5041C16.9323 18.1569 19.0315 16.2708 22.2925 16.2139C23.8545 16.1866 25.4929 16.4189 25.4929 16.4189L25.5502 19.7056L23.75 19.7371C21.9765 19.768 21.4414 20.8071 21.4598 21.8633L21.5035 24.3686L25.4631 24.2995L24.8975 28.1711L21.5709 28.2292L21.7338 37.5618C28.5415 36.4408 33.6657 30.8244 33.5494 24.1583Z" fill="#1877F2"/>
<path d="M24.8975 28.1712L25.463 24.2996L21.5035 24.3687L21.4598 21.8634C21.4414 20.8072 21.9765 19.7681 23.7499 19.7371L25.5502 19.7057L25.4928 16.419C25.4928 16.419 23.8545 16.1867 22.2925 16.2139C19.0314 16.2709 16.9323 18.157 16.9907 21.5042L17.0421 24.4466L13.4172 24.5098L13.4846 28.3704L17.1095 28.3071L17.2724 37.6397C18.7543 37.8303 20.2594 37.8041 21.7338 37.5618L21.5709 28.2292L24.8975 28.1712Z" fill="#F8F8F8"/>
</g>
<circle cx="80.1488" cy="22.2815" r="18.9297" transform="rotate(-1 80.1488 22.2815)" fill="#F9F9F9"/>
<g clip-path="url(#clip1_1_22800)">
<path d="M83.936 11.62L75.9917 11.7587C74.236 11.7894 72.5643 12.5162 71.3444 13.7794C70.1246 15.0426 69.4565 16.7387 69.4871 18.4944L69.6258 26.4386C69.6565 28.1944 70.3833 29.8661 71.6465 31.086C72.9097 32.3058 74.6057 32.9739 76.3615 32.9432L84.3057 32.8046C86.0615 32.7739 87.7332 32.0471 88.953 30.7839C90.1729 29.5207 90.841 27.8246 90.8103 26.0689L90.6717 18.1247C90.641 16.3689 89.9142 14.6972 88.651 13.4773C87.3878 12.2575 85.6917 11.5894 83.936 11.62V11.62ZM88.8243 26.1035C88.8689 28.6589 86.8264 30.7739 84.2711 30.8185L76.3269 30.9572C73.7715 31.0018 71.6565 28.9594 71.6119 26.404L71.4732 18.4598C71.4286 15.9044 73.471 13.7894 76.0264 13.7448L83.9706 13.6061C86.526 13.5615 88.641 15.6039 88.6856 18.1593L88.8243 26.1035Z" fill="url(#paint0_linear_1_22800)"/>
<path d="M80.0564 16.9854C78.6518 17.01 77.3144 17.5915 76.3385 18.602C75.3627 19.6126 74.8282 20.9694 74.8527 22.374C74.8772 23.7786 75.4587 25.116 76.4693 26.0919C77.4798 27.0678 78.8367 27.6022 80.2413 27.5777C81.6459 27.5532 82.9833 26.9717 83.9591 25.9611C84.935 24.9506 85.4695 23.5937 85.445 22.1891C85.4204 20.7845 84.839 19.4472 83.8284 18.4713C82.8178 17.4954 81.461 16.9609 80.0564 16.9854ZM80.2066 25.5917C79.329 25.6059 78.4816 25.2715 77.8502 24.6618C77.2189 24.0521 76.8551 23.2169 76.8387 22.3393C76.8069 20.5135 78.2665 19.0033 80.0911 18.9715C81.9156 18.9396 83.427 20.398 83.4589 22.2238C83.4908 24.0483 82.0311 25.5598 80.2066 25.5917Z" fill="url(#paint1_linear_1_22800)"/>
<path d="M85.755 17.1948C86.1448 17.188 86.4552 16.8665 86.4484 16.4767C86.4416 16.087 86.1201 15.7765 85.7304 15.7833C85.3406 15.7901 85.0302 16.1116 85.037 16.5014C85.0438 16.8911 85.3653 17.2016 85.755 17.1948Z" fill="url(#paint2_linear_1_22800)"/>
</g>
<circle cx="141.032" cy="21.2181" r="18.9297" transform="rotate(-1 141.032 21.2181)" fill="#F9F9F9"/>
<g clip-path="url(#clip2_1_22800)">
<path d="M151.521 15.1267C150.73 15.4882 149.891 15.7339 149.03 15.8562C149.93 15.301 150.595 14.4351 150.899 13.4224C150.056 13.9422 149.131 14.314 148.163 14.5218C147.557 13.8963 146.776 13.4678 145.923 13.2918C145.069 13.1158 144.183 13.2005 143.378 13.5349C142.574 13.8693 141.888 14.438 141.411 15.1669C140.934 15.8959 140.687 16.7516 140.702 17.6227C140.709 17.967 140.743 18.2975 140.82 18.6113C139.091 18.5568 137.393 18.1379 135.837 17.382C134.28 16.6261 132.901 15.5503 131.789 14.2248C131.248 15.1903 131.096 16.3257 131.362 17.3998C131.629 18.4739 132.295 19.4059 133.225 20.0061C132.537 19.9997 131.861 19.828 131.254 19.5054L131.255 19.5531C131.273 20.556 131.637 21.5218 132.284 22.2879C132.931 23.0541 133.823 23.5739 134.809 23.7597C134.439 23.8641 134.057 23.9189 133.672 23.9226C133.397 23.9323 133.12 23.9123 132.849 23.8628C133.145 24.7199 133.699 25.4642 134.435 25.9934C135.171 26.5225 136.053 26.8104 136.96 26.8174C135.444 28.0465 133.559 28.7318 131.607 28.7637C131.251 28.7699 130.909 28.76 130.567 28.7223C132.575 29.9673 134.901 30.6039 137.264 30.5549C145.255 30.4155 149.509 23.719 149.409 17.9807C149.406 17.7887 149.396 17.6034 149.383 17.4195C150.229 16.7915 150.953 16.0146 151.521 15.1267V15.1267Z" fill="#03A9F4"/>
</g>
<circle cx="201.914" cy="20.1556" r="18.9297" transform="rotate(-1 201.914 20.1556)" fill="#F9F9F9"/>
<path fill-rule="evenodd" clip-rule="evenodd" d="M211.639 13.6786C211.037 12.6756 210.401 12.4999 209.112 12.4505C207.823 12.3866 204.587 12.405 201.784 12.4516C198.975 12.4983 195.739 12.5876 194.455 12.6929C193.171 12.7864 192.541 12.9819 191.971 14.0056C191.389 15.0269 191.112 16.774 191.168 19.8407L191.168 19.8512C191.224 22.9048 191.565 24.6547 192.184 25.6455C192.791 26.6483 193.427 26.8214 194.714 26.8853C196.002 26.9374 199.24 26.9268 202.048 26.8801C204.851 26.8335 208.086 26.7364 209.373 26.6428C210.659 26.5362 211.289 26.342 211.853 25.3197C212.441 24.3088 212.715 22.5487 212.659 19.4951L212.658 19.4846C212.602 16.4166 212.264 14.6798 211.639 13.6786V13.6786Z" fill="#F44336"/>
<path fill-rule="evenodd" clip-rule="evenodd" d="M199.3 23.6442L199.156 15.7761L205.942 19.5985L199.3 23.6442Z" fill="#FAFAFA"/>
<defs>
<linearGradient id="paint0_linear_1_22800" x1="71.6459" y1="31.0866" x2="88.6516" y2="13.4767" gradientUnits="userSpaceOnUse">
<stop stop-color="#FFC107"/>
<stop offset="0.507" stop-color="#F44336"/>
<stop offset="0.99" stop-color="#9C27B0"/>
</linearGradient>
<linearGradient id="paint1_linear_1_22800" x1="76.4698" y1="26.0913" x2="83.8278" y2="18.4718" gradientUnits="userSpaceOnUse">
<stop stop-color="#FFC107"/>
<stop offset="0.507" stop-color="#F44336"/>
<stop offset="0.99" stop-color="#9C27B0"/>
</linearGradient>
<linearGradient id="paint2_linear_1_22800" x1="85.2522" y1="16.9969" x2="86.2331" y2="15.9812" gradientUnits="userSpaceOnUse">
<stop stop-color="#FFC107"/>
<stop offset="0.507" stop-color="#F44336"/>
<stop offset="0.99" stop-color="#9C27B0"/>
</linearGradient>
<clipPath id="clip0_1_22800">
<rect width="28.5574" height="26.715" fill="white" transform="translate(4.76318 11.3013) rotate(-1)"/>
</clipPath>
<clipPath id="clip1_1_22800">
<rect width="21.1878" height="21.1878" fill="white" transform="translate(69.3716 11.8743) rotate(-1)"/>
</clipPath>
<clipPath id="clip2_1_22800">
<rect width="21.1878" height="21.1878" fill="white" transform="translate(130.254 10.8108) rotate(-1)"/>
</clipPath>
</defs>
</svg>
