<svg width="29" height="28" viewBox="0 0 29 28" fill="none" xmlns="http://www.w3.org/2000/svg">
<path d="M26.8422 18.4288C26.7867 18.4287 26.7315 18.4192 26.6791 18.4007C26.6191 18.3793 26.5639 18.3463 26.5166 18.3035C26.4693 18.2607 26.4309 18.2091 26.4036 18.1515C26.3763 18.0939 26.3606 18.0315 26.3574 17.9678C26.3542 17.9042 26.3636 17.8405 26.385 17.7805C26.6013 17.1715 26.7699 16.5466 26.8893 15.9115C26.9134 15.785 26.9867 15.6733 27.0931 15.6009C27.1996 15.5285 27.3304 15.5013 27.4569 15.5254C27.5833 15.5495 27.6951 15.6228 27.7675 15.7292C27.8399 15.8357 27.867 15.9665 27.8429 16.093C27.7142 16.7773 27.5324 17.4505 27.2994 18.1066C27.2657 18.2009 27.2037 18.2825 27.1219 18.3402C27.04 18.3979 26.9424 18.4289 26.8422 18.4288Z" fill="#F4F4F4"/>
<path d="M23.7946 23.2821C23.6992 23.2817 23.606 23.2532 23.5267 23.2002C23.4474 23.1471 23.3855 23.0719 23.3488 22.9838C23.312 22.8958 23.302 22.7989 23.32 22.7052C23.338 22.6115 23.3832 22.5252 23.45 22.4571C24.018 21.8845 24.5296 21.2586 24.9778 20.5881C25.0492 20.481 25.1603 20.4067 25.2865 20.3815C25.4128 20.3563 25.5439 20.3822 25.6509 20.4537C25.758 20.5251 25.8324 20.6362 25.8576 20.7624C25.8828 20.8886 25.8568 21.0197 25.7854 21.1268C25.3024 21.848 24.7511 22.521 24.1392 23.1365C24.0942 23.1824 24.0406 23.2189 23.9815 23.2439C23.9223 23.2688 23.8588 23.2819 23.7946 23.2821Z" fill="#F4F4F4"/>
<path d="M25.854 2.45681C25.7691 2.41818 25.6749 2.40483 25.5826 2.41834C25.4904 2.43185 25.404 2.47166 25.3337 2.533L23.9064 3.78416C22.0951 2.04533 19.8373 0.842615 17.3837 0.309588C14.9301 -0.223439 12.3768 -0.0659096 10.0073 0.764679C7.63781 1.59527 5.54495 3.0664 3.96114 5.01469C2.37733 6.96298 1.36458 9.31216 1.03536 11.8013C0.706139 14.2905 1.07334 16.8222 2.09618 19.1152C3.11902 21.4083 4.75747 23.3729 6.82953 24.7909C8.9016 26.209 11.3262 27.0249 13.834 27.1481C16.3418 27.2712 18.8347 26.6969 21.0357 25.4887C21.1486 25.4268 21.2323 25.3226 21.2683 25.199C21.3044 25.0754 21.2898 24.9425 21.2279 24.8296C21.166 24.7168 21.0618 24.6331 20.9382 24.597C20.8146 24.561 20.6817 24.5755 20.5688 24.6375C18.5267 25.7614 16.2132 26.2979 13.8849 26.1875C11.5565 26.0771 9.30417 25.3241 7.37755 24.012C5.45094 22.6998 3.92531 20.8798 2.96976 18.7537C2.01421 16.6275 1.66608 14.2783 1.96396 11.9664C2.26183 9.65457 3.19407 7.47032 4.65735 5.65584C6.12062 3.84136 8.05777 2.46751 10.2541 1.68659C12.4504 0.905672 14.82 0.748183 17.1003 1.23158C19.3806 1.71498 21.4825 2.82039 23.1731 4.42527L21.4531 5.92977C21.3786 5.99463 21.3257 6.08067 21.3015 6.1764C21.2772 6.27212 21.2827 6.37297 21.3172 6.46548C21.3518 6.55799 21.4137 6.63777 21.4948 6.69415C21.5759 6.75053 21.6722 6.78084 21.771 6.78102H25.6536C25.7823 6.78102 25.9057 6.72989 25.9967 6.63887C26.0877 6.54786 26.1389 6.42441 26.1389 6.2957V2.89845C26.1388 2.80525 26.1119 2.71404 26.0614 2.63573C26.0109 2.55741 25.9389 2.4953 25.854 2.45681Z" fill="#F4F4F4"/>
<path d="M27.5964 13.576C27.4707 13.5761 27.3499 13.5274 27.2594 13.4403C27.1689 13.3531 27.1157 13.2342 27.1111 13.1086C27.0887 12.4819 27.0176 11.8578 26.8985 11.2421C26.8758 11.1165 26.9034 10.9871 26.9755 10.8818C27.0475 10.7764 27.1581 10.7037 27.2834 10.6793C27.4086 10.655 27.5384 10.6809 27.6447 10.7515C27.751 10.8222 27.8251 10.9318 27.8512 11.0567C27.98 11.7217 28.0571 12.3958 28.0817 13.0727C28.0841 13.1365 28.0739 13.2001 28.0517 13.2599C28.0295 13.3197 27.9958 13.3745 27.9524 13.4213C27.909 13.468 27.8568 13.5057 27.7988 13.5323C27.7408 13.5588 27.6781 13.5737 27.6143 13.576H27.5964Z" fill="#F4F4F4"/>
<path d="M19.5955 9.51218L16.0929 6.53273C15.8965 6.36469 15.6486 6.26862 15.3902 6.26035C15.1318 6.25208 14.8783 6.33211 14.6714 6.48724L13.1533 7.62444L12.198 6.66919C11.985 6.45739 11.6967 6.3385 11.3963 6.3385C11.0959 6.3385 10.8077 6.45739 10.5946 6.66919L7.7516 9.54061C7.34556 9.59662 6.97326 9.79697 6.70282 10.105C6.43239 10.413 6.28192 10.8081 6.27893 11.218V19.1784C6.27893 19.6308 6.45865 20.0646 6.77855 20.3845C7.09845 20.7044 7.53232 20.8842 7.98473 20.8842H19.3567C19.8091 20.8842 20.243 20.7044 20.5629 20.3845C20.8828 20.0646 21.0625 19.6308 21.0625 19.1784V11.218C21.0666 10.8041 20.92 10.4028 20.6501 10.0889C20.3802 9.77511 20.0054 9.57012 19.5955 9.51218ZM19.9253 16.3354H18.7881C18.4865 16.3354 18.1972 16.2156 17.984 16.0023C17.7707 15.789 17.6509 15.4998 17.6509 15.1982C17.6509 14.8966 17.7707 14.6073 17.984 14.394C18.1972 14.1808 18.4865 14.061 18.7881 14.061H19.9253V16.3354ZM15.3765 7.397L17.8215 9.51218H15.041L13.9664 8.43753L15.3765 7.397ZM11.3963 7.47092L13.4376 9.51218H9.35505L11.3963 7.47092ZM19.3567 19.747H7.98473C7.83392 19.747 7.6893 19.6871 7.58267 19.5804C7.47603 19.4738 7.41613 19.3292 7.41613 19.1784V11.218C7.41613 11.0672 7.47603 10.9226 7.58267 10.8159C7.6893 10.7093 7.83392 10.6494 7.98473 10.6494H19.3567C19.5075 10.6494 19.6521 10.7093 19.7588 10.8159C19.8654 10.9226 19.9253 11.0672 19.9253 11.218V12.9238H18.7881C18.1849 12.9238 17.6064 13.1634 17.1799 13.5899C16.7533 14.0165 16.5137 14.595 16.5137 15.1982C16.5137 15.8014 16.7533 16.3799 17.1799 16.8064C17.6064 17.2329 18.1849 17.4726 18.7881 17.4726H19.9253V19.1784C19.9253 19.3292 19.8654 19.4738 19.7588 19.5804C19.6521 19.6871 19.5075 19.747 19.3567 19.747Z" fill="#F4F4F4"/>
<path d="M18.3834 14.7949C18.2795 14.9039 18.2206 15.0481 18.2185 15.1986C18.2185 15.3494 18.2784 15.494 18.385 15.6007C18.4917 15.7073 18.6363 15.7672 18.7871 15.7672C18.9379 15.7672 19.0825 15.7073 19.1892 15.6007C19.2958 15.494 19.3557 15.3494 19.3557 15.1986C19.3564 15.0857 19.3234 14.9751 19.2609 14.881C19.1985 14.7869 19.1095 14.7135 19.0052 14.6702C18.9008 14.6269 18.786 14.6156 18.6753 14.6378C18.5645 14.66 18.4629 14.7147 18.3834 14.7949Z" fill="#F4F4F4"/>
</svg>
