<svg width="40" height="41" viewBox="0 0 40 41" fill="none" xmlns="http://www.w3.org/2000/svg">
<path d="M39.3778 0.948364H6.45903C3.28465 0.948364 0.711308 3.52171 0.711308 6.69609V34.9122C0.711308 38.0866 3.28465 40.6599 6.45903 40.6599H39.3778V0.948364Z" fill="#A95210"/>
<g clip-path="url(#clip0_1_33698)">
<path d="M27.5311 13.5602L30.4946 12.7929L20.064 10.0923L9.59375 12.7931L13.4272 13.7818V18.6428L13.7266 18.7539C12.6837 20.0968 12.0604 21.7914 12.0604 23.6314C12.0604 27.9788 15.5381 31.5156 19.8128 31.5156C24.0875 31.5156 27.5653 27.9788 27.5653 23.6314C27.5653 21.7788 26.9333 20.0738 25.8775 18.7266L26.1033 18.6371V13.9299L27.0583 13.6809V15.4125L26.6242 16.2723V18.2269H28.0568V16.241L27.5424 15.4029L27.5311 13.5602ZM20.0636 10.8211L27.6793 12.7929L20.0636 14.7647L12.419 12.7931L20.0636 10.8211ZM15.7678 19.5114C15.3166 19.4464 14.8507 19.3698 14.3784 19.2817L14.1616 19.2412L14.3011 19.0676C14.3219 19.0416 14.3437 19.0165 14.365 18.9908L15.7678 19.5114ZM12.7181 23.1637C12.7909 22.016 13.1379 20.8898 13.7215 19.9061L13.7685 19.827L13.8578 19.8447C14.4975 19.9711 15.1229 20.0777 15.7165 20.1614L15.8607 20.1818L15.8248 20.3253C15.6018 21.217 15.4735 22.1758 15.4435 23.1762L15.4397 23.304H12.7091L12.7181 23.1637ZM13.768 27.4351L13.721 27.3558C13.1377 26.3723 12.7909 25.2502 12.7181 24.1029L12.7091 23.9662H15.4397L15.4435 24.0903C15.4735 25.0905 15.6017 26.0476 15.8247 26.9393L15.8606 27.0817L15.7164 27.1015C15.1203 27.1855 14.4948 27.2918 13.8574 27.4177L13.768 27.4351ZM17.1527 30.3357C16.0444 29.8778 15.0585 29.1379 14.3016 28.1959L14.162 28.0221L14.379 27.9818C14.9168 27.8818 15.443 27.7965 15.9429 27.7283L16.0483 27.7139L16.0832 27.8161C16.3977 28.7375 16.8079 29.5156 17.3024 30.1291L17.627 30.5317L17.1527 30.3357ZM19.5048 30.8416L19.3367 30.8005C18.3082 30.5393 17.369 29.4439 16.7655 27.7952L16.7052 27.6347L16.8719 27.6173C17.7002 27.5308 18.5434 27.4802 19.3665 27.4666L19.5048 27.4644V30.8416H19.5048ZM19.5048 26.8117L19.3703 26.8137C18.4676 26.8281 17.5412 26.8871 16.623 26.9889L16.5104 27.0012L16.4807 26.8914C16.2509 26.0171 16.1178 25.0804 16.0858 24.0987L16.0809 23.9662H19.5048V26.8117ZM16.0809 23.304L16.0854 23.1678C16.1174 22.1861 16.2501 21.2454 16.4799 20.3711L16.5088 20.2615L16.6198 20.2738C17.1365 20.331 17.6554 20.3741 18.1722 20.4038L19.5048 20.8984V23.304H16.0809V23.304ZM21.6778 20.3903C22.1199 20.3614 22.5635 20.3227 23.0059 20.2737L23.117 20.2614L23.1458 20.3712C23.3757 21.2454 23.5085 22.1858 23.5406 23.1678L23.5451 23.304H20.1125V21.0104L21.6778 20.3903ZM20.1125 23.9662H23.5451L23.5406 24.0987C23.5085 25.0807 23.3757 26.0196 23.1459 26.8937L23.117 27.0024L23.0059 26.9896C22.0874 26.8877 21.1536 26.8285 20.2512 26.814L20.1125 26.8117V23.9662H20.1125ZM20.2848 30.8005L20.1125 30.8416V27.4644L20.2554 27.4666C21.0781 27.4802 21.9207 27.5309 22.7494 27.6173L22.9195 27.6348L22.8568 27.7953C22.2533 29.444 21.3133 30.5393 20.2848 30.8005ZM25.3241 28.1959C24.5673 29.1378 23.5815 29.8777 22.4733 30.3356L21.9989 30.5316L22.3235 30.1289C22.8181 29.5155 23.2283 28.7374 23.5427 27.8163L23.5775 27.714L23.683 27.7284C24.1835 27.7967 24.7096 27.882 25.2467 27.9818L25.4637 28.0222L25.3241 28.1959ZM26.9076 24.1029C26.8348 25.2502 26.4879 26.3744 25.9046 27.358L25.8576 27.4362L25.7682 27.418C25.1311 27.2921 24.5057 27.1854 23.9095 27.1013L23.7653 27.0808L23.8012 26.9373C24.0242 26.0458 24.1524 25.0908 24.1824 24.0903L24.1862 23.9662H26.9165L26.9076 24.1029ZM26.9076 23.1637L26.9165 23.304H24.1862L24.1824 23.1762C24.1524 22.1758 24.0242 21.2168 23.8012 20.3253L23.7653 20.182L23.9095 20.1618C24.5056 20.0778 25.131 19.9713 25.7682 19.8455L25.8576 19.8278L25.9046 19.9071C26.4879 20.8906 26.8348 22.0163 26.9076 23.1637ZM25.3244 19.0675L25.4638 19.2409L25.2472 19.2815C24.7799 19.369 24.3407 19.4426 23.9115 19.5054L25.2481 18.9759C25.2735 19.0065 25.2995 19.0365 25.3244 19.0675ZM25.4087 18.1544L19.9566 20.314L14.1218 18.1488V13.961L20.064 15.4936L25.4087 14.1097V18.1544Z" fill="#FCFCFC"/>
</g>
<defs>
<clipPath id="clip0_1_33698">
<rect width="20.9008" height="21.4233" fill="white" transform="translate(9.59375 10.0923)"/>
</clipPath>
</defs>
</svg>
