<svg width="346" height="91" viewBox="0 0 346 91" fill="none" xmlns="http://www.w3.org/2000/svg">
<path fill-rule="evenodd" clip-rule="evenodd" d="M173 73.6214C192.109 73.6214 207.6 58.1304 207.6 39.0214L346 39.0214V74.6238C346 83.6247 338.703 90.9214 329.702 90.9214H174.236H16.2976C7.29668 90.9214 0 83.6247 0 74.6238V39.0214L138.4 39.0214C138.4 58.1304 153.891 73.6214 173 73.6214Z" fill="#A95210"/>
<g filter="url(#filter0_d_1_22007)">
<circle cx="173" cy="39.0214" r="33.3643" fill="#833800"/>
<path d="M172.3 61.2414C167.94 61.2414 163.569 61.1972 159.209 61.2635C157.223 61.2967 155.914 59.9029 155.936 57.9892C155.98 54.6707 155.936 51.3521 155.958 48.0336C155.969 46.4738 156.834 45.3455 158.243 45.0358C158.51 44.9805 158.798 44.9694 159.064 44.9694C167.907 44.9694 176.738 44.9694 185.581 44.9694C187.345 44.9694 188.61 46.1088 188.632 47.8566C188.676 51.3632 188.676 54.8587 188.632 58.3653C188.61 60.0799 187.345 61.2304 185.614 61.2304C181.176 61.2414 176.738 61.2414 172.3 61.2414ZM179.534 50.5225C180.677 50.5225 181.786 50.4893 182.885 50.5335C183.484 50.5557 183.484 50.2349 183.473 49.8035C183.462 49.4052 183.528 49.0402 182.907 49.0512C181.387 49.0844 179.878 49.0734 178.358 49.0512C177.903 49.0402 177.781 49.2172 177.792 49.6375C177.803 51.9605 177.803 54.2835 177.792 56.6065C177.792 57.0047 177.914 57.1596 178.336 57.1596C179.867 57.1485 181.409 57.1375 182.94 57.1706C183.528 57.1817 183.484 56.8388 183.484 56.4516C183.484 56.0645 183.573 55.6662 182.929 55.6884C181.953 55.7326 180.965 55.7105 179.989 55.6884C179.823 55.6884 179.534 55.5224 179.523 55.4118C179.467 54.903 179.501 54.3941 179.501 53.8078C180.266 53.8078 180.965 53.7968 181.664 53.8078C182.019 53.8189 182.186 53.6862 182.152 53.3322C182.141 53.1884 182.141 53.0335 182.152 52.8897C182.197 52.4804 182.019 52.3366 181.609 52.3477C180.932 52.3698 180.244 52.3587 179.534 52.3587C179.534 51.7282 179.534 51.153 179.534 50.5225ZM170.325 49.0734C170.381 49.3057 170.403 49.4163 170.436 49.5158C171.102 51.7172 171.768 53.9185 172.445 56.1198C172.833 57.3698 172.589 57.1043 173.854 57.1596C174.308 57.1817 174.541 57.049 174.675 56.5844C175.351 54.3278 176.061 52.0822 176.76 49.8366C176.827 49.6154 176.871 49.3942 176.96 49.0734C176.45 49.0734 176.028 49.0402 175.618 49.0955C175.44 49.1176 175.196 49.3057 175.141 49.4716C174.919 50.1464 174.752 50.8543 174.564 51.5402C174.286 52.5468 174.02 53.5424 173.743 54.549C173.576 54.3831 173.51 54.2171 173.465 54.0512C173.055 52.5579 172.655 51.0645 172.234 49.5822C172.178 49.3942 172.023 49.1287 171.879 49.1066C171.391 49.0402 170.902 49.0734 170.325 49.0734ZM161.128 53.1109C161.128 54.2946 161.128 55.4671 161.128 56.6507C161.128 56.9383 161.15 57.1596 161.527 57.1596C163.158 57.1485 164.778 57.1596 166.409 57.1375C166.531 57.1375 166.698 56.9273 166.753 56.7724C166.808 56.6065 166.753 56.4074 166.775 56.2304C166.82 55.8211 166.642 55.6884 166.232 55.6884C165.289 55.7105 164.345 55.6773 163.402 55.6994C162.981 55.7105 162.825 55.5888 162.837 55.1463C162.859 53.4871 162.859 51.8278 162.848 50.1685C162.837 48.9406 163.036 49.0844 161.716 49.0512C161.283 49.0402 161.128 49.184 161.139 49.6154C161.139 50.788 161.128 51.9495 161.128 53.1109ZM169.371 53.1109C169.371 52.0933 169.382 51.0866 169.371 50.0689C169.36 48.9296 169.527 49.1066 168.373 49.0623C167.829 49.0402 167.685 49.2282 167.696 49.7481C167.718 51.8499 167.696 53.9516 167.707 56.0534C167.718 57.2923 167.519 57.1375 168.828 57.1817C169.283 57.1928 169.394 57.0268 169.382 56.6065C169.36 55.4229 169.371 54.2614 169.371 53.1109Z" fill="white"/>
<path d="M172.267 43.1553C168.606 43.1553 164.945 43.1443 161.283 43.1664C160.851 43.1664 160.618 43.0226 160.418 42.6575C155.559 34.1178 160.773 23.5648 170.536 22.2042C178.07 21.1533 185.181 26.7506 185.936 34.3058C186.235 37.2815 185.658 40.058 184.194 42.6575C183.983 43.0226 183.75 43.1664 183.317 43.1664C179.623 43.1553 175.951 43.1553 172.267 43.1553ZM169.272 34.5602C169.26 35.9651 169.249 37.3589 169.26 38.7638C169.272 39.7151 169.771 40.0027 170.581 39.516C172.844 38.1222 175.096 36.7173 177.348 35.3014C178.014 34.881 178.025 34.3501 177.348 33.9297C175.085 32.5138 172.811 31.0979 170.525 29.693C169.782 29.2395 169.272 29.5382 169.26 30.4121C169.272 31.8058 169.272 33.1886 169.272 34.5602Z" fill="white"/>
<path d="M153.229 35.8103C153.229 26.8945 159.342 19.118 168.084 17.2817C175.451 15.733 181.875 17.7463 186.768 23.4985C191.949 29.5935 192.692 36.4961 189.63 43.8412C189.608 43.8965 189.586 43.9408 189.564 43.9961C189.386 44.3611 189.098 44.5492 188.709 44.3501C188.321 44.151 188.31 43.8191 188.487 43.4541C189.741 40.8877 190.318 38.1554 190.207 35.3125C190.041 30.8103 188.432 26.8613 185.314 23.587C182.064 20.1799 178.07 18.2773 173.354 18.0118C168.173 17.7242 163.658 19.3724 159.919 22.9564C156.058 26.64 154.272 31.2196 154.405 36.5183C154.46 38.8966 155.037 41.1864 156.069 43.3434C156.257 43.7417 156.357 44.0846 155.914 44.339C155.547 44.5602 155.248 44.3833 154.982 43.8412C153.828 41.4408 153.229 38.7085 153.229 35.8103Z" fill="white"/>
</g>
<defs>
<filter id="filter0_d_1_22007" x="134.693" y="0.714247" width="76.6142" height="76.6143" filterUnits="userSpaceOnUse" color-interpolation-filters="sRGB">
<feFlood flood-opacity="0" result="BackgroundImageFix"/>
<feColorMatrix in="SourceAlpha" type="matrix" values="0 0 0 0 0 0 0 0 0 0 0 0 0 0 0 0 0 0 127 0" result="hardAlpha"/>
<feOffset/>
<feGaussianBlur stdDeviation="2.47143"/>
<feComposite in2="hardAlpha" operator="out"/>
<feColorMatrix type="matrix" values="0 0 0 0 1 0 0 0 0 1 0 0 0 0 1 0 0 0 0.5 0"/>
<feBlend mode="normal" in2="BackgroundImageFix" result="effect1_dropShadow_1_22007"/>
<feBlend mode="normal" in="SourceGraphic" in2="effect1_dropShadow_1_22007" result="shape"/>
</filter>
</defs>
</svg>
