<svg width="346" height="91" viewBox="0 0 346 91" fill="none" xmlns="http://www.w3.org/2000/svg">
<path fill-rule="evenodd" clip-rule="evenodd" d="M173 73.7C192.109 73.7 207.6 58.2091 207.6 39.1L346 39.1V74.7024C346 83.7033 338.703 91 329.702 91H174.236H16.2976C7.29668 91 0 83.7033 0 74.7024V39.1L138.4 39.1C138.4 58.2091 153.891 73.7 173 73.7Z" fill="#A95210"/>
<g filter="url(#filter0_d_1_22240)">
<circle cx="173" cy="39.1" r="33.3643" fill="#833800"/>
<path d="M172.3 61.32C167.94 61.32 163.569 61.2758 159.209 61.3422C157.223 61.3753 155.913 59.9816 155.936 58.0679C155.98 54.7493 155.936 51.4307 155.958 48.1122C155.969 46.5525 156.834 45.4241 158.243 45.1144C158.51 45.0591 158.798 45.048 159.064 45.048C167.907 45.048 176.738 45.048 185.581 45.048C187.345 45.048 188.609 46.1874 188.632 47.9352C188.676 51.4418 188.676 54.9373 188.632 58.444C188.609 60.1585 187.345 61.309 185.614 61.309C181.176 61.32 176.738 61.32 172.3 61.32ZM179.534 50.6011C180.677 50.6011 181.786 50.5679 182.885 50.6122C183.484 50.6343 183.484 50.3135 183.473 49.8821C183.461 49.4839 183.528 49.1188 182.907 49.1299C181.387 49.1631 179.878 49.152 178.358 49.1299C177.903 49.1188 177.781 49.2958 177.792 49.7162C177.803 52.0391 177.803 54.3621 177.792 56.6851C177.792 57.0833 177.914 57.2382 178.336 57.2382C179.867 57.2272 181.409 57.2161 182.94 57.2493C183.528 57.2603 183.484 56.9174 183.484 56.5303C183.484 56.1431 183.572 55.7449 182.929 55.767C181.953 55.8112 180.965 55.7891 179.989 55.767C179.822 55.767 179.534 55.6011 179.523 55.4904C179.467 54.9816 179.501 54.4728 179.501 53.8865C180.266 53.8865 180.965 53.8754 181.664 53.8865C182.019 53.8975 182.186 53.7648 182.152 53.4108C182.141 53.267 182.141 53.1121 182.152 52.9683C182.197 52.559 182.019 52.4152 181.609 52.4263C180.932 52.4484 180.244 52.4374 179.534 52.4374C179.534 51.8068 179.534 51.2316 179.534 50.6011ZM170.325 49.152C170.381 49.3843 170.403 49.4949 170.436 49.5945C171.102 51.7958 171.768 53.9971 172.444 56.1984C172.833 57.4484 172.589 57.1829 173.853 57.2382C174.308 57.2603 174.541 57.1276 174.674 56.663C175.351 54.4064 176.061 52.1608 176.76 49.9153C176.827 49.694 176.871 49.4728 176.96 49.152C176.45 49.152 176.028 49.1188 175.618 49.1741C175.44 49.1962 175.196 49.3843 175.14 49.5502C174.919 50.225 174.752 50.933 174.564 51.6188C174.286 52.6254 174.02 53.621 173.743 54.6276C173.576 54.4617 173.51 54.2958 173.465 54.1298C173.055 52.6365 172.655 51.1431 172.234 49.6608C172.178 49.4728 172.023 49.2073 171.879 49.1852C171.39 49.1188 170.902 49.152 170.325 49.152ZM161.128 53.1896C161.128 54.3732 161.128 55.5457 161.128 56.7294C161.128 57.017 161.15 57.2382 161.527 57.2382C163.158 57.2272 164.778 57.2382 166.409 57.2161C166.531 57.2161 166.697 57.0059 166.753 56.851C166.808 56.6851 166.753 56.486 166.775 56.309C166.819 55.8997 166.642 55.767 166.231 55.767C165.288 55.7891 164.345 55.7559 163.402 55.7781C162.981 55.7891 162.825 55.6674 162.836 55.225C162.859 53.5657 162.859 51.9064 162.848 50.2471C162.836 49.0193 163.036 49.1631 161.716 49.1299C161.283 49.1188 161.128 49.2626 161.139 49.694C161.139 50.8666 161.128 52.0281 161.128 53.1896ZM169.371 53.1896C169.371 52.1719 169.382 51.1653 169.371 50.1476C169.36 49.0082 169.527 49.1852 168.373 49.1409C167.829 49.1188 167.685 49.3069 167.696 49.8268C167.718 51.9285 167.696 54.0303 167.707 56.132C167.718 57.371 167.518 57.2161 168.828 57.2603C169.282 57.2714 169.393 57.1055 169.382 56.6851C169.36 55.5015 169.371 54.34 169.371 53.1896Z" fill="white"/>
<path d="M172.267 43.234C168.606 43.234 164.944 43.2229 161.283 43.245C160.85 43.245 160.617 43.1012 160.418 42.7362C155.558 34.1964 160.773 23.6434 170.536 22.2828C178.069 21.2319 185.181 26.8292 185.935 34.3845C186.235 37.3601 185.658 40.1367 184.194 42.7362C183.983 43.1012 183.75 43.245 183.317 43.245C179.623 43.234 175.95 43.234 172.267 43.234ZM169.271 34.6389C169.26 36.0438 169.249 37.4376 169.26 38.8424C169.271 39.7937 169.771 40.0813 170.58 39.5946C172.844 38.2008 175.096 36.796 177.348 35.3801C178.014 34.9597 178.025 34.4287 177.348 34.0084C175.085 32.5925 172.81 31.1765 170.525 29.7717C169.782 29.3182 169.271 29.6168 169.26 30.4907C169.271 31.8845 169.271 33.2672 169.271 34.6389Z" fill="white"/>
<path d="M153.229 35.8889C153.229 26.9731 159.342 19.1966 168.084 17.3603C175.451 15.8117 181.875 17.8249 186.768 23.5771C191.949 29.6722 192.692 36.5748 189.63 43.9199C189.608 43.9752 189.586 44.0194 189.564 44.0747C189.386 44.4398 189.098 44.6278 188.709 44.4287C188.321 44.2296 188.31 43.8977 188.487 43.5327C189.741 40.9663 190.318 38.2341 190.207 35.3912C190.041 30.889 188.432 26.9399 185.314 23.6656C182.064 20.2585 178.069 18.3559 173.354 18.0904C168.173 17.8028 163.658 19.451 159.919 23.0351C156.058 26.7187 154.271 31.2983 154.405 36.5969C154.46 38.9752 155.037 41.265 156.069 43.4221C156.257 43.8203 156.357 44.1632 155.913 44.4176C155.547 44.6389 155.248 44.4619 154.981 43.9199C153.828 41.5194 153.229 38.7872 153.229 35.8889Z" fill="white"/>
</g>
<defs>
<filter id="filter0_d_1_22240" x="134.693" y="0.792861" width="76.6142" height="76.6143" filterUnits="userSpaceOnUse" color-interpolation-filters="sRGB">
<feFlood flood-opacity="0" result="BackgroundImageFix"/>
<feColorMatrix in="SourceAlpha" type="matrix" values="0 0 0 0 0 0 0 0 0 0 0 0 0 0 0 0 0 0 127 0" result="hardAlpha"/>
<feOffset/>
<feGaussianBlur stdDeviation="2.47143"/>
<feComposite in2="hardAlpha" operator="out"/>
<feColorMatrix type="matrix" values="0 0 0 0 1 0 0 0 0 1 0 0 0 0 1 0 0 0 0.5 0"/>
<feBlend mode="normal" in2="BackgroundImageFix" result="effect1_dropShadow_1_22240"/>
<feBlend mode="normal" in="SourceGraphic" in2="effect1_dropShadow_1_22240" result="shape"/>
</filter>
</defs>
</svg>
