<svg width="56" height="58" viewBox="0 0 56 58" fill="none" xmlns="http://www.w3.org/2000/svg">
<path d="M55.6602 0H8.27381C3.70431 0 -3.56971e-06 3.70431 -3.56971e-06 8.27381V48.8907C-3.56971e-06 53.4602 3.70431 57.1645 8.2738 57.1645H55.6602V0Z" fill="#A95210"/>
<path d="M18.9998 26.2293C20.9471 26.2293 22.5257 24.6507 22.5257 22.7034C22.5257 20.7561 20.9471 19.1775 18.9998 19.1775C17.0525 19.1775 15.4739 20.7561 15.4739 22.7034C15.4739 24.6507 17.0525 26.2293 18.9998 26.2293Z" stroke="#FCFCFC" stroke-width="0.752353" stroke-linecap="round" stroke-linejoin="round"/>
<path d="M38.979 26.2293C40.9264 26.2293 42.505 24.6507 42.505 22.7034C42.505 20.7561 40.9264 19.1775 38.979 19.1775C37.0317 19.1775 35.4531 20.7561 35.4531 22.7034C35.4531 24.6507 37.0317 26.2293 38.979 26.2293Z" stroke="#FCFCFC" stroke-width="0.752353" stroke-linecap="round" stroke-linejoin="round"/>
<path d="M17.8722 39.1572V42.9592C17.8722 43.6139 17.3457 44.1415 16.6911 44.1415C16.5357 44.142 16.3817 44.1117 16.2381 44.0524C16.0944 43.9932 15.9639 43.9062 15.854 43.7963C15.7442 43.6864 15.6571 43.5559 15.5978 43.4122C15.5386 43.2686 15.5083 43.1146 15.5088 42.9592V39.1572M22.538 39.1572V42.9592C22.538 43.6139 22.0115 44.1415 21.3569 44.1415C21.2016 44.1418 21.0478 44.1115 20.9043 44.0521C20.7607 43.9928 20.6303 43.9057 20.5206 43.7958C20.4108 43.686 20.3239 43.5555 20.2647 43.4119C20.2055 43.2684 20.1753 43.1145 20.1757 42.9592V39.1572" stroke="#FCFCFC" stroke-width="0.752164" stroke-linecap="round" stroke-linejoin="round"/>
<path d="M38.9809 40.3419V43.5293C38.9809 44.1839 38.4543 44.7104 37.7997 44.7104C37.6444 44.7109 37.4906 44.6806 37.347 44.6214C37.2034 44.5623 37.073 44.4753 36.9631 44.3655C36.8532 44.2557 36.7661 44.1254 36.7068 43.9819C36.6475 43.8384 36.6171 43.6845 36.6174 43.5293V40.3419M41.3654 40.3231V43.5105C41.3654 44.1651 40.8378 44.6916 40.1832 44.6916C40.028 44.6919 39.8743 44.6615 39.7308 44.6023C39.5874 44.543 39.457 44.456 39.3473 44.3463C39.2375 44.2365 39.1506 44.1062 39.0913 43.9628C39.0321 43.8194 39.0017 43.6657 39.002 43.5105V40.3231" stroke="#FCFCFC" stroke-width="0.752164" stroke-linecap="round" stroke-linejoin="round"/>
<path d="M26.9579 12.7292C25.4231 12.7292 24.1785 13.7928 24.1785 15.7285C24.1785 17.6641 26.7722 19.5281 28.997 21.5272C31.2206 19.5281 33.8273 17.6876 33.8273 15.7285C33.8273 13.7693 32.5815 12.7281 31.0467 12.7281C30.2381 12.7281 29.5047 13.3333 28.997 13.928C28.4893 13.3369 27.7653 12.7292 26.9579 12.7292Z" stroke="#FCFCFC" stroke-width="0.752164" stroke-linecap="round" stroke-linejoin="round"/>
<path d="M33.1035 30.0291V34.0273C33.1035 34.2647 33.2798 34.4562 33.4972 34.4562H35.0603C35.2777 34.4562 35.454 34.2647 35.454 34.0273V27.5093" stroke="#FCFCFC" stroke-width="0.752164" stroke-linecap="round" stroke-linejoin="round"/>
<path d="M33.1128 30.0902C33.1761 29.3573 33.5119 28.6749 34.0539 28.1776C34.596 27.6804 35.3048 27.4046 36.0403 27.4047" stroke="#FCFCFC" stroke-width="0.751819" stroke-linecap="round" stroke-linejoin="round"/>
<path d="M44.8561 30.0562V34.0273C44.8561 34.2647 44.6798 34.4563 44.4612 34.4563H42.8981C42.6807 34.4563 42.5056 34.2647 42.5056 34.0273V27.5552" stroke="#FCFCFC" stroke-width="0.752164" stroke-linecap="round" stroke-linejoin="round"/>
<path d="M44.8443 30.0902C44.7811 29.3573 44.4453 28.6749 43.9032 28.1776C43.3612 27.6804 42.6523 27.4046 41.9167 27.4047" stroke="#FCFCFC" stroke-width="0.751819" stroke-linecap="round" stroke-linejoin="round"/>
<path d="M35.4517 27.4859V39.1573C35.4517 39.8119 35.9723 40.3325 36.6269 40.3325H41.3279C41.4827 40.334 41.6361 40.3045 41.7794 40.246C41.9226 40.1874 42.0527 40.1009 42.1621 39.9915C42.2715 39.882 42.3581 39.7519 42.4166 39.6087C42.4752 39.4655 42.5046 39.312 42.5032 39.1573L42.4115 27.594M41.932 27.4059H36.0229M35.454 35.6751H42.6466M38.9857 39.8824V38.5991" stroke="#FCFCFC" stroke-width="0.752164"/>
<path d="M17.2374 27.4047C13.1334 37.9726 17.2398 27.4047 13.124 37.982C13.124 38.6366 13.5918 39.1572 14.1888 39.1572H23.813C24.4088 39.1572 25.0634 38.6754 24.8777 37.982C20.7808 27.4481 24.9142 37.982 20.7643 27.4047H17.2374V27.4047Z" stroke="#FCFCFC" stroke-width="0.752164" stroke-linecap="round" stroke-linejoin="round"/>
<path d="M13.7106 26.2294C12.737 26.2294 11.9477 25.4401 11.9477 24.4664C11.9477 23.4927 12.737 22.7034 13.7106 22.7034C14.6843 22.7034 15.4736 23.4927 15.4736 24.4664C15.4736 25.4401 14.6843 26.2294 13.7106 26.2294Z" stroke="#FCFCFC" stroke-width="0.752132"/>
</svg>
