<svg width="346" height="91" viewBox="0 0 346 91" fill="none" xmlns="http://www.w3.org/2000/svg">
<path fill-rule="evenodd" clip-rule="evenodd" d="M173 73.7001C192.109 73.7001 207.6 58.2092 207.6 39.1001L346 39.1001V74.7025C346 83.7034 338.703 91.0001 329.702 91.0001H174.236H16.2976C7.29668 91.0001 0 83.7034 0 74.7025V39.1001L138.4 39.1001C138.4 58.2092 153.891 73.7001 173 73.7001Z" fill="#A95210"/>
<g filter="url(#filter0_d_1_22475)">
<circle cx="173" cy="39.1001" r="33.3643" fill="#833800"/>
<path d="M172.3 61.3201C167.94 61.3201 163.569 61.2759 159.209 61.3423C157.223 61.3755 155.913 59.9817 155.936 58.068C155.98 54.7494 155.936 51.4308 155.958 48.1123C155.969 46.5526 156.834 45.4243 158.243 45.1145C158.51 45.0592 158.798 45.0482 159.064 45.0482C167.907 45.0482 176.738 45.0482 185.581 45.0482C187.345 45.0482 188.609 46.1875 188.632 47.9353C188.676 51.4419 188.676 54.9375 188.632 58.4441C188.609 60.1587 187.345 61.3091 185.614 61.3091C181.176 61.3202 176.738 61.3201 172.3 61.3201ZM179.534 50.6012C180.677 50.6012 181.786 50.568 182.885 50.6123C183.484 50.6344 183.484 50.3136 183.473 49.8822C183.461 49.484 183.528 49.1189 182.907 49.13C181.387 49.1632 179.878 49.1521 178.358 49.13C177.903 49.1189 177.781 49.2959 177.792 49.7163C177.803 52.0392 177.803 54.3622 177.792 56.6852C177.792 57.0835 177.914 57.2383 178.336 57.2383C179.867 57.2273 181.409 57.2162 182.94 57.2494C183.528 57.2604 183.484 56.9175 183.484 56.5304C183.484 56.1432 183.572 55.745 182.929 55.7671C181.953 55.8113 180.965 55.7892 179.989 55.7671C179.822 55.7671 179.534 55.6012 179.523 55.4906C179.467 54.9817 179.501 54.4729 179.501 53.8866C180.266 53.8866 180.965 53.8755 181.664 53.8866C182.019 53.8976 182.186 53.7649 182.152 53.4109C182.141 53.2671 182.141 53.1122 182.152 52.9684C182.197 52.5592 182.019 52.4154 181.609 52.4264C180.932 52.4485 180.244 52.4375 179.534 52.4375C179.534 51.807 179.534 51.2317 179.534 50.6012ZM170.325 49.1521C170.381 49.3844 170.403 49.495 170.436 49.5946C171.102 51.7959 171.768 53.9972 172.444 56.1985C172.833 57.4485 172.589 57.183 173.853 57.2383C174.308 57.2604 174.541 57.1277 174.674 56.6631C175.351 54.4065 176.061 52.1609 176.76 49.9154C176.827 49.6941 176.871 49.4729 176.96 49.1521C176.45 49.1521 176.028 49.1189 175.618 49.1742C175.44 49.1964 175.196 49.3844 175.14 49.5503C174.919 50.2251 174.752 50.9331 174.564 51.6189C174.286 52.6255 174.02 53.6211 173.743 54.6277C173.576 54.4618 173.51 54.2959 173.465 54.1299C173.055 52.6366 172.655 51.1432 172.234 49.6609C172.178 49.4729 172.023 49.2074 171.879 49.1853C171.39 49.1189 170.902 49.1521 170.325 49.1521ZM161.128 53.1897C161.128 54.3733 161.128 55.5459 161.128 56.7295C161.128 57.0171 161.15 57.2383 161.527 57.2383C163.158 57.2273 164.778 57.2383 166.409 57.2162C166.531 57.2162 166.697 57.006 166.753 56.8512C166.808 56.6852 166.753 56.4861 166.775 56.3091C166.819 55.8998 166.642 55.7671 166.231 55.7671C165.288 55.7892 164.345 55.756 163.402 55.7782C162.981 55.7892 162.825 55.6675 162.836 55.2251C162.859 53.5658 162.859 51.9065 162.848 50.2472C162.836 49.0194 163.036 49.1632 161.716 49.13C161.283 49.1189 161.128 49.2627 161.139 49.6941C161.139 50.8667 161.128 52.0282 161.128 53.1897ZM169.371 53.1897C169.371 52.172 169.382 51.1654 169.371 50.1477C169.36 49.0083 169.527 49.1853 168.373 49.141C167.829 49.1189 167.685 49.307 167.696 49.8269C167.718 51.9286 167.696 54.0304 167.707 56.1321C167.718 57.3711 167.518 57.2162 168.828 57.2604C169.282 57.2715 169.393 57.1056 169.382 56.6852C169.36 55.5016 169.371 54.3401 169.371 53.1897Z" fill="white"/>
<path d="M172.267 43.234C168.606 43.234 164.944 43.223 161.283 43.2451C160.85 43.2451 160.617 43.1013 160.418 42.7363C155.558 34.1965 160.773 23.6435 170.536 22.2829C178.069 21.232 185.181 26.8293 185.935 34.3846C186.235 37.3602 185.658 40.1367 184.194 42.7363C183.983 43.1013 183.75 43.2451 183.317 43.2451C179.623 43.234 175.95 43.234 172.267 43.234ZM169.271 34.639C169.26 36.0438 169.249 37.4376 169.26 38.8425C169.271 39.7938 169.771 40.0814 170.58 39.5947C172.844 38.2009 175.096 36.796 177.348 35.3801C178.014 34.9598 178.025 34.4288 177.348 34.0085C175.085 32.5925 172.81 31.1766 170.525 29.7718C169.782 29.3182 169.271 29.6169 169.26 30.4908C169.271 31.8846 169.271 33.2673 169.271 34.639Z" fill="white"/>
<path d="M153.229 35.889C153.229 26.9732 159.342 19.1967 168.084 17.3604C175.451 15.8118 181.875 17.825 186.768 23.5772C191.949 29.6723 192.692 36.5749 189.63 43.92C189.608 43.9753 189.586 44.0195 189.564 44.0748C189.386 44.4399 189.098 44.6279 188.709 44.4288C188.321 44.2297 188.31 43.8978 188.487 43.5328C189.741 40.9664 190.318 38.2342 190.207 35.3913C190.041 30.8891 188.432 26.94 185.314 23.6657C182.064 20.2586 178.069 18.356 173.354 18.0905C168.173 17.8029 163.658 19.4511 159.919 23.0352C156.058 26.7188 154.271 31.2984 154.405 36.597C154.46 38.9753 155.037 41.2651 156.069 43.4222C156.257 43.8204 156.357 44.1633 155.913 44.4177C155.547 44.639 155.248 44.462 154.981 43.92C153.828 41.5195 153.229 38.7873 153.229 35.889Z" fill="white"/>
</g>
<defs>
<filter id="filter0_d_1_22475" x="134.693" y="0.792983" width="76.6142" height="76.6143" filterUnits="userSpaceOnUse" color-interpolation-filters="sRGB">
<feFlood flood-opacity="0" result="BackgroundImageFix"/>
<feColorMatrix in="SourceAlpha" type="matrix" values="0 0 0 0 0 0 0 0 0 0 0 0 0 0 0 0 0 0 127 0" result="hardAlpha"/>
<feOffset/>
<feGaussianBlur stdDeviation="2.47143"/>
<feComposite in2="hardAlpha" operator="out"/>
<feColorMatrix type="matrix" values="0 0 0 0 1 0 0 0 0 1 0 0 0 0 1 0 0 0 0.5 0"/>
<feBlend mode="normal" in2="BackgroundImageFix" result="effect1_dropShadow_1_22475"/>
<feBlend mode="normal" in="SourceGraphic" in2="effect1_dropShadow_1_22475" result="shape"/>
</filter>
</defs>
</svg>
