<svg width="40" height="41" viewBox="0 0 40 41" fill="none" xmlns="http://www.w3.org/2000/svg">
<path d="M39.2327 0.948242L6.31389 0.948239C3.13951 0.948239 0.566166 3.52158 0.566165 6.69596L0.566163 34.9121C0.566163 38.0864 3.1395 40.6598 6.31389 40.6598L39.2327 40.6598L39.2327 0.948242Z" fill="#A95210"/>
<path d="M25.0335 21.1875H15.8084C15.4363 21.1855 15.08 21.0365 14.8173 20.773C14.5545 20.5095 14.4065 20.1528 14.4055 19.7807V10.5595C14.4055 10.186 14.5536 9.82774 14.8173 9.56328C15.081 9.29881 15.4389 9.14972 15.8123 9.14868H25.0335C25.407 9.14972 25.7648 9.29881 26.0286 9.56328C26.2923 9.82774 26.4404 10.186 26.4404 10.5595V19.7807C26.4394 20.1535 26.2908 20.5107 26.0272 20.7743C25.7636 21.038 25.4063 21.1865 25.0335 21.1875ZM15.8084 9.93246C15.6435 9.93452 15.486 10.0015 15.3701 10.1189C15.2542 10.2362 15.1892 10.3945 15.1892 10.5595V19.7807C15.1903 19.9449 15.2557 20.1022 15.3715 20.2188C15.4873 20.3353 15.6442 20.4017 15.8084 20.4038H25.0335C25.1991 20.4027 25.3576 20.3362 25.4744 20.2187C25.5911 20.1013 25.6566 19.9424 25.6566 19.7767V10.5595C25.6566 10.3939 25.5911 10.235 25.4744 10.1175C25.3576 10 25.1991 9.9335 25.0335 9.93246H15.8084Z" fill="#FCFCFC"/>
<path d="M25.0335 21.1875H15.8084C15.4363 21.1855 15.08 21.0365 14.8173 20.773C14.5545 20.5095 14.4065 20.1528 14.4055 19.7807V10.5595C14.4055 10.186 14.5536 9.82774 14.8173 9.56328C15.081 9.29881 15.4389 9.14972 15.8123 9.14868H25.0335C25.407 9.14972 25.7648 9.29881 26.0286 9.56328C26.2923 9.82774 26.4404 10.186 26.4404 10.5595V19.7807C26.4394 20.1535 26.2908 20.5107 26.0272 20.7743C25.7636 21.038 25.4063 21.1865 25.0335 21.1875ZM15.8084 9.93246C15.6435 9.93452 15.486 10.0015 15.3701 10.1189C15.2542 10.2362 15.1892 10.3945 15.1892 10.5595V19.7807C15.1903 19.9449 15.2557 20.1022 15.3715 20.2188C15.4873 20.3353 15.6442 20.4017 15.8084 20.4038H25.0335C25.1991 20.4027 25.3576 20.3362 25.4744 20.2187C25.5911 20.1013 25.6566 19.9424 25.6566 19.7767V10.5595C25.6566 10.3939 25.5911 10.235 25.4744 10.1175C25.3576 10 25.1991 9.9335 25.0335 9.93246H15.8084Z" fill="#FCFCFC"/>
<path d="M30.1674 32.4426H20.9463C20.5721 32.4426 20.2133 32.2939 19.9487 32.0294C19.6841 31.7648 19.5355 31.4059 19.5355 31.0318V21.8106C19.5355 21.4364 19.6841 21.0776 19.9487 20.813C20.2133 20.5484 20.5721 20.3998 20.9463 20.3998H30.1674C30.5409 20.4008 30.8988 20.5499 31.1625 20.8144C31.4262 21.0788 31.5743 21.4371 31.5743 21.8106V31.0318C31.5743 31.4053 31.4262 31.7635 31.1625 32.028C30.8988 32.2924 30.5409 32.4415 30.1674 32.4426ZM20.9463 21.1875C20.78 21.1875 20.6205 21.2535 20.5029 21.3711C20.3853 21.4887 20.3192 21.6482 20.3192 21.8145V31.0318C20.3192 31.1141 20.3355 31.1956 20.367 31.2717C20.3985 31.3478 20.4447 31.4169 20.5029 31.4751C20.5611 31.5334 20.6302 31.5795 20.7063 31.6111C20.7824 31.6426 20.8639 31.6588 20.9463 31.6588H30.1674C30.3331 31.6578 30.4915 31.5912 30.6083 31.4738C30.725 31.3563 30.7906 31.1974 30.7905 31.0318V21.8106C30.7895 21.6456 30.7235 21.4878 30.6069 21.3711C30.4903 21.2545 30.3324 21.1885 30.1674 21.1875H20.9463Z" fill="#FCFCFC"/>
<path d="M18.8379 32.4427H9.61672C9.24324 32.4417 8.8854 32.2926 8.62167 32.0281C8.35794 31.7637 8.20984 31.4054 8.20984 31.0319V21.8107C8.21087 21.4379 8.35943 21.0807 8.62305 20.8171C8.88667 20.5534 9.24391 20.4049 9.61672 20.4039H18.8379C19.2121 20.4039 19.5709 20.5525 19.8355 20.8171C20.1001 21.0816 20.2487 21.4405 20.2487 21.8147V31.0319C20.2487 31.4061 20.1001 31.7649 19.8355 32.0295C19.5709 32.2941 19.2121 32.4427 18.8379 32.4427ZM9.61672 21.1876C9.45111 21.1887 9.29263 21.2552 9.17588 21.3727C9.05914 21.4901 8.99362 21.649 8.99362 21.8147V31.0319C8.99362 31.1975 9.05914 31.3564 9.17588 31.4739C9.29263 31.5914 9.45111 31.6579 9.61672 31.6589H18.8379C18.9202 31.6589 19.0018 31.6427 19.0779 31.6112C19.1539 31.5797 19.2231 31.5335 19.2813 31.4753C19.3395 31.4171 19.3857 31.3479 19.4172 31.2719C19.4487 31.1958 19.4649 31.1143 19.4649 31.0319V21.8107C19.4649 21.7284 19.4487 21.6469 19.4172 21.5708C19.3857 21.4947 19.3395 21.4256 19.2813 21.3674C19.2231 21.3091 19.1539 21.263 19.0779 21.2314C19.0018 21.1999 18.9202 21.1837 18.8379 21.1837L9.61672 21.1876ZM21.5851 19.6436H19.4414C19.0488 19.6475 18.6681 19.5085 18.3704 19.2525C18.0726 18.9966 17.878 18.6411 17.8229 18.2524C17.7838 17.8852 17.8756 17.516 18.0821 17.2099C18.2885 16.9037 18.5965 16.6803 18.9515 16.579V15.129C18.5461 15.0688 18.1803 14.8522 17.9326 14.5255C17.7162 14.2126 17.6175 13.8331 17.6541 13.4543C17.6906 13.0756 17.8601 12.722 18.1325 12.4563L19.4101 11.1552C19.6785 10.8901 20.0335 10.7307 20.41 10.7062C20.7865 10.6817 21.1592 10.7938 21.4596 11.022C21.6547 11.1781 21.8113 11.377 21.9173 11.6033C22.0233 11.8296 22.0759 12.0772 22.071 12.327V16.579C22.4261 16.6803 22.734 16.9037 22.9405 17.2099C23.147 17.516 23.2387 17.8852 23.1996 18.2524C23.1454 18.6408 22.9516 18.9962 22.6545 19.2522C22.3574 19.5082 21.9772 19.6474 21.5851 19.6436ZM20.5113 11.4805C20.3051 11.4824 20.108 11.5655 19.9626 11.7117L18.6811 12.9893C18.5401 13.1218 18.4505 13.2999 18.4282 13.4922C18.406 13.6844 18.4526 13.8784 18.5597 14.0396C18.6294 14.1352 18.72 14.2138 18.8245 14.2695C18.9291 14.3252 19.0448 14.3564 19.1632 14.3609C19.3181 14.368 19.4642 14.4348 19.5709 14.5473C19.6776 14.6599 19.7365 14.8094 19.7353 14.9644V16.7201C19.7374 16.8609 19.6893 16.9978 19.5995 17.1063C19.5097 17.2147 19.3842 17.2876 19.2455 17.3118C19.0501 17.3464 18.8751 17.4539 18.7559 17.6124C18.6366 17.771 18.5819 17.9689 18.6028 18.1662C18.6349 18.3637 18.7377 18.5428 18.8919 18.6704C19.0461 18.798 19.2414 18.8653 19.4414 18.8598H21.5851C21.7853 18.8661 21.981 18.7991 22.1354 18.6714C22.2898 18.5437 22.3923 18.3641 22.4237 18.1662C22.4446 17.9689 22.3899 17.771 22.2706 17.6124C22.1513 17.4539 21.9764 17.3464 21.781 17.3118C21.6426 17.2869 21.5176 17.2138 21.4279 17.1055C21.3383 16.9972 21.2898 16.8607 21.2911 16.7201V12.327C21.2965 12.1978 21.2721 12.0691 21.2198 11.9509C21.1675 11.8326 21.0886 11.728 20.9894 11.6451C20.8526 11.5389 20.6844 11.481 20.5113 11.4805Z" fill="#FCFCFC"/>
<path d="M16.3217 30.9298H12.8613C12.7947 30.9339 12.728 30.9339 12.6614 30.9298H12.5556C12.258 30.8755 11.9817 30.7387 11.7581 30.535C11.5345 30.3313 11.3726 30.0688 11.2909 29.7776C11.2092 29.4863 11.211 29.178 11.296 28.8877C11.381 28.5974 11.5459 28.3368 11.7718 28.1357L14.323 25.5805C14.3658 25.5373 14.3899 25.4788 14.3899 25.4179C14.3899 25.357 14.3658 25.2986 14.323 25.2553C14.3045 25.2294 14.2801 25.2083 14.2518 25.1937C14.2235 25.1792 14.1922 25.1716 14.1604 25.1716C14.1286 25.1716 14.0972 25.1792 14.0689 25.1937C14.0406 25.2083 14.0162 25.2294 13.9977 25.2553L13.5823 25.6472C13.2744 25.9311 12.8685 26.0848 12.4497 26.0763C12.0309 26.0678 11.6317 25.8976 11.3355 25.6015C11.0393 25.3053 10.8691 24.906 10.8606 24.4872C10.8521 24.0684 11.0059 23.6626 11.2898 23.3546L11.713 22.9314C12.3546 22.2863 13.2237 21.9188 14.1334 21.908C15.0431 21.8971 15.9208 22.2437 16.5776 22.8733C17.2343 23.5029 17.6178 24.3651 17.6454 25.2744C17.673 26.1838 17.3426 27.0677 16.7253 27.7359C17.1071 27.8339 17.4401 28.0675 17.6622 28.393C17.8844 28.7186 17.9804 29.1139 17.9324 29.5051C17.8844 29.8962 17.6957 30.2566 17.4014 30.5188C17.1072 30.781 16.7275 30.9271 16.3334 30.9298H16.3217ZM12.7084 30.1461H12.7476C12.7855 30.1486 12.8234 30.1486 12.8613 30.1461H16.3217C16.5441 30.1461 16.7574 30.0577 16.9147 29.9004C17.0719 29.7432 17.1603 29.5298 17.1603 29.3074C17.1603 29.085 17.0719 28.8717 16.9147 28.7144C16.7574 28.5571 16.5441 28.4688 16.3217 28.4688H15.8357C15.7587 28.4685 15.6834 28.4454 15.6194 28.4026C15.5554 28.3598 15.5054 28.299 15.4757 28.2279C15.446 28.1568 15.4379 28.0786 15.4525 28.0029C15.467 27.9273 15.5035 27.8576 15.5575 27.8026L16.0708 27.2892C16.5754 26.7851 16.8591 26.1012 16.8595 25.3879C16.8599 24.6747 16.5769 23.9905 16.0728 23.4859C15.5687 22.9813 14.8848 22.6976 14.1716 22.6972C13.4583 22.6969 12.7741 22.9798 12.2695 23.4839L11.8423 23.9307C11.7188 24.0921 11.6581 24.2929 11.6715 24.4957C11.685 24.6986 11.7716 24.8896 11.9154 25.0334C12.0591 25.1771 12.2501 25.2637 12.453 25.2772C12.6558 25.2906 12.8566 25.2299 13.018 25.1064L13.4452 24.6831C13.6378 24.505 13.8918 24.4085 14.1541 24.4136C14.4164 24.4187 14.6664 24.5252 14.8519 24.7107C15.0374 24.8962 15.1439 25.1463 15.149 25.4085C15.1542 25.6708 15.0576 25.9248 14.8795 26.1174L12.3165 28.6726C12.2253 28.7515 12.1519 28.8489 12.1013 28.9584C12.0506 29.0678 12.0238 29.1868 12.0226 29.3074C12.023 29.502 12.0913 29.6904 12.2158 29.8399C12.3403 29.9895 12.5132 30.0908 12.7045 30.1265L12.7084 30.1461ZM25.5546 30.9298C24.6905 30.9288 23.8622 30.5848 23.2516 29.9735C22.641 29.3621 22.298 28.5334 22.298 27.6693C22.298 27.2754 22.4545 26.8976 22.733 26.6191C23.0115 26.3405 23.3893 26.1841 23.7832 26.1841C23.8913 26.1837 23.9991 26.1956 24.1046 26.2193V26.1449C24.1007 26.0901 24.1007 26.0351 24.1046 25.9803C24.1023 25.9529 24.1023 25.9254 24.1046 25.898C24.1027 25.8745 24.1027 25.8509 24.1046 25.8274C24.1018 25.7818 24.1018 25.736 24.1046 25.6903C24.1089 25.644 24.1167 25.5982 24.1281 25.5531C24.1375 25.509 24.1507 25.4657 24.1673 25.4238C24.1838 25.373 24.2035 25.3233 24.2261 25.2749C24.2245 25.2605 24.2245 25.2461 24.2261 25.2318L24.3985 24.8908H23.9713C23.7696 24.9012 23.5679 24.8704 23.3784 24.8003C23.189 24.7303 23.0158 24.6224 22.8693 24.4833C22.7229 24.3442 22.6063 24.1767 22.5266 23.9911C22.4469 23.8055 22.4058 23.6056 22.4058 23.4036C22.4058 23.2016 22.4469 23.0017 22.5266 22.8161C22.6063 22.6305 22.7229 22.463 22.8693 22.3239C23.0158 22.1848 23.189 22.0769 23.3784 22.0069C23.5679 21.9368 23.7696 21.906 23.9713 21.9164H26.8204C27.0744 21.9159 27.3243 21.9805 27.5461 22.1041C27.768 22.2277 27.9545 22.4061 28.0878 22.6223C28.2211 22.8385 28.2967 23.0853 28.3074 23.3391C28.3181 23.5928 28.2635 23.8451 28.1489 24.0718L27.6042 25.1416C28.1276 25.5652 28.5069 26.1406 28.6898 26.7887C28.8727 27.4367 28.8502 28.1255 28.6255 28.7603C28.4007 29.395 27.9847 29.9445 27.4348 30.333C26.8848 30.7216 26.2279 30.9301 25.5546 30.9298ZM23.7832 26.9678C23.5972 26.9678 23.4188 27.0417 23.2872 27.1733C23.1557 27.3049 23.0818 27.4833 23.0818 27.6693C23.0799 28.0999 23.1903 28.5235 23.4021 28.8983C23.6138 29.2732 23.9197 29.5864 24.2894 29.807C24.6591 30.0276 25.08 30.148 25.5105 30.1564C25.9409 30.1647 26.3662 30.0607 26.7442 29.8546C27.1222 29.6485 27.4399 29.3474 27.6661 28.981C27.8922 28.6146 28.0189 28.1956 28.0338 27.7653C28.0486 27.335 27.951 26.9083 27.7506 26.5272C27.5501 26.1462 27.2539 25.8239 26.8909 25.5923C26.8151 25.5399 26.7602 25.4625 26.7359 25.3736C26.7115 25.2847 26.7192 25.1901 26.7577 25.1064L27.4474 23.7387C27.5009 23.6313 27.5264 23.5121 27.5216 23.3922C27.5168 23.2724 27.4819 23.1556 27.42 23.0529C27.3569 22.9506 27.2687 22.8663 27.1637 22.808C27.0587 22.7497 26.9405 22.7193 26.8204 22.7197H23.9713C23.8746 22.7125 23.7773 22.7253 23.6857 22.7574C23.5941 22.7895 23.5101 22.8401 23.4389 22.9062C23.3678 22.9722 23.3111 23.0522 23.2722 23.1411C23.2334 23.2301 23.2134 23.3261 23.2134 23.4232C23.2134 23.5203 23.2334 23.6163 23.2722 23.7052C23.3111 23.7942 23.3678 23.8742 23.4389 23.9402C23.5101 24.0063 23.5941 24.0569 23.6857 24.089C23.7773 24.121 23.8746 24.1339 23.9713 24.1266H25.0373C25.1039 24.1265 25.1694 24.1433 25.2277 24.1756C25.286 24.2078 25.3351 24.2543 25.3704 24.3108C25.4048 24.3704 25.4229 24.438 25.4229 24.5068C25.4229 24.5756 25.4048 24.6431 25.3704 24.7027L24.9197 25.5923V25.6393C24.9197 25.6393 24.9197 25.6746 24.8962 25.702C24.895 25.7229 24.895 25.7439 24.8962 25.7647C24.8962 25.7647 24.8962 25.7961 24.8962 25.8118C24.8962 25.8274 24.8962 25.8823 24.8962 25.9058V25.8901C24.8951 25.9006 24.8951 25.9111 24.8962 25.9215C24.8937 25.9489 24.8937 25.9764 24.8962 26.0038C24.894 26.0259 24.894 26.0483 24.8962 26.0704C24.9009 26.0931 24.9075 26.1154 24.9158 26.137C24.9233 26.1574 24.9325 26.177 24.9432 26.1958L24.9746 26.2585C24.9854 26.2783 24.9985 26.2968 25.0138 26.3134L25.0569 26.3643C25.0705 26.3819 25.0863 26.3977 25.1039 26.4114L25.1549 26.4545L25.2215 26.4976H25.2528C25.2893 26.5153 25.3274 26.5298 25.3665 26.5407H25.4096C25.4538 26.5469 25.4986 26.5469 25.5428 26.5407H25.5781C25.789 26.5445 25.994 26.6107 26.1674 26.7307C26.3409 26.8508 26.4749 27.0194 26.5528 27.2154C26.6307 27.4115 26.6488 27.6261 26.6051 27.8325C26.5613 28.0388 26.4575 28.2276 26.3067 28.3751C26.1559 28.5226 25.9649 28.6222 25.7577 28.6615C25.5505 28.7008 25.3363 28.6779 25.142 28.5958C24.9477 28.5137 24.782 28.376 24.6658 28.2C24.5495 28.024 24.4879 27.8175 24.4886 27.6066C24.472 27.4313 24.3904 27.2686 24.2599 27.1504C24.1294 27.0322 23.9593 26.9671 23.7832 26.9678ZM25.2372 27.3597C25.2609 27.4639 25.2728 27.5704 25.2724 27.6772C25.2724 27.7524 25.302 27.8245 25.3548 27.8781C25.4076 27.9316 25.4794 27.9622 25.5546 27.9632C25.6305 27.9632 25.7032 27.9331 25.7569 27.8794C25.8105 27.8258 25.8407 27.753 25.8407 27.6772C25.8396 27.602 25.809 27.5302 25.7555 27.4774C25.702 27.4246 25.6298 27.395 25.5546 27.395H25.5076C25.4165 27.3874 25.3261 27.373 25.2372 27.3519V27.3597Z" fill="#FCFCFC"/>
</svg>
