<svg width="40" height="40" viewBox="0 0 40 40" fill="none" xmlns="http://www.w3.org/2000/svg">
<path d="M39.0881 0.201538L6.16936 0.201535C2.99498 0.201535 0.421634 2.77488 0.421634 5.94926L0.421632 34.1654C0.421631 37.3397 2.99497 39.9131 6.16935 39.9131L39.0881 39.9131L39.0881 0.201538Z" fill="#A95210"/>
<g clip-path="url(#clip0_1_33746)">
<path d="M13.7463 14.8696H14.4448C14.7636 15.9978 15.442 16.9911 16.377 17.6984C17.3119 18.4058 18.4522 18.7886 19.6246 18.7886C20.797 18.7886 21.9373 18.4058 22.8723 17.6984C23.8072 16.9911 24.4856 15.9978 24.8044 14.8696H25.503C25.8927 14.8696 26.2665 14.7147 26.5421 14.4391C26.8177 14.1635 26.9726 13.7897 26.9726 13.4C26.9726 13.0102 26.8177 12.6364 26.5421 12.3608C26.2665 12.0852 25.8927 11.9304 25.503 11.9304H24.8044C24.4856 10.8022 23.8072 9.80888 22.8723 9.1015C21.9373 8.39413 20.797 8.01135 19.6246 8.01135C18.4522 8.01135 17.3119 8.39413 16.377 9.1015C15.442 9.80888 14.7636 10.8022 14.4448 11.9304H13.7463C13.3565 11.9304 12.9827 12.0852 12.7071 12.3608C12.4315 12.6364 12.2767 13.0102 12.2767 13.4C12.2767 13.7897 12.4315 14.1635 12.7071 14.4391C12.9827 14.7147 13.3565 14.8696 13.7463 14.8696ZM25.503 12.9101C25.6329 12.9101 25.7575 12.9617 25.8494 13.0536C25.9412 13.1454 25.9928 13.27 25.9928 13.4C25.9928 13.5299 25.9412 13.6545 25.8494 13.7463C25.7575 13.8382 25.6329 13.8898 25.503 13.8898H24.9881C25.0028 13.7282 25.0131 13.5655 25.0131 13.4C25.0131 13.2344 25.0028 13.0718 24.9881 12.9101H25.503ZM19.6246 8.9912C19.7883 8.99166 19.9519 9.00131 20.1145 9.0201V9.97092C20.1145 10.1008 20.0629 10.2254 19.971 10.3173C19.8791 10.4092 19.7545 10.4608 19.6246 10.4608C19.4947 10.4608 19.3701 10.4092 19.2782 10.3173C19.1864 10.2254 19.1348 10.1008 19.1348 9.97092H18.155C18.155 10.3607 18.3099 10.7345 18.5855 11.0101C18.8611 11.2857 19.2349 11.4405 19.6246 11.4405C20.0144 11.4405 20.3882 11.2857 20.6638 11.0101C20.9394 10.7345 21.0942 10.3607 21.0942 9.97092V9.24838C22.131 9.6195 22.9908 10.3662 23.5035 11.3408C24.0162 12.3154 24.1445 13.4469 23.863 14.5116C23.5815 15.5762 22.9107 16.4964 21.9833 17.0903C21.0559 17.6841 19.9394 17.9082 18.8547 17.7184C17.7699 17.5286 16.7959 16.9386 16.1253 16.0651C15.4546 15.1916 15.1362 14.0983 15.233 13.0013C15.3298 11.9043 15.8347 10.8836 16.6479 10.1411C17.4611 9.39852 18.5234 8.98817 19.6246 8.9912ZM13.7463 12.9101H14.2611C14.2464 13.0718 14.2361 13.2344 14.2361 13.4C14.2361 13.5655 14.2464 13.7282 14.2611 13.8898H13.7463C13.6163 13.8898 13.4917 13.8382 13.3999 13.7463C13.308 13.6545 13.2564 13.5299 13.2564 13.4C13.2564 13.27 13.308 13.1454 13.3999 13.0536C13.4917 12.9617 13.6163 12.9101 13.7463 12.9101Z" fill="#FCFCFC"/>
<path d="M17.1751 13.1134C17.307 12.9872 17.4824 12.9169 17.6649 12.9169C17.8474 12.9169 18.0229 12.9872 18.1548 13.1134L18.2983 13.2569L18.991 12.5642L18.8475 12.4202C18.5286 12.1165 18.1052 11.9471 17.6649 11.9471C17.2246 11.9471 16.8012 12.1165 16.4824 12.4202L16.3389 12.5637L17.0315 13.2564L17.1751 13.1134ZM21.094 13.1134C21.2259 12.9872 21.4013 12.9169 21.5838 12.9169C21.7663 12.9169 21.9418 12.9872 22.0737 13.1134L22.2172 13.2569L22.9099 12.5642L22.7664 12.4202C22.4475 12.1165 22.0241 11.9471 21.5838 11.9471C21.1435 11.9471 20.7201 12.1165 20.4013 12.4202L20.2578 12.5637L20.9504 13.2564L21.094 13.1134ZM18.6447 15.2448L18.5932 15.1409L17.7164 15.5784L17.7683 15.6822C17.9407 16.0268 18.2056 16.3166 18.5333 16.5192C18.8611 16.7217 19.2388 16.829 19.6241 16.829C20.0094 16.829 20.3871 16.7217 20.7149 16.5192C21.0427 16.3166 21.3076 16.0268 21.48 15.6822L21.5319 15.5788L20.655 15.1409L20.6061 15.2443C20.5151 15.4262 20.3753 15.5793 20.2022 15.6862C20.0292 15.7932 19.8298 15.8498 19.6263 15.8498C19.4229 15.8498 19.2235 15.7932 19.0505 15.6862C18.8774 15.5793 18.7376 15.4262 18.6466 15.2443L18.6447 15.2448Z" fill="#FCFCFC"/>
<path d="M28.9316 13.3173C28.9317 12.3631 28.7439 11.4183 28.3788 10.5368C28.0137 9.65522 27.4785 8.85424 26.8038 8.17958C26.1291 7.50491 25.3281 6.96978 24.4465 6.60475C23.565 6.23971 22.6201 6.05193 21.666 6.05212H17.582C16.6279 6.05206 15.6831 6.23993 14.8017 6.60502C13.9202 6.97011 13.1192 7.50525 12.4446 8.1799C11.77 8.85454 11.2348 9.65547 10.8697 10.5369C10.5046 11.4184 10.3168 12.3632 10.3168 13.3173V27.1162C10.3168 29.5847 11.2974 31.9521 13.0429 33.6975C14.7884 35.443 17.1558 36.4236 19.6242 36.4236C22.0927 36.4236 24.4601 35.443 26.2055 33.6975C27.951 31.9521 28.9316 29.5847 28.9316 27.1162V13.3173ZM12.1925 10.0842C12.7533 9.1556 13.5437 8.38702 14.4876 7.85244C15.4316 7.31785 16.4972 7.03525 17.582 7.03185H21.666C22.4915 7.03166 23.3089 7.1941 24.0716 7.5099C24.8343 7.82569 25.5273 8.28866 26.111 8.87235C26.6948 9.45604 27.1578 10.149 27.4737 10.9117C27.7895 11.6744 27.952 12.4918 27.9519 13.3173V16.5656L19.6732 20.4511L11.2966 16.4715V13.3173C11.2967 12.1781 11.6062 11.0603 12.192 10.0832L12.1925 10.0842ZM27.9519 17.6477V24.3818L20.8219 20.9954L27.9519 17.6477ZM19.6242 35.4439C17.4163 35.4414 15.2996 34.5633 13.7384 33.0021C12.1772 31.4408 11.299 29.3241 11.2966 27.1162V17.5561L27.9519 25.4664V27.1162C27.9493 29.3241 27.0711 31.4407 25.5099 33.0019C23.9487 34.5631 21.8321 35.4413 19.6242 35.4439Z" fill="#FCFCFC"/>
</g>
<defs>
<clipPath id="clip0_1_33746">
<rect width="31.3512" height="31.3512" fill="white" transform="translate(3.94849 5.56213)"/>
</clipPath>
</defs>
</svg>
