<svg width="57" height="58" viewBox="0 0 57 58" fill="none" xmlns="http://www.w3.org/2000/svg">
<path d="M0.465088 57.5157L47.8514 57.5157C52.4209 57.5157 56.1252 53.8114 56.1252 49.2419L56.1252 8.62506C56.1252 4.05556 52.4209 0.351255 47.8514 0.351255L0.465088 0.351255L0.465088 57.5157Z" fill="#A95210"/>
<path d="M35.6934 29.4976H22.414C21.8783 29.4946 21.3655 29.2801 20.9872 28.9008C20.609 28.5215 20.3959 28.0081 20.3944 27.4724V14.1986C20.3944 13.6609 20.6076 13.1452 20.9872 12.7645C21.3669 12.3838 21.882 12.1692 22.4196 12.1677H35.6934C36.2311 12.1692 36.7462 12.3838 37.1258 12.7645C37.5054 13.1452 37.7186 13.6609 37.7186 14.1986V27.4724C37.7171 28.009 37.5033 28.5233 37.1238 28.9028C36.7443 29.2823 36.2301 29.4961 35.6934 29.4976V29.4976ZM22.414 13.296C22.1765 13.2989 21.9499 13.3953 21.783 13.5643C21.6162 13.7332 21.5226 13.9611 21.5227 14.1986V27.4724C21.5241 27.7089 21.6183 27.9353 21.785 28.103C21.9517 28.2708 22.1775 28.3664 22.414 28.3693H35.6934C35.9318 28.3679 36.16 28.2721 36.328 28.103C36.4961 27.9339 36.5904 27.7052 36.5904 27.4667V14.1986C36.5904 13.9602 36.4961 13.7314 36.328 13.5623C36.16 13.3932 35.9318 13.2975 35.6934 13.296H22.414Z" fill="#FCFCFC"/>
<path d="M35.6934 29.4976H22.414C21.8783 29.4946 21.3655 29.2801 20.9872 28.9008C20.609 28.5215 20.3959 28.0081 20.3944 27.4724V14.1986C20.3944 13.6609 20.6076 13.1452 20.9872 12.7645C21.3669 12.3838 21.882 12.1692 22.4196 12.1677H35.6934C36.2311 12.1692 36.7462 12.3838 37.1258 12.7645C37.5054 13.1452 37.7186 13.6609 37.7186 14.1986V27.4724C37.7171 28.009 37.5033 28.5233 37.1238 28.9028C36.7443 29.2823 36.2301 29.4961 35.6934 29.4976V29.4976ZM22.414 13.296C22.1765 13.2989 21.9499 13.3953 21.783 13.5643C21.6162 13.7332 21.5226 13.9611 21.5227 14.1986V27.4724C21.5241 27.7089 21.6183 27.9353 21.785 28.103C21.9517 28.2708 22.1775 28.3664 22.414 28.3693H35.6934C35.9318 28.3679 36.16 28.2721 36.328 28.103C36.4961 27.9339 36.5904 27.7052 36.5904 27.4667V14.1986C36.5904 13.9602 36.4961 13.7314 36.328 13.5623C36.16 13.3932 35.9318 13.2975 35.6934 13.296H22.414Z" fill="#FCFCFC"/>
<path d="M43.0835 45.6993H29.8097C29.271 45.6993 28.7545 45.4853 28.3736 45.1045C27.9928 44.7236 27.7788 44.207 27.7788 43.6684V30.3946C27.7788 29.856 27.9928 29.3394 28.3736 28.9586C28.7545 28.5777 29.271 28.3638 29.8097 28.3638H43.0835C43.6211 28.3653 44.1362 28.5799 44.5158 28.9606C44.8955 29.3413 45.1087 29.857 45.1087 30.3946V43.6684C45.1087 44.2061 44.8955 44.7218 44.5158 45.1025C44.1362 45.4832 43.6211 45.6978 43.0835 45.6993V45.6993ZM29.8097 29.4977C29.5703 29.4977 29.3407 29.5928 29.1714 29.762C29.0021 29.9313 28.9071 30.1609 28.9071 30.4003V43.6684C28.9071 43.787 28.9304 43.9043 28.9758 44.0138C29.0211 44.1234 29.0876 44.2229 29.1714 44.3067C29.2552 44.3905 29.3547 44.457 29.4642 44.5023C29.5738 44.5477 29.6911 44.571 29.8097 44.571H43.0835C43.3219 44.5695 43.55 44.4738 43.7181 44.3047C43.8861 44.1356 43.9804 43.9068 43.9804 43.6684V30.3946C43.9789 30.1572 43.884 29.9299 43.7161 29.762C43.5482 29.5941 43.3209 29.4991 43.0835 29.4977H29.8097Z" fill="#FCFCFC"/>
<path d="M26.7747 45.6994H13.5009C12.9633 45.6979 12.4482 45.4833 12.0685 45.1026C11.6889 44.7219 11.4757 44.2062 11.4757 43.6685V30.3947C11.4772 29.8581 11.691 29.3438 12.0705 28.9643C12.45 28.5848 12.9643 28.371 13.5009 28.3695H26.7747C27.3133 28.3695 27.8299 28.5835 28.2108 28.9643C28.5916 29.3452 28.8056 29.8617 28.8056 30.4004V43.6685C28.8056 44.2071 28.5916 44.7237 28.2108 45.1046C27.8299 45.4854 27.3133 45.6994 26.7747 45.6994V45.6994ZM13.5009 29.4978C13.2625 29.4992 13.0344 29.595 12.8663 29.7641C12.6983 29.9332 12.6039 30.1619 12.604 30.4004V43.6685C12.6039 43.9069 12.6983 44.1357 12.8663 44.3048C13.0344 44.4739 13.2625 44.5696 13.5009 44.5711H26.7747C26.8933 44.5711 27.0106 44.5478 27.1201 44.5024C27.2296 44.4571 27.3291 44.3906 27.413 44.3068C27.4968 44.223 27.5633 44.1234 27.6086 44.0139C27.654 43.9044 27.6773 43.7871 27.6773 43.6685V30.3947C27.6773 30.2762 27.654 30.1588 27.6086 30.0493C27.5633 29.9398 27.4968 29.8403 27.413 29.7565C27.3291 29.6727 27.2296 29.6062 27.1201 29.5608C27.0106 29.5155 26.8933 29.4921 26.7747 29.4921L13.5009 29.4978ZM30.7292 27.2751H27.6435C27.0783 27.2807 26.5303 27.0807 26.1017 26.7122C25.6731 26.3438 25.393 25.8321 25.3137 25.2725C25.2574 24.7439 25.3895 24.2125 25.6867 23.7718C25.9839 23.3311 26.4272 23.0095 26.9383 22.8637V20.7764C26.3546 20.6897 25.8281 20.3779 25.4716 19.9077C25.16 19.4572 25.0179 18.9109 25.0706 18.3657C25.1233 17.8205 25.3672 17.3116 25.7593 16.9291L27.5984 15.0562C27.9847 14.6745 28.4958 14.445 29.0377 14.4098C29.5797 14.3746 30.1162 14.536 30.5487 14.8644C30.8296 15.0891 31.055 15.3754 31.2076 15.7011C31.3602 16.0269 31.4358 16.3833 31.4287 16.7429V22.8637C31.9399 23.0095 32.3831 23.3311 32.6804 23.7718C32.9776 24.2125 33.1097 24.7439 33.0534 25.2725C32.9753 25.8316 32.6964 26.3432 32.2687 26.7118C31.841 27.0803 31.2938 27.2805 30.7292 27.2751V27.2751ZM29.1835 15.5244C28.8868 15.5272 28.603 15.6467 28.3938 15.8573L26.5491 17.6963C26.346 17.887 26.217 18.1435 26.185 18.4202C26.153 18.697 26.22 18.9761 26.3742 19.2081C26.4747 19.3459 26.605 19.459 26.7555 19.5392C26.9059 19.6193 27.0726 19.6643 27.243 19.6707C27.4659 19.6809 27.6763 19.7771 27.8299 19.9391C27.9834 20.1011 28.0683 20.3163 28.0666 20.5395V23.0668C28.0696 23.2694 28.0003 23.4665 27.871 23.6226C27.7418 23.7788 27.5611 23.8837 27.3614 23.9186C27.0802 23.9684 26.8283 24.123 26.6566 24.3513C26.4849 24.5795 26.4062 24.8643 26.4363 25.1484C26.4826 25.4327 26.6304 25.6906 26.8524 25.8742C27.0744 26.0578 27.3555 26.1547 27.6435 26.1469H30.7292C31.0175 26.1559 31.2992 26.0595 31.5215 25.8757C31.7437 25.6918 31.8913 25.4332 31.9365 25.1484C31.9665 24.8643 31.8878 24.5795 31.7161 24.3513C31.5444 24.123 31.2925 23.9684 31.0113 23.9186C30.8121 23.8826 30.6321 23.7774 30.5031 23.6215C30.374 23.4656 30.3043 23.2691 30.3061 23.0668V16.7429C30.3139 16.557 30.2788 16.3717 30.2035 16.2015C30.1281 16.0313 30.0146 15.8807 29.8718 15.7614C29.6748 15.6085 29.4328 15.5252 29.1835 15.5244V15.5244Z" fill="#FCFCFC"/>
<path d="M23.153 43.5217H18.1718C18.076 43.5276 17.9799 43.5276 17.8841 43.5217H17.7317C17.3034 43.4435 16.9056 43.2466 16.5838 42.9533C16.2619 42.6601 16.0289 42.2823 15.9113 41.863C15.7937 41.4438 15.7962 40.9999 15.9186 40.5821C16.041 40.1642 16.2783 39.7891 16.6035 39.4995L20.2759 35.8214C20.3376 35.7591 20.3722 35.675 20.3722 35.5873C20.3722 35.4997 20.3376 35.4155 20.2759 35.3532C20.2493 35.316 20.2142 35.2856 20.1735 35.2646C20.1328 35.2437 20.0876 35.2327 20.0418 35.2327C19.996 35.2327 19.9509 35.2437 19.9102 35.2646C19.8695 35.2856 19.8343 35.316 19.8077 35.3532L19.2097 35.9173C18.7664 36.326 18.1822 36.5474 17.5794 36.5351C16.9765 36.5228 16.4018 36.2779 15.9754 35.8515C15.5491 35.4252 15.3041 34.8505 15.2919 34.2476C15.2796 33.6448 15.501 33.0606 15.9096 32.6172L16.5189 32.008C17.4424 31.0794 18.6935 30.5504 20.003 30.5348C21.3126 30.5191 22.5759 31.0181 23.5214 31.9244C24.4668 32.8306 25.0188 34.0718 25.0585 35.3808C25.0983 36.6898 24.6227 37.9621 23.734 38.9241C24.2836 39.0651 24.763 39.4013 25.0827 39.87C25.4025 40.3386 25.5408 40.9076 25.4717 41.4707C25.4026 42.0339 25.1309 42.5526 24.7073 42.93C24.2837 43.3074 23.7372 43.5178 23.1699 43.5217H23.153ZM17.9518 42.3935H18.0082C18.0626 42.3971 18.1173 42.3971 18.1718 42.3935H23.153C23.4731 42.3935 23.7802 42.2663 24.0066 42.0399C24.233 41.8135 24.3602 41.5064 24.3602 41.1863C24.3602 40.8661 24.233 40.559 24.0066 40.3326C23.7802 40.1062 23.4731 39.979 23.153 39.979H22.4535C22.3426 39.9786 22.2343 39.9454 22.1421 39.8838C22.0499 39.8221 21.978 39.7346 21.9352 39.6323C21.8925 39.53 21.8809 39.4173 21.9018 39.3084C21.9227 39.1995 21.9753 39.0992 22.0529 39.02L22.7919 38.281C23.5183 37.5554 23.9267 36.5709 23.9272 35.5442C23.9277 34.5175 23.5204 33.5326 22.7948 32.8062C22.0691 32.0798 21.0847 31.6714 20.0579 31.6709C19.0312 31.6704 18.0463 32.0778 17.3199 32.8034L16.705 33.4465C16.5272 33.6789 16.4399 33.9679 16.4592 34.2599C16.4785 34.5518 16.6032 34.8269 16.8101 35.0338C17.017 35.2407 17.292 35.3654 17.584 35.3847C17.876 35.404 18.165 35.3167 18.3974 35.1389L19.0123 34.5296C19.2896 34.2733 19.6553 34.1342 20.0328 34.1416C20.4103 34.149 20.7703 34.3023 21.0373 34.5693C21.3043 34.8363 21.4576 35.1963 21.465 35.5738C21.4724 35.9513 21.3333 36.317 21.077 36.5943L17.3876 40.2724C17.2563 40.386 17.1507 40.5262 17.0778 40.6838C17.0048 40.8414 16.9662 41.0126 16.9645 41.1863C16.9651 41.4664 17.0634 41.7375 17.2427 41.9528C17.4219 42.1681 17.6707 42.314 17.9461 42.3653L17.9518 42.3935ZM36.4437 43.5217C35.1999 43.5202 34.0075 43.0251 33.1286 42.145C32.2496 41.265 31.7558 40.072 31.7559 38.8282C31.7559 38.2612 31.9811 37.7174 32.3821 37.3164C32.783 36.9154 33.3268 36.6902 33.8939 36.6902C34.0495 36.6897 34.2047 36.7068 34.3565 36.741V36.6338C34.3509 36.5549 34.3509 36.4757 34.3565 36.3968C34.3532 36.3574 34.3532 36.3178 34.3565 36.2784C34.3538 36.2446 34.3538 36.2106 34.3565 36.1768C34.3525 36.1111 34.3525 36.0452 34.3565 35.9794C34.3626 35.9128 34.3739 35.8468 34.3903 35.782C34.4039 35.7184 34.4228 35.6562 34.4467 35.5958C34.4705 35.5227 34.4988 35.4511 34.5313 35.3814C34.529 35.3608 34.529 35.34 34.5313 35.3194L34.7796 34.8286H34.1647C33.8743 34.8435 33.5839 34.7992 33.3112 34.6983C33.0385 34.5975 32.7891 34.4422 32.5783 34.2419C32.3675 34.0417 32.1996 33.8006 32.0849 33.5334C31.9702 33.2662 31.9111 32.9785 31.9111 32.6877C31.9111 32.397 31.9702 32.1092 32.0849 31.8421C32.1996 31.5749 32.3675 31.3338 32.5783 31.1336C32.7891 30.9333 33.0385 30.778 33.3112 30.6772C33.5839 30.5763 33.8743 30.532 34.1647 30.5469H38.2658C38.6314 30.5461 38.9911 30.6392 39.3106 30.8171C39.63 30.995 39.8984 31.2518 40.0902 31.5631C40.2821 31.8743 40.3909 32.2296 40.4063 32.5949C40.4217 32.9601 40.3432 33.3233 40.1782 33.6496L39.3941 35.1896C40.1476 35.7993 40.6936 36.6277 40.9569 37.5605C41.2202 38.4934 41.1878 39.4849 40.8643 40.3986C40.5407 41.3123 39.9419 42.1033 39.1502 42.6626C38.3586 43.2219 37.413 43.522 36.4437 43.5217V43.5217ZM33.8939 37.8184C33.6261 37.8184 33.3692 37.9248 33.1799 38.1142C32.9905 38.3036 32.8841 38.5604 32.8841 38.8282C32.8814 39.448 33.0403 40.0578 33.3452 40.5974C33.65 41.137 34.0903 41.5878 34.6225 41.9054C35.1547 42.223 35.7606 42.3963 36.3802 42.4083C36.9999 42.4203 37.612 42.2706 38.1561 41.9739C38.7002 41.6772 39.1576 41.2438 39.4832 40.7164C39.8087 40.189 39.9911 39.5858 40.0125 38.9664C40.0338 38.347 39.8933 37.7327 39.6048 37.1842C39.3163 36.6357 38.8898 36.1718 38.3674 35.8384C38.2583 35.7629 38.1792 35.6515 38.1442 35.5235C38.1091 35.3956 38.1202 35.2594 38.1756 35.1389L39.1684 33.1701C39.2454 33.0155 39.2821 32.844 39.2752 32.6714C39.2683 32.4988 39.218 32.3308 39.1289 32.1828C39.0382 32.0357 38.9111 31.9144 38.76 31.8304C38.6089 31.7464 38.4387 31.7027 38.2658 31.7033H34.1647C34.0253 31.6929 33.8853 31.7114 33.7535 31.7576C33.6216 31.8037 33.5007 31.8766 33.3983 31.9717C33.2959 32.0667 33.2142 32.1819 33.1583 32.3099C33.1024 32.438 33.0736 32.5762 33.0736 32.7159C33.0736 32.8557 33.1024 32.9939 33.1583 33.1219C33.2142 33.25 33.2959 33.3652 33.3983 33.4602C33.5007 33.5553 33.6216 33.6282 33.7535 33.6743C33.8853 33.7205 34.0253 33.739 34.1647 33.7285H35.6991C35.7949 33.7284 35.8893 33.7526 35.9732 33.799C36.0571 33.8454 36.1278 33.9124 36.1786 33.9937C36.2281 34.0794 36.2542 34.1767 36.2542 34.2757C36.2542 34.3748 36.2281 34.472 36.1786 34.5578L35.5298 35.8384V35.9061C35.5298 35.9061 35.5298 35.9568 35.496 35.9963C35.4943 36.0264 35.4943 36.0565 35.496 36.0866C35.496 36.0866 35.496 36.1317 35.496 36.1543C35.496 36.1768 35.496 36.2558 35.496 36.2897V36.2671C35.4944 36.2821 35.4944 36.2972 35.496 36.3122C35.4924 36.3516 35.4924 36.3913 35.496 36.4307C35.4928 36.4626 35.4928 36.4947 35.496 36.5266C35.5028 36.5593 35.5122 36.5913 35.5242 36.6225C35.535 36.6517 35.5482 36.68 35.5637 36.7071L35.6088 36.7974C35.6243 36.8259 35.6433 36.8524 35.6652 36.8764L35.7273 36.9497C35.7469 36.975 35.7697 36.9977 35.795 37.0174L35.8683 37.0794L35.9642 37.1415H36.0093C36.0619 37.1671 36.1166 37.1878 36.1729 37.2035H36.235C36.2986 37.2125 36.3632 37.2125 36.4268 37.2035H36.4776C36.7811 37.2091 37.0763 37.3043 37.3259 37.4771C37.5756 37.6499 37.7686 37.8927 37.8806 38.1748C37.9927 38.457 38.0189 38.766 37.9559 39.063C37.8928 39.3601 37.7434 39.6318 37.5264 39.8441C37.3094 40.0565 37.0344 40.1999 36.7361 40.2565C36.4378 40.313 36.1294 40.2801 35.8498 40.1619C35.5701 40.0437 35.3316 39.8454 35.1643 39.5921C34.9969 39.3387 34.9082 39.0416 34.9093 38.738C34.8854 38.4856 34.7679 38.2513 34.58 38.0812C34.3921 37.911 34.1474 37.8173 33.8939 37.8184V37.8184ZM35.9868 38.3826C36.021 38.5325 36.038 38.6858 36.0375 38.8395C36.0375 38.9478 36.0802 39.0516 36.1562 39.1287C36.2322 39.2058 36.3355 39.2498 36.4437 39.2513C36.5529 39.2513 36.6577 39.2079 36.7349 39.1307C36.8121 39.0535 36.8555 38.9487 36.8555 38.8395C36.854 38.7313 36.81 38.628 36.7329 38.5519C36.6559 38.4759 36.552 38.4333 36.4437 38.4333H36.376C36.2449 38.4224 36.1148 38.4017 35.9868 38.3713V38.3826Z" fill="#FCFCFC"/>
</svg>
