<svg width="56" height="58" viewBox="0 0 56 58" fill="none" xmlns="http://www.w3.org/2000/svg">
<path d="M55.6602 0.740601H8.27381C3.70431 0.740601 -3.56971e-06 4.44491 -3.56971e-06 9.01441V49.6313C-3.56971e-06 54.2008 3.70431 57.9051 8.2738 57.9051H55.6602V0.740601Z" fill="#A95210"/>
<g clip-path="url(#clip0_1_22612)">
<path d="M38.6076 18.8955L42.8734 17.791L27.8587 13.9034L12.7869 17.7913L18.3051 19.2145V26.2118L18.736 26.3717C17.2349 28.3048 16.3376 30.7442 16.3376 33.393C16.3376 39.6509 21.3437 44.7422 27.4971 44.7422C33.6506 44.7422 38.6568 39.6509 38.6568 33.393C38.6568 30.7261 37.747 28.2717 36.2273 26.3324L36.5522 26.2037V19.4277L37.927 19.0692V21.5618L37.3021 22.7995V25.6131H39.3642V22.7545L38.6238 21.548L38.6076 18.8955V18.8955ZM27.8582 14.9526L38.8209 17.791L27.8582 20.6294L16.8538 17.7912L27.8582 14.9526V14.9526ZM21.6743 27.4622C21.0248 27.3687 20.3542 27.2584 19.6743 27.1315L19.3622 27.0732L19.563 26.8233C19.593 26.7859 19.6244 26.7497 19.655 26.7128L21.6743 27.4622ZM17.2843 32.7196C17.3891 31.0676 17.8886 29.4464 18.7287 28.0303L18.7964 27.9165L18.925 27.942C19.8458 28.1239 20.746 28.2773 21.6005 28.3979L21.8081 28.4272L21.7564 28.6338C21.4354 29.9175 21.2507 31.2976 21.2076 32.7377L21.202 32.9216H17.2714L17.2843 32.7196ZM18.7957 38.8683L18.728 38.7542C17.8883 37.3383 17.3891 35.7232 17.2843 34.0716L17.2714 33.8748H21.202L21.2076 34.0535C21.2507 35.4933 21.4353 36.8711 21.7562 38.1546L21.8079 38.3596L21.6003 38.3881C20.7423 38.5091 19.8419 38.662 18.9244 38.8433L18.7957 38.8683V38.8683ZM23.6679 43.0438C22.0725 42.3846 20.6533 41.3194 19.5637 39.9634L19.3628 39.7133L19.6752 39.6552C20.4494 39.5113 21.2068 39.3885 21.9264 39.2904L22.0782 39.2697L22.1284 39.4168C22.5811 40.7431 23.1715 41.8632 23.8834 42.7463L24.3506 43.3259L23.6679 43.0438ZM27.0537 43.7719L26.8118 43.7127C25.3312 43.3367 23.9793 41.7599 23.1106 39.3867L23.0238 39.1557L23.2637 39.1305C24.4561 39.0061 25.6699 38.9332 26.8547 38.9137L27.0537 38.9105V43.7719H27.0537ZM27.0537 37.9709L26.8601 37.9738C25.5607 37.9946 24.2271 38.0794 22.9054 38.226L22.7433 38.2437L22.7006 38.0856C22.3698 36.8271 22.1782 35.4787 22.1321 34.0656L22.1251 33.8748H27.0537V37.9709V37.9709ZM22.1251 32.9216L22.1315 32.7256C22.1776 31.3125 22.3687 29.9583 22.6994 28.6997L22.741 28.5419L22.9008 28.5597C23.6445 28.6421 24.3916 28.7041 25.1355 28.7468L27.0537 29.4587V32.9216H22.1251V32.9216ZM30.1818 28.7274C30.8181 28.6858 31.4567 28.6301 32.0936 28.5595L32.2534 28.5418L32.295 28.6998C32.6258 29.9582 32.817 31.312 32.8632 32.7256L32.8697 32.9216H27.9286V29.62L30.1818 28.7274ZM27.9286 33.8748H32.8697L32.8632 34.0656C32.817 35.4791 32.6259 36.8307 32.2951 38.089L32.2535 38.2454L32.0936 38.227C30.7714 38.0804 29.4272 37.995 28.1282 37.9742L27.9286 37.9709V33.8748H27.9286ZM28.1765 43.7128L27.9286 43.7719V38.9105L28.1342 38.9137C29.3185 38.9332 30.5314 39.0061 31.7243 39.1306L31.9692 39.1558L31.879 39.3868C31.0102 41.76 29.6571 43.3368 28.1765 43.7128ZM35.4306 39.9635C34.3411 41.3193 32.9221 42.3843 31.3268 43.0435L30.644 43.3257L31.1113 42.746C31.8232 41.863 32.4136 40.7429 32.8662 39.417L32.9164 39.2698L33.0682 39.2906C33.7887 39.3888 34.5461 39.5116 35.3191 39.6553L35.6315 39.7134L35.4306 39.9635ZM37.71 34.0716C37.6052 35.7232 37.1059 37.3415 36.2662 38.7573L36.1986 38.8699L36.0699 38.8437C35.1527 38.6625 34.2525 38.5089 33.3943 38.3878L33.1867 38.3583L33.2384 38.1517C33.5594 36.8684 33.744 35.4937 33.7871 34.0535L33.7926 33.8748H37.7228L37.71 34.0716V34.0716ZM37.71 32.7196L37.7228 32.9216H33.7926L33.7871 32.7377C33.744 31.2975 33.5594 29.9171 33.2384 28.6339L33.1867 28.4275L33.3943 28.3985C34.2524 28.2775 35.1526 28.1243 36.0699 27.9431L36.1985 27.9176L36.2662 28.0317C37.1059 29.4476 37.6052 31.068 37.71 32.7196ZM35.4311 26.8232L35.6317 27.0729L35.3198 27.1313C34.6472 27.2573 34.015 27.3632 33.3972 27.4536L35.3212 26.6914C35.3578 26.7353 35.3952 26.7785 35.4311 26.8232V26.8232ZM35.5524 25.5089L27.7041 28.6176L19.305 25.5008V19.4724L27.8587 21.6785L35.5524 19.6865V25.5089V25.5089Z" fill="#FCFCFC"/>
</g>
<defs>
<clipPath id="clip0_1_22612">
<rect width="30.0866" height="30.8387" fill="white" transform="translate(12.7869 13.9034)"/>
</clipPath>
</defs>
</svg>
