<svg width="40" height="40" viewBox="0 0 40 40" fill="none" xmlns="http://www.w3.org/2000/svg">
<path d="M0.855225 33.7115C0.855225 37.0253 3.54152 39.7115 6.85522 39.7115L39.5217 39.7115L39.5217 7.62939e-06L6.85522 7.62939e-06C3.54152 7.62939e-06 0.855225 2.6863 0.855225 6.00001L0.855225 33.7115Z" fill="#A95210"/>
<g clip-path="url(#clip0_1_33673)">
<path d="M29.3326 26.7187L32.8385 22.5556C33.0594 22.2949 33.2121 21.9815 33.2824 21.6445C33.3527 21.3075 33.3382 20.9578 33.2404 20.628L31.2184 13.7522C31.134 13.4665 30.9518 13.2212 30.705 13.061C30.4582 12.9008 30.1632 12.8362 29.8737 12.8792C29.5842 12.9221 29.3194 13.0696 29.1276 13.2949C28.9358 13.5202 28.8296 13.8083 28.8285 14.1067C28.8285 14.1358 28.8293 14.1649 28.8314 14.1916L29.1131 18.3828C28.9756 18.3707 28.8371 18.3885 28.7068 18.4351C28.5765 18.4816 28.4573 18.5558 28.3572 18.6527L24.8965 22.0186C24.5055 22.4 24.1941 22.858 23.9809 23.3652C23.7677 23.8724 23.6571 24.4183 23.6558 24.9701V28.1892C23.439 28.3196 23.2592 28.5054 23.1342 28.7282C23.0092 28.9511 22.9433 29.2033 22.943 29.4601V33.0927C22.943 33.1962 23.0077 33.4098 23.0794 33.483C23.1512 33.5563 29.1097 33.483 29.2112 33.483C29.3127 33.483 28.7567 33.1659 28.8285 33.0927C28.9002 33.0195 23.7084 33.1962 23.7084 33.0927V30.3992H28.8285V33.0927C28.8285 33.1962 28.8688 33.2955 28.9405 33.3687C29.0123 33.4419 29.1097 33.483 29.2112 33.483C29.3127 33.483 29.41 33.4419 29.4818 33.3687C29.5535 33.2955 29.5939 33.1962 29.5939 33.0927V29.4601C29.5936 29.2094 29.5307 28.963 29.4113 28.744C29.2919 28.5249 29.1197 28.3405 28.9111 28.208V27.878C28.9113 27.4526 29.0609 27.0414 29.3326 26.7187ZM28.8284 29.6185H23.7084V29.4601C23.7092 29.2745 23.7822 29.0969 23.9113 28.9662C24.0404 28.8355 24.215 28.7624 24.3969 28.7628H28.1398C28.3217 28.7624 28.4963 28.8355 28.6254 28.9662C28.7545 29.0969 28.8275 29.2745 28.8284 29.4601L28.8284 29.6185ZM28.7519 26.2101C28.361 26.6744 28.1459 27.266 28.1457 27.878V27.9823C28.1437 27.9823 28.1418 27.9821 28.1398 27.9821H24.4212V24.9701C24.4223 24.5239 24.5118 24.0825 24.6842 23.6724C24.8566 23.2623 25.1085 22.892 25.4247 22.5836L28.8856 19.2175C28.926 19.1784 28.9799 19.1569 29.0356 19.1576C29.0914 19.1583 29.1447 19.1812 29.1842 19.2213L29.2127 19.2509C29.2236 19.262 29.234 19.2733 29.2441 19.2847C29.2474 19.2889 29.2508 19.293 29.2543 19.297C29.444 19.5159 29.5442 19.8006 29.5344 20.0926C29.5245 20.3846 29.4053 20.6616 29.2012 20.8666L27.2811 22.7976C27.2107 22.8707 27.1712 22.9691 27.1713 23.0715C27.1714 23.174 27.211 23.2723 27.2815 23.3453C27.352 23.4182 27.4479 23.46 27.5483 23.4615C27.6487 23.463 27.7457 23.4242 27.8184 23.3535L29.7386 21.4225C30.0651 21.0941 30.2631 20.6556 30.2954 20.1891C30.3278 19.7225 30.1923 19.26 29.9143 18.888L29.5947 14.1349C29.5941 14.1255 29.5938 14.1161 29.5939 14.1067C29.5951 13.9958 29.6352 13.889 29.7069 13.8056C29.7786 13.7223 29.8771 13.6678 29.9847 13.652C30.0923 13.6363 30.2019 13.6603 30.2937 13.7198C30.3855 13.7792 30.4534 13.8702 30.4851 13.9763L32.5073 20.8523C32.5679 21.0567 32.5768 21.2734 32.5332 21.4822C32.4896 21.691 32.395 21.8852 32.2581 22.0467L28.7519 26.2101ZM16.7957 28.1892V24.8951C16.7944 24.3433 16.6838 23.7974 16.4706 23.2903C16.2574 22.7831 15.946 22.325 15.555 21.9436L12.0944 18.5778C11.9943 18.4808 11.8751 18.4067 11.7447 18.3602C11.6144 18.3137 11.4759 18.2959 11.3383 18.308L11.6198 14.121C11.622 14.0929 11.623 14.0637 11.623 14.0317C11.6218 13.7334 11.5157 13.4454 11.3239 13.2202C11.1321 12.995 10.8674 12.8475 10.5779 12.8045C10.2885 12.7615 9.99358 12.826 9.7468 12.9861C9.50003 13.1462 9.3178 13.3914 9.23328 13.677L7.21102 20.553C7.11323 20.8828 7.09879 21.2324 7.16905 21.5694C7.23931 21.9064 7.39198 22.2198 7.61286 22.4804L11.1189 26.6437C11.3906 26.9664 11.5401 27.3777 11.5404 27.8031V28.2081C11.3318 28.3406 11.1597 28.525 11.0403 28.744C10.9208 28.963 10.858 29.2094 10.8577 29.4601V33.0927C10.8577 33.1962 10.8822 33.4098 10.9539 33.483C11.0257 33.5563 16.9978 33.4821 17.0993 33.4821C17.2008 33.4821 16.6714 33.1659 16.7431 33.0927C16.8149 33.0195 11.6232 33.1962 11.6232 33.0927V30.3992H16.7431V33.0927C16.7431 33.1962 16.7835 33.2955 16.8552 33.3687C16.927 33.4419 17.0243 33.483 17.1258 33.483C17.2273 33.483 17.3247 33.4419 17.3965 33.3687C17.4682 33.2955 17.5085 33.1962 17.5085 33.0927V29.4601C17.5082 29.2033 17.4423 28.9511 17.3173 28.7282C17.1923 28.5054 17.0125 28.3196 16.7957 28.1892ZM8.19335 21.9716C8.05646 21.8101 7.96183 21.616 7.91826 21.4072C7.87468 21.1984 7.88358 20.9818 7.94413 20.7774L9.9665 13.901C9.99826 13.7949 10.0662 13.704 10.158 13.6445C10.2497 13.5851 10.3594 13.5611 10.467 13.5769C10.5746 13.5926 10.6731 13.6472 10.7448 13.7306C10.8164 13.814 10.8565 13.9208 10.8576 14.0317C10.8576 14.0408 10.8575 14.0498 10.8565 14.0633L10.5372 18.8126C10.2592 19.1846 10.1237 19.6473 10.156 20.1139C10.1884 20.5805 10.3864 21.0192 10.7129 21.3476L12.6331 23.2786C12.6689 23.3146 12.7113 23.343 12.7578 23.3623C12.8044 23.3816 12.8542 23.3913 12.9045 23.391C12.9548 23.3906 13.0045 23.3802 13.0508 23.3602C13.0971 23.3402 13.139 23.3112 13.1743 23.2747C13.2096 23.2382 13.2375 23.1949 13.2564 23.1474C13.2753 23.0999 13.2849 23.0491 13.2845 22.9978C13.2842 22.9466 13.2739 22.8959 13.2543 22.8487C13.2348 22.8014 13.2063 22.7586 13.1705 22.7226L11.2504 20.7917C11.0462 20.5864 10.9269 20.3091 10.9172 20.0168C10.9074 19.7246 11.0079 19.4396 11.1979 19.2207C11.211 19.2055 11.2243 19.1906 11.2413 19.1734L11.2665 19.1471C11.306 19.1067 11.3595 19.0837 11.4154 19.0828C11.4714 19.082 11.5255 19.1035 11.5662 19.1427L15.0267 22.5085C15.3429 22.8169 15.5948 23.1872 15.7673 23.5974C15.9397 24.0075 16.0292 24.4489 16.0303 24.8951V27.9821H12.3117C12.3097 27.9821 12.3078 27.9822 12.3058 27.9823V27.8031C12.3055 27.1911 12.0905 26.5994 11.6996 26.1351L8.19335 21.9716ZM16.7431 29.6185H11.6232V29.4601C11.624 29.2745 11.697 29.0969 11.8261 28.9662C11.9552 28.8355 12.1298 28.7624 12.3117 28.7628H16.0545C16.2364 28.7624 16.4111 28.8355 16.5402 28.9662C16.6693 29.0969 16.7423 29.2745 16.7431 29.4601V29.6185ZM21.4513 21.0327C22.6489 20.6572 23.6032 20.2674 23.7757 19.5394C23.8053 19.4196 23.8101 19.2949 23.7901 19.1731C23.77 19.0514 23.7255 18.9352 23.6592 18.8318C23.3991 18.4176 22.7967 18.1443 22.0055 17.921C23.2995 17.6108 24.2765 17.2273 24.4657 16.4882C24.4945 16.3798 24.5012 16.2665 24.4854 16.1553C24.4696 16.0442 24.4315 15.9375 24.3737 15.8419C24.1338 15.438 23.5663 15.1565 22.4757 14.9004C22.4267 14.8889 22.376 14.8873 22.3264 14.8958C22.2768 14.9043 22.2294 14.9227 22.1868 14.9499C22.1007 15.0048 22.0396 15.0923 22.0168 15.1932C21.9941 15.2941 22.0115 15.4001 22.0654 15.4879C22.1192 15.5756 22.205 15.638 22.3039 15.6612C23.4236 15.9242 23.6665 16.158 23.7189 16.2463C23.7238 16.2526 23.7269 16.26 23.728 16.2678C23.729 16.2757 23.728 16.2837 23.7251 16.291C23.7013 16.3836 23.5547 16.6298 22.707 16.9142C22.1094 17.1147 21.3379 17.2771 20.5717 17.4319V14.0563H24.2773L24.2779 14.0563L24.279 14.0563H26.5302C26.6426 14.0563 26.7526 14.0234 26.8471 13.9615C26.9417 13.8995 27.0169 13.8112 27.0637 13.707C27.1105 13.6028 27.127 13.4871 27.1112 13.3737C27.0954 13.2602 27.048 13.1537 26.9746 13.0669L24.4255 10.0507C24.0889 9.65044 23.6295 9.37809 23.122 9.27798C22.6144 9.17788 22.0886 9.2559 21.6301 9.49937L20.5717 10.0577V9.37706C20.8625 9.28379 21.1109 9.08743 21.272 8.82353C21.433 8.55962 21.4962 8.2456 21.4499 7.93833C21.4037 7.63105 21.2511 7.35082 21.0198 7.14836C20.7885 6.9459 20.4938 6.83459 20.189 6.83459C19.8842 6.83459 19.5895 6.9459 19.3582 7.14836C19.1269 7.35082 18.9744 7.63105 18.9281 7.93833C18.8819 8.2456 18.945 8.55962 19.1061 8.82353C19.2672 9.08743 19.5156 9.28379 19.8063 9.37706V10.0578L18.7479 9.49937C18.2894 9.25591 17.7636 9.17789 17.256 9.278C16.7485 9.3781 16.2891 9.65044 15.9526 10.0507L13.4034 13.0669C13.33 13.1537 13.2826 13.2602 13.2668 13.3737C13.2511 13.4871 13.2676 13.6028 13.3144 13.707C13.3612 13.8112 13.4363 13.8995 13.5309 13.9615C13.6255 14.0234 13.7355 14.0563 13.8478 14.0563H16.099L16.1001 14.0563L16.1007 14.0563H19.8063V17.4319C19.0402 17.2771 18.2686 17.1147 17.6711 16.9142C16.8233 16.6298 16.6767 16.3836 16.653 16.2909C16.65 16.2836 16.649 16.2756 16.6501 16.2678C16.6511 16.2599 16.6543 16.2525 16.6591 16.2463C16.7115 16.158 16.9543 15.9242 18.0738 15.6613C18.1232 15.6502 18.1699 15.6292 18.2113 15.5996C18.2527 15.57 18.2879 15.5323 18.315 15.4887C18.342 15.4451 18.3603 15.3965 18.3688 15.3456C18.3773 15.2948 18.3758 15.2427 18.3644 15.1925C18.3531 15.1422 18.3321 15.0947 18.3027 15.0528C18.2732 15.0109 18.236 14.9753 18.193 14.9482C18.15 14.921 18.1021 14.9028 18.0522 14.8946C18.0023 14.8865 17.9513 14.8884 17.9021 14.9005C16.8117 15.1566 16.2441 15.4381 16.0044 15.842C15.9465 15.9375 15.9085 16.0442 15.8927 16.1554C15.8768 16.2665 15.8835 16.3798 15.9124 16.4882C16.1016 17.2273 17.0785 17.6108 18.3725 17.921C17.5814 18.1443 16.9789 18.4176 16.7188 18.8318C16.6526 18.9352 16.608 19.0514 16.5879 19.1731C16.5679 19.2949 16.5728 19.4196 16.6023 19.5394C16.7748 20.2674 17.7291 20.6572 18.9267 21.0327C18.3525 21.2691 17.916 21.5417 17.7191 21.9148C17.6605 22.0241 17.6242 22.1443 17.6125 22.2683C17.6007 22.3923 17.6137 22.5174 17.6507 22.6362C17.8282 23.2289 18.4633 23.601 19.2213 23.9388C18.4348 24.3422 17.8248 24.8557 18.0038 25.6662C18.0261 25.7672 18.0868 25.8551 18.1726 25.9104C18.2584 25.9657 18.3622 25.984 18.4613 25.9613C18.5603 25.9385 18.6464 25.8766 18.7006 25.7891C18.7549 25.7015 18.7728 25.5956 18.7505 25.4946C18.6728 25.1428 19.1193 24.8401 19.8063 24.5201V25.5804C19.8063 25.6839 19.8466 25.7832 19.9184 25.8564C19.9902 25.9296 20.0875 25.9708 20.189 25.9708C20.2905 25.9708 20.3879 25.9296 20.4596 25.8564C20.5314 25.7832 20.5717 25.6839 20.5717 25.5804V24.5201C21.2587 24.8401 21.7052 25.1427 21.6275 25.4946C21.6161 25.5448 21.6145 25.5968 21.6228 25.6476C21.6311 25.6983 21.6492 25.747 21.6761 25.7906C21.7029 25.8342 21.7379 25.872 21.7791 25.9017C21.8203 25.9315 21.8669 25.9527 21.9162 25.964C21.9654 25.9753 22.0164 25.9765 22.0661 25.9677C22.1159 25.9588 22.1634 25.94 22.206 25.9123C22.2485 25.8846 22.2853 25.8486 22.3142 25.8064C22.3431 25.7642 22.3635 25.7165 22.3742 25.6662C22.5532 24.8557 21.9432 24.3422 21.1568 23.9388C21.9148 23.601 22.5498 23.2288 22.7274 22.6362C22.7644 22.5175 22.7773 22.3924 22.7656 22.2684C22.7538 22.1444 22.7175 22.0241 22.6589 21.9148C22.462 21.5416 22.0255 21.2691 21.4513 21.0327ZM19.8063 23.344C19.1592 23.0687 18.4837 22.7453 18.3826 22.4081C18.3751 22.3882 18.3721 22.3667 18.3739 22.3454C18.3757 22.324 18.3822 22.3034 18.393 22.285C18.5333 22.0191 19.1324 21.7668 19.8063 21.541V23.344ZM19.8063 20.486C19.187 20.2999 18.5471 20.1076 18.0681 19.8929C17.4677 19.6238 17.3633 19.4277 17.3463 19.3559C17.341 19.3385 17.3398 19.3202 17.3428 19.3023C17.3458 19.2844 17.3529 19.2674 17.3635 19.2528C17.589 18.8934 18.7078 18.614 19.8063 18.3837V20.486ZM19.8063 13.2756H17.7613C17.8289 13.2131 17.8935 13.1474 17.9549 13.0786C18.1934 12.8087 18.3818 12.4968 18.5106 12.1581C18.5476 12.0617 18.5454 11.9542 18.5047 11.8594C18.464 11.7645 18.388 11.6901 18.2935 11.6524C18.1989 11.6147 18.0936 11.6169 18.0006 11.6584C17.9076 11.7 17.8347 11.7775 17.7977 11.8739C17.7025 12.1245 17.5634 12.3554 17.387 12.5551C16.9462 13.0526 16.3821 13.2196 16.0673 13.2756H14.2376L16.5323 10.5606C16.7567 10.2936 17.063 10.112 17.4015 10.0453C17.7399 9.9785 18.0905 10.0305 18.3963 10.1929L19.8063 10.9368V13.2756ZM23.0146 19.2528C23.0252 19.2674 23.0322 19.2843 23.0352 19.3022C23.0382 19.3202 23.037 19.3385 23.0317 19.3559C23.0148 19.4277 22.9104 19.6238 22.31 19.8929C21.8309 20.1076 21.191 20.2999 20.5717 20.486V18.3837C21.6702 18.614 22.789 18.8933 23.0146 19.2528ZM21.9817 10.1929C22.2875 10.0306 22.6381 9.97852 22.9766 10.0453C23.315 10.112 23.6213 10.2937 23.8457 10.5606L26.1404 13.2756H24.3107C23.9959 13.2196 23.4318 13.0526 22.991 12.5552C22.8147 12.3554 22.6755 12.1245 22.5803 11.8738C22.5623 11.8257 22.5351 11.7816 22.5004 11.7442C22.4656 11.7068 22.4239 11.6768 22.3777 11.6559C22.3315 11.6351 22.2817 11.6237 22.2312 11.6226C22.1807 11.6214 22.1304 11.6305 22.0834 11.6493C22.0363 11.668 21.9933 11.6961 21.957 11.7319C21.9206 11.7677 21.8915 11.8105 21.8715 11.8578C21.8514 11.9051 21.8407 11.956 21.84 12.0075C21.8393 12.0591 21.8487 12.1102 21.8675 12.1581C21.9963 12.4968 22.1846 12.8088 22.4231 13.0787C22.4845 13.1474 22.5491 13.2132 22.6166 13.2756H20.5717V10.9368L21.9817 10.1929ZM20.189 8.65619C20.0881 8.65619 19.9894 8.62567 19.9055 8.56848C19.8216 8.51129 19.7562 8.43 19.7176 8.33489C19.679 8.23979 19.6689 8.13514 19.6885 8.03417C19.7082 7.93321 19.7568 7.84047 19.8282 7.76768C19.8996 7.69489 19.9905 7.64532 20.0895 7.62524C20.1884 7.60515 20.291 7.61546 20.3843 7.65485C20.4775 7.69425 20.5572 7.76096 20.6133 7.84655C20.6694 7.93214 20.6993 8.03277 20.6993 8.13571C20.6991 8.2737 20.6453 8.40599 20.5497 8.50357C20.454 8.60114 20.3243 8.65603 20.189 8.65619ZM21.9954 22.4081C21.8943 22.7452 21.2188 23.0686 20.5717 23.3439V21.541C21.2456 21.7668 21.8446 22.019 21.985 22.285C21.9958 22.3034 22.0023 22.324 22.0041 22.3453C22.0059 22.3667 22.0029 22.3881 21.9954 22.4081Z" fill="#FCFCFC"/>
</g>
<defs>
<clipPath id="clip0_1_33673">
<rect width="26.126" height="26.6485" fill="white" transform="translate(7.12622 6.83459)"/>
</clipPath>
</defs>
</svg>
