<svg width="25" height="25" viewBox="0 0 25 25" fill="none" xmlns="http://www.w3.org/2000/svg">
<g clip-path="url(#clip0_1_33815)">
<path d="M17.1923 23.9819H3.21216V24.4645C3.21216 24.5605 3.36044 24.6525 3.62438 24.7204C3.88832 24.7882 4.24629 24.8264 4.61956 24.8264H18.8343" fill="#F4F4F4"/>
<mask id="path-2-outside-1_1_33815" maskUnits="userSpaceOnUse" x="-0.737793" y="-0.662598" width="26" height="26" fill="black">
<rect fill="white" x="-0.737793" y="-0.662598" width="26" height="26"/>
<path d="M5.19301 19.731L3.65753 21.2666L3.21037 20.8194C3.17706 20.786 3.13751 20.7596 3.09398 20.7416C3.05045 20.7236 3.0038 20.7143 2.95669 20.7143C2.90958 20.7143 2.86293 20.7236 2.8194 20.7416C2.77588 20.7596 2.73633 20.7861 2.70302 20.8194C2.66971 20.8527 2.64328 20.8922 2.62526 20.9358C2.60723 20.9793 2.59795 21.0259 2.59795 21.0731C2.59796 21.1202 2.60724 21.1668 2.62527 21.2104C2.6433 21.2539 2.66973 21.2934 2.70304 21.3267L3.40384 22.0275C3.47113 22.0948 3.56237 22.1326 3.65751 22.1326C3.75264 22.1326 3.84388 22.0948 3.91117 22.0275L5.70038 20.2384C5.76766 20.1711 5.80545 20.0798 5.80545 19.9847C5.80544 19.8895 5.76764 19.7983 5.70036 19.731C5.63308 19.6637 5.54183 19.6259 5.44668 19.6259C5.35153 19.626 5.26028 19.6638 5.19301 19.731ZM7.58468 5.64649H17.4496C17.7349 5.64617 18.0084 5.53268 18.2102 5.33093C18.4119 5.12918 18.5254 4.85564 18.5257 4.57033V3.5659C18.5254 3.28059 18.4119 3.00705 18.2102 2.8053C18.0084 2.60355 17.7349 2.49007 17.4496 2.48974H7.58468C7.29937 2.49007 7.02583 2.60355 6.82408 2.8053C6.62233 3.00705 6.50884 3.28059 6.50851 3.5659V4.57033C6.50884 4.85564 6.62233 5.12918 6.82408 5.33093C7.02583 5.53268 7.29937 5.64617 7.58468 5.64649ZM7.22596 3.5659C7.22606 3.4708 7.26389 3.37961 7.33114 3.31236C7.39839 3.24511 7.48957 3.20728 7.58468 3.20718H17.4496C17.5447 3.20728 17.6358 3.24511 17.7031 3.31236C17.7703 3.37961 17.8082 3.4708 17.8083 3.5659V4.57033C17.8082 4.66544 17.7703 4.75662 17.7031 4.82387C17.6358 4.89112 17.5447 4.92895 17.4496 4.92905H7.58468C7.48957 4.92895 7.39839 4.89112 7.33114 4.82387C7.26389 4.75662 7.22606 4.66544 7.22596 4.57033V3.5659ZM18.5646 7.44011C18.5646 7.34497 18.5269 7.25373 18.4596 7.18645C18.3923 7.11918 18.3011 7.08138 18.2059 7.08138H6.7865C6.69136 7.08138 6.60012 7.11918 6.53285 7.18645C6.46557 7.25373 6.42778 7.34497 6.42778 7.44011C6.42778 7.53525 6.46557 7.62649 6.53285 7.69376C6.60012 7.76104 6.69136 7.79883 6.7865 7.79883H18.2059C18.3011 7.79883 18.3923 7.76104 18.4596 7.69376C18.5269 7.62649 18.5646 7.53525 18.5646 7.44011ZM24.1848 5.66352C24.0609 5.59552 23.9248 5.5526 23.7843 5.53722C23.6438 5.52184 23.5017 5.53429 23.366 5.57388C23.2303 5.61347 23.1038 5.67941 22.9936 5.76793C22.8834 5.85645 22.7917 5.96582 22.7238 6.08978L22.3331 6.80287L20.7168 9.75224V4.40292H23.3893C23.4845 4.40292 23.5757 4.36513 23.643 4.29786C23.7103 4.23058 23.748 4.13934 23.748 4.0442V2.21166C23.7475 1.71474 23.5498 1.23834 23.1985 0.886974C22.8471 0.535604 22.3707 0.337959 21.8738 0.337402C21.8558 0.337402 21.838 0.338263 21.8201 0.338742C21.8112 0.33812 21.8023 0.337402 21.7932 0.337402H6.05719C5.58166 0.337934 5.12576 0.527074 4.78951 0.863326C4.45325 1.19958 4.26411 1.65548 4.26358 2.13101L4.26339 16.9329C3.50675 16.9218 2.76292 17.1287 2.12064 17.5288C1.47836 17.929 0.964752 18.5054 0.641108 19.1894C0.317463 19.8735 0.197444 20.6361 0.295372 21.3865C0.393299 22.1369 0.705037 22.8432 1.19339 23.4212C1.68174 23.9993 2.32609 24.4246 3.04955 24.6465C3.773 24.8684 4.54502 24.8774 5.27349 24.6726C6.00195 24.4677 6.6561 24.0576 7.15788 23.4912C7.65966 22.9248 7.98789 22.226 8.10339 21.4781H16.9863V22.9608C16.9863 23.4556 17.1828 23.93 17.5327 24.2798C17.8825 24.6297 18.357 24.8262 18.8517 24.8262C19.3464 24.8262 19.8209 24.6297 20.1707 24.2798C20.5205 23.93 20.717 23.4556 20.717 22.9608L20.7168 14.2309L24.2202 7.83738L24.6107 7.12477C24.6787 7.00088 24.7217 6.86479 24.7371 6.72429C24.7526 6.58378 24.7401 6.44162 24.7006 6.30591C24.661 6.17021 24.5951 6.04363 24.5066 5.93341C24.4181 5.82319 24.3088 5.73145 24.1848 5.66352ZM20.717 2.21166C20.717 1.90485 20.8389 1.61061 21.0558 1.39367C21.2728 1.17672 21.567 1.05485 21.8738 1.05485C22.1806 1.05485 22.4748 1.17672 22.6918 1.39367C22.9087 1.61061 23.0306 1.90485 23.0306 2.21166V3.68548H20.717V2.21166ZM7.05234 22.395C6.80307 22.8638 6.44204 23.2638 6.00124 23.5598C5.56043 23.8557 5.05345 24.0383 4.52519 24.0915C3.99694 24.1447 3.46373 24.0668 2.97278 23.8647C2.48183 23.6626 2.0483 23.3425 1.71059 22.9328C1.37288 22.5231 1.14142 22.0365 1.0367 21.516C0.931982 20.9955 0.957244 20.4572 1.11025 19.9488C1.26325 19.4404 1.53927 18.9776 1.91386 18.6014C2.28845 18.2251 2.75005 17.9471 3.25777 17.7918C3.66306 17.6668 4.08912 17.6233 4.5113 17.664C4.93349 17.7047 5.34343 17.8286 5.71741 18.0287C6.09176 18.2277 6.42324 18.4986 6.69293 18.8257C6.96261 19.1529 7.16522 19.5299 7.28918 19.9354C7.41314 20.3408 7.45602 20.7667 7.41539 21.1887C7.37475 21.6108 7.25138 22.0207 7.05234 22.395ZM18.8516 24.1087C18.5473 24.1084 18.2555 23.9874 18.0403 23.7722C17.8251 23.557 17.7041 23.2652 17.7037 22.9608V21.1194C17.7037 21.0243 17.6659 20.933 17.5986 20.8657C17.5314 20.7985 17.4401 20.7607 17.345 20.7607C17.337 20.7607 17.329 20.7613 17.3211 20.7619C17.3131 20.7614 17.3053 20.7607 17.2972 20.7607H8.14644C8.13547 20.4096 8.07789 20.0615 7.97521 19.7256C7.82501 19.2295 7.57788 18.768 7.24813 18.368C6.91839 17.968 6.51257 17.6373 6.05418 17.3952C5.71688 17.2156 5.35535 17.0857 4.98083 17.0096L4.98103 2.13101C4.98136 1.8457 5.09484 1.57216 5.29659 1.37041C5.49834 1.16866 5.77188 1.05518 6.05719 1.05485H20.4008C20.1406 1.38428 19.9992 1.79188 19.9995 2.21166V4.03956L19.9993 4.0442V11.0614L16.8164 16.8695C16.8132 16.8754 16.8107 16.8813 16.8079 16.8872C16.806 16.8912 16.8039 16.8951 16.8021 16.8992C16.7914 16.9237 16.7835 16.9494 16.7785 16.9757L16.778 16.9779L16.4213 18.9435C15.7241 19.0047 15.0218 18.9721 14.3333 18.8465C14.0093 18.7836 13.689 18.7029 13.3739 18.6047C12.9366 18.475 12.5588 18.3631 12.0222 18.3809C11.2453 18.4069 10.4811 18.6959 9.75093 19.2399C9.67583 19.2972 9.62633 19.3818 9.61319 19.4753C9.60005 19.5688 9.62433 19.6638 9.68076 19.7395C9.73719 19.8152 9.82121 19.8657 9.91459 19.8799C10.008 19.894 10.1032 19.8708 10.1795 19.8152C10.7902 19.3603 11.4182 19.119 12.0462 19.0979C12.4667 19.0836 12.7615 19.1714 13.1699 19.2925C13.5087 19.398 13.853 19.4846 14.2014 19.5518C15.0477 19.7057 15.9123 19.7323 16.7665 19.6307C16.7709 19.6302 16.7751 19.6292 16.7794 19.6285C16.7851 19.6277 16.7907 19.6268 16.7964 19.6257C16.8025 19.6244 16.8086 19.623 16.8147 19.6214C16.8372 19.6157 16.8591 19.6078 16.8801 19.5978C16.8841 19.5959 16.8882 19.5939 16.8921 19.5918C16.9184 19.5781 16.9428 19.5612 16.9648 19.5414C16.9665 19.54 16.9682 19.5387 16.9698 19.5372L18.6333 17.9947L18.6364 17.9915C18.6442 17.9841 18.6516 17.9763 18.6587 17.9682C18.6603 17.9664 18.662 17.9648 18.6636 17.9629C18.6719 17.953 18.6798 17.9426 18.687 17.9318C18.6892 17.9284 18.6912 17.9249 18.6933 17.9215C18.6969 17.9157 18.7007 17.9101 18.704 17.904L19.9993 15.5401L19.9995 22.9608C19.9992 23.2652 19.8781 23.557 19.6629 23.7722C19.4477 23.9874 19.156 24.1084 18.8516 24.1087ZM17.3951 17.5958L17.7183 17.7729L17.7806 17.807L17.271 18.2795L17.3951 17.5958ZM20.0432 13.9672L20.0423 13.969L18.2472 17.2447L17.9326 17.0722L17.618 16.8998L22.7898 7.4623L23.4187 7.8071L20.0432 13.9672ZM23.9818 6.77944L23.7634 7.17791L23.6222 7.10052L23.1346 6.83315L23.353 6.43458C23.3913 6.36477 23.4518 6.3097 23.5249 6.27806C23.598 6.24642 23.6795 6.23999 23.7566 6.25981C23.8338 6.27962 23.9021 6.32454 23.9509 6.3875C23.9997 6.45045 24.0262 6.52784 24.0261 6.60749C24.0263 6.66765 24.011 6.72685 23.9818 6.77944Z"/>
</mask>
<path d="M5.19301 19.731L3.65753 21.2666L3.21037 20.8194C3.17706 20.786 3.13751 20.7596 3.09398 20.7416C3.05045 20.7236 3.0038 20.7143 2.95669 20.7143C2.90958 20.7143 2.86293 20.7236 2.8194 20.7416C2.77588 20.7596 2.73633 20.7861 2.70302 20.8194C2.66971 20.8527 2.64328 20.8922 2.62526 20.9358C2.60723 20.9793 2.59795 21.0259 2.59795 21.0731C2.59796 21.1202 2.60724 21.1668 2.62527 21.2104C2.6433 21.2539 2.66973 21.2934 2.70304 21.3267L3.40384 22.0275C3.47113 22.0948 3.56237 22.1326 3.65751 22.1326C3.75264 22.1326 3.84388 22.0948 3.91117 22.0275L5.70038 20.2384C5.76766 20.1711 5.80545 20.0798 5.80545 19.9847C5.80544 19.8895 5.76764 19.7983 5.70036 19.731C5.63308 19.6637 5.54183 19.6259 5.44668 19.6259C5.35153 19.626 5.26028 19.6638 5.19301 19.731ZM7.58468 5.64649H17.4496C17.7349 5.64617 18.0084 5.53268 18.2102 5.33093C18.4119 5.12918 18.5254 4.85564 18.5257 4.57033V3.5659C18.5254 3.28059 18.4119 3.00705 18.2102 2.8053C18.0084 2.60355 17.7349 2.49007 17.4496 2.48974H7.58468C7.29937 2.49007 7.02583 2.60355 6.82408 2.8053C6.62233 3.00705 6.50884 3.28059 6.50851 3.5659V4.57033C6.50884 4.85564 6.62233 5.12918 6.82408 5.33093C7.02583 5.53268 7.29937 5.64617 7.58468 5.64649ZM7.22596 3.5659C7.22606 3.4708 7.26389 3.37961 7.33114 3.31236C7.39839 3.24511 7.48957 3.20728 7.58468 3.20718H17.4496C17.5447 3.20728 17.6358 3.24511 17.7031 3.31236C17.7703 3.37961 17.8082 3.4708 17.8083 3.5659V4.57033C17.8082 4.66544 17.7703 4.75662 17.7031 4.82387C17.6358 4.89112 17.5447 4.92895 17.4496 4.92905H7.58468C7.48957 4.92895 7.39839 4.89112 7.33114 4.82387C7.26389 4.75662 7.22606 4.66544 7.22596 4.57033V3.5659ZM18.5646 7.44011C18.5646 7.34497 18.5269 7.25373 18.4596 7.18645C18.3923 7.11918 18.3011 7.08138 18.2059 7.08138H6.7865C6.69136 7.08138 6.60012 7.11918 6.53285 7.18645C6.46557 7.25373 6.42778 7.34497 6.42778 7.44011C6.42778 7.53525 6.46557 7.62649 6.53285 7.69376C6.60012 7.76104 6.69136 7.79883 6.7865 7.79883H18.2059C18.3011 7.79883 18.3923 7.76104 18.4596 7.69376C18.5269 7.62649 18.5646 7.53525 18.5646 7.44011ZM24.1848 5.66352C24.0609 5.59552 23.9248 5.5526 23.7843 5.53722C23.6438 5.52184 23.5017 5.53429 23.366 5.57388C23.2303 5.61347 23.1038 5.67941 22.9936 5.76793C22.8834 5.85645 22.7917 5.96582 22.7238 6.08978L22.3331 6.80287L20.7168 9.75224V4.40292H23.3893C23.4845 4.40292 23.5757 4.36513 23.643 4.29786C23.7103 4.23058 23.748 4.13934 23.748 4.0442V2.21166C23.7475 1.71474 23.5498 1.23834 23.1985 0.886974C22.8471 0.535604 22.3707 0.337959 21.8738 0.337402C21.8558 0.337402 21.838 0.338263 21.8201 0.338742C21.8112 0.33812 21.8023 0.337402 21.7932 0.337402H6.05719C5.58166 0.337934 5.12576 0.527074 4.78951 0.863326C4.45325 1.19958 4.26411 1.65548 4.26358 2.13101L4.26339 16.9329C3.50675 16.9218 2.76292 17.1287 2.12064 17.5288C1.47836 17.929 0.964752 18.5054 0.641108 19.1894C0.317463 19.8735 0.197444 20.6361 0.295372 21.3865C0.393299 22.1369 0.705037 22.8432 1.19339 23.4212C1.68174 23.9993 2.32609 24.4246 3.04955 24.6465C3.773 24.8684 4.54502 24.8774 5.27349 24.6726C6.00195 24.4677 6.6561 24.0576 7.15788 23.4912C7.65966 22.9248 7.98789 22.226 8.10339 21.4781H16.9863V22.9608C16.9863 23.4556 17.1828 23.93 17.5327 24.2798C17.8825 24.6297 18.357 24.8262 18.8517 24.8262C19.3464 24.8262 19.8209 24.6297 20.1707 24.2798C20.5205 23.93 20.717 23.4556 20.717 22.9608L20.7168 14.2309L24.2202 7.83738L24.6107 7.12477C24.6787 7.00088 24.7217 6.86479 24.7371 6.72429C24.7526 6.58378 24.7401 6.44162 24.7006 6.30591C24.661 6.17021 24.5951 6.04363 24.5066 5.93341C24.4181 5.82319 24.3088 5.73145 24.1848 5.66352ZM20.717 2.21166C20.717 1.90485 20.8389 1.61061 21.0558 1.39367C21.2728 1.17672 21.567 1.05485 21.8738 1.05485C22.1806 1.05485 22.4748 1.17672 22.6918 1.39367C22.9087 1.61061 23.0306 1.90485 23.0306 2.21166V3.68548H20.717V2.21166ZM7.05234 22.395C6.80307 22.8638 6.44204 23.2638 6.00124 23.5598C5.56043 23.8557 5.05345 24.0383 4.52519 24.0915C3.99694 24.1447 3.46373 24.0668 2.97278 23.8647C2.48183 23.6626 2.0483 23.3425 1.71059 22.9328C1.37288 22.5231 1.14142 22.0365 1.0367 21.516C0.931982 20.9955 0.957244 20.4572 1.11025 19.9488C1.26325 19.4404 1.53927 18.9776 1.91386 18.6014C2.28845 18.2251 2.75005 17.9471 3.25777 17.7918C3.66306 17.6668 4.08912 17.6233 4.5113 17.664C4.93349 17.7047 5.34343 17.8286 5.71741 18.0287C6.09176 18.2277 6.42324 18.4986 6.69293 18.8257C6.96261 19.1529 7.16522 19.5299 7.28918 19.9354C7.41314 20.3408 7.45602 20.7667 7.41539 21.1887C7.37475 21.6108 7.25138 22.0207 7.05234 22.395ZM18.8516 24.1087C18.5473 24.1084 18.2555 23.9874 18.0403 23.7722C17.8251 23.557 17.7041 23.2652 17.7037 22.9608V21.1194C17.7037 21.0243 17.6659 20.933 17.5986 20.8657C17.5314 20.7985 17.4401 20.7607 17.345 20.7607C17.337 20.7607 17.329 20.7613 17.3211 20.7619C17.3131 20.7614 17.3053 20.7607 17.2972 20.7607H8.14644C8.13547 20.4096 8.07789 20.0615 7.97521 19.7256C7.82501 19.2295 7.57788 18.768 7.24813 18.368C6.91839 17.968 6.51257 17.6373 6.05418 17.3952C5.71688 17.2156 5.35535 17.0857 4.98083 17.0096L4.98103 2.13101C4.98136 1.8457 5.09484 1.57216 5.29659 1.37041C5.49834 1.16866 5.77188 1.05518 6.05719 1.05485H20.4008C20.1406 1.38428 19.9992 1.79188 19.9995 2.21166V4.03956L19.9993 4.0442V11.0614L16.8164 16.8695C16.8132 16.8754 16.8107 16.8813 16.8079 16.8872C16.806 16.8912 16.8039 16.8951 16.8021 16.8992C16.7914 16.9237 16.7835 16.9494 16.7785 16.9757L16.778 16.9779L16.4213 18.9435C15.7241 19.0047 15.0218 18.9721 14.3333 18.8465C14.0093 18.7836 13.689 18.7029 13.3739 18.6047C12.9366 18.475 12.5588 18.3631 12.0222 18.3809C11.2453 18.4069 10.4811 18.6959 9.75093 19.2399C9.67583 19.2972 9.62633 19.3818 9.61319 19.4753C9.60005 19.5688 9.62433 19.6638 9.68076 19.7395C9.73719 19.8152 9.82121 19.8657 9.91459 19.8799C10.008 19.894 10.1032 19.8708 10.1795 19.8152C10.7902 19.3603 11.4182 19.119 12.0462 19.0979C12.4667 19.0836 12.7615 19.1714 13.1699 19.2925C13.5087 19.398 13.853 19.4846 14.2014 19.5518C15.0477 19.7057 15.9123 19.7323 16.7665 19.6307C16.7709 19.6302 16.7751 19.6292 16.7794 19.6285C16.7851 19.6277 16.7907 19.6268 16.7964 19.6257C16.8025 19.6244 16.8086 19.623 16.8147 19.6214C16.8372 19.6157 16.8591 19.6078 16.8801 19.5978C16.8841 19.5959 16.8882 19.5939 16.8921 19.5918C16.9184 19.5781 16.9428 19.5612 16.9648 19.5414C16.9665 19.54 16.9682 19.5387 16.9698 19.5372L18.6333 17.9947L18.6364 17.9915C18.6442 17.9841 18.6516 17.9763 18.6587 17.9682C18.6603 17.9664 18.662 17.9648 18.6636 17.9629C18.6719 17.953 18.6798 17.9426 18.687 17.9318C18.6892 17.9284 18.6912 17.9249 18.6933 17.9215C18.6969 17.9157 18.7007 17.9101 18.704 17.904L19.9993 15.5401L19.9995 22.9608C19.9992 23.2652 19.8781 23.557 19.6629 23.7722C19.4477 23.9874 19.156 24.1084 18.8516 24.1087ZM17.3951 17.5958L17.7183 17.7729L17.7806 17.807L17.271 18.2795L17.3951 17.5958ZM20.0432 13.9672L20.0423 13.969L18.2472 17.2447L17.9326 17.0722L17.618 16.8998L22.7898 7.4623L23.4187 7.8071L20.0432 13.9672ZM23.9818 6.77944L23.7634 7.17791L23.6222 7.10052L23.1346 6.83315L23.353 6.43458C23.3913 6.36477 23.4518 6.3097 23.5249 6.27806C23.598 6.24642 23.6795 6.23999 23.7566 6.25981C23.8338 6.27962 23.9021 6.32454 23.9509 6.3875C23.9997 6.45045 24.0262 6.52784 24.0261 6.60749C24.0263 6.66765 24.011 6.72685 23.9818 6.77944Z" fill="#F4F4F4"/>
<path d="M5.19301 19.731L3.65753 21.2666L3.21037 20.8194C3.17706 20.786 3.13751 20.7596 3.09398 20.7416C3.05045 20.7236 3.0038 20.7143 2.95669 20.7143C2.90958 20.7143 2.86293 20.7236 2.8194 20.7416C2.77588 20.7596 2.73633 20.7861 2.70302 20.8194C2.66971 20.8527 2.64328 20.8922 2.62526 20.9358C2.60723 20.9793 2.59795 21.0259 2.59795 21.0731C2.59796 21.1202 2.60724 21.1668 2.62527 21.2104C2.6433 21.2539 2.66973 21.2934 2.70304 21.3267L3.40384 22.0275C3.47113 22.0948 3.56237 22.1326 3.65751 22.1326C3.75264 22.1326 3.84388 22.0948 3.91117 22.0275L5.70038 20.2384C5.76766 20.1711 5.80545 20.0798 5.80545 19.9847C5.80544 19.8895 5.76764 19.7983 5.70036 19.731C5.63308 19.6637 5.54183 19.6259 5.44668 19.6259C5.35153 19.626 5.26028 19.6638 5.19301 19.731ZM7.58468 5.64649H17.4496C17.7349 5.64617 18.0084 5.53268 18.2102 5.33093C18.4119 5.12918 18.5254 4.85564 18.5257 4.57033V3.5659C18.5254 3.28059 18.4119 3.00705 18.2102 2.8053C18.0084 2.60355 17.7349 2.49007 17.4496 2.48974H7.58468C7.29937 2.49007 7.02583 2.60355 6.82408 2.8053C6.62233 3.00705 6.50884 3.28059 6.50851 3.5659V4.57033C6.50884 4.85564 6.62233 5.12918 6.82408 5.33093C7.02583 5.53268 7.29937 5.64617 7.58468 5.64649ZM7.22596 3.5659C7.22606 3.4708 7.26389 3.37961 7.33114 3.31236C7.39839 3.24511 7.48957 3.20728 7.58468 3.20718H17.4496C17.5447 3.20728 17.6358 3.24511 17.7031 3.31236C17.7703 3.37961 17.8082 3.4708 17.8083 3.5659V4.57033C17.8082 4.66544 17.7703 4.75662 17.7031 4.82387C17.6358 4.89112 17.5447 4.92895 17.4496 4.92905H7.58468C7.48957 4.92895 7.39839 4.89112 7.33114 4.82387C7.26389 4.75662 7.22606 4.66544 7.22596 4.57033V3.5659ZM18.5646 7.44011C18.5646 7.34497 18.5269 7.25373 18.4596 7.18645C18.3923 7.11918 18.3011 7.08138 18.2059 7.08138H6.7865C6.69136 7.08138 6.60012 7.11918 6.53285 7.18645C6.46557 7.25373 6.42778 7.34497 6.42778 7.44011C6.42778 7.53525 6.46557 7.62649 6.53285 7.69376C6.60012 7.76104 6.69136 7.79883 6.7865 7.79883H18.2059C18.3011 7.79883 18.3923 7.76104 18.4596 7.69376C18.5269 7.62649 18.5646 7.53525 18.5646 7.44011ZM24.1848 5.66352C24.0609 5.59552 23.9248 5.5526 23.7843 5.53722C23.6438 5.52184 23.5017 5.53429 23.366 5.57388C23.2303 5.61347 23.1038 5.67941 22.9936 5.76793C22.8834 5.85645 22.7917 5.96582 22.7238 6.08978L22.3331 6.80287L20.7168 9.75224V4.40292H23.3893C23.4845 4.40292 23.5757 4.36513 23.643 4.29786C23.7103 4.23058 23.748 4.13934 23.748 4.0442V2.21166C23.7475 1.71474 23.5498 1.23834 23.1985 0.886974C22.8471 0.535604 22.3707 0.337959 21.8738 0.337402C21.8558 0.337402 21.838 0.338263 21.8201 0.338742C21.8112 0.33812 21.8023 0.337402 21.7932 0.337402H6.05719C5.58166 0.337934 5.12576 0.527074 4.78951 0.863326C4.45325 1.19958 4.26411 1.65548 4.26358 2.13101L4.26339 16.9329C3.50675 16.9218 2.76292 17.1287 2.12064 17.5288C1.47836 17.929 0.964752 18.5054 0.641108 19.1894C0.317463 19.8735 0.197444 20.6361 0.295372 21.3865C0.393299 22.1369 0.705037 22.8432 1.19339 23.4212C1.68174 23.9993 2.32609 24.4246 3.04955 24.6465C3.773 24.8684 4.54502 24.8774 5.27349 24.6726C6.00195 24.4677 6.6561 24.0576 7.15788 23.4912C7.65966 22.9248 7.98789 22.226 8.10339 21.4781H16.9863V22.9608C16.9863 23.4556 17.1828 23.93 17.5327 24.2798C17.8825 24.6297 18.357 24.8262 18.8517 24.8262C19.3464 24.8262 19.8209 24.6297 20.1707 24.2798C20.5205 23.93 20.717 23.4556 20.717 22.9608L20.7168 14.2309L24.2202 7.83738L24.6107 7.12477C24.6787 7.00088 24.7217 6.86479 24.7371 6.72429C24.7526 6.58378 24.7401 6.44162 24.7006 6.30591C24.661 6.17021 24.5951 6.04363 24.5066 5.93341C24.4181 5.82319 24.3088 5.73145 24.1848 5.66352ZM20.717 2.21166C20.717 1.90485 20.8389 1.61061 21.0558 1.39367C21.2728 1.17672 21.567 1.05485 21.8738 1.05485C22.1806 1.05485 22.4748 1.17672 22.6918 1.39367C22.9087 1.61061 23.0306 1.90485 23.0306 2.21166V3.68548H20.717V2.21166ZM7.05234 22.395C6.80307 22.8638 6.44204 23.2638 6.00124 23.5598C5.56043 23.8557 5.05345 24.0383 4.52519 24.0915C3.99694 24.1447 3.46373 24.0668 2.97278 23.8647C2.48183 23.6626 2.0483 23.3425 1.71059 22.9328C1.37288 22.5231 1.14142 22.0365 1.0367 21.516C0.931982 20.9955 0.957244 20.4572 1.11025 19.9488C1.26325 19.4404 1.53927 18.9776 1.91386 18.6014C2.28845 18.2251 2.75005 17.9471 3.25777 17.7918C3.66306 17.6668 4.08912 17.6233 4.5113 17.664C4.93349 17.7047 5.34343 17.8286 5.71741 18.0287C6.09176 18.2277 6.42324 18.4986 6.69293 18.8257C6.96261 19.1529 7.16522 19.5299 7.28918 19.9354C7.41314 20.3408 7.45602 20.7667 7.41539 21.1887C7.37475 21.6108 7.25138 22.0207 7.05234 22.395ZM18.8516 24.1087C18.5473 24.1084 18.2555 23.9874 18.0403 23.7722C17.8251 23.557 17.7041 23.2652 17.7037 22.9608V21.1194C17.7037 21.0243 17.6659 20.933 17.5986 20.8657C17.5314 20.7985 17.4401 20.7607 17.345 20.7607C17.337 20.7607 17.329 20.7613 17.3211 20.7619C17.3131 20.7614 17.3053 20.7607 17.2972 20.7607H8.14644C8.13547 20.4096 8.07789 20.0615 7.97521 19.7256C7.82501 19.2295 7.57788 18.768 7.24813 18.368C6.91839 17.968 6.51257 17.6373 6.05418 17.3952C5.71688 17.2156 5.35535 17.0857 4.98083 17.0096L4.98103 2.13101C4.98136 1.8457 5.09484 1.57216 5.29659 1.37041C5.49834 1.16866 5.77188 1.05518 6.05719 1.05485H20.4008C20.1406 1.38428 19.9992 1.79188 19.9995 2.21166V4.03956L19.9993 4.0442V11.0614L16.8164 16.8695C16.8132 16.8754 16.8107 16.8813 16.8079 16.8872C16.806 16.8912 16.8039 16.8951 16.8021 16.8992C16.7914 16.9237 16.7835 16.9494 16.7785 16.9757L16.778 16.9779L16.4213 18.9435C15.7241 19.0047 15.0218 18.9721 14.3333 18.8465C14.0093 18.7836 13.689 18.7029 13.3739 18.6047C12.9366 18.475 12.5588 18.3631 12.0222 18.3809C11.2453 18.4069 10.4811 18.6959 9.75093 19.2399C9.67583 19.2972 9.62633 19.3818 9.61319 19.4753C9.60005 19.5688 9.62433 19.6638 9.68076 19.7395C9.73719 19.8152 9.82121 19.8657 9.91459 19.8799C10.008 19.894 10.1032 19.8708 10.1795 19.8152C10.7902 19.3603 11.4182 19.119 12.0462 19.0979C12.4667 19.0836 12.7615 19.1714 13.1699 19.2925C13.5087 19.398 13.853 19.4846 14.2014 19.5518C15.0477 19.7057 15.9123 19.7323 16.7665 19.6307C16.7709 19.6302 16.7751 19.6292 16.7794 19.6285C16.7851 19.6277 16.7907 19.6268 16.7964 19.6257C16.8025 19.6244 16.8086 19.623 16.8147 19.6214C16.8372 19.6157 16.8591 19.6078 16.8801 19.5978C16.8841 19.5959 16.8882 19.5939 16.8921 19.5918C16.9184 19.5781 16.9428 19.5612 16.9648 19.5414C16.9665 19.54 16.9682 19.5387 16.9698 19.5372L18.6333 17.9947L18.6364 17.9915C18.6442 17.9841 18.6516 17.9763 18.6587 17.9682C18.6603 17.9664 18.662 17.9648 18.6636 17.9629C18.6719 17.953 18.6798 17.9426 18.687 17.9318C18.6892 17.9284 18.6912 17.9249 18.6933 17.9215C18.6969 17.9157 18.7007 17.9101 18.704 17.904L19.9993 15.5401L19.9995 22.9608C19.9992 23.2652 19.8781 23.557 19.6629 23.7722C19.4477 23.9874 19.156 24.1084 18.8516 24.1087ZM17.3951 17.5958L17.7183 17.7729L17.7806 17.807L17.271 18.2795L17.3951 17.5958ZM20.0432 13.9672L20.0423 13.969L18.2472 17.2447L17.9326 17.0722L17.618 16.8998L22.7898 7.4623L23.4187 7.8071L20.0432 13.9672ZM23.9818 6.77944L23.7634 7.17791L23.6222 7.10052L23.1346 6.83315L23.353 6.43458C23.3913 6.36477 23.4518 6.3097 23.5249 6.27806C23.598 6.24642 23.6795 6.23999 23.7566 6.25981C23.8338 6.27962 23.9021 6.32454 23.9509 6.3875C23.9997 6.45045 24.0262 6.52784 24.0261 6.60749C24.0263 6.66765 24.011 6.72685 23.9818 6.77944Z" stroke="#F4F4F4" stroke-width="0.0848888" mask="url(#path-2-outside-1_1_33815)"/>
</g>
<defs>
<clipPath id="clip0_1_33815">
<rect width="24.4888" height="24.4888" fill="white" transform="translate(0.255615 0.337891)"/>
</clipPath>
</defs>
</svg>
