<svg width="56" height="58" viewBox="0 0 56 58" fill="none" xmlns="http://www.w3.org/2000/svg">
<path d="M55.6602 0.0708008H8.27381C3.70431 0.0708008 -3.56971e-06 3.77511 -3.56971e-06 8.34461V48.9615C-3.56971e-06 53.531 3.70431 57.2353 8.2738 57.2353H55.6602V0.0708008Z" fill="#A95210"/>
<path d="M36.6386 35.4989C37.1455 35.4989 37.6411 35.3455 38.0626 35.0581C38.4841 34.7708 38.8126 34.3623 39.0066 33.8844C39.2006 33.4064 39.2514 32.8806 39.1525 32.3732C39.0536 31.8659 38.8095 31.3998 38.451 31.0341C38.0925 30.6683 37.6358 30.4192 37.1386 30.3183C36.6414 30.2173 36.1261 30.2691 35.6577 30.4671C35.1894 30.6651 34.7891 31.0003 34.5074 31.4304C34.2258 31.8605 34.0754 32.3662 34.0754 32.8835C34.0762 33.5769 34.3465 34.2417 34.827 34.732C35.3075 35.2223 35.959 35.4981 36.6386 35.4989ZM36.6386 31.4433C36.9177 31.4433 37.1906 31.5277 37.4227 31.686C37.6548 31.8442 37.8357 32.0692 37.9426 32.3323C38.0494 32.5955 38.0773 32.8851 38.0229 33.1644C37.9684 33.4438 37.834 33.7004 37.6366 33.9018C37.4392 34.1033 37.1877 34.2404 36.9139 34.296C36.6402 34.3516 36.3564 34.323 36.0985 34.214C35.8406 34.105 35.6201 33.9204 35.4651 33.6836C35.31 33.4468 35.2272 33.1683 35.2272 32.8835C35.2276 32.5016 35.3764 32.1355 35.641 31.8655C35.9056 31.5955 36.2644 31.4436 36.6386 31.4431V31.4433Z" fill="#FCFCFC"/>
<path d="M38.5606 35.4843C38.4694 35.4868 38.38 35.5109 38.2995 35.5546C38.219 35.5984 38.1495 35.6607 38.0966 35.7366C37.9883 35.8893 37.8579 36.0245 37.71 36.1375C37.3219 36.4254 36.8377 36.5445 36.3637 36.4688C35.8896 36.3931 35.4643 36.1286 35.181 35.7335C35.128 35.6579 35.0584 35.596 34.9777 35.5528C34.8971 35.5095 34.8077 35.4861 34.7167 35.4843C33.4133 35.4843 32.3651 36.5927 32.3651 37.9225V40.6969C32.3637 40.7736 32.3772 40.8498 32.4049 40.921C32.4325 40.9923 32.4738 41.0573 32.5262 41.1122C32.5787 41.1671 32.6413 41.2108 32.7104 41.2408C32.7795 41.2709 32.8538 41.2866 32.9289 41.2871H40.3482C40.5019 41.2868 40.6493 41.2247 40.7585 41.1142C40.8676 41.0037 40.9297 40.8538 40.9312 40.6969V37.9225C40.9312 36.5927 39.8638 35.4843 38.5606 35.4843ZM39.7795 40.1119H33.5168V37.9225C33.5159 37.6391 33.6106 37.3641 33.7849 37.1435C33.9592 36.923 34.2026 36.7704 34.4742 36.7114C34.7519 37.0151 35.0879 37.2573 35.4612 37.4229C35.8345 37.5885 36.2373 37.674 36.6443 37.674C37.0514 37.674 37.4542 37.5885 37.8275 37.4229C38.2008 37.2573 38.5368 37.0151 38.8145 36.7114C39.0868 36.7701 39.3312 36.9224 39.5069 37.1428C39.6825 37.3632 39.7787 37.6384 39.7795 37.9225V40.1119Z" fill="#FCFCFC"/>
<path d="M40.4994 29.003V26.5964H41.6531C41.7277 26.5984 41.8019 26.5852 41.8713 26.5575C41.9408 26.5298 42.0042 26.4881 42.0576 26.4351C42.1111 26.382 42.1537 26.3186 42.1827 26.2485C42.2118 26.1784 42.2269 26.1031 42.227 26.027V21.1406C42.227 19.0611 40.6596 17.3413 38.7305 17.3413H32.2932V16.3662C32.2932 14.2867 30.7438 12.5668 28.8147 12.5668H23.8312C21.9021 12.5668 20.3437 14.2867 20.3437 16.3662V17.3413H14.3396C12.4106 17.3413 10.8418 19.0611 10.8418 21.1406V26.027C10.8421 26.1032 10.8573 26.1785 10.8865 26.2486C10.9157 26.3187 10.9584 26.3822 11.012 26.4352C11.0656 26.4883 11.129 26.5298 11.1986 26.5575C11.2681 26.5852 11.3424 26.5984 11.417 26.5964H12.5694V35.742C12.5694 37.8216 14.1459 39.5242 16.0751 39.5242H29.0632C30.2839 42.5358 33.2194 44.7167 36.6386 44.7167C38.4627 44.7167 40.2345 44.0948 41.6727 42.9497C43.1109 41.8047 44.1329 40.2022 44.5765 38.3967C45.0201 36.5912 44.8598 34.6863 44.1212 32.9844C43.3825 31.2824 42.1078 29.8811 40.4994 29.003V29.003ZM21.4955 16.3662C21.4955 14.9347 22.5373 13.742 23.8312 13.742H28.8147C30.1086 13.742 31.1414 14.9347 31.1414 16.3662V17.3413H21.4955V16.3662ZM11.9935 21.1407C11.9935 19.7091 13.0456 18.5165 14.3396 18.5165H38.7305C40.0243 18.5165 41.0753 19.7091 41.0753 21.1406V25.4211H30.2776V23.3137C30.273 23.153 30.2083 23.0002 30.0967 22.8866C29.9852 22.7731 29.8352 22.7075 29.6777 22.7034H22.9294C22.775 22.7087 22.6289 22.7757 22.5223 22.8898C22.4157 23.0039 22.3572 23.1561 22.3593 23.3137V25.4211H11.9935V21.1407ZM29.1259 23.8786V28.1389H23.5111V23.8786H29.1259ZM16.0751 38.349C14.7809 38.349 13.7212 37.1737 13.7212 35.742V26.5964H22.3593V28.7402C22.3589 28.8164 22.3735 28.8918 22.4021 28.9621C22.4307 29.0324 22.4728 29.0962 22.5259 29.1497C22.579 29.2032 22.6421 29.2453 22.7114 29.2735C22.7807 29.3018 22.8548 29.3156 22.9294 29.3142H29.6777C29.9957 29.3142 30.2776 29.0644 30.2776 28.7402V26.5964H39.3476V28.4852C38.4777 28.1756 37.563 28.0172 36.6417 28.0164C32.1309 28.0164 28.4596 31.7664 28.4596 36.3692C28.4606 37.0361 28.5379 37.7005 28.69 38.349H16.0751ZM36.6389 43.5361C35.2487 43.5361 33.8898 43.1155 32.7339 42.3274C31.578 41.5393 30.6771 40.4191 30.1451 39.1086C29.6131 37.798 29.4739 36.3559 29.7451 34.9647C30.0164 33.5734 30.6858 32.2954 31.6688 31.2924C32.6518 30.2893 33.9042 29.6062 35.2676 29.3295C36.6311 29.0527 38.0443 29.1948 39.3287 29.7376C40.613 30.2805 41.7108 31.1997 42.4831 32.3792C43.2554 33.5587 43.6677 34.9454 43.6677 36.3639C43.6656 38.2655 42.9243 40.0886 41.6066 41.4332C40.2888 42.7778 38.5021 43.5341 36.6386 43.5361H36.6389Z" fill="#FCFCFC"/>
</svg>
