<svg width="23" height="25" viewBox="0 0 23 25" fill="none" xmlns="http://www.w3.org/2000/svg">
<path d="M5.88966 7.28498C6.44899 7.30243 6.25401 6.87431 6.34073 6.58521C6.36401 6.82254 6.38671 7.05987 6.41115 7.31057C6.49729 7.31057 6.57819 7.31057 6.58809 7.31057C6.64629 7.43971 6.66375 7.58571 6.74116 7.63341C7.47276 8.08132 7.77774 8.82588 8.08214 9.55939C8.37664 10.2691 8.61818 11.0008 8.8894 11.7204C9.13036 12.3591 9.46618 12.9309 10.0342 13.3445C10.4673 13.6597 10.8753 14.0105 11.3147 14.3159C11.6022 14.5154 11.686 14.4258 11.7553 14.0884C11.9677 13.0524 12.2127 12.0234 12.449 10.9921C12.4863 10.8298 12.5433 10.6722 12.6219 10.4098C12.2634 10.5052 11.9922 10.5774 11.6488 10.6687C11.7617 10.6 11.8117 10.5512 11.8705 10.5361C12.6533 10.3389 12.8681 9.74146 12.9222 9.03878C12.942 8.78225 12.9211 8.5234 12.9292 8.26571C12.9379 7.99581 12.8541 7.82654 12.5515 7.8847C13.0683 7.62585 12.5893 7.31465 12.6062 6.97727C13.265 7.8911 12.9682 8.87067 12.892 9.92469C13.0759 9.79207 13.1527 9.74495 13.2202 9.68678C13.577 9.37732 13.9076 9.03122 14.2923 8.76248C14.9093 8.33144 15.0332 7.64214 14.5536 7.02264C14.8836 7.18609 14.9372 7.31232 15.0425 8.17613C15.358 8.22267 15.6775 8.2692 15.9976 8.31632C16.0017 8.34715 16.0058 8.37856 16.0093 8.40939C15.2753 8.28549 14.6712 8.53329 14.1235 8.97887C13.5927 9.41048 13.1754 9.90666 13.0258 10.5355C13.559 10.5803 14.0554 10.6192 14.5496 10.6762C14.5618 10.6774 14.5513 10.8769 14.5513 10.9874C13.9838 11.1811 13.4641 11.0439 12.8745 10.7716C12.7482 11.2899 12.5695 11.7623 12.5282 12.2468C12.4368 13.3276 12.4101 14.4142 12.3699 15.4985C12.3664 15.5985 12.4589 15.7021 12.5067 15.8038C12.58 15.7183 12.6766 15.6439 12.722 15.5456C12.9717 15.0005 13.1527 14.4148 13.467 13.9116C13.7598 13.4428 14.187 13.0571 14.5618 12.6406C14.6654 12.526 14.7923 12.4324 14.9547 12.2875C14.3598 12.2398 13.7807 12.455 13.2947 12.0514C13.7272 11.6727 14.6625 11.6384 15.1199 12.013C15.2934 12.1555 15.4214 12.17 15.5466 12.0275C15.5716 11.999 15.4441 11.7559 15.3452 11.7163C14.9471 11.5575 14.5327 11.4406 14.2102 11.3353C14.5595 11.2021 14.9878 11.3964 15.3923 11.568C16.2334 11.9245 17.4381 11.4516 17.7315 10.6675C17.8095 10.4587 17.9433 10.2708 18.0516 10.0736C18.0871 10.0951 18.1232 10.1161 18.1587 10.1376C17.9003 10.5355 17.7094 11.0101 17.3654 11.3091C17.0237 11.6058 16.5279 11.725 16.1024 12.0101C16.2485 12.0461 16.3969 12.0735 16.5389 12.1206C16.77 12.1962 17.0331 12.2363 17.2181 12.3765C17.9381 12.921 18.4375 12.9152 19.3018 12.8198C19.2849 12.8762 19.2686 12.9291 19.2383 13.0292C19.8151 12.9285 20.3785 12.8401 20.8942 13.2066C20.4088 13.633 19.4007 13.5713 19.0323 13.1246C18.9881 13.0705 18.892 13.0478 18.8158 13.0338C18.6726 13.0071 18.5242 13.0071 18.3816 12.978C17.9323 12.8878 17.8421 12.9768 17.9753 13.5143C17.6465 12.9146 17.2106 12.5755 16.6582 12.3794C16.0977 12.1805 15.5914 12.3381 15.1217 12.6377C14.3069 13.1572 13.85 13.9419 13.5514 14.833C13.5264 14.9075 13.5479 14.9976 13.5479 15.1227C13.7516 15.0523 13.9291 14.9906 14.0403 14.9523C13.7825 15.4211 13.4484 15.9016 13.2406 16.4315C12.8058 17.5396 12.807 18.717 12.9147 19.8774C13.002 20.8198 13.3 21.7272 13.6591 22.6026C13.7493 22.8231 13.9536 23.0325 14.1584 23.1646C14.8045 23.5822 15.4756 23.9609 16.1332 24.353C16.1379 24.3477 16.1251 24.3768 16.1105 24.3774C14.9971 24.4233 13.8843 24.4739 12.7709 24.5077C12.2075 24.5246 11.6424 24.524 11.0784 24.5077C9.84508 24.4722 8.61178 24.4216 7.29059 24.3739C7.58626 24.2686 7.81965 24.2232 8.01288 24.1098C8.63448 23.7463 9.34513 23.4548 9.82238 22.9482C10.2182 22.5282 10.4242 21.8622 10.5476 21.2706C10.6948 20.5656 10.7222 19.821 10.6954 19.098C10.6669 18.333 10.54 17.5681 10.4102 16.8113C10.2205 15.7073 9.48423 15.0831 8.475 14.7114C7.77017 14.452 7.04614 14.3921 6.24586 14.4433C6.37681 14.3764 6.45655 14.3357 6.58751 14.2682C5.95776 14.0506 5.3379 13.9128 4.93805 13.2432C5.17727 13.2723 5.34722 13.2636 5.49505 13.3165C5.99384 13.4963 6.47809 13.7028 6.75105 14.2112C6.78714 14.2787 6.93032 14.3298 7.0182 14.3223C7.82139 14.2519 8.61061 14.4026 9.30497 14.7446C9.94985 15.0622 10.4975 15.5805 11.0755 16.0266C11.2448 16.1575 11.3711 16.3448 11.5714 16.5664C11.679 15.9359 11.3967 15.506 11.1366 15.0773C11.0499 14.9342 10.9207 14.8068 10.7856 14.705C9.72402 13.9058 9.09078 12.7901 8.49712 11.643C8.46453 11.5808 8.42437 11.522 8.40516 11.49C8.11764 11.8361 7.83478 12.1758 7.55192 12.5155C7.52456 12.4964 7.4972 12.4772 7.46985 12.458C7.51408 12.3858 7.54551 12.3003 7.6043 12.2427C8.32193 11.5412 8.40807 10.7635 7.8598 9.89445C7.8016 9.80196 7.73874 9.70889 7.70033 9.60709C7.44366 8.93 7.40466 8.8794 6.68819 8.98701C5.90596 9.10451 5.17959 9.38314 4.75646 10.1085C4.57895 10.4127 4.51085 10.7804 4.40434 11.0869C4.23206 10.557 4.52133 10.0643 4.81816 9.51809C4.48233 9.51809 4.23439 9.51809 3.98645 9.51809C4.65345 9.4448 5.27156 9.2732 5.87919 8.97421C6.30639 8.76422 6.80926 8.70721 7.32027 8.5711C7.11889 8.04234 6.70275 7.71194 6.20977 7.45018C6.10676 7.3955 6.0113 7.32744 5.91178 7.2652C5.91353 7.26986 5.88966 7.28498 5.88966 7.28498Z" fill="#B15815"/>
<path d="M8.31813 11.9299C8.68655 12.4738 8.70227 13.3347 8.36877 13.7977C7.97474 13.4394 7.93807 12.4645 8.31813 11.9299Z" fill="#B15815"/>
<path d="M17.7795 12.2872C18.1625 11.8777 19.078 11.8713 19.6147 12.2745C19.22 12.6025 18.2091 12.6095 17.7795 12.2872Z" fill="#B15815"/>
<path d="M12.5723 14.16C12.6514 13.4975 13.2462 12.8192 13.8073 12.7256C13.7747 13.3701 13.2975 13.9343 12.5723 14.16Z" fill="#B15815"/>
<path d="M10.3085 14.7743C9.70783 14.8505 9.09088 14.3781 8.77368 13.7266C9.40576 13.6958 10.1921 14.2228 10.3085 14.7743Z" fill="#B15815"/>
<path d="M13.5048 6.40724C12.864 6.63527 12.0014 6.41481 11.7494 5.97563C12.1766 5.70805 13.1346 5.93258 13.5048 6.40724Z" fill="#B15815"/>
<path d="M3.67079 13.2241C3.45545 12.5191 3.66265 11.9601 4.06308 11.4209C4.38086 11.9223 4.18239 12.8716 3.67079 13.2241Z" fill="#B15815"/>
<path d="M12.7963 6.85131C13.4539 6.83909 14.2292 7.31259 14.4358 7.83378C13.8753 7.92162 12.9767 7.39577 12.7963 6.85131Z" fill="#B15815"/>
<path d="M10.8532 13.5711C10.2683 13.4862 9.69847 12.7695 9.71127 12.1355C10.2252 12.2367 10.7962 12.9539 10.8532 13.5711Z" fill="#B15815"/>
<path d="M11.0344 10.8526C10.3709 11.1185 9.76557 11.1208 9.1626 10.7939C9.57059 10.3785 10.5042 10.3966 11.0344 10.8526Z" fill="#B15815"/>
<path d="M2.31616 2.94924C2.96279 2.86955 3.73804 3.26394 3.90974 3.7607C3.36671 3.92823 2.50066 3.48789 2.31616 2.94924Z" fill="#B15815"/>
<path d="M9.87961 6.38669C9.30225 6.85436 8.72896 7.05796 8.04333 6.96896C8.27614 6.44834 9.0933 6.1732 9.87961 6.38669Z" fill="#B15815"/>
<path d="M5.5675 12.0846C6.03196 11.7152 6.92304 11.7303 7.36712 12.0974C6.72922 12.4638 5.97026 12.4661 5.5675 12.0846Z" fill="#B15815"/>
<path d="M2.2262 7.27647C2.65864 6.91408 3.50723 6.95305 3.99554 7.35675C3.59511 7.70518 2.7116 7.66504 2.2262 7.27647Z" fill="#B15815"/>
<path d="M15.9546 7.94993C16.4004 7.71376 17.2886 7.9383 17.7426 8.40074C17.334 8.67239 16.206 8.38794 15.9546 7.94993Z" fill="#B15815"/>
<path d="M10.7958 8.87112C11.301 8.49127 12.0727 8.47208 12.5843 8.82691C12.2089 9.21839 11.2596 9.24165 10.7958 8.87112Z" fill="#B15815"/>
<path d="M18.7225 10.2992C19.0898 9.9182 19.9832 9.86178 20.5047 10.1672C20.1881 10.5732 19.2795 10.6494 18.7225 10.2992Z" fill="#B15815"/>
<path d="M22.8154 11.1522C22.3346 11.6618 21.5256 11.8933 21.0466 11.6757C21.4011 11.1888 22.2351 10.9329 22.8154 11.1522Z" fill="#B15815"/>
<path d="M6.89038 6.48254C7.41944 6.01718 7.98808 5.85373 8.6702 5.96832C8.32274 6.50522 7.3979 6.77687 6.89038 6.48254Z" fill="#B15815"/>
<path d="M2.90288 6.31998C2.439 6.71961 1.56772 6.726 1.11316 6.35256C1.54735 5.9826 2.24461 5.96341 2.90288 6.31998Z" fill="#B15815"/>
<path d="M10.1264 1.41821C10.5431 2.09705 10.6583 2.69386 10.2887 3.40527C9.918 2.74272 9.88307 2.14009 10.1264 1.41821Z" fill="#B15815"/>
<path d="M2.20154 10.1539C2.71954 9.75368 3.41855 9.74321 4.02443 10.1085C3.63331 10.4697 2.75155 10.5006 2.20154 10.1539Z" fill="#B15815"/>
<path d="M14.5564 5.19279C14.2211 4.56456 14.2444 3.82291 14.6123 3.40234C14.9894 3.78917 14.962 4.67916 14.5564 5.19279Z" fill="#B15815"/>
<path d="M11.347 2.39087C11.5921 3.09879 11.361 3.65837 11.0159 4.21563C10.6649 3.78169 10.818 2.88647 11.347 2.39087Z" fill="#B15815"/>
<path d="M3.16678 13.477C2.60688 13.8562 1.80602 13.858 1.35437 13.4979C1.75655 13.1245 2.59524 13.1064 3.16678 13.477Z" fill="#B15815"/>
<path d="M21.6676 9.33986C21.0274 9.73599 20.4192 9.72261 19.769 9.48644C20.3249 9.03912 21.0175 8.97863 21.6676 9.33986Z" fill="#B15815"/>
<path d="M7.48352 11.5891C7.07436 11.0394 7.08076 10.207 7.47886 9.79224C7.80188 10.1936 7.81353 11.1371 7.48352 11.5891Z" fill="#B15815"/>
<path d="M4.0174 5.77519C3.30442 5.98343 2.74626 5.76995 2.20557 5.39301C2.60367 5.06843 3.55586 5.25806 4.0174 5.77519Z" fill="#B15815"/>
<path d="M7.11694 2.45738C6.77121 1.96993 6.78402 1.07354 7.12508 0.67334C7.50747 1.09972 7.51329 1.98738 7.11694 2.45738Z" fill="#B15815"/>
<path d="M4.40894 12.8425C4.74185 12.4493 5.68822 12.4347 6.19516 12.8157C5.69346 13.1665 4.80005 13.2113 4.40894 12.8425Z" fill="#B15815"/>
<path d="M6.19042 2.00879C6.70667 2.51951 6.96451 3.07503 6.8935 3.78644C6.34756 3.42462 5.96168 2.48927 6.19042 2.00879Z" fill="#B15815"/>
<path d="M12.8253 2.71582C13.1064 3.20037 12.9114 4.13515 12.4866 4.44693C12.2002 4.00659 12.3486 3.21433 12.8253 2.71582Z" fill="#B15815"/>
<path d="M0.259155 9.62393C0.922078 9.304 1.5204 9.30574 2.14956 9.57856C1.73924 10.0183 0.963402 10.0416 0.259155 9.62393Z" fill="#B15815"/>
<path d="M20.2887 12.4348C20.7421 12.0369 21.5336 12.0195 22.0516 12.3952C21.703 12.764 20.7555 12.785 20.2887 12.4348Z" fill="#B15815"/>
<path d="M12.2637 9.87881C11.6404 10.2523 11.0391 10.2255 10.396 10.037C10.7522 9.56528 11.6369 9.48908 12.2637 9.87881Z" fill="#B15815"/>
<path d="M6.2176 8.00389C5.71124 8.4227 5.17462 8.4227 4.63276 8.37559C4.55244 8.36861 4.47969 8.27961 4.40344 8.22784C4.46397 8.16501 4.51286 8.0766 4.58678 8.04402C5.1071 7.81367 5.635 7.75783 6.2176 8.00389Z" fill="#B15815"/>
<path d="M14.7441 14.1353C15.2138 13.7927 16.0386 13.7811 16.503 14.1097C16.2882 14.514 15.0916 14.5285 14.7441 14.1353Z" fill="#B15815"/>
<path d="M8.68616 5.28821C9.40204 5.22189 9.9602 5.42839 10.441 5.9112C9.99571 6.17296 9.00743 5.8286 8.68616 5.28821Z" fill="#B15815"/>
<path d="M8.38599 0.503174C9.00002 0.829502 9.46447 1.5316 9.45109 2.08188C8.92086 1.93704 8.38831 1.16223 8.38599 0.503174Z" fill="#B15815"/>
<path d="M14.1041 2.64273C13.5989 2.30884 13.291 1.45608 13.4866 0.931396C14.0011 1.31182 14.3299 2.22275 14.1041 2.64273Z" fill="#B15815"/>
<path d="M0.423462 7.02323C0.954848 6.92376 1.80169 7.38097 2.03799 7.89519C1.49729 8.02141 0.594576 7.53337 0.423462 7.02323Z" fill="#B15815"/>
<path d="M8.16091 1.80591C8.39837 2.34455 8.03228 3.2898 7.48751 3.55854C7.4101 2.85528 7.69063 2.32245 8.16091 1.80591Z" fill="#B15815"/>
<path d="M11.0506 12.5608C10.9883 11.9669 11.5441 11.1676 12.0802 11.0466C12.1599 11.4846 11.6489 12.2513 11.0506 12.5608Z" fill="#B15815"/>
<path d="M3.21973 2.59468C3.73132 2.51731 4.39425 2.93497 4.73007 3.5248C4.23943 3.70862 3.50725 3.26886 3.21973 2.59468Z" fill="#B15815"/>
<path d="M13.9314 4.36105C13.464 4.09173 13.1509 3.29889 13.2662 2.67822C13.7644 2.90566 14.0845 3.71538 13.9314 4.36105Z" fill="#B15815"/>
<path d="M16.1018 15.0389C15.5594 15.4937 14.9756 15.5775 14.3267 15.4361C14.5234 14.9731 15.5006 14.7422 16.1018 15.0389Z" fill="#B15815"/>
<path d="M14.8969 6.86137C14.7525 6.21977 15.008 5.43798 15.4538 5.15527C15.675 5.68229 15.3747 6.60136 14.8969 6.86137Z" fill="#B15815"/>
<path d="M10.9227 2.23299C10.5327 1.73157 10.6084 0.835181 11.0507 0.383789C11.3807 1.01725 11.1945 1.60127 10.9227 2.23299Z" fill="#B15815"/>
<path d="M0.643066 11.4466C1.12556 10.9167 1.67325 10.6735 2.37342 10.7329C2.09929 11.2529 1.118 11.6612 0.643066 11.4466Z" fill="#B15815"/>
<path d="M15.6866 8.81909C15.9456 9.4258 15.792 10.2489 15.3916 10.4833C15.0971 9.92314 15.235 9.08376 15.6866 8.81909Z" fill="#B15815"/>
<path d="M16.6961 9.58008C16.8905 10.0018 16.497 10.9703 16.0105 11.267C15.8615 10.6876 16.2049 9.84358 16.6961 9.58008Z" fill="#B15815"/>
<path d="M12.9921 5.24888C12.4444 5.49552 11.4311 5.17966 11.2222 4.71198C11.8921 4.60669 12.4659 4.76491 12.9921 5.24888Z" fill="#B15815"/>
<path d="M15.1992 3.08081C14.6881 2.70911 14.4 1.87264 14.6084 1.3689C15.1066 1.73071 15.3959 2.56892 15.1992 3.08081Z" fill="#B15815"/>
<path d="M17.0723 1.3728C17.1072 2.09817 16.8907 2.65718 16.3756 3.10799C16.1224 2.69964 16.4891 1.75672 17.0723 1.3728Z" fill="#B15815"/>
<path d="M19.4209 11.1807C18.9657 11.6478 18.1951 11.8299 17.6649 11.6147C17.8605 11.1935 18.8307 10.9434 19.4209 11.1807Z" fill="#B15815"/>
<path d="M11.9572 7.4863C11.2733 7.56483 10.7175 7.36647 10.2495 6.87087C10.6814 6.60562 11.6848 6.96627 11.9572 7.4863Z" fill="#B15815"/>
<path d="M0.86731 8.35659C1.42372 8.18383 2.17162 8.47002 2.50803 8.98365C1.97781 9.1634 1.0553 8.81031 0.86731 8.35659Z" fill="#B15815"/>
<path d="M17.1199 5.91405C17.7397 5.52199 18.5231 5.52897 18.9806 5.90184C18.377 6.20199 17.7793 6.29913 17.1199 5.91405Z" fill="#B15815"/>
<path d="M4.13763 4.76803C3.69355 4.96465 2.8566 4.65228 2.4585 4.14155C2.92586 3.93156 3.91181 4.29919 4.13763 4.76803Z" fill="#B15815"/>
<path d="M18.4991 14.6323C18.424 15.3437 18.2063 15.9074 17.658 16.325C17.4666 15.8207 17.8746 14.9546 18.4991 14.6323Z" fill="#B15815"/>
<path d="M6.34768 5.68646C6.10789 5.11465 6.24175 4.35555 6.64044 4.02515C6.97277 4.64523 6.83658 5.41888 6.34768 5.68646Z" fill="#B15815"/>
<path d="M2.24524 11.4997C2.64392 10.9925 3.48727 10.6865 3.95114 10.8808C3.67352 11.377 2.86276 11.6713 2.24524 11.4997Z" fill="#B15815"/>
<path d="M20.1096 11.9887C20.0676 11.2976 20.5874 10.5007 21.1339 10.3809C21.0204 11.0562 20.705 11.5716 20.1096 11.9887Z" fill="#B15815"/>
<path d="M15.8808 2.9021C16.0229 3.43551 15.6574 4.30979 15.2075 4.56225C15.0183 4.03291 15.325 3.25926 15.8808 2.9021Z" fill="#B15815"/>
<path d="M17.6615 5.27138C17.8681 4.76124 18.6294 4.35406 19.2754 4.40815C19.0199 4.93749 18.2831 5.33188 17.6615 5.27138Z" fill="#B15815"/>
<path d="M17.2894 4.83325C17.0432 5.54466 16.4688 6.03444 15.8175 6.10366C16.0829 5.42483 16.5788 5.05139 17.2894 4.83325Z" fill="#B15815"/>
<path d="M19.7048 7.80615C19.7438 8.38959 19.2607 9.16614 18.7445 9.38486C18.6368 8.89973 19.1193 8.0906 19.7048 7.80615Z" fill="#B15815"/>
<path d="M17.8063 8.81299C17.8605 9.54476 17.644 10.1014 17.1167 10.5563C16.9287 10.0165 17.2447 9.19458 17.8063 8.81299Z" fill="#B15815"/>
<path d="M11.6639 3.2123C11.8321 2.49973 12.1581 1.97155 12.8076 1.6394C12.7983 2.28159 12.2745 3.0058 11.6639 3.2123Z" fill="#B15815"/>
<path d="M20.8638 4.93315C20.397 5.41421 19.4891 5.63583 19.1038 5.38222C19.4041 4.95002 20.3214 4.70687 20.8638 4.93315Z" fill="#B15815"/>
<path d="M4.48987 3.95459C5.1103 4.1355 5.67836 4.79455 5.71037 5.33902C5.2238 5.31284 4.66564 4.69101 4.48987 3.95459Z" fill="#B15815"/>
<path d="M18.3674 3.30176C18.0711 3.96663 17.6224 4.35985 16.9787 4.56577C16.9327 4.08064 17.6532 3.41286 18.3674 3.30176Z" fill="#B15815"/>
<path d="M17.1655 3.15283C17.0043 3.87936 16.6097 4.35751 15.998 4.70944C15.9537 4.13007 16.5101 3.39133 17.1655 3.15283Z" fill="#B15815"/>
<path d="M11.1395 5.97951C10.5097 5.57582 10.2431 5.02553 10.1174 4.34961C10.7251 4.60148 11.2035 5.34023 11.1395 5.97951Z" fill="#B15815"/>
<path d="M6.2693 9.59766C6.16047 10.3736 5.81009 10.8931 5.22632 11.1432C5.25018 10.4591 5.73966 9.73435 6.2693 9.59766Z" fill="#B15815"/>
<path d="M21.4408 10.8583C21.4053 10.2248 21.8982 9.45002 22.4023 9.31274C22.4197 9.93108 22.0129 10.5983 21.4408 10.8583Z" fill="#B15815"/>
<path d="M20.087 14.6601C19.3688 14.5816 18.8217 14.3122 18.412 13.7335C19.0138 13.6445 19.8961 14.1191 20.087 14.6601Z" fill="#B15815"/>
<path d="M6.51672 13.0391C7.05335 13.0071 7.85712 13.5911 8.02765 14.1368C7.45901 14.1501 6.69831 13.5969 6.51672 13.0391Z" fill="#B15815"/>
<path d="M20.5748 6.06438C20.2896 6.52915 19.3601 6.77637 18.8718 6.51693C19.2042 6.07485 20.072 5.8445 20.5748 6.06438Z" fill="#B15815"/>
<path d="M3.52543 11.8979C3.06796 12.4069 2.58488 12.789 1.90857 12.8716C1.9918 12.3324 2.94923 11.7461 3.52543 11.8979Z" fill="#B15815"/>
<path d="M8.71167 7.50916C9.29893 7.46902 10.0381 7.90471 10.2884 8.41893C9.75349 8.52247 8.98697 8.08969 8.71167 7.50916Z" fill="#B15815"/>
<path d="M12.581 0.357422C12.5333 1.07581 12.2353 1.61446 11.6818 2.0356C11.5043 1.56385 11.9844 0.651757 12.581 0.357422Z" fill="#B15815"/>
<path d="M17.1452 6.41223C16.7296 7.02475 16.2099 7.35224 15.5184 7.43892C15.65 6.9183 16.5044 6.36977 17.1452 6.41223Z" fill="#B15815"/>
<path d="M21.3146 6.24585C21.2139 6.95493 20.8548 7.42436 20.3001 7.78559C20.1575 7.26788 20.7029 6.43432 21.3146 6.24585Z" fill="#B15815"/>
<path d="M8.60071 10.2304C8.89288 9.50272 9.39342 9.13916 10.1367 8.9187C9.83459 9.66036 9.31718 10.0059 8.60071 10.2304Z" fill="#B15815"/>
<path d="M17.1073 14.0164C16.5235 13.836 15.9857 13.181 15.9537 12.6116C16.58 12.8134 17.1562 13.5149 17.1073 14.0164Z" fill="#B15815"/>
<path d="M4.71021 2.41162C5.36964 2.59253 5.91965 3.16375 5.97959 3.70356C5.45403 3.67156 4.80624 3.02531 4.71021 2.41162Z" fill="#B15815"/>
<path d="M8.89295 8.41937C8.38252 8.50372 7.62007 8.02208 7.37329 7.459C7.86801 7.36418 8.67062 7.87142 8.89295 8.41937Z" fill="#B15815"/>
<path d="M7.13876 5.75153C7.05436 5.03198 7.35702 4.28684 7.81099 4.09546C7.96116 4.70798 7.75977 5.203 7.13876 5.75153Z" fill="#B15815"/>
<path d="M14.2907 6.40604C13.7727 5.9465 13.4026 5.473 13.4474 4.77148C14.012 5.03732 14.4229 5.80515 14.2907 6.40604Z" fill="#B15815"/>
<path d="M3.46265 6.36567C4.1471 6.18884 4.93051 6.43198 5.16913 6.87814C4.88336 7.0445 4.83447 7.03811 4.54986 6.79729C4.28853 6.9875 3.76064 6.78681 3.46265 6.36567Z" fill="#B15815"/>
<path d="M20.307 8.71537C20.502 8.17091 21.2761 7.66484 21.797 7.74104C21.6131 8.26689 20.7971 8.79972 20.307 8.71537Z" fill="#B15815"/>
<path d="M17.7127 14.1619C17.6272 14.7005 16.9927 15.2735 16.3246 15.4154C16.4916 14.8134 17.1563 14.2136 17.7127 14.1619Z" fill="#B15815"/>
<path d="M20.181 16.209C19.4983 15.9164 19.0414 15.5028 18.8179 14.821C19.3824 14.881 19.9947 15.4952 20.181 16.209Z" fill="#B15815"/>
<path d="M9.66071 4.92278C8.96345 4.79946 8.53799 4.34807 8.19751 3.78557C8.64334 3.72857 9.6415 4.36087 9.66071 4.92278Z" fill="#B15815"/>
<path d="M3.93146 8.91683C3.41346 9.04189 2.73366 8.56432 2.47815 7.92388C2.97985 7.90236 3.60902 8.32525 3.93146 8.91683Z" fill="#B15815"/>
<path d="M9.90233 3.98845C9.29528 3.60221 8.88903 3.14209 8.72839 2.48478C9.10671 2.4557 9.88429 3.40851 9.90233 3.98845Z" fill="#B15815"/>
<path d="M18.746 6.90382C18.4491 7.41629 17.6651 7.67922 16.9801 7.51634C17.5045 7.09636 18.0504 6.8823 18.746 6.90382Z" fill="#B15815"/>
<path d="M5.92823 6.29235C5.33166 6.42381 4.67572 5.95032 4.48132 5.27148C5.11398 5.41458 5.56796 5.75661 5.92823 6.29235Z" fill="#B15815"/>
<path d="M4.89966 14.1074C4.45733 13.9876 3.93467 14.2319 3.55811 13.8183C4.05515 13.6892 4.49109 13.837 4.89966 14.1074Z" fill="#B15815"/>
<path d="M5.89016 7.28486L5.91402 7.26974C5.56597 7.26974 5.21792 7.26974 4.86987 7.26974C5.21559 7.11617 5.56073 6.97715 5.89016 7.28486Z" fill="#B15815"/>
</svg>
