<svg width="40" height="40" viewBox="0 0 40 40" fill="none" xmlns="http://www.w3.org/2000/svg">
<path d="M39.0886 0.244751H6.16985C2.99546 0.244751 0.422123 2.81809 0.422123 5.99247V34.2086C0.422123 37.3829 2.99546 39.9563 6.16985 39.9563H39.0886V0.244751Z" fill="#A95210"/>
<path d="M25.874 24.8564C26.2261 24.8564 26.5704 24.7498 26.8632 24.5502C27.156 24.3505 27.3843 24.0668 27.519 23.7348C27.6538 23.4028 27.6891 23.0375 27.6204 22.685C27.5517 22.3326 27.3821 22.0088 27.133 21.7547C26.884 21.5006 26.5668 21.3276 26.2214 21.2574C25.876 21.1873 25.5179 21.2233 25.1926 21.3608C24.8672 21.4984 24.5891 21.7312 24.3935 22.03C24.1978 22.3288 24.0934 22.6801 24.0934 23.0395C24.0939 23.5212 24.2817 23.983 24.6155 24.3236C24.9493 24.6642 25.4019 24.8558 25.874 24.8564ZM25.874 22.039C26.0679 22.039 26.2575 22.0977 26.4187 22.2076C26.5799 22.3175 26.7056 22.4738 26.7798 22.6566C26.854 22.8394 26.8735 23.0406 26.8356 23.2347C26.7978 23.4287 26.7044 23.607 26.5673 23.7469C26.4302 23.8868 26.2555 23.9821 26.0653 24.0207C25.8751 24.0593 25.6779 24.0395 25.4988 23.9638C25.3196 23.8881 25.1665 23.7598 25.0587 23.5953C24.951 23.4308 24.8935 23.2373 24.8935 23.0395C24.8938 22.7742 24.9972 22.5199 25.181 22.3323C25.3648 22.1447 25.614 22.0392 25.874 22.0389V22.039Z" fill="#FCFCFC"/>
<path d="M27.2096 24.8462C27.1463 24.8479 27.0842 24.8646 27.0282 24.8951C26.9723 24.9255 26.924 24.9688 26.8873 25.0215C26.812 25.1276 26.7215 25.2214 26.6187 25.2999C26.3491 25.4999 26.0127 25.5827 25.6834 25.5301C25.3541 25.4775 25.0586 25.2938 24.8618 25.0193C24.825 24.9668 24.7766 24.9238 24.7206 24.8937C24.6646 24.8637 24.6025 24.8474 24.5393 24.8462C23.6338 24.8462 22.9056 25.6161 22.9056 26.5399V28.4673C22.9047 28.5206 22.9141 28.5735 22.9333 28.623C22.9525 28.6725 22.9812 28.7177 23.0176 28.7558C23.054 28.7939 23.0975 28.8243 23.1455 28.8452C23.1936 28.8661 23.2452 28.877 23.2974 28.8774H28.4514C28.5582 28.8771 28.6606 28.834 28.7364 28.7572C28.8123 28.6805 28.8554 28.5763 28.8565 28.4673V26.5399C28.8565 25.6161 28.1149 24.8462 27.2096 24.8462ZM28.0563 28.0609H23.7058V26.5399C23.7051 26.3431 23.7709 26.152 23.892 25.9988C24.0131 25.8456 24.1822 25.7396 24.3708 25.6986C24.5637 25.9096 24.7971 26.0779 25.0565 26.1929C25.3158 26.308 25.5956 26.3673 25.8784 26.3673C26.1612 26.3673 26.441 26.308 26.7003 26.1929C26.9597 26.0779 27.1931 25.9096 27.386 25.6986C27.5752 25.7394 27.745 25.8452 27.867 25.9983C27.989 26.1514 28.0558 26.3426 28.0563 26.5399V28.0609Z" fill="#FCFCFC"/>
<path d="M28.556 20.3437V18.6719H29.3575C29.4093 18.6733 29.4608 18.6641 29.5091 18.6448C29.5573 18.6256 29.6013 18.5967 29.6385 18.5598C29.6756 18.523 29.7052 18.4789 29.7254 18.4302C29.7456 18.3815 29.7561 18.3292 29.7562 18.2763V14.8818C29.7562 13.4372 28.6673 12.2424 27.3272 12.2424H22.8552V11.5651C22.8552 10.1205 21.7789 8.92566 20.4387 8.92566H16.9768C15.6366 8.92566 14.5541 10.1205 14.5541 11.5651V12.2424H10.3831C9.04298 12.2424 7.95319 13.4372 7.95319 14.8818V18.2763C7.95339 18.3292 7.96395 18.3816 7.98425 18.4303C8.00456 18.479 8.03419 18.5231 8.07142 18.5599C8.10864 18.5968 8.15271 18.6256 8.20103 18.6449C8.24935 18.6641 8.30094 18.6733 8.35279 18.6719H9.15335V25.0253C9.15335 26.4699 10.2485 27.6527 11.5887 27.6527H20.6114C21.4594 29.7448 23.4987 31.2599 25.8739 31.2599C27.1411 31.2598 28.372 30.8278 29.3711 30.0324C30.3701 29.2369 31.0801 28.1237 31.3883 26.8694C31.6965 25.6152 31.5851 24.2918 31.072 23.1095C30.5588 21.9272 29.6733 20.9538 28.556 20.3437ZM15.3542 11.5651C15.3542 10.5706 16.0779 9.7421 16.9768 9.7421H20.4387C21.3376 9.7421 22.0551 10.5706 22.0551 11.5651V12.2424H15.3542V11.5651ZM8.7533 14.8819C8.7533 13.8874 9.48415 13.0589 10.3831 13.0589H27.3272C28.226 13.0589 28.9561 13.8874 28.9561 14.8818V17.8554H21.455V16.3914C21.4519 16.2798 21.4069 16.1736 21.3294 16.0948C21.2519 16.0159 21.1477 15.9703 21.0383 15.9674H16.3503C16.2431 15.9712 16.1415 16.0177 16.0675 16.0969C15.9934 16.1762 15.9528 16.2819 15.9543 16.3914V17.8554H8.7533V14.8819ZM20.6549 16.7839V19.7435H16.7544V16.7839H20.6549ZM11.5887 26.8363C10.6896 26.8363 9.95346 26.0198 9.95346 25.0253V18.6719H15.9543V20.1612C15.954 20.2141 15.9641 20.2665 15.984 20.3153C16.0039 20.3642 16.0331 20.4085 16.07 20.4456C16.1069 20.4828 16.1507 20.512 16.1989 20.5317C16.247 20.5513 16.2985 20.5609 16.3503 20.5599H21.0383C21.2592 20.5599 21.455 20.3864 21.455 20.1612V18.6719H27.7559V19.984C27.1515 19.769 26.5161 19.6589 25.8761 19.6583C22.7425 19.6583 20.1921 22.2634 20.1921 25.461C20.1928 25.9242 20.2465 26.3858 20.3521 26.8363H11.5887ZM25.8741 30.4397C24.9084 30.4397 23.9644 30.1475 23.1614 29.6C22.3584 29.0525 21.7326 28.2744 21.363 27.364C20.9934 26.4535 20.8967 25.4517 21.0851 24.4852C21.2735 23.5187 21.7386 22.6309 22.4215 21.9341C23.1043 21.2373 23.9744 20.7628 24.9215 20.5705C25.8687 20.3783 26.8505 20.4769 27.7427 20.8541C28.6349 21.2312 29.3975 21.8698 29.934 22.6891C30.4706 23.5085 30.7569 24.4718 30.7569 25.4573C30.7555 26.7783 30.2406 28.0447 29.3251 28.9788C28.4097 29.9129 27.1685 30.4383 25.8739 30.4397H25.8741Z" fill="#FCFCFC"/>
</svg>
