<svg width="27" height="26" viewBox="0 0 27 26" fill="none" xmlns="http://www.w3.org/2000/svg">
<g clip-path="url(#clip0_1_33788)">
<path d="M24.1706 23.243L23.8274 20.4011C23.8268 20.3964 23.8262 20.3917 23.8254 20.387C23.7311 19.8064 23.4605 19.2688 23.0502 18.8473C22.6399 18.4258 22.1099 18.1407 21.532 18.0308L18.0317 17.3724H18.0315L17.0835 17.194C18.0022 17.0155 18.9066 16.77 19.7896 16.4597C20.1838 16.3206 20.5177 16.0491 20.7343 15.6916C20.9508 15.334 21.0368 14.9124 20.9774 14.4986L20.4312 10.7542H20.736C20.9313 10.754 21.1185 10.6763 21.2567 10.5382C21.3948 10.4 21.4725 10.2128 21.4727 10.0174V8.52161C21.4725 8.32627 21.3948 8.139 21.2567 8.00088C21.1185 7.86275 20.9313 7.78505 20.736 7.78483H20.13C20.0827 7.6719 20.0228 7.56464 19.9515 7.4651L19.6468 5.37625C19.4308 3.89718 18.6897 2.54527 17.5589 1.56772C16.4281 0.59017 14.9832 0.0523104 13.4884 0.0524903H13.2123C11.6967 0.0544909 10.2337 0.608648 9.09714 1.61128C7.96056 2.61391 7.22824 3.99631 7.03719 5.49983L6.75053 7.78483H6.15119C5.95585 7.78504 5.76857 7.86273 5.63044 8.00086C5.49231 8.13899 5.41462 8.32627 5.41442 8.52161V10.0174C5.41462 10.2128 5.49231 10.4 5.63044 10.5382C5.76857 10.6763 5.95585 10.754 6.15119 10.7542H6.37808L5.90482 14.5269C5.85541 14.9341 5.94572 15.3461 6.16095 15.6954C6.37619 16.0446 6.7036 16.3104 7.0896 16.4494C7.99995 16.7713 8.93332 17.0239 9.88174 17.2052L9.0741 17.364L9.06867 17.3651L5.60803 18.0456C5.06964 18.1523 4.57327 18.4115 4.17803 18.7923C3.78278 19.1731 3.50533 19.6595 3.37872 20.1936C3.37716 20.2 3.3758 20.2065 3.37466 20.213L2.85113 23.1305C2.79683 23.3677 2.79669 23.6141 2.85072 23.8513C2.90476 24.0885 3.01157 24.3106 3.16322 24.5008C3.31488 24.6911 3.50747 24.8448 3.72668 24.9504C3.94589 25.056 4.18609 25.1108 4.42941 25.1108H22.5702C22.8039 25.1108 23.0348 25.0602 23.2471 24.9626C23.4594 24.8649 23.648 24.7225 23.8001 24.545C23.9521 24.3676 24.064 24.1593 24.1279 23.9346C24.1919 23.7099 24.2065 23.4739 24.1706 23.243ZM20.2555 8.52009L20.7386 8.52156L20.736 10.0201H20.2555V8.52009ZM19.7673 11.2886L20.2509 14.6046C20.286 14.85 20.2349 15.1 20.1064 15.312C19.9778 15.5239 19.7798 15.6848 19.5459 15.7671C18.5286 16.1248 17.4818 16.3927 16.4177 16.5677V15.1524L16.6833 14.9863C17.0702 14.7453 17.3967 14.4188 17.6378 14.032H17.6977C18.1215 14.0316 18.5278 13.863 18.8276 13.5634C19.1273 13.2638 19.2959 12.8575 19.2965 12.4336V11.6129C19.4712 11.5332 19.6306 11.4235 19.7673 11.2886ZM14.8687 15.2556C14.4407 15.521 13.9472 15.6616 13.4436 15.6616C12.94 15.6616 12.4465 15.521 12.0185 15.2556L11.2575 14.7795C11.2563 14.7787 11.2549 14.778 11.2536 14.7771L10.5929 14.3638C10.2685 14.1624 10.0011 13.8814 9.81603 13.5475C9.63096 13.2135 9.53445 12.8378 9.53567 12.456V7.48874C9.89644 7.43923 10.2417 7.3103 10.5466 7.11126C10.8516 6.91221 11.1086 6.648 11.2991 6.33767C11.5324 6.56833 11.7853 6.77826 12.055 6.96511L12.1263 7.01361C13.7966 8.14568 15.5997 7.88184 17.3513 7.58163V12.4561C17.3517 12.7445 17.2968 13.0302 17.1895 13.2979H14.7283C14.6536 13.0863 14.5151 12.903 14.3319 12.7733C14.1488 12.6436 13.9299 12.5738 13.7055 12.5735H13.0821C12.7946 12.5739 12.5189 12.6882 12.3156 12.8916C12.1122 13.0949 11.9979 13.3706 11.9976 13.6581V13.6718C11.9979 13.9594 12.1123 14.235 12.3156 14.4383C12.5189 14.6417 12.7946 14.756 13.0821 14.7564H13.7055C13.9299 14.7561 14.1487 14.6863 14.3319 14.5566C14.5151 14.4269 14.6535 14.2436 14.7283 14.032H16.7071C16.5828 14.1584 16.4442 14.2698 16.294 14.3639L14.8687 15.2556ZM15.6836 15.6117V17.283C15.6835 17.3247 15.6738 17.3659 15.6555 17.4034C15.6371 17.4409 15.6105 17.4737 15.5776 17.4994L13.5044 19.113L11.5204 17.504C11.4644 17.4589 11.4285 17.3935 11.4205 17.322C11.4203 17.3193 11.4203 17.3166 11.4201 17.314C11.4195 17.3065 11.4188 17.299 11.4188 17.2913V15.7465L11.6293 15.8781C12.1741 16.2159 12.8025 16.3949 13.4436 16.3949C14.0847 16.3949 14.7131 16.2159 15.258 15.878L15.6836 15.6117ZM14.0559 13.6581V13.6718C14.0558 13.7647 14.0189 13.8538 13.9532 13.9194C13.8875 13.9851 13.7984 14.0221 13.7055 14.0222H13.0821C12.9892 14.0221 12.9001 13.9851 12.8344 13.9194C12.7687 13.8538 12.7318 13.7647 12.7317 13.6718V13.6581C12.7318 13.5652 12.7687 13.4761 12.8344 13.4104C12.9001 13.3447 12.9892 13.3077 13.0821 13.3076H13.7055C13.7984 13.3077 13.8875 13.3447 13.9532 13.4104C14.0189 13.4761 14.0558 13.5652 14.0559 13.6581ZM17.9791 13.2499C18.0498 12.9912 18.0855 12.7242 18.0854 12.4561V11.7596H18.5623V12.4336C18.562 12.6134 18.5057 12.7887 18.4011 12.935C18.2966 13.0813 18.1491 13.1914 17.9791 13.2499V13.2499ZM19.5214 8.41227V10.1268C19.5211 10.365 19.4264 10.5935 19.2579 10.7619C19.0894 10.9304 18.861 11.0252 18.6227 11.0255H18.0854V7.51355H18.6227C18.861 7.51382 19.0894 7.6086 19.2579 7.77708C19.4264 7.94557 19.5211 8.174 19.5214 8.41227ZM7.76554 5.59121C7.93409 4.26505 8.58006 3.04574 9.58259 2.16141C10.5851 1.27709 11.8755 0.788341 13.2123 0.78662H13.4885C14.8069 0.786431 16.0813 1.26081 17.0787 2.123C18.0761 2.9852 18.7298 4.1776 18.9203 5.48216L19.121 6.85758C18.96 6.80577 18.7919 6.7794 18.6228 6.77942H17.7369C17.7351 6.77937 17.7334 6.77952 17.7315 6.77942H17.7184L17.717 6.77952C17.7055 6.77956 17.6941 6.78015 17.6827 6.78128L17.6778 6.78182C17.6708 6.7826 17.6638 6.78304 17.6568 6.78426L17.4055 6.82738C15.6648 7.12725 14.0206 7.41048 12.5382 6.40589L12.4714 6.36038C12.102 6.10447 11.7696 5.79898 11.4834 5.4525C11.4415 5.40177 11.3867 5.36322 11.3249 5.3409C11.263 5.31857 11.1962 5.31328 11.1316 5.32559C11.067 5.33789 11.0069 5.36734 10.9575 5.41085C10.9082 5.45436 10.8714 5.51033 10.8511 5.5729C10.7368 5.9269 10.5122 6.23501 10.2101 6.45212C9.90804 6.66923 9.5444 6.78395 9.17243 6.77947L9.17081 6.77952L9.16866 6.77942H8.26436C8.0348 6.77949 7.80788 6.8283 7.5986 6.92262L7.76554 5.59121ZM7.36568 8.41222C7.36597 8.17398 7.46074 7.94558 7.6292 7.77711C7.79766 7.60865 8.02607 7.51388 8.26431 7.5136H8.80154V11.0255H8.26431C8.02604 11.0252 7.79761 10.9304 7.62913 10.7619C7.46066 10.5935 7.36589 10.365 7.36564 10.1268L7.36568 8.41222ZM6.1485 10.0174L6.15114 8.51896H6.63151V10.0189L6.1485 10.0174ZM7.33446 15.7573C7.10586 15.6749 6.91199 15.5174 6.78459 15.3105C6.6572 15.1035 6.60381 14.8595 6.63317 14.6183L7.05877 11.2255C7.21134 11.3937 7.39742 11.5281 7.60504 11.6201C7.81265 11.7121 8.03722 11.7596 8.26431 11.7596H8.80154V12.4561C8.79993 12.9624 8.92793 13.4607 9.17335 13.9036C9.41877 14.3465 9.77345 14.7192 10.2036 14.9862L10.6847 15.2872V16.5988C9.5441 16.4238 8.42241 16.1421 7.33446 15.7573ZM10.8062 17.7716C10.8694 17.888 10.9549 17.9908 11.0579 18.0742L13.0875 19.7201C13.2032 19.8147 13.3476 19.8671 13.497 19.8685C13.6464 19.87 13.7918 19.8204 13.9093 19.7281L16.0283 18.0789C16.1299 17.9995 16.2152 17.9014 16.2798 17.7899L17.5511 18.029C17.5038 18.1727 17.4152 18.2993 17.2963 18.3929L13.5197 21.3321C13.5043 21.3442 13.4852 21.3507 13.4656 21.3505C13.4459 21.3503 13.427 21.3434 13.4118 21.331L9.79399 18.3968C9.67409 18.2996 9.58678 18.1681 9.5438 18.0198L10.8062 17.7716ZM23.2442 24.0656C23.1611 24.1632 23.0578 24.2416 22.9414 24.2953C22.8251 24.349 22.6984 24.3768 22.5702 24.3767H4.42941C4.29594 24.3767 4.16419 24.3465 4.04403 24.2884C3.92387 24.2303 3.81842 24.1457 3.73556 24.0411C3.65271 23.9364 3.5946 23.8144 3.56559 23.6841C3.53657 23.5538 3.53741 23.4187 3.56803 23.2888C3.56953 23.2823 3.57085 23.2759 3.572 23.2693L4.09538 20.3527C4.19085 19.9579 4.39738 19.5986 4.69054 19.3174C4.9837 19.0362 5.35124 18.8449 5.74972 18.7659L8.82112 18.162C8.89838 18.4792 9.07784 18.7621 9.33183 18.9672L12.9496 21.9013C13.0934 22.0187 13.2729 22.0837 13.4585 22.0855C13.6442 22.0873 13.8249 22.0258 13.971 21.9112L17.7476 18.972C18.0086 18.7694 18.1949 18.4857 18.2771 18.1656L21.3961 18.7522C21.8244 18.8337 22.2174 19.0447 22.522 19.3566C22.8266 19.6685 23.0282 20.0664 23.0995 20.4965L23.4425 23.3376C23.4431 23.3423 23.4438 23.3469 23.4445 23.3516C23.4649 23.478 23.4575 23.6074 23.4229 23.7307C23.3883 23.854 23.3273 23.9682 23.2441 24.0656H23.2442Z" fill="#F4F4F4"/>
</g>
<defs>
<clipPath id="clip0_1_33788">
<rect width="25.0583" height="25.0583" fill="white" transform="translate(0.970825 0.0529785)"/>
</clipPath>
</defs>
</svg>
