<svg width="53" height="56" viewBox="0 0 53 56" fill="none" xmlns="http://www.w3.org/2000/svg">
<path d="M13.4664 16.0742C14.7541 16.1144 14.3052 15.1287 14.5049 14.4631C14.5585 15.0095 14.6107 15.5559 14.667 16.1331C14.8653 16.1331 15.0516 16.1331 15.0744 16.1331C15.2084 16.4304 15.2486 16.7666 15.4268 16.8764C17.1111 17.9076 17.8133 19.6218 18.5141 21.3105C19.1921 22.9443 19.7482 24.6291 20.3726 26.2857C20.9274 27.7561 21.7005 29.0726 23.0083 30.0247C24.0053 30.7506 24.9446 31.5581 25.9563 32.2612C26.6182 32.7206 26.8112 32.5143 26.9706 31.7376C27.4597 29.3525 28.0239 26.9834 28.5679 24.609C28.6536 24.2353 28.785 23.8724 28.9659 23.2684C28.1404 23.4881 27.516 23.6541 26.7254 23.8644C26.9854 23.7064 27.1006 23.5939 27.236 23.559C29.0382 23.1051 29.5327 21.7297 29.6573 20.1119C29.7028 19.5213 29.6546 18.9254 29.6734 18.3321C29.6935 17.7107 29.5005 17.321 28.8037 17.4549C29.9936 16.859 28.8908 16.1425 28.9297 15.3658C30.4465 17.4697 29.7631 19.7249 29.5876 22.1515C30.011 21.8462 30.1879 21.7377 30.3433 21.6038C31.1647 20.8913 31.9258 20.0945 32.8116 19.4758C34.2319 18.4834 34.5173 16.8965 33.4132 15.4702C34.173 15.8465 34.2963 16.1371 34.5388 18.1259C35.2651 18.233 36.0007 18.3401 36.7377 18.4486C36.7471 18.5196 36.7564 18.5919 36.7645 18.6629C35.0748 18.3776 33.6839 18.9481 32.423 19.974C31.2009 20.9677 30.2402 22.11 29.8958 23.5577C31.1232 23.6608 32.2662 23.7505 33.4038 23.8818C33.432 23.8845 33.4079 24.3438 33.4079 24.5983C32.1014 25.0442 30.9048 24.7282 29.5474 24.1014C29.2566 25.2947 28.8453 26.3821 28.7501 27.4977C28.5397 29.9859 28.4781 32.4876 28.3856 34.9838C28.3776 35.2142 28.5907 35.4526 28.7005 35.6869C28.8694 35.4901 29.0918 35.3186 29.1963 35.0923C29.7712 33.8375 30.1879 32.4889 30.9115 31.3305C31.5855 30.2511 32.569 29.3632 33.432 28.4043C33.6705 28.1405 33.9626 27.9249 34.3365 27.5914C32.967 27.4816 31.6337 27.9771 30.5149 27.0477C31.5105 26.1759 33.6638 26.0968 34.717 26.9593C35.1163 27.2874 35.4111 27.3209 35.6992 26.9928C35.7568 26.9272 35.4634 26.3674 35.2356 26.2763C34.319 25.9107 33.365 25.6415 32.6226 25.3991C33.4266 25.0924 34.4128 25.5397 35.3441 25.9348C37.2804 26.7557 40.0541 25.667 40.7294 23.8617C40.909 23.3809 41.2172 22.9484 41.4664 22.4944C41.5482 22.5439 41.6313 22.5921 41.713 22.6417C41.118 23.5577 40.6785 24.6505 39.8866 25.3389C39.1 26.0218 37.9584 26.2964 36.9789 26.9526C37.3152 27.0356 37.6569 27.0986 37.9838 27.207C38.5158 27.3811 39.1215 27.4735 39.5476 27.7963C41.2051 29.0498 42.3548 29.0364 44.3447 28.8168C44.3058 28.9467 44.2683 29.0685 44.1986 29.2989C45.5265 29.0672 46.8236 28.8636 48.0108 29.7074C46.8933 30.689 44.5725 30.547 43.7243 29.5185C43.6224 29.394 43.4013 29.3417 43.2258 29.3096C42.8962 29.248 42.5545 29.248 42.2262 29.181C41.1917 28.9735 40.984 29.1784 41.2909 30.4158C40.5338 29.0351 39.5302 28.2543 38.2585 27.803C36.9682 27.345 35.8024 27.7079 34.721 28.3976C32.8451 29.5935 31.7932 31.4001 31.1058 33.4518C31.0482 33.6232 31.0977 33.8308 31.0977 34.1187C31.5667 33.9567 31.9754 33.8147 32.2314 33.7263C31.6378 34.8057 30.8686 35.9119 30.3902 37.1319C29.3893 39.6831 29.392 42.3937 29.6399 45.0654C29.8409 47.2349 30.5269 49.3241 31.3537 51.3396C31.5614 51.8471 32.0317 52.3293 32.5034 52.6333C33.9907 53.5948 35.5357 54.4666 37.0499 55.3693C37.0606 55.3572 37.0311 55.4242 36.9976 55.4255C34.4343 55.5313 31.8722 55.6478 29.3089 55.7255C28.0118 55.7643 26.7107 55.763 25.4122 55.7255C22.5729 55.6438 19.7335 55.5273 16.6917 55.4175C17.3724 55.1751 17.9098 55.0706 18.3546 54.8095C19.7857 53.9725 21.4218 53.3015 22.5206 52.1351C23.4318 51.1682 23.9061 49.6348 24.1902 48.2728C24.5292 46.6497 24.5922 44.9355 24.5306 43.2709C24.4649 41.5098 24.1728 39.7487 23.874 38.0064C23.4371 35.4646 21.7421 34.0276 19.4186 33.1719C17.7959 32.5746 16.1289 32.4367 14.2865 32.5545C14.588 32.4005 14.7716 32.3068 15.073 32.1514C13.6232 31.6505 12.1961 31.3332 11.2756 29.7917C11.8263 29.8587 12.2176 29.8386 12.5579 29.9605C13.7063 30.3743 14.8211 30.8497 15.4496 32.0202C15.5327 32.1755 15.8623 32.2934 16.0646 32.276C17.9138 32.1139 19.7308 32.4608 21.3294 33.2482C22.8141 33.9794 24.075 35.1727 25.4056 36.1998C25.7955 36.5012 26.0863 36.9324 26.5472 37.4426C26.7951 35.9909 26.1452 35.0012 25.5462 34.0142C25.3466 33.6848 25.0491 33.3915 24.7382 33.1572C22.2941 31.3171 20.8363 28.7485 19.4695 26.1076C19.3944 25.9643 19.302 25.829 19.2578 25.7553C18.5958 26.5522 17.9446 27.3343 17.2934 28.1164C17.2304 28.0722 17.1674 28.028 17.1044 27.9838C17.2063 27.8177 17.2786 27.6209 17.414 27.4883C19.0662 25.8732 19.2645 24.0827 18.0022 22.0819C17.8682 21.869 17.7235 21.6547 17.6351 21.4203C17.0441 19.8615 16.9544 19.745 15.3049 19.9927C13.5039 20.2632 11.8317 20.9047 10.8575 22.5747C10.4488 23.2751 10.292 24.1215 10.0468 24.8273C9.65018 23.6073 10.3161 22.4729 10.9995 21.2154C10.2264 21.2154 9.65554 21.2154 9.08472 21.2154C10.6203 21.0467 12.0434 20.6516 13.4423 19.9633C14.4258 19.4798 15.5836 19.3486 16.7601 19.0352C16.2964 17.8179 15.3384 17.0572 14.2034 16.4545C13.9662 16.3287 13.7465 16.172 13.5173 16.0287C13.5214 16.0394 13.4664 16.0742 13.4664 16.0742Z" fill="#CF6C21"/>
<path d="M19.0572 26.7678C19.9054 28.02 19.9416 30.002 19.1738 31.068C18.2666 30.2431 18.1822 27.9986 19.0572 26.7678Z" fill="#CF6C21"/>
<path d="M40.8401 27.5904C41.7218 26.6476 43.8296 26.6329 45.065 27.561C44.1565 28.3163 41.829 28.3324 40.8401 27.5904Z" fill="#CF6C21"/>
<path d="M28.8516 31.9026C29.0338 30.3772 30.4032 28.8157 31.695 28.6001C31.6199 30.0839 30.5212 31.383 28.8516 31.9026Z" fill="#CF6C21"/>
<path d="M23.6397 33.3163C22.2569 33.4917 20.8365 32.4042 20.1062 30.9043C21.5614 30.8334 23.3717 32.0467 23.6397 33.3163Z" fill="#CF6C21"/>
<path d="M30.9984 14.0531C29.5231 14.578 27.5372 14.0705 26.957 13.0594C27.9406 12.4433 30.1462 12.9603 30.9984 14.0531Z" fill="#CF6C21"/>
<path d="M8.35799 29.7475C7.8622 28.1244 8.33923 26.8374 9.26113 25.5959C9.99275 26.7503 9.53582 28.9359 8.35799 29.7475Z" fill="#CF6C21"/>
<path d="M29.3674 15.0755C30.8816 15.0474 32.6664 16.1375 33.1421 17.3374C31.8517 17.5396 29.7828 16.329 29.3674 15.0755Z" fill="#CF6C21"/>
<path d="M24.8937 30.5461C23.547 30.3506 22.2352 28.7007 22.2646 27.241C23.4478 27.474 24.7624 29.1252 24.8937 30.5461Z" fill="#CF6C21"/>
<path d="M25.3108 24.2879C23.7832 24.9 22.3897 24.9053 21.0015 24.1527C21.9408 23.1965 24.0901 23.238 25.3108 24.2879Z" fill="#CF6C21"/>
<path d="M5.23926 6.09227C6.72796 5.9088 8.51281 6.81678 8.9081 7.96047C7.6579 8.34616 5.66403 7.33238 5.23926 6.09227Z" fill="#CF6C21"/>
<path d="M22.6524 14.0058C21.3232 15.0825 20.0033 15.5512 18.4248 15.3463C18.9608 14.1478 20.8421 13.5143 22.6524 14.0058Z" fill="#CF6C21"/>
<path d="M12.7249 27.1242C13.7941 26.2738 15.8457 26.3086 16.868 27.1537C15.3994 27.9974 13.6521 28.0027 12.7249 27.1242Z" fill="#CF6C21"/>
<path d="M5.03198 16.0544C6.02758 15.2201 7.98126 15.3098 9.10549 16.2393C8.18359 17.0414 6.14952 16.949 5.03198 16.0544Z" fill="#CF6C21"/>
<path d="M36.6384 17.6048C37.6648 17.0611 39.7096 17.578 40.7548 18.6427C39.8142 19.2681 37.2173 18.6133 36.6384 17.6048Z" fill="#CF6C21"/>
<path d="M24.7617 19.7259C25.9248 18.8514 27.7016 18.8072 28.8795 19.6241C28.0152 20.5254 25.8297 20.579 24.7617 19.7259Z" fill="#CF6C21"/>
<path d="M43.011 23.0138C43.8565 22.1366 45.9134 22.0067 47.114 22.7098C46.385 23.6446 44.2933 23.82 43.011 23.0138Z" fill="#CF6C21"/>
<path d="M52.434 24.9775C51.3272 26.1507 49.4646 26.6837 48.3618 26.1828C49.1779 25.0619 51.098 24.4726 52.434 24.9775Z" fill="#CF6C21"/>
<path d="M15.7703 14.2266C16.9883 13.1552 18.2974 12.7789 19.8679 13.0427C19.0679 14.2788 16.9387 14.9042 15.7703 14.2266Z" fill="#CF6C21"/>
<path d="M6.58989 13.8525C5.52193 14.7725 3.516 14.7873 2.46948 13.9275C3.4691 13.0758 5.07438 13.0316 6.58989 13.8525Z" fill="#CF6C21"/>
<path d="M23.2205 2.56689C24.1799 4.12975 24.4452 5.50378 23.5943 7.14163C22.7408 5.61627 22.6604 4.22885 23.2205 2.56689Z" fill="#CF6C21"/>
<path d="M4.97534 22.6789C6.16792 21.7575 7.77722 21.7334 9.17213 22.5744C8.27167 23.406 6.24161 23.477 4.97534 22.6789Z" fill="#CF6C21"/>
<path d="M33.4196 11.2573C32.6478 9.81099 32.7014 8.1035 33.5482 7.13525C34.4165 8.02583 34.3536 10.0748 33.4196 11.2573Z" fill="#CF6C21"/>
<path d="M26.0305 4.80664C26.5946 6.43646 26.0627 7.72478 25.2681 9.00774C24.4601 8.00869 24.8125 5.94765 26.0305 4.80664Z" fill="#CF6C21"/>
<path d="M7.19756 30.3301C5.90851 31.2032 4.06472 31.2073 3.0249 30.3783C3.95082 29.5185 5.88171 29.477 7.19756 30.3301Z" fill="#CF6C21"/>
<path d="M49.7914 20.8049C48.3174 21.7169 46.9172 21.6861 45.4204 21.1424C46.7001 20.1125 48.2947 19.9733 49.7914 20.8049Z" fill="#CF6C21"/>
<path d="M17.1359 25.9832C16.1939 24.7177 16.2086 22.8013 17.1252 21.8464C17.8689 22.7705 17.8957 24.9427 17.1359 25.9832Z" fill="#CF6C21"/>
<path d="M9.15595 12.5983C7.51448 13.0778 6.22945 12.5863 4.98462 11.7185C5.90116 10.9712 8.09335 11.4078 9.15595 12.5983Z" fill="#CF6C21"/>
<path d="M16.2917 4.9594C15.4958 3.83714 15.5252 1.77343 16.3105 0.852051C17.1908 1.83369 17.2042 3.87732 16.2917 4.9594Z" fill="#CF6C21"/>
<path d="M10.0574 28.8689C10.8238 27.9636 13.0026 27.9301 14.1697 28.8073C13.0147 29.6148 10.9578 29.718 10.0574 28.8689Z" fill="#CF6C21"/>
<path d="M14.1587 3.927C15.3472 5.10283 15.9409 6.38177 15.7774 8.01962C14.5205 7.18664 13.6321 5.03319 14.1587 3.927Z" fill="#CF6C21"/>
<path d="M29.4339 5.55493C30.0812 6.67049 29.6323 8.8226 28.6541 9.54042C27.9948 8.52664 28.3365 6.70263 29.4339 5.55493Z" fill="#CF6C21"/>
<path d="M0.503418 21.4587C2.02964 20.7221 3.40713 20.7262 4.85564 21.3543C3.91096 22.3667 2.12478 22.4203 0.503418 21.4587Z" fill="#CF6C21"/>
<path d="M46.6167 27.9302C47.6605 27.0142 49.4829 26.974 50.6755 27.8391C49.8728 28.6882 47.6914 28.7364 46.6167 27.9302Z" fill="#CF6C21"/>
<path d="M28.1413 22.0458C26.7062 22.9056 25.322 22.844 23.8413 22.4101C24.6614 21.324 26.6981 21.1485 28.1413 22.0458Z" fill="#CF6C21"/>
<path d="M14.2214 17.7293C13.0556 18.6936 11.8201 18.6936 10.5726 18.5851C10.3877 18.569 10.2202 18.3641 10.0447 18.2449C10.184 18.1003 10.2966 17.8967 10.4668 17.8218C11.6647 17.2914 12.8801 17.1629 14.2214 17.7293Z" fill="#CF6C21"/>
<path d="M33.8516 31.8455C34.9329 31.0567 36.8317 31.03 37.9009 31.7866C37.4065 32.7174 34.6515 32.7508 33.8516 31.8455Z" fill="#CF6C21"/>
<path d="M19.9048 11.4768C21.5529 11.3241 22.838 11.7995 23.9448 12.9111C22.9197 13.5137 20.6444 12.7209 19.9048 11.4768Z" fill="#CF6C21"/>
<path d="M19.2136 0.460693C20.6273 1.21199 21.6966 2.82842 21.6658 4.09531C20.4451 3.76184 19.219 1.97802 19.2136 0.460693Z" fill="#CF6C21"/>
<path d="M32.3781 5.38648C31.215 4.61778 30.5062 2.6545 30.9564 1.44653C32.141 2.32238 32.898 4.41957 32.3781 5.38648Z" fill="#CF6C21"/>
<path d="M0.881592 15.4715C2.10498 15.2425 4.05464 16.2951 4.59867 17.479C3.35384 17.7696 1.27554 16.646 0.881592 15.4715Z" fill="#CF6C21"/>
<path d="M18.6952 3.45972C19.2419 4.69982 18.3991 6.87604 17.1449 7.49475C16.9667 5.87565 17.6125 4.64893 18.6952 3.45972Z" fill="#CF6C21"/>
<path d="M25.3482 28.2203C25.2048 26.853 26.4845 25.0129 27.7186 24.7344C27.9022 25.7428 26.7257 27.5079 25.3482 28.2203Z" fill="#CF6C21"/>
<path d="M7.31958 5.27589C8.49741 5.09777 10.0236 6.05932 10.7968 7.41728C9.66721 7.84047 7.98153 6.82803 7.31958 5.27589Z" fill="#CF6C21"/>
<path d="M31.9808 9.34235C30.9048 8.72229 30.1839 6.89695 30.4492 5.46802C31.5962 5.99165 32.3332 7.85583 31.9808 9.34235Z" fill="#CF6C21"/>
<path d="M36.9775 33.9256C35.7287 34.9729 34.3847 35.1657 32.8906 34.8403C33.3435 33.7743 35.5933 33.2426 36.9775 33.9256Z" fill="#CF6C21"/>
<path d="M34.2031 15.0988C33.8708 13.6216 34.4591 11.8218 35.4855 11.1709C35.9947 12.3842 35.3033 14.5002 34.2031 15.0988Z" fill="#CF6C21"/>
<path d="M25.0538 4.44314C24.156 3.28874 24.3302 1.22502 25.3486 0.185791C26.1084 1.64419 25.6796 2.98876 25.0538 4.44314Z" fill="#CF6C21"/>
<path d="M1.38721 25.6555C2.49804 24.4355 3.75896 23.8757 5.37094 24.0123C4.73982 25.2096 2.48062 26.1497 1.38721 25.6555Z" fill="#CF6C21"/>
<path d="M36.0214 19.6057C36.6177 21.0025 36.264 22.8975 35.3421 23.4372C34.664 22.1475 34.9816 20.2151 36.0214 19.6057Z" fill="#CF6C21"/>
<path d="M38.3458 21.3582C38.7934 22.3291 37.8876 24.5589 36.7674 25.2419C36.4243 23.908 37.2149 21.9648 38.3458 21.3582Z" fill="#CF6C21"/>
<path d="M29.818 11.3865C28.5571 11.9543 26.2242 11.2271 25.7432 10.1504C27.2855 9.908 28.6067 10.2723 29.818 11.3865Z" fill="#CF6C21"/>
<path d="M34.8993 6.39515C33.7228 5.53939 33.0595 3.61361 33.5392 2.45386C34.6862 3.28684 35.3522 5.21664 34.8993 6.39515Z" fill="#CF6C21"/>
<path d="M39.2117 2.46289C39.2921 4.13288 38.7937 5.41986 37.6078 6.45775C37.0249 5.51762 37.8691 3.34677 39.2117 2.46289Z" fill="#CF6C21"/>
<path d="M44.6189 25.0431C43.571 26.1184 41.7969 26.5376 40.5762 26.0421C41.0264 25.0725 43.2601 24.4967 44.6189 25.0431Z" fill="#CF6C21"/>
<path d="M27.4354 16.5377C25.8609 16.7185 24.5812 16.2618 23.5039 15.1208C24.4982 14.5101 26.8083 15.3404 27.4354 16.5377Z" fill="#CF6C21"/>
<path d="M1.90332 18.5409C3.18433 18.1432 4.90619 18.8021 5.6807 19.9846C4.45998 20.3984 2.33613 19.5855 1.90332 18.5409Z" fill="#CF6C21"/>
<path d="M39.3213 12.9181C40.7484 12.0155 42.552 12.0316 43.6052 12.89C42.2156 13.581 40.8395 13.8047 39.3213 12.9181Z" fill="#CF6C21"/>
<path d="M9.43271 10.2791C8.41032 10.7318 6.48343 10.0126 5.56689 8.83679C6.64289 8.35334 8.91281 9.19972 9.43271 10.2791Z" fill="#CF6C21"/>
<path d="M42.4965 32.9895C42.3236 34.6274 41.8224 35.925 40.5602 36.8866C40.1193 35.7255 41.0587 33.7314 42.4965 32.9895Z" fill="#CF6C21"/>
<path d="M14.521 12.3939C13.9689 11.0774 14.2771 9.32976 15.195 8.56909C15.9601 9.99669 15.6465 11.7778 14.521 12.3939Z" fill="#CF6C21"/>
<path d="M5.07593 25.7775C5.99381 24.6098 7.93542 23.9053 9.00338 24.3526C8.36421 25.495 6.49764 26.1726 5.07593 25.7775Z" fill="#CF6C21"/>
<path d="M46.2044 26.903C46.108 25.312 47.3046 23.4773 48.5628 23.2014C48.3015 24.7562 47.5752 25.9428 46.2044 26.903Z" fill="#CF6C21"/>
<path d="M36.4687 5.98364C36.7957 7.2117 35.9542 9.22453 34.9184 9.80574C34.4829 8.58706 35.1891 6.80592 36.4687 5.98364Z" fill="#CF6C21"/>
<path d="M40.5681 11.4382C41.0438 10.2637 42.7965 9.32628 44.2839 9.45082C43.6956 10.6695 41.9992 11.5775 40.5681 11.4382Z" fill="#CF6C21"/>
<path d="M39.7118 10.4297C39.145 12.0675 37.8224 13.1952 36.323 13.3545C36.934 11.7917 38.0757 10.9319 39.7118 10.4297Z" fill="#CF6C21"/>
<path d="M45.2726 17.2742C45.3624 18.6174 44.2502 20.4052 43.0617 20.9088C42.8138 19.7919 43.9246 17.929 45.2726 17.2742Z" fill="#CF6C21"/>
<path d="M40.9018 19.5918C41.0264 21.2765 40.528 22.5581 39.314 23.6054C38.8811 22.3626 39.6087 20.4703 40.9018 19.5918Z" fill="#CF6C21"/>
<path d="M26.7605 6.69788C27.1477 5.05735 27.8981 3.84135 29.3935 3.07666C29.3721 4.55515 28.1661 6.22246 26.7605 6.69788Z" fill="#CF6C21"/>
<path d="M47.9407 10.6595C46.8661 11.767 44.7757 12.2772 43.8887 11.6933C44.5801 10.6983 46.6919 10.1385 47.9407 10.6595Z" fill="#CF6C21"/>
<path d="M10.2437 8.40625C11.6721 8.82274 12.9799 10.3401 13.0536 11.5936C11.9334 11.5333 10.6483 10.1017 10.2437 8.40625Z" fill="#CF6C21"/>
<path d="M42.1934 6.90381C41.5114 8.43452 40.4783 9.33983 38.9963 9.81391C38.8904 8.69701 40.5493 7.1596 42.1934 6.90381Z" fill="#CF6C21"/>
<path d="M39.4263 6.56104C39.0552 8.23371 38.1467 9.33454 36.7383 10.1448C36.6365 8.81091 37.9175 7.11011 39.4263 6.56104Z" fill="#CF6C21"/>
<path d="M25.5529 13.0689C24.1031 12.1395 23.4894 10.8726 23.2 9.31641C24.5989 9.89628 25.7003 11.5971 25.5529 13.0689Z" fill="#CF6C21"/>
<path d="M14.3404 21.3987C14.0899 23.1852 13.2832 24.3811 11.9392 24.957C11.9941 23.3821 13.1211 21.7134 14.3404 21.3987Z" fill="#CF6C21"/>
<path d="M49.2691 24.3007C49.1873 22.8423 50.3223 21.0585 51.4827 20.7424C51.5229 22.166 50.5862 23.7021 49.2691 24.3007Z" fill="#CF6C21"/>
<path d="M46.1526 33.0535C44.4991 32.8727 43.2395 32.2526 42.2961 30.9201C43.6817 30.7152 45.7131 31.808 46.1526 33.0535Z" fill="#CF6C21"/>
<path d="M14.9102 29.322C16.1456 29.2483 17.9961 30.5929 18.3887 31.8491C17.0796 31.8799 15.3282 30.6063 14.9102 29.322Z" fill="#CF6C21"/>
<path d="M47.2755 13.2639C46.6189 14.3339 44.479 14.9031 43.3547 14.3058C44.1199 13.288 46.1178 12.7577 47.2755 13.2639Z" fill="#CF6C21"/>
<path d="M8.02322 26.6945C6.97001 27.8663 5.85783 28.7462 4.30078 28.9363C4.4924 27.6949 6.69665 26.345 8.02322 26.6945Z" fill="#CF6C21"/>
<path d="M19.9636 16.5904C21.3157 16.498 23.0174 17.5011 23.5936 18.6849C22.3622 18.9233 20.5974 17.9269 19.9636 16.5904Z" fill="#CF6C21"/>
<path d="M28.8717 0.125C28.7618 1.77892 28.0757 3.01903 26.8014 3.98862C26.3927 2.90252 27.4982 0.802639 28.8717 0.125Z" fill="#CF6C21"/>
<path d="M39.3797 14.0652C38.423 15.4753 37.2264 16.2293 35.6345 16.4289C35.9374 15.2303 37.9044 13.9674 39.3797 14.0652Z" fill="#CF6C21"/>
<path d="M48.9787 13.6816C48.7468 15.3141 47.9201 16.3949 46.6431 17.2265C46.3148 16.0346 47.5704 14.1155 48.9787 13.6816Z" fill="#CF6C21"/>
<path d="M19.708 22.8554C20.3807 21.18 21.533 20.343 23.2442 19.8354C22.5487 21.5429 21.3575 22.3384 19.708 22.8554Z" fill="#CF6C21"/>
<path d="M39.2923 31.5713C37.9483 31.1562 36.7102 29.6482 36.6365 28.3372C38.0783 28.8019 39.4049 30.4169 39.2923 31.5713Z" fill="#CF6C21"/>
<path d="M10.7507 4.85425C12.2689 5.27074 13.5352 6.58585 13.6732 7.82863C12.4632 7.75498 10.9718 6.26711 10.7507 4.85425Z" fill="#CF6C21"/>
<path d="M20.3807 18.6855C19.2056 18.8797 17.4502 17.7708 16.8821 16.4745C18.0211 16.2562 19.8689 17.424 20.3807 18.6855Z" fill="#CF6C21"/>
<path d="M16.3421 12.5437C16.1478 10.8871 16.8446 9.17156 17.8898 8.73096C18.2355 10.1411 17.7718 11.2808 16.3421 12.5437Z" fill="#CF6C21"/>
<path d="M32.808 14.0503C31.6154 12.9923 30.7632 11.9022 30.8664 10.2871C32.1661 10.8991 33.1122 12.6669 32.808 14.0503Z" fill="#CF6C21"/>
<path d="M7.87866 13.9576C9.45447 13.5505 11.2581 14.1103 11.8075 15.1375C11.1495 15.5205 11.037 15.5058 10.3817 14.9513C9.78008 15.3892 8.56473 14.9272 7.87866 13.9576Z" fill="#CF6C21"/>
<path d="M46.6592 19.367C47.1081 18.1135 48.8902 16.9484 50.0895 17.1238C49.6661 18.3344 47.7874 19.5611 46.6592 19.367Z" fill="#CF6C21"/>
<path d="M40.6861 31.9065C40.4891 33.1466 39.0285 34.4657 37.4902 34.7925C37.8748 33.4064 39.4051 32.0257 40.6861 31.9065Z" fill="#CF6C21"/>
<path d="M46.3689 36.6197C44.7971 35.946 43.7453 34.9939 43.2307 33.4243C44.5305 33.5623 45.9401 34.9765 46.3689 36.6197Z" fill="#CF6C21"/>
<path d="M22.1485 10.6355C20.5432 10.3515 19.5637 9.31232 18.7798 8.0173C19.8062 7.88606 22.1042 9.34178 22.1485 10.6355Z" fill="#CF6C21"/>
<path d="M8.95796 19.8311C7.76539 20.119 6.20031 19.0195 5.61206 17.545C6.76711 17.4955 8.21562 18.4691 8.95796 19.8311Z" fill="#CF6C21"/>
<path d="M22.7044 8.48435C21.3068 7.59511 20.3715 6.5358 20.0017 5.02249C20.8727 4.95553 22.6629 7.14916 22.7044 8.48435Z" fill="#CF6C21"/>
<path d="M43.065 15.1965C42.3816 16.3764 40.5767 16.9817 38.9995 16.6067C40.2068 15.6398 41.4637 15.147 43.065 15.1965Z" fill="#CF6C21"/>
<path d="M13.5553 13.789C12.1818 14.0917 10.6717 13.0016 10.2241 11.4387C11.6807 11.7682 12.7258 12.5556 13.5553 13.789Z" fill="#CF6C21"/>
<path d="M11.1873 31.7812C10.1689 31.5053 8.96559 32.0678 8.09863 31.1156C9.24297 30.8183 10.2466 31.1584 11.1873 31.7812Z" fill="#CF6C21"/>
<path d="M13.4676 16.0739L13.5226 16.0391C12.7213 16.0391 11.92 16.0391 11.1187 16.0391C11.9146 15.6856 12.7092 15.3655 13.4676 16.0739Z" fill="#CF6C21"/>
</svg>
