<svg width="125" height="16" viewBox="0 0 125 16" fill="none" xmlns="http://www.w3.org/2000/svg">
<path d="M41.25 8C41.25 11.8051 38.377 14.75 35 14.75C31.623 14.75 28.75 11.8051 28.75 8C28.75 4.19486 31.623 1.25 35 1.25C38.377 1.25 41.25 4.19486 41.25 8Z" stroke="#ED944E" stroke-width="2.5"/>
<ellipse cx="7.5" cy="8" rx="7.5" ry="8" fill="#87420C"/>
<path d="M68.75 8C68.75 11.8051 65.877 14.75 62.5 14.75C59.123 14.75 56.25 11.8051 56.25 8C56.25 4.19486 59.123 1.25 62.5 1.25C65.877 1.25 68.75 4.19486 68.75 8Z" stroke="#ED944E" stroke-width="2.5"/>
<path d="M96.25 8C96.25 11.8051 93.377 14.75 90 14.75C86.623 14.75 83.75 11.8051 83.75 8C83.75 4.19486 86.623 1.25 90 1.25C93.377 1.25 96.25 4.19486 96.25 8Z" stroke="#ED944E" stroke-width="2.5"/>
<path d="M123.75 8C123.75 11.8051 120.877 14.75 117.5 14.75C114.123 14.75 111.25 11.8051 111.25 8C111.25 4.19486 114.123 1.25 117.5 1.25C120.877 1.25 123.75 4.19486 123.75 8Z" stroke="#ED944E" stroke-width="2.5"/>
</svg>
