<svg width="39" height="40" viewBox="0 0 39 40" fill="none" xmlns="http://www.w3.org/2000/svg">
<path d="M38.6671 0H5.74834C2.57396 0 0.000614166 2.57334 0.000614166 5.74772V33.9638C0.000614166 37.1382 2.57396 39.7115 5.74834 39.7115H38.6671V0Z" fill="#A95210"/>
<path d="M13.1991 18.221C14.5518 18.221 15.6485 17.1243 15.6485 15.7716C15.6485 14.4188 14.5518 13.3221 13.1991 13.3221C11.8463 13.3221 10.7496 14.4188 10.7496 15.7716C10.7496 17.1243 11.8463 18.221 13.1991 18.221Z" stroke="#FCFCFC" stroke-width="0.522651" stroke-linecap="round" stroke-linejoin="round"/>
<path d="M27.0787 18.221C28.4315 18.221 29.5281 17.1243 29.5281 15.7716C29.5281 14.4188 28.4315 13.3221 27.0787 13.3221C25.7259 13.3221 24.6293 14.4188 24.6293 15.7716C24.6293 17.1243 25.7259 18.221 27.0787 18.221Z" stroke="#FCFCFC" stroke-width="0.522651" stroke-linecap="round" stroke-linejoin="round"/>
<path d="M12.4161 27.2019V29.8431C12.4161 30.2979 12.0504 30.6644 11.5956 30.6644C11.4877 30.6648 11.3807 30.6437 11.2809 30.6026C11.1811 30.5614 11.0905 30.5009 11.0141 30.4246C10.9378 30.3483 10.8773 30.2576 10.8361 30.1578C10.795 30.058 10.774 29.9511 10.7743 29.8431V27.2019M15.6574 27.2019V29.8431C15.6574 30.2979 15.2917 30.6644 14.8369 30.6644C14.729 30.6647 14.6222 30.6436 14.5225 30.6024C14.4228 30.5611 14.3322 30.5006 14.2559 30.4243C14.1797 30.348 14.1193 30.2573 14.0782 30.1576C14.0371 30.0579 14.0161 29.951 14.0164 29.8431V27.2019" stroke="#FCFCFC" stroke-width="0.52252" stroke-linecap="round" stroke-linejoin="round"/>
<path d="M27.0802 28.025V30.2392C27.0802 30.694 26.7144 31.0598 26.2597 31.0598C26.1518 31.0601 26.0449 31.0391 25.9452 30.998C25.8454 30.9569 25.7548 30.8964 25.6785 30.8202C25.6022 30.7439 25.5417 30.6534 25.5004 30.5537C25.4592 30.454 25.4381 30.3471 25.4384 30.2392V28.025M28.7367 28.012V30.2262C28.7367 30.6809 28.3702 31.0467 27.9154 31.0467C27.8076 31.0469 27.7008 31.0258 27.6012 30.9847C27.5015 30.9435 27.411 30.883 27.3347 30.8068C27.2585 30.7306 27.1981 30.6401 27.1569 30.5404C27.1158 30.4408 27.0947 30.334 27.0949 30.2262V28.012" stroke="#FCFCFC" stroke-width="0.52252" stroke-linecap="round" stroke-linejoin="round"/>
<path d="M18.7277 8.84259C17.6615 8.84259 16.7969 9.58147 16.7969 10.9261C16.7969 12.2708 18.5987 13.5657 20.1443 14.9545C21.689 13.5657 23.4998 12.2871 23.4998 10.9261C23.4998 9.56514 22.6344 8.8418 21.5681 8.8418C21.0064 8.8418 20.497 9.26226 20.1443 9.67538C19.7915 9.26471 19.2886 8.84259 18.7277 8.84259Z" stroke="#FCFCFC" stroke-width="0.52252" stroke-linecap="round" stroke-linejoin="round"/>
<path d="M22.9973 20.8608V23.6383C22.9973 23.8032 23.1197 23.9363 23.2708 23.9363H24.3567C24.5077 23.9363 24.6302 23.8032 24.6302 23.6383V19.1104" stroke="#FCFCFC" stroke-width="0.52252" stroke-linecap="round" stroke-linejoin="round"/>
<path d="M23.0038 20.9031C23.0477 20.394 23.281 19.9199 23.6576 19.5745C24.0341 19.229 24.5265 19.0374 25.0375 19.0375" stroke="#FCFCFC" stroke-width="0.52228" stroke-linecap="round" stroke-linejoin="round"/>
<path d="M31.1613 20.8796V23.6383C31.1613 23.8032 31.0389 23.9363 30.887 23.9363H29.8011C29.6501 23.9363 29.5284 23.8032 29.5284 23.6383V19.1422" stroke="#FCFCFC" stroke-width="0.52252" stroke-linecap="round" stroke-linejoin="round"/>
<path d="M31.1534 20.9031C31.1095 20.394 30.8762 19.9199 30.4996 19.5745C30.1231 19.229 29.6306 19.0374 29.1196 19.0375" stroke="#FCFCFC" stroke-width="0.52228" stroke-linecap="round" stroke-linejoin="round"/>
<path d="M24.6283 19.0941V27.2021C24.6283 27.6569 24.99 28.0185 25.4447 28.0185H28.7105C28.818 28.0195 28.9246 27.9991 29.0241 27.9584C29.1236 27.9177 29.214 27.8576 29.29 27.7816C29.366 27.7056 29.4261 27.6152 29.4668 27.5157C29.5075 27.4162 29.5279 27.3096 29.5269 27.2021L29.4632 19.1692M29.1301 19.0386H25.0251M24.6299 24.783H29.6265M27.0833 27.7059V26.8143" stroke="#FCFCFC" stroke-width="0.52252"/>
<path d="M11.9752 19.0375C9.12421 26.3789 11.9768 19.0375 9.11768 26.3854C9.11768 26.8402 9.44262 27.2019 9.85737 27.2019H16.5432C16.9571 27.2019 17.4119 26.8671 17.2829 26.3854C14.4368 19.0677 17.3082 26.3854 14.4253 19.0375H11.9752V19.0375Z" stroke="#FCFCFC" stroke-width="0.52252" stroke-linecap="round" stroke-linejoin="round"/>
<path d="M9.5249 18.2212C8.8485 18.2212 8.30017 17.6729 8.30017 16.9965C8.30017 16.3201 8.8485 15.7717 9.5249 15.7717C10.2013 15.7717 10.7496 16.3201 10.7496 16.9965C10.7496 17.6729 10.2013 18.2212 9.5249 18.2212Z" stroke="#FCFCFC" stroke-width="0.522498"/>
</svg>
