<svg width="56" height="58" viewBox="0 0 56 58" fill="none" xmlns="http://www.w3.org/2000/svg">
<path d="M55.6602 0.553894H8.27381C3.70431 0.553894 -3.56971e-06 4.2582 -3.56971e-06 8.8277V49.4446C-3.56971e-06 54.0141 3.70431 57.7184 8.2738 57.7184H55.6602V0.553894Z" fill="#A95210"/>
<path d="M33.2245 21.9435C32.6042 21.9445 31.9849 21.9946 31.3724 22.0934C29.671 20.3635 27.5031 19.166 25.1329 18.6469L28.2736 15.1525C28.3493 15.0699 28.4002 14.9675 28.4203 14.8573C28.4405 14.747 28.4291 14.6333 28.3875 14.5292L27.1887 11.5323C27.1443 11.4207 27.0674 11.3251 26.9681 11.2578C26.8687 11.1905 26.7514 11.1545 26.6313 11.1547H18.24C18.1199 11.1545 18.0026 11.1905 17.9032 11.2578C17.8039 11.3251 17.727 11.4207 17.6826 11.5323L16.4838 14.5292C16.4422 14.6333 16.4308 14.747 16.451 14.8573C16.4711 14.9675 16.522 15.0699 16.5977 15.1525L19.7384 18.6469C16.707 19.3108 14.0279 21.0714 12.2157 23.5906C10.4036 26.1098 9.58623 29.2097 9.92077 32.2949C10.2553 35.38 11.7181 38.2328 14.0281 40.3049C16.3381 42.3771 19.3324 43.5226 22.4357 43.5212C23.056 43.5202 23.6753 43.4701 24.2877 43.3714C25.4503 44.5628 26.8405 45.5084 28.3757 46.1519C29.9109 46.7955 31.5599 47.1238 33.2245 47.1175C36.5628 47.1175 39.7643 45.7914 42.1249 43.4309C44.4854 41.0704 45.8115 37.8688 45.8115 34.5305C45.8115 31.1922 44.4854 27.9907 42.1249 25.6302C39.7643 23.2696 36.5628 21.9435 33.2245 21.9435V21.9435ZM25.8401 12.3534H26.2237L26.943 14.1516H25.1209L25.8401 12.3534ZM26.4875 15.3503L23.7723 18.3652L24.6773 15.3503H26.4875ZM24.5455 12.3534L23.8262 14.1516H21.0451L20.3258 12.3534H24.5455ZM23.4306 15.3503L22.5256 18.3532H22.3457L21.4407 15.3503H23.4306ZM18.6476 12.3534H19.0312L19.7504 14.1516H17.9283L18.6476 12.3534ZM18.3838 15.3503H20.194L21.099 18.3652L18.3838 15.3503ZM22.4357 42.3225C19.5084 42.3307 16.6905 41.2115 14.5666 39.1971C12.4427 37.1827 11.1761 34.4279 11.0295 31.5043C10.883 28.5808 11.8679 25.7131 13.7797 23.4964C15.6915 21.2798 18.3835 19.8844 21.2968 19.5999C22.0543 19.528 22.817 19.528 23.5745 19.5999C26.3077 19.8736 28.8486 21.1302 30.7251 23.1363C32.7204 25.2416 33.8299 28.0336 33.8239 30.9342C33.8316 32.9905 33.2781 35.0099 32.2229 36.7748C31.1678 38.5397 29.651 39.9833 27.8361 40.9499C27.3555 40.5502 26.9212 40.0978 26.5414 39.6013C28.1772 38.8174 29.5591 37.5887 30.5291 36.0559C31.499 34.5231 32.0177 32.7481 32.0257 30.9342C32.0229 28.3917 31.0116 25.954 29.2137 24.1562C27.4158 22.3583 24.9782 21.347 22.4357 21.3441C19.9149 21.3406 17.4941 22.3301 15.6976 24.0985C13.9011 25.8668 12.8735 28.2716 12.8372 30.7922C12.801 33.3127 13.759 35.7461 15.5039 37.5654C17.2488 39.3846 19.6401 40.4434 22.1599 40.5123C22.4962 41.1345 22.8831 41.7279 23.3167 42.2865C23.029 42.3045 22.7353 42.3225 22.4357 42.3225V42.3225ZM34.0876 26.1811C36.232 26.3963 38.2113 27.4282 39.6155 29.0631C41.0197 30.6979 41.7411 32.8104 41.6301 34.9626C41.5192 37.1149 40.5844 39.1419 39.0195 40.6237C37.4546 42.1055 35.3796 42.9284 33.2245 42.9219C31.705 42.9268 30.2137 42.512 28.915 41.7231C31.4919 40.1779 33.4304 37.761 34.3793 34.91C35.3281 32.059 35.2247 28.9624 34.0876 26.1811V26.1811ZM25.8821 38.5823C25.1919 37.3436 24.8308 35.9486 24.8332 34.5305C24.8411 32.9166 25.311 31.3387 26.1873 29.9834C27.0636 28.6281 28.3096 27.552 29.7781 26.8824C30.4682 28.1212 30.8294 29.5162 30.827 30.9342C30.8191 32.5481 30.3492 34.126 29.4729 35.4814C28.5966 36.8367 27.3506 37.9127 25.8821 38.5823V38.5823ZM21.5725 39.2836C19.4282 39.0685 17.4488 38.0365 16.0446 36.4017C14.6404 34.7668 13.9191 32.6544 14.03 30.5021C14.141 28.3499 15.0758 26.3228 16.6407 24.841C18.2055 23.3593 20.2805 22.5364 22.4357 22.5429C23.9552 22.538 25.4465 22.9528 26.7452 23.7417C24.1682 25.2869 22.2298 27.7038 21.2809 30.5548C20.332 33.4058 20.4355 36.5023 21.5725 39.2836V39.2836ZM33.2245 45.9188C30.6894 45.9202 28.2264 45.0752 26.226 43.5177C24.2257 41.9603 22.8026 39.7796 22.1824 37.3216C21.5622 34.8635 21.7804 32.2687 22.8024 29.9487C23.8244 27.6287 25.5917 25.7163 27.8241 24.5149C28.3047 24.9146 28.739 25.367 29.1187 25.8635C27.483 26.6474 26.101 27.8761 25.1311 29.4089C24.1612 30.9417 23.6425 32.7166 23.6344 34.5305C23.6373 37.0731 24.6486 39.5107 26.4464 41.3086C28.2443 43.1065 30.6819 44.1178 33.2245 44.1206C35.7453 44.1242 38.166 43.1346 39.9625 41.3663C41.759 39.5979 42.7867 37.1931 42.8229 34.6726C42.8592 32.1521 41.9011 29.7187 40.1562 27.8994C38.4114 26.0801 36.0201 25.0214 33.5002 24.9524C33.164 24.3303 32.7771 23.7369 32.3434 23.1782C32.6311 23.1603 32.9248 23.1423 33.2245 23.1423C36.2449 23.1423 39.1415 24.3421 41.2772 26.4778C43.4129 28.6135 44.6127 31.5102 44.6127 34.5305C44.6127 37.5509 43.4129 40.4475 41.2772 42.5832C39.1415 44.7189 36.2449 45.9188 33.2245 45.9188V45.9188Z" fill="#FCFCFC"/>
</svg>
