<svg width="261" height="69" viewBox="0 0 261 69" fill="none" xmlns="http://www.w3.org/2000/svg">
<path fill-rule="evenodd" clip-rule="evenodd" d="M104.4 29.5987H0V56.4548C0 63.2445 5.50414 68.7487 12.2939 68.7487H131.432H248.706C255.496 68.7487 261 63.2445 261 56.4548V29.5987H156.6C156.6 44.0133 144.915 55.6986 130.5 55.6986C116.085 55.6986 104.4 44.0133 104.4 29.5987Z" fill="#A95210"/>
<g filter="url(#filter0_d_1_29260)">
<circle cx="130.5" cy="29.5987" r="25.1679" fill="#833800"/>
<path d="M129.972 46.3601C126.683 46.3601 123.385 46.3267 120.096 46.3768C118.598 46.4018 117.611 45.3504 117.628 43.9068C117.661 41.4035 117.628 38.9002 117.644 36.3969C117.653 35.2204 118.305 34.3692 119.368 34.1356C119.569 34.0939 119.787 34.0855 119.988 34.0855C126.658 34.0855 133.32 34.0855 139.99 34.0855C141.32 34.0855 142.275 34.945 142.291 36.2634C142.325 38.9086 142.325 41.5454 142.291 44.1905C142.275 45.4839 141.32 46.3517 140.015 46.3517C136.667 46.3601 133.32 46.3601 129.972 46.3601ZM135.429 38.2744C136.291 38.2744 137.128 38.2494 137.956 38.2827C138.408 38.2994 138.408 38.0574 138.4 37.732C138.391 37.4316 138.441 37.1563 137.973 37.1646C136.826 37.1896 135.688 37.1813 134.541 37.1646C134.198 37.1563 134.106 37.2898 134.115 37.6069C134.123 39.3592 134.123 41.1115 134.115 42.8638C134.115 43.1642 134.207 43.281 134.525 43.281C135.68 43.2727 136.843 43.2643 137.998 43.2894C138.441 43.2977 138.408 43.039 138.408 42.747C138.408 42.4549 138.475 42.1545 137.99 42.1712C137.253 42.2046 136.508 42.1879 135.772 42.1712C135.646 42.1712 135.429 42.0461 135.42 41.9626C135.378 41.5788 135.403 41.1949 135.403 40.7527C135.981 40.7527 136.508 40.7443 137.035 40.7527C137.303 40.761 137.429 40.6609 137.404 40.3939C137.395 40.2854 137.395 40.1686 137.404 40.0601C137.437 39.7514 137.303 39.6429 136.994 39.6512C136.483 39.6679 135.964 39.6596 135.429 39.6596C135.429 39.1839 135.429 38.75 135.429 38.2744ZM128.482 37.1813C128.524 37.3565 128.541 37.44 128.566 37.5151C129.068 39.1756 129.57 40.8361 130.081 42.4966C130.374 43.4396 130.19 43.2393 131.144 43.281C131.487 43.2977 131.663 43.1976 131.763 42.8471C132.273 41.1449 132.809 39.451 133.336 37.7571C133.387 37.5902 133.42 37.4233 133.487 37.1813C133.102 37.1813 132.784 37.1563 132.474 37.198C132.34 37.2147 132.156 37.3565 132.114 37.4817C131.947 37.9907 131.822 38.5247 131.679 39.0421C131.47 39.8014 131.269 40.5524 131.06 41.3117C130.934 41.1866 130.884 41.0614 130.851 40.9363C130.541 39.8098 130.24 38.6833 129.922 37.5651C129.88 37.4233 129.763 37.223 129.654 37.2063C129.286 37.1563 128.917 37.1813 128.482 37.1813ZM121.544 40.227C121.544 41.1198 121.544 42.0043 121.544 42.8972C121.544 43.1141 121.561 43.281 121.846 43.281C123.076 43.2727 124.298 43.281 125.528 43.2643C125.62 43.2643 125.746 43.1058 125.787 42.989C125.829 42.8638 125.787 42.7136 125.804 42.5801C125.838 42.2713 125.704 42.1712 125.394 42.1712C124.683 42.1879 123.971 42.1629 123.26 42.1796C122.942 42.1879 122.825 42.0961 122.833 41.7623C122.85 40.5107 122.85 39.259 122.841 38.0074C122.833 37.0812 122.984 37.1896 121.988 37.1646C121.661 37.1563 121.544 37.2647 121.553 37.5902C121.553 38.4747 121.544 39.3508 121.544 40.227ZM127.763 40.227C127.763 39.4593 127.771 38.7 127.763 37.9323C127.754 37.0728 127.88 37.2063 127.009 37.173C126.599 37.1563 126.49 37.2981 126.499 37.6903C126.516 39.2757 126.499 40.8612 126.507 42.4466C126.516 43.3811 126.365 43.2643 127.352 43.2977C127.696 43.306 127.779 43.1809 127.771 42.8638C127.754 41.971 127.763 41.0948 127.763 40.227Z" fill="white"/>
<path d="M129.947 32.717C127.185 32.717 124.423 32.7086 121.661 32.7253C121.335 32.7253 121.159 32.6169 121.009 32.3415C117.343 25.8997 121.276 17.9391 128.641 16.9128C134.324 16.1201 139.689 20.3423 140.258 26.0415C140.484 28.2861 140.048 30.3806 138.944 32.3415C138.785 32.6169 138.609 32.7253 138.282 32.7253C135.496 32.717 132.725 32.717 129.947 32.717ZM127.687 26.2334C127.679 27.2932 127.67 28.3445 127.679 29.4043C127.687 30.1219 128.064 30.3388 128.675 29.9717C130.382 28.9203 132.081 27.8606 133.78 26.7925C134.282 26.4754 134.29 26.0749 133.78 25.7578C132.073 24.6897 130.357 23.6216 128.633 22.5619C128.072 22.2198 127.687 22.4451 127.679 23.1043C127.687 24.1557 127.687 25.1987 127.687 26.2334Z" fill="white"/>
<path d="M115.586 27.1764C115.586 20.4509 120.197 14.5848 126.792 13.1996C132.349 12.0314 137.195 13.5501 140.885 17.8891C144.794 22.4869 145.354 27.6938 143.045 33.2344C143.028 33.2761 143.011 33.3095 142.994 33.3512C142.86 33.6266 142.643 33.7684 142.35 33.6182C142.057 33.468 142.049 33.2177 142.183 32.9423C143.128 31.0065 143.563 28.9454 143.48 26.8009C143.354 23.4048 142.141 20.4258 139.789 17.9559C137.337 15.3858 134.324 13.9506 130.767 13.7503C126.859 13.5334 123.453 14.7767 120.632 17.4803C117.72 20.2589 116.372 23.7135 116.473 27.7104C116.515 29.5045 116.95 31.2318 117.728 32.8589C117.87 33.1593 117.946 33.418 117.611 33.6099C117.335 33.7768 117.109 33.6433 116.908 33.2344C116.038 31.4237 115.586 29.3626 115.586 27.1764Z" fill="white"/>
</g>
<defs>
<filter id="filter0_d_1_29260" x="101.603" y="0.702276" width="57.7928" height="57.7929" filterUnits="userSpaceOnUse" color-interpolation-filters="sRGB">
<feFlood flood-opacity="0" result="BackgroundImageFix"/>
<feColorMatrix in="SourceAlpha" type="matrix" values="0 0 0 0 0 0 0 0 0 0 0 0 0 0 0 0 0 0 127 0" result="hardAlpha"/>
<feOffset/>
<feGaussianBlur stdDeviation="1.86429"/>
<feComposite in2="hardAlpha" operator="out"/>
<feColorMatrix type="matrix" values="0 0 0 0 1 0 0 0 0 1 0 0 0 0 1 0 0 0 0.5 0"/>
<feBlend mode="normal" in2="BackgroundImageFix" result="effect1_dropShadow_1_29260"/>
<feBlend mode="normal" in="SourceGraphic" in2="effect1_dropShadow_1_29260" result="shape"/>
</filter>
</defs>
</svg>
