<svg width="27" height="27" viewBox="0 0 27 27" fill="none" xmlns="http://www.w3.org/2000/svg">
<path d="M13.5292 24.9892C7.21499 24.9892 2.078 19.8522 2.078 13.5379C2.078 7.22366 7.21499 2.08667 13.5292 2.08667C19.8435 2.08667 24.9801 7.22366 24.9801 13.5379C24.9801 19.8522 19.8431 24.9892 13.5292 24.9892ZM13.5292 2.86015C7.64123 2.86015 2.85107 7.65032 2.85107 13.5379C2.85107 19.4259 7.64123 24.2157 13.5292 24.2157C19.4168 24.2157 24.207 19.4255 24.207 13.5379C24.207 7.65032 19.4168 2.86015 13.5292 2.86015Z" fill="#F4F4F4"/>
<path d="M13.5312 4.79663C11.3413 4.79663 9.55896 6.57563 9.55896 8.7655V10.7266H10.3868V8.7655C10.3868 7.30794 11.7606 5.71653 13.2181 5.71653C14.6338 5.71653 15.3449 6.40162 15.8404 6.89719C16.336 7.39277 16.6148 8.06465 16.6157 8.7655V10.7266H17.5V8.7655C17.5 6.57563 15.721 4.79663 13.5312 4.79663Z" fill="#F4F4F4"/>
<path d="M13.507 15.7241C14.1131 15.7241 14.6044 15.2328 14.6044 14.6267C14.6044 14.0206 14.1131 13.5293 13.507 13.5293C12.9009 13.5293 12.4095 14.0206 12.4095 14.6267C12.4095 15.2328 12.9009 15.7241 13.507 15.7241Z" fill="#F4F4F4"/>
<path d="M14.353 17.0469H12.6588L13.0809 15.1335H13.9309L14.353 17.0469Z" fill="#F4F4F4"/>
<path d="M8.40179 10.5032V18.9454L7.67737 18.6989V11.181C7.67737 10.8047 7.97886 10.5032 8.3552 10.5032H8.40179ZM19.3195 11.181V18.4234L18.4001 18.699V10.5032L18.6446 10.5032C19.018 10.5032 19.3195 10.8047 19.3195 11.181ZM8.40179 18.4234V19.97H8.3552C7.97886 19.97 7.67737 19.6685 7.67737 19.2946V18.4234L8.40179 18.4234ZM19.3195 18.4234V19.2946C19.3195 19.6685 19.018 19.97 18.6441 19.97L18.4001 19.97V18.4235L19.3195 18.4234Z" fill="#F4F4F4"/>
<path d="M8.32324 10.5032H18.4268V11.3788H8.32324V10.5032Z" fill="#F4F4F4"/>
<path d="M8.32324 19.0249L18.4268 19.0249V19.9924H8.32324V19.0249Z" fill="#F4F4F4"/>
</svg>
