<svg width="261" height="69" viewBox="0 0 261 69" fill="none" xmlns="http://www.w3.org/2000/svg">
<path fill-rule="evenodd" clip-rule="evenodd" d="M104.4 29.5986H0V56.4548C0 63.2445 5.50414 68.7486 12.2939 68.7486H131.432H248.706C255.496 68.7486 261 63.2445 261 56.4548V29.5986H156.6C156.6 44.0132 144.915 55.6986 130.5 55.6986C116.085 55.6986 104.4 44.0132 104.4 29.5986Z" fill="#A95210"/>
<g filter="url(#filter0_d_1_29132)">
<circle cx="130.5" cy="29.5986" r="25.1679" fill="#833800"/>
<path d="M129.972 46.36C126.683 46.36 123.385 46.3266 120.096 46.3767C118.598 46.4017 117.611 45.3503 117.628 43.9067C117.661 41.4034 117.628 38.9001 117.644 36.3968C117.653 35.2203 118.305 34.3692 119.368 34.1355C119.569 34.0938 119.787 34.0854 119.988 34.0854C126.658 34.0854 133.32 34.0854 139.99 34.0854C141.32 34.0854 142.275 34.9449 142.291 36.2633C142.325 38.9085 142.325 41.5453 142.291 44.1905C142.275 45.4838 141.32 46.3516 140.015 46.3516C136.667 46.36 133.32 46.36 129.972 46.36ZM135.429 38.2743C136.291 38.2743 137.128 38.2493 137.956 38.2827C138.408 38.2993 138.408 38.0574 138.4 37.7319C138.391 37.4315 138.441 37.1562 137.973 37.1645C136.826 37.1895 135.688 37.1812 134.541 37.1645C134.198 37.1562 134.106 37.2897 134.115 37.6068C134.123 39.3591 134.123 41.1114 134.115 42.8637C134.115 43.1641 134.207 43.2809 134.525 43.2809C135.68 43.2726 136.843 43.2642 137.998 43.2893C138.441 43.2976 138.408 43.0389 138.408 42.7469C138.408 42.4548 138.475 42.1544 137.99 42.1711C137.253 42.2045 136.508 42.1878 135.772 42.1711C135.646 42.1711 135.429 42.046 135.42 41.9625C135.378 41.5787 135.403 41.1948 135.403 40.7526C135.981 40.7526 136.508 40.7442 137.035 40.7526C137.303 40.7609 137.429 40.6608 137.404 40.3938C137.395 40.2853 137.395 40.1685 137.404 40.06C137.437 39.7513 137.303 39.6428 136.994 39.6511C136.483 39.6678 135.964 39.6595 135.429 39.6595C135.429 39.1838 135.429 38.7499 135.429 38.2743ZM128.482 37.1812C128.524 37.3564 128.541 37.4399 128.566 37.515C129.068 39.1755 129.57 40.836 130.081 42.4966C130.374 43.4395 130.19 43.2392 131.144 43.2809C131.487 43.2976 131.663 43.1975 131.763 42.847C132.273 41.1448 132.809 39.4509 133.336 37.757C133.387 37.5901 133.42 37.4232 133.487 37.1812C133.102 37.1812 132.784 37.1562 132.474 37.1979C132.34 37.2146 132.156 37.3564 132.114 37.4816C131.947 37.9906 131.822 38.5246 131.679 39.042C131.47 39.8013 131.269 40.5523 131.06 41.3117C130.934 41.1865 130.884 41.0613 130.851 40.9362C130.541 39.8097 130.24 38.6832 129.922 37.565C129.88 37.4232 129.763 37.2229 129.654 37.2062C129.286 37.1562 128.917 37.1812 128.482 37.1812ZM121.544 40.2269C121.544 41.1197 121.544 42.0042 121.544 42.8971C121.544 43.114 121.561 43.2809 121.846 43.2809C123.076 43.2726 124.298 43.2809 125.528 43.2642C125.62 43.2642 125.746 43.1057 125.787 42.9889C125.829 42.8637 125.787 42.7135 125.804 42.58C125.838 42.2713 125.704 42.1711 125.394 42.1711C124.683 42.1878 123.971 42.1628 123.26 42.1795C122.942 42.1878 122.825 42.096 122.833 41.7623C122.85 40.5106 122.85 39.2589 122.841 38.0073C122.833 37.0811 122.984 37.1895 121.988 37.1645C121.661 37.1562 121.544 37.2646 121.553 37.5901C121.553 38.4746 121.544 39.3507 121.544 40.2269ZM127.763 40.2269C127.763 39.4592 127.771 38.6999 127.763 37.9322C127.754 37.0727 127.88 37.2062 127.009 37.1729C126.599 37.1562 126.49 37.298 126.499 37.6902C126.516 39.2756 126.499 40.8611 126.507 42.4465C126.516 43.3811 126.365 43.2642 127.352 43.2976C127.696 43.306 127.779 43.1808 127.771 42.8637C127.754 41.9709 127.763 41.0947 127.763 40.2269Z" fill="white"/>
<path d="M129.947 32.7169C127.185 32.7169 124.423 32.7086 121.661 32.7252C121.335 32.7252 121.159 32.6168 121.009 32.3414C117.343 25.8996 121.276 17.9391 128.641 16.9127C134.324 16.12 139.689 20.3422 140.258 26.0414C140.484 28.286 140.048 30.3805 138.944 32.3414C138.785 32.6168 138.609 32.7252 138.282 32.7252C135.496 32.7169 132.725 32.7169 129.947 32.7169ZM127.687 26.2333C127.679 27.2931 127.67 28.3445 127.679 29.4042C127.687 30.1218 128.064 30.3388 128.675 29.9716C130.382 28.9202 132.081 27.8605 133.78 26.7924C134.282 26.4753 134.29 26.0748 133.78 25.7577C132.073 24.6896 130.357 23.6216 128.633 22.5618C128.072 22.2197 127.687 22.445 127.679 23.1042C127.687 24.1556 127.687 25.1986 127.687 26.2333Z" fill="white"/>
<path d="M115.586 27.1763C115.586 20.4508 120.197 14.5847 126.792 13.1995C132.349 12.0313 137.195 13.55 140.885 17.889C144.794 22.4868 145.354 27.6937 143.045 33.2343C143.028 33.276 143.011 33.3094 142.994 33.3511C142.86 33.6265 142.643 33.7683 142.35 33.6181C142.057 33.468 142.049 33.2176 142.183 32.9423C143.128 31.0064 143.563 28.9453 143.48 26.8008C143.354 23.4047 142.141 20.4257 139.789 17.9558C137.337 15.3857 134.324 13.9505 130.767 13.7503C126.859 13.5333 123.453 14.7766 120.632 17.4802C117.72 20.2588 116.372 23.7134 116.473 27.7103C116.515 29.5044 116.95 31.2317 117.728 32.8588C117.87 33.1592 117.946 33.4179 117.611 33.6098C117.335 33.7767 117.109 33.6432 116.908 33.2343C116.038 31.4236 115.586 29.3625 115.586 27.1763Z" fill="white"/>
</g>
<defs>
<filter id="filter0_d_1_29132" x="101.603" y="0.702214" width="57.7928" height="57.7928" filterUnits="userSpaceOnUse" color-interpolation-filters="sRGB">
<feFlood flood-opacity="0" result="BackgroundImageFix"/>
<feColorMatrix in="SourceAlpha" type="matrix" values="0 0 0 0 0 0 0 0 0 0 0 0 0 0 0 0 0 0 127 0" result="hardAlpha"/>
<feOffset/>
<feGaussianBlur stdDeviation="1.86429"/>
<feComposite in2="hardAlpha" operator="out"/>
<feColorMatrix type="matrix" values="0 0 0 0 1 0 0 0 0 1 0 0 0 0 1 0 0 0 0.5 0"/>
<feBlend mode="normal" in2="BackgroundImageFix" result="effect1_dropShadow_1_29132"/>
<feBlend mode="normal" in="SourceGraphic" in2="effect1_dropShadow_1_29132" result="shape"/>
</filter>
</defs>
</svg>
