<svg width="40" height="40" viewBox="0 0 40 40" fill="none" xmlns="http://www.w3.org/2000/svg">
<path d="M39.2327 0.236816L6.31389 0.236814C3.13951 0.236813 0.566166 2.81016 0.566165 5.98454L0.566163 34.2006C0.566163 37.375 3.1395 39.9484 6.31389 39.9484L39.2327 39.9484L39.2327 0.236816Z" fill="#A95210"/>
<g clip-path="url(#clip0_1_33706)">
<path d="M30.1548 20.7584L28.1277 20.3172V19.508C28.5792 19.3179 28.9949 19.0477 29.3542 18.703C29.9179 18.1618 30.2928 17.4877 30.448 16.7543C31.1155 16.6719 31.6331 16.1234 31.6331 15.4605C31.6331 15.1136 31.4903 14.7851 31.2381 14.5416V11.55C31.2381 9.69068 29.6624 8.17808 27.7257 8.17808V8.18808C27.4943 7.91802 27.1439 7.74519 26.7521 7.74451H26.7461C26.7416 7.74451 26.7371 7.74451 26.7326 7.74451C25.4363 7.74451 24.207 8.23814 23.2699 9.13533C22.3094 10.0548 21.7805 11.2705 21.7805 12.5584V14.5575C21.5385 14.7993 21.4013 15.1222 21.4013 15.4606C21.4013 15.6941 21.4659 15.9133 21.5782 16.103C21.2252 16.0138 20.8578 15.9677 20.4827 15.9697C19.7837 15.9747 19.1251 16.15 18.5478 16.4539V15.9689C18.5478 14.4715 17.5492 13.1634 16.0629 12.7138L15.9095 13.181C17.1823 13.566 18.0375 14.6864 18.0375 15.9689V16.771C17.1664 17.4036 16.5583 18.3597 16.4035 19.4515C15.8466 19.8053 15.2003 19.9921 14.527 19.9921C13.6167 19.9921 12.7605 19.6516 12.1163 19.0337C11.4724 18.4151 11.1179 17.5932 11.1179 16.7193V16.0942C11.1179 15.0231 11.7667 14.0405 12.7735 13.5822L12.802 13.5696C14.0049 13.0378 14.7821 11.8721 14.7821 10.6001V10.181H14.2719V10.6001C14.2719 11.6711 13.624 12.6532 12.6183 13.1113L12.5881 13.1247C11.385 13.6571 10.6076 14.8227 10.6076 16.0942V19.9102C10.6076 20.4313 10.6886 20.9455 10.8478 21.4425C10.0559 21.7273 9.40262 22.2821 9.01186 23.0036C8.63507 22.5608 8.42366 22.0021 8.42366 21.4249C8.42366 20.6508 8.78866 19.9336 9.42528 19.457C9.79696 19.1781 10.0101 18.7605 10.0101 18.3113V13.2941C10.0101 12.132 10.4815 11.0394 11.3376 10.2176C12.1845 9.40499 13.3099 8.95256 14.5066 8.94364C15.7055 8.93453 16.8402 9.38359 17.7057 10.208C18.5891 11.0494 19.0756 12.1649 19.0756 13.349V15.4755H19.5859V13.349C19.5859 12.0334 19.0458 10.7943 18.0651 9.86027C17.1022 8.9432 15.838 8.44457 14.5026 8.45383C13.1713 8.46382 11.9191 8.96716 10.9768 9.8712C10.0243 10.7855 9.49983 12.0012 9.49983 13.2942V18.3113C9.49983 18.6088 9.35818 18.8857 9.11131 19.0709C8.35003 19.6408 7.91339 20.4988 7.91339 21.4249C7.91339 22.2009 8.23211 22.9496 8.79285 23.5041C8.68105 23.8323 8.6242 24.1745 8.6242 24.5237V29.205H14.8837V28.7151H9.13432V24.5237C9.13432 24.1798 9.19867 23.844 9.32573 23.5255C9.67465 22.6476 10.4528 21.9995 11.4073 21.7916L13.5987 21.3148V20.3757C13.8991 20.4455 14.21 20.4819 14.5268 20.4819C14.8541 20.4819 15.1758 20.4429 15.4867 20.3678V21.3148L16.3636 21.5057V22.6801C16.3636 23.7121 17.2382 24.5517 18.3132 24.5517H18.3842V24.0618H18.3132C17.5196 24.0618 16.8739 23.442 16.8739 22.6801V20.001C16.8739 18.0624 18.4945 16.4738 20.4864 16.4596C21.4665 16.4523 22.3848 16.8128 23.0784 17.4738C23.7722 18.1348 24.1542 19.0157 24.1542 19.954V22.6801C24.1542 23.442 23.5085 24.0618 22.7149 24.0618V24.5517C23.7899 24.5517 24.6645 23.7121 24.6645 22.6801V20.8792L24.9381 20.8195V23.0506C24.9381 23.1912 25.0312 23.3163 25.17 23.3617C25.2063 23.3736 25.2435 23.3793 25.2804 23.3793C25.3844 23.3793 25.4854 23.3336 25.5515 23.2515L26.5329 21.9398L27.5091 23.2447L27.5144 23.2516C27.6039 23.3628 27.7572 23.4071 27.8959 23.3617C28.0346 23.3163 28.1277 23.1913 28.1277 23.0507V20.8194L30.0421 21.2361C31.5511 21.5643 32.6049 22.831 32.6049 24.3166V28.7151H30.4364V24.6219H29.9261V28.7151H25.8257V29.205H33.1152V24.3166C33.1152 23.4922 32.8201 22.6835 32.2843 22.0395C31.7483 21.3955 30.9921 20.9405 30.1548 20.7584ZM11.7554 19.3801C11.7696 19.3937 11.7845 19.4064 11.7989 19.4198V19.8969C11.7989 20.3267 11.8548 20.7531 11.9637 21.1683L11.3372 21.3046C11.1917 20.8524 11.1178 20.3844 11.1178 19.9102V18.5766C11.2899 18.867 11.5028 19.1373 11.7554 19.3801ZM13.0884 20.9236L12.4614 21.0601C12.3607 20.6804 12.3092 20.2901 12.3092 19.8969V19.8218C12.5536 19.9835 12.8147 20.1168 13.0884 20.2204V20.9236ZM15.997 20.9236V20.2086C16.1219 20.16 16.2441 20.1045 16.3637 20.0434V21.0035L15.997 20.9236ZM30.5189 16.2406C30.5249 16.154 30.529 16.0671 30.529 15.9796V15.8775C30.7844 15.7863 30.9944 15.606 31.1179 15.3754C31.1209 15.4036 31.1227 15.432 31.1227 15.4606C31.1227 15.8282 30.8678 16.1394 30.5189 16.2406ZM30.7278 11.5501V14.9009C30.7278 15.0672 30.6505 15.2163 30.529 15.3177V15.0445C30.529 14.6336 30.4019 14.237 30.1611 13.8972C30.0712 13.7709 30.0012 13.6313 29.9534 13.4829C29.906 13.3349 29.8821 13.1814 29.8821 13.0267V12.5192C29.8821 11.7516 29.2315 11.1271 28.4337 11.1271L27.8466 11.1229C27.9564 10.8219 28.0129 10.5067 28.0129 10.1811V8.95648C28.0129 8.861 28.001 8.76822 27.9791 8.67907C29.5162 8.80305 30.7278 10.0429 30.7278 11.5501ZM22.2907 12.5584C22.2907 11.4016 22.7663 10.3091 23.6301 9.48225C24.471 8.67725 25.5722 8.23442 26.7333 8.23442C26.7372 8.23442 26.7413 8.23442 26.7453 8.23442H26.7515C27.1656 8.23515 27.5025 8.55905 27.5025 8.95648V10.1811C27.5025 10.5587 27.4126 10.9196 27.2355 11.2539C26.8115 12.0522 25.9691 12.5481 25.037 12.5481C24.3601 12.5481 23.7242 12.8011 23.2466 13.2601C22.7684 13.7193 22.505 14.3295 22.505 14.9784V15.2744C22.3714 15.1535 22.2907 14.9826 22.2907 14.7956V12.5584ZM21.9222 15.3387C22.0485 15.565 22.2518 15.7474 22.505 15.851V15.9796C22.505 16.0668 22.5083 16.1538 22.5144 16.2403C22.166 16.1388 21.9116 15.8278 21.9116 15.4606C21.9115 15.4194 21.9159 15.3789 21.9222 15.3387ZM23.1393 16.868C23.0573 16.5807 23.0152 16.2824 23.0152 15.9796V14.9784C23.0152 14.4603 23.2255 13.9731 23.6075 13.6064C23.9889 13.2399 24.4965 13.038 25.037 13.038C26.1083 13.038 27.0811 12.495 27.6133 11.6111L28.4318 11.6169C28.95 11.6169 29.3717 12.0217 29.3717 12.5192V13.0267C29.3717 13.2302 29.4033 13.4322 29.4658 13.6272C29.5288 13.8229 29.621 14.0068 29.7394 14.1731C29.9222 14.4309 30.0188 14.7323 30.0188 15.0445V15.9796C30.0188 16.8777 29.6546 17.7219 28.9934 18.3566C28.3315 18.9915 27.4522 19.3411 26.5173 19.3411C26.0915 19.3411 25.6764 19.2687 25.2828 19.126C24.9866 19.0191 24.7078 18.8739 24.4526 18.6944C24.2503 18.1094 23.9073 17.5734 23.4379 17.1262C23.3421 17.0349 23.2424 16.949 23.1393 16.868ZM24.6645 20.3769V19.954C24.6645 19.758 24.6496 19.5642 24.6208 19.3737C24.7242 19.4269 24.83 19.476 24.938 19.5203V20.3172L24.6645 20.3769ZM25.4484 22.5498V21.0159L26.1829 21.568L25.4484 22.5498ZM26.5329 21.2089L25.4482 20.3936V19.6926C25.7944 19.7844 26.1526 19.8309 26.5173 19.8309C26.8947 19.8309 27.2639 19.7801 27.6174 19.6839V20.3936L26.5329 21.2089ZM27.6174 22.5498L26.8829 21.568L27.6174 21.0159V22.5498Z" fill="#FCFCFC"/>
<path d="M21.5618 21.824C21.697 21.824 21.8067 21.7188 21.8067 21.589V21.4275C21.8067 21.2977 21.6971 21.1924 21.5618 21.1924C21.4267 21.1924 21.317 21.2976 21.317 21.4275V21.589C21.317 21.7188 21.4267 21.824 21.5618 21.824ZM19.5364 21.824C19.6717 21.824 19.7813 21.7188 19.7813 21.589V21.4275C19.7813 21.2977 19.6717 21.1924 19.5364 21.1924C19.4012 21.1924 19.2916 21.2976 19.2916 21.4275V21.589C19.2916 21.7188 19.4012 21.824 19.5364 21.824ZM21.6874 22.7158L21.2271 22.5045C21.1004 22.7587 20.8291 22.9231 20.5359 22.9231C20.2425 22.9231 19.9713 22.7588 19.8449 22.5047L19.3844 22.7157C19.595 23.1392 20.047 23.4129 20.5359 23.4129C21.0245 23.4129 21.4765 23.1393 21.6874 22.7158Z" fill="#FCFCFC"/>
<path d="M17.4244 19.0967L18.3347 19.9706L18.6955 19.6242L17.7852 18.7503L17.4244 19.0967Z" fill="#FCFCFC"/>
<path d="M19.2444 19.0973L18.3341 18.2234L17.9733 18.5698L18.8836 19.4437L19.2444 19.0973Z" fill="#FCFCFC"/>
<path d="M25.3587 27.5251C25.3587 26.2489 24.4533 25.1606 23.1568 24.8785L21.7409 24.5704V24.1902C22.9024 23.7435 23.7722 22.6804 23.9288 21.3756C23.9651 21.0738 23.8316 20.7718 23.5806 20.5874C23.3197 20.3958 22.8708 19.9839 22.795 19.3787C22.7668 19.1529 22.6137 18.9647 22.3957 18.8877L22.3716 18.8791C22.119 18.7898 21.8388 18.8664 21.6742 19.0698C20.7365 20.2289 18.9373 20.5711 17.9483 20.6719C17.6933 20.698 17.4606 20.8274 17.31 21.027C17.1596 21.2264 17.1041 21.4785 17.1578 21.7187C17.326 22.4715 17.7481 23.1554 18.3465 23.6445C18.6302 23.8763 18.9486 24.0591 19.287 24.189V24.5704L17.8711 24.8785C16.5746 25.1606 15.6692 26.2489 15.6692 27.5251V29.205H25.3588V27.5251H25.3587ZM17.6568 21.616C17.633 21.5098 17.6567 21.4027 17.7233 21.3144C17.7902 21.2258 17.8893 21.1706 18.0023 21.1591C19.0719 21.05 21.0236 20.6725 22.0773 19.3702C22.0971 19.3458 22.1271 19.3324 22.1583 19.3324C22.1706 19.3324 22.1831 19.3345 22.1953 19.3388L22.2193 19.3473C22.2567 19.3605 22.2832 19.3949 22.2884 19.4371V19.4371C22.3865 20.2208 22.9458 20.738 23.2705 20.9765C23.3797 21.0567 23.4377 21.1881 23.4219 21.3195C23.2434 22.8066 21.9933 23.928 20.514 23.928C19.1358 23.9279 17.9609 22.9772 17.6568 21.616ZM20.514 24.4178C20.7593 24.4178 20.9989 24.3908 21.2306 24.3413V24.6602C21.0316 24.8258 20.7808 24.9164 20.514 24.9164C20.2472 24.9164 19.9963 24.8257 19.7973 24.6601V24.3412C20.0318 24.3916 20.272 24.4178 20.514 24.4178ZM19.4665 25.0336C19.7577 25.2748 20.1243 25.4063 20.514 25.4063C20.9036 25.4063 21.2702 25.2747 21.5613 25.0336L22.4596 25.2291V26.6402H18.6391V25.2137L19.4665 25.0336ZM17.9839 25.3563L18.1289 25.3247V27.13H22.9699V25.3401L23.044 25.3562C23.2183 25.3941 23.3836 25.4501 23.5388 25.5213V28.7151H17.5336V25.5015C17.6758 25.4398 17.8262 25.3905 17.9839 25.3563ZM16.1795 27.5251C16.1795 26.8369 16.5008 26.2155 17.0233 25.805V28.7151H16.1795V27.5251ZM24.8485 28.7151H24.0491V25.8413C24.5451 26.2517 24.8485 26.8568 24.8485 27.5251V28.7151Z" fill="#FCFCFC"/>
<path d="M14.5423 18.3593C14.347 18.3593 14.1664 18.25 14.0823 18.0808L13.6218 18.2918C13.7901 18.6304 14.1514 18.8492 14.5423 18.8492C14.9329 18.8492 15.2941 18.6305 15.4627 18.292L15.0024 18.0807C14.9181 18.2499 14.7375 18.3593 14.5423 18.3593Z" fill="#FCFCFC"/>
<path d="M15.9242 23.1932H10.1735V23.6831H15.9242V23.1932Z" fill="#FCFCFC"/>
<path d="M16.3712 15.9436C16.5268 15.9436 16.6534 16.0651 16.6534 16.2145H17.1636C17.1636 15.795 16.8081 15.4537 16.3712 15.4537C15.9342 15.4537 15.5787 15.795 15.5787 16.2145H16.089C16.089 16.0651 16.2156 15.9436 16.3712 15.9436ZM11.9207 16.2145H12.431C12.431 16.0651 12.5576 15.9436 12.7132 15.9436C12.8688 15.9436 12.9954 16.0651 12.9954 16.2145H13.5056C13.5056 15.795 13.1501 15.4537 12.7132 15.4537C12.2762 15.4537 11.9207 15.795 11.9207 16.2145Z" fill="#FCFCFC"/>
<path d="M26.533 18.1386C26.9309 18.1386 27.2991 17.9158 27.4709 17.5709L27.0106 17.3596C26.923 17.5353 26.7356 17.6488 26.533 17.6488C26.3302 17.6488 26.1429 17.5354 26.0556 17.3598L25.5951 17.5707C25.7664 17.9157 26.1347 18.1386 26.533 18.1386ZM28.362 15.3136C28.5176 15.3136 28.6442 15.4351 28.6442 15.5845H29.1545C29.1545 15.165 28.799 14.8237 28.362 14.8237C27.9251 14.8237 27.5696 15.165 27.5696 15.5845H28.0798C28.0798 15.4351 28.2064 15.3136 28.362 15.3136ZM24.704 15.3136C24.8596 15.3136 24.9861 15.4351 24.9861 15.5845H25.4964C25.4964 15.165 25.1409 14.8237 24.704 14.8237C24.267 14.8237 23.9115 15.165 23.9115 15.5845H24.4218C24.4218 15.4351 24.5484 15.3136 24.704 15.3136Z" fill="#FCFCFC"/>
<path d="M26.7879 23.1346H26.2776V28.1618H26.7879V23.1346Z" fill="#FCFCFC"/>
</g>
<defs>
<clipPath id="clip0_1_33706">
<rect width="26.126" height="25.081" fill="white" transform="translate(7.45087 5.9342)"/>
</clipPath>
</defs>
</svg>
