<svg width="39" height="41" viewBox="0 0 39 41" fill="none" xmlns="http://www.w3.org/2000/svg">
<path d="M38.6671 0.981934H5.74834C2.57396 0.981934 0.000614166 3.55528 0.000614166 6.72966V34.9458C0.000614166 38.1201 2.57396 40.6935 5.74834 40.6935H38.6671V0.981934Z" fill="#A95210"/>
<g clip-path="url(#clip0_1_33665)">
<path d="M23.0815 15.8411C22.6505 15.8418 22.2203 15.8766 21.7949 15.9452C20.6129 14.7434 19.1069 13.9116 17.4603 13.551L19.6422 11.1235C19.6947 11.066 19.7301 10.9949 19.7441 10.9183C19.7581 10.8417 19.7502 10.7627 19.7213 10.6904L18.8885 8.60851C18.8576 8.53104 18.8042 8.46461 18.7352 8.41784C18.6662 8.37107 18.5847 8.34611 18.5013 8.34619H12.6719C12.5885 8.34611 12.507 8.37107 12.438 8.41784C12.3689 8.46461 12.3155 8.53104 12.2847 8.60851L11.4519 10.6904C11.423 10.7627 11.4151 10.8417 11.4291 10.9183C11.4431 10.9949 11.4784 11.066 11.531 11.1235L13.7129 13.551C11.607 14.0122 9.7458 15.2353 8.48692 16.9853C7.22803 18.7353 6.66024 20.8888 6.89264 23.0321C7.12503 25.1753 8.14122 27.157 9.74597 28.5966C11.3507 30.0361 13.4308 30.8318 15.5866 30.8309C16.0175 30.8302 16.4478 30.7954 16.8732 30.7268C17.6808 31.5545 18.6466 32.2114 19.7131 32.6584C20.7796 33.1055 21.9251 33.3336 23.0815 33.3292C25.4006 33.3292 27.6246 32.4079 29.2645 30.7681C30.9043 29.1283 31.8255 26.9042 31.8255 24.5851C31.8255 22.2661 30.9043 20.042 29.2645 18.4022C27.6246 16.7623 25.4006 15.8411 23.0815 15.8411ZM17.9516 9.17896H18.2181L18.7178 10.4281H17.452L17.9516 9.17896ZM18.4013 11.2609L16.5151 13.3553L17.1439 11.2609H18.4013ZM17.0523 9.17896L16.5526 10.4281H14.6206L14.1209 9.17896H17.0523ZM16.2778 11.2609L15.649 13.347H15.5241L14.8954 11.2609H16.2778ZM12.955 9.17896H13.2215L13.7212 10.4281H12.4554L12.955 9.17896ZM12.7718 11.2609H14.0293L14.6581 13.3553L12.7718 11.2609ZM15.5866 29.9981C13.5531 30.0039 11.5955 29.2264 10.12 27.827C8.6446 26.4276 7.76467 24.5138 7.66288 22.4829C7.56109 20.4519 8.24526 18.4598 9.57338 16.9199C10.9015 15.38 12.7716 14.4106 14.7955 14.213C15.3217 14.1631 15.8515 14.1631 16.3777 14.213C18.2765 14.4031 20.0416 15.2761 21.3452 16.6697C22.7313 18.1323 23.5021 20.0718 23.4979 22.0868C23.5032 23.5153 23.1187 24.9182 22.3857 26.1442C21.6527 27.3703 20.599 28.3731 19.3382 29.0446C19.0043 28.7669 18.7026 28.4527 18.4388 28.1077C19.5752 27.5632 20.5352 26.7096 21.209 25.6448C21.8828 24.58 22.2431 23.3469 22.2487 22.0868C22.2467 20.3205 21.5442 18.6272 20.2952 17.3782C19.0463 16.1292 17.3529 15.4267 15.5866 15.4247C13.8354 15.4222 12.1538 16.1097 10.9057 17.3381C9.65775 18.5666 8.94386 20.2372 8.91867 21.9881C8.89348 23.7391 9.55903 25.4296 10.7712 26.6934C11.9833 27.9572 13.6445 28.6927 15.395 28.7406C15.6286 29.1729 15.8974 29.5851 16.1987 29.9731C15.9988 29.9856 15.7948 29.9981 15.5866 29.9981ZM23.6811 18.7849C25.1707 18.9344 26.5458 19.6512 27.5213 20.787C28.4967 21.9227 28.9979 23.3902 28.9208 24.8853C28.8437 26.3805 28.1943 27.7886 27.1072 28.818C26.0201 29.8474 24.5786 30.419 23.0815 30.4145C22.0259 30.4179 20.9899 30.1298 20.0877 29.5817C21.8779 28.5083 23.2245 26.8293 23.8837 24.8487C24.5428 22.8682 24.471 20.7171 23.6811 18.7849ZM17.9808 27.3999C17.5013 26.5393 17.2505 25.5702 17.2521 24.5851C17.2576 23.464 17.584 22.3678 18.1928 21.4263C18.8015 20.4848 19.6671 19.7372 20.6873 19.2721C21.1667 20.1327 21.4176 21.1017 21.416 22.0868C21.4104 23.208 21.084 24.3042 20.4753 25.2457C19.8665 26.1872 19.0009 26.9347 17.9808 27.3999ZM14.987 27.8871C13.4973 27.7376 12.1223 27.0207 11.1468 25.885C10.1713 24.7493 9.67021 23.2818 9.7473 21.7867C9.82439 20.2915 10.4738 18.8833 11.5609 17.854C12.648 16.8246 14.0895 16.2529 15.5866 16.2575C16.6422 16.254 17.6782 16.5422 18.5804 17.0902C16.7902 18.1637 15.4436 19.8427 14.7844 21.8232C14.1252 23.8038 14.1971 25.9549 14.987 27.8871ZM23.0815 32.4964C21.3204 32.4974 19.6093 31.9104 18.2197 30.8285C16.8301 29.7465 15.8415 28.2317 15.4107 26.524C14.9798 24.8164 15.1314 23.0139 15.8414 21.4022C16.5514 19.7905 17.7791 18.462 19.3299 17.6274C19.6637 17.9051 19.9654 18.2193 20.2293 18.5642C19.0929 19.1088 18.1329 19.9624 17.4591 21.0272C16.7853 22.092 16.4249 23.3251 16.4194 24.5851C16.4213 26.3514 17.1239 28.0448 18.3728 29.2938C19.6218 30.5428 21.3152 31.2453 23.0815 31.2473C24.8327 31.2497 26.5143 30.5623 27.7623 29.3339C29.0103 28.1054 29.7242 26.4348 29.7494 24.6838C29.7746 22.9328 29.109 21.2424 27.8969 19.9786C26.6847 18.7147 25.0235 17.9792 23.273 17.9313C23.0395 17.4991 22.7707 17.0869 22.4694 16.6988C22.6693 16.6863 22.8733 16.6739 23.0815 16.6739C25.1797 16.6739 27.192 17.5074 28.6756 18.991C30.1593 20.4747 30.9928 22.4869 30.9928 24.5851C30.9928 26.6833 30.1593 28.6956 28.6756 30.1793C27.192 31.6629 25.1797 32.4964 23.0815 32.4964Z" fill="#FCFCFC"/>
</g>
<defs>
<clipPath id="clip0_1_33665">
<rect width="26.6485" height="26.6485" fill="white" transform="translate(6.00964 7.51355)"/>
</clipPath>
</defs>
</svg>
