<svg width="27" height="26" viewBox="0 0 27 26" fill="none" xmlns="http://www.w3.org/2000/svg">
<g clip-path="url(#clip0_1_33822)">
<path d="M23.1608 3.07779C23.1608 2.98044 23.1194 2.88707 23.0456 2.81823C22.9719 2.7494 22.8718 2.71072 22.7675 2.71072H19.8834C19.7791 2.71072 19.6791 2.7494 19.6053 2.81823C19.5316 2.88707 19.4902 2.98044 19.4902 3.07779C19.4902 3.17514 19.5316 3.26851 19.6053 3.33734C19.6791 3.40618 19.7791 3.44485 19.8834 3.44485H20.4078C20.6517 3.44514 20.8895 3.51586 21.0887 3.64729C21.2878 3.77873 21.4385 3.96445 21.52 4.17898H19.8834C19.7791 4.17898 19.6791 4.21766 19.6053 4.28649C19.5316 4.35533 19.4902 4.4487 19.4902 4.54605C19.4902 4.6434 19.5316 4.73676 19.6053 4.8056C19.6791 4.87444 19.7791 4.91311 19.8834 4.91311H21.52C21.4385 5.12764 21.2878 5.31336 21.0886 5.44479C20.8895 5.57623 20.6517 5.64695 20.4078 5.64724H19.8834C19.8064 5.64724 19.7311 5.66834 19.6668 5.70793C19.6025 5.74752 19.5521 5.80386 19.5218 5.86995C19.4915 5.93603 19.4827 6.00897 19.4964 6.0797C19.5102 6.15043 19.5458 6.21585 19.599 6.26783L21.6965 8.31752C21.7686 8.38792 21.8676 8.42873 21.9719 8.43096C22.0762 8.43319 22.1772 8.39666 22.2526 8.32941C22.3281 8.26216 22.3718 8.1697 22.3742 8.07236C22.3766 7.97502 22.3374 7.88079 22.2654 7.81038L20.7708 6.35C21.1546 6.28195 21.5081 6.10904 21.7864 5.85322C22.0648 5.59739 22.2554 5.27017 22.3342 4.91306H22.7675C22.8718 4.91306 22.9719 4.87439 23.0456 4.80555C23.1194 4.73672 23.1608 4.64335 23.1608 4.546C23.1608 4.44865 23.1194 4.35528 23.0456 4.28645C22.9719 4.21761 22.8718 4.17893 22.7675 4.17893H22.3347C22.2764 3.91265 22.1552 3.66185 21.9799 3.4448H22.7675C22.8718 3.4448 22.9719 3.40613 23.0456 3.33729C23.1194 3.26846 23.1608 3.17514 23.1608 3.07779ZM13.8531 12.3736V10.2831C13.8531 10.1858 13.8116 10.0924 13.7379 10.0236C13.6641 9.95473 13.5641 9.91606 13.4598 9.91606C13.3555 9.91606 13.2555 9.95473 13.1817 10.0236C13.1079 10.0924 13.0665 10.1858 13.0665 10.2831V12.3668L11.3403 11.7491C11.2432 11.7154 11.1357 11.7188 11.0413 11.7586C10.9469 11.7984 10.8731 11.8714 10.836 11.9617C10.7989 12.052 10.8015 12.1523 10.8432 12.2409C10.8849 12.3294 10.9624 12.399 11.0587 12.4345L12.8328 13.0694L11.5545 14.6614C11.4919 14.7393 11.4651 14.8372 11.4799 14.9336C11.4946 15.03 11.5498 15.117 11.6333 15.1753C11.7168 15.2337 11.8217 15.2588 11.9249 15.245C12.0282 15.2312 12.1214 15.1797 12.1839 15.1018L13.4678 13.5028L14.8254 15.109C14.89 15.1854 14.9845 15.2347 15.0881 15.2461C15.1917 15.2576 15.2959 15.2301 15.3778 15.1698C15.4597 15.1095 15.5126 15.0213 15.5248 14.9246C15.537 14.8279 15.5076 14.7307 15.443 14.6542L14.1037 13.0698L15.9403 12.436C16.0367 12.4014 16.1147 12.3326 16.1573 12.2447C16.1999 12.1568 16.2037 12.0567 16.1678 11.9662C16.132 11.8757 16.0594 11.802 15.9657 11.7611C15.8721 11.7202 15.765 11.7153 15.6675 11.7475L13.8531 12.3736ZM21.3255 0.0532227C20.4688 0.053233 19.6237 0.236864 18.8551 0.589956C18.0865 0.943048 17.4151 1.45617 16.8926 2.08975C15.7622 1.57205 14.7094 0.918079 13.7614 0.144597C13.6869 0.0835463 13.5906 0.0509611 13.4915 0.0533566C13.3925 0.0557521 13.2981 0.0929517 13.2271 0.157518C12.2882 1.0068 11.2118 1.71277 10.0375 2.24949C7.62997 3.3596 5.22999 3.61982 3.6405 3.64268C3.53726 3.64417 3.43879 3.68349 3.36635 3.75216C3.2939 3.82082 3.2533 3.91333 3.2533 4.00969V11.4273C3.2533 14.2503 4.2181 17.0191 6.04351 19.4344C7.80831 21.7696 10.3282 23.72 13.3305 25.0749C13.3839 25.099 13.4425 25.1115 13.5017 25.1115C13.561 25.1115 13.6196 25.099 13.673 25.0749C16.6754 23.72 19.1952 21.7696 20.96 19.4344C22.7854 17.0192 23.7503 14.2503 23.7503 11.4273V9.99138C24.8944 9.47856 25.8179 8.61821 26.3695 7.55134C26.921 6.48447 27.068 5.27436 26.7861 4.11935C26.5043 2.96434 25.8105 1.93293 24.8184 1.19417C23.8262 0.455405 22.5947 0.0531132 21.3255 0.0532227ZM22.9636 11.4273C22.9636 14.098 22.0485 16.7204 20.3172 19.0113C18.6626 21.2007 16.3089 23.0388 13.5017 24.3358C10.6945 23.0388 8.34082 21.2007 6.68619 19.0113C4.9549 16.7205 4.03981 14.098 4.03981 11.4273V4.36697C5.6991 4.30687 8.03615 3.99119 10.3859 2.90772C11.5255 2.38595 12.5791 1.71468 13.5149 0.914308C14.4171 1.61508 15.4031 2.21618 16.4532 2.70563C16.236 3.06203 16.0647 3.44116 15.943 3.83512C15.193 3.48928 14.4716 3.09171 13.785 2.64573C13.717 2.60146 13.6358 2.57836 13.553 2.57973C13.4701 2.58109 13.3899 2.60684 13.3236 2.65331C12.5845 3.17082 11.7955 3.62319 10.9668 4.0046C9.3082 4.76106 7.52631 5.25469 5.69412 5.46528C5.59923 5.47661 5.51202 5.51984 5.44881 5.58686C5.38561 5.65389 5.35075 5.74012 5.35076 5.82941V11.4273C5.35076 13.8439 6.18305 16.2226 7.75771 18.3062C9.12492 20.1156 11.0453 21.6909 13.3112 22.8618C13.3695 22.8919 13.435 22.9077 13.5017 22.9077C13.5683 22.9077 13.6339 22.8919 13.6922 22.8618C15.958 21.6909 17.8785 20.1156 19.2457 18.3063C20.8204 16.2226 21.6527 13.8439 21.6527 11.4273V10.4979C22.0975 10.4741 22.5376 10.4005 22.9636 10.2788V11.4273ZM20.8661 10.4894V11.4273C20.8661 13.6915 20.0835 15.9239 18.6029 17.8832C17.342 19.5518 15.5814 21.0133 13.5017 22.1196C11.422 21.0133 9.66141 19.5518 8.40049 17.8831C6.91985 15.924 6.13727 13.6915 6.13727 11.4273V6.14944C7.93601 5.9101 9.68327 5.40845 11.3151 4.66282C12.1026 4.30015 12.8563 3.87674 13.5682 3.39699C14.273 3.83897 15.0108 4.23309 15.7761 4.57629C15.6738 5.27953 15.7259 5.99485 15.9294 6.67867C16.1329 7.36248 16.4834 8.00046 16.9597 8.55372C17.4359 9.10698 18.0279 9.56394 18.6995 9.89674C19.3711 10.2295 20.1082 10.4312 20.8661 10.4895L20.8661 10.4894ZM21.3255 9.773C20.3734 9.773 19.4427 9.50951 18.6511 9.01583C17.8595 8.52215 17.2425 7.82047 16.8782 6.99952C16.5138 6.17857 16.4185 5.27521 16.6042 4.40369C16.79 3.53217 17.2484 2.73162 17.9216 2.10329C18.5948 1.47495 19.4526 1.04705 20.3863 0.873687C21.3201 0.700325 22.288 0.789291 23.1676 1.12933C24.0472 1.46938 24.799 2.04523 25.3279 2.78406C25.8569 3.5229 26.1392 4.39153 26.1392 5.28013C26.1378 6.4713 25.6302 7.61329 24.7277 8.45558C23.8253 9.29787 22.6017 9.77166 21.3255 9.773Z" fill="#F4F4F4"/>
</g>
<defs>
<clipPath id="clip0_1_33822">
<rect width="26.8482" height="25.0583" fill="white" transform="translate(0.0759277 0.0529785)"/>
</clipPath>
</defs>
</svg>
