<svg width="40" height="41" viewBox="0 0 40 41" fill="none" xmlns="http://www.w3.org/2000/svg">
<path d="M39.5217 0.711426L6.60295 0.711423C3.42857 0.711423 0.855228 3.28477 0.855228 6.45915L0.855225 34.6752C0.855225 37.8496 3.42857 40.423 6.60295 40.423L39.5217 40.423L39.5217 0.711426Z" fill="#A95210"/>
<g clip-path="url(#clip0_1_33680)">
<path d="M20.1879 6.0658C15.8401 6.0658 11.7536 8.16338 9.19911 11.6833C9.0294 11.6146 8.84493 11.5748 8.65091 11.5748C7.8413 11.5748 7.18277 12.2333 7.18277 13.0427C7.18277 13.5139 7.40975 13.9292 7.75581 14.198C6.99879 15.9142 6.61096 17.7439 6.61096 19.6428C6.61096 27.1293 12.7014 33.2198 20.1879 33.2198C27.6745 33.2198 33.7649 27.1293 33.7649 19.6428C33.7649 12.1563 27.6745 6.0658 20.1879 6.0658ZM8.65091 12.1405C9.14838 12.1405 9.55308 12.5452 9.55308 13.0427C9.55308 13.5402 9.14843 13.9451 8.65091 13.9451C8.1534 13.9451 7.74848 13.5402 7.74848 13.0427C7.74848 12.5452 8.1534 12.1405 8.65091 12.1405ZM20.1879 32.6541C13.0136 32.6541 7.17667 26.8172 7.17667 19.6428C7.17667 17.8326 7.54449 16.0885 8.26203 14.4519C8.38669 14.4864 8.51538 14.5108 8.65086 14.5108C9.46021 14.5108 10.1187 13.8523 10.1187 13.0427C10.1187 12.6311 9.94732 12.2598 9.67354 11.993C12.1227 8.63325 16.0307 6.63151 20.1879 6.63151C27.3623 6.63151 33.1992 12.4684 33.1992 19.6428C33.1992 26.8172 27.3623 32.6541 20.1879 32.6541Z" fill="#FCFCFC"/>
<path d="M20.1888 11.7228C15.8217 11.7228 12.2689 15.2756 12.2689 19.6427C12.2689 21.3521 12.8385 23.0263 13.8672 24.3908C13.6781 24.6404 13.5699 24.9467 13.5699 25.2661C13.5699 26.0693 14.2235 26.7226 15.0267 26.7226C15.3897 26.7226 15.73 26.5883 15.9944 26.3507C17.2523 27.1412 18.6956 27.5626 20.1888 27.5626C24.5559 27.5626 28.1087 24.0098 28.1087 19.6427C28.1087 15.2756 24.5559 11.7228 20.1888 11.7228ZM15.0267 26.1569C14.5353 26.1569 14.1356 25.7572 14.1356 25.2661C14.1356 24.769 14.5453 24.3722 15.0267 24.3722C15.5179 24.3722 15.9175 24.7733 15.9175 25.2661C15.9175 25.7351 15.537 26.1569 15.0267 26.1569ZM20.1888 26.9968C18.8199 26.9968 17.4937 26.6195 16.3363 25.9033C16.433 25.7066 16.4832 25.4906 16.4832 25.266C16.4832 24.4611 15.83 23.8065 15.0267 23.8065C14.761 23.8065 14.505 23.8783 14.2823 24.0123C13.347 22.7532 12.8346 21.2122 12.8346 19.6427C12.8346 15.5874 16.1335 12.2885 20.1888 12.2885C24.244 12.2885 27.543 15.5874 27.543 19.6427C27.543 23.6979 24.244 26.9968 20.1888 26.9968Z" fill="#FCFCFC"/>
<path d="M20.1894 16.1466C18.2622 16.1466 16.6943 17.7145 16.6943 19.6417C16.6943 21.5689 18.2622 23.1367 20.1894 23.1367C22.1167 23.1367 23.6845 21.5689 23.6845 19.6417C23.6845 17.7145 22.1167 16.1466 20.1894 16.1466ZM20.1894 22.571C18.5741 22.571 17.26 21.257 17.26 19.6416C17.26 18.0263 18.574 16.7123 20.1894 16.7123C21.8048 16.7123 23.1188 18.0262 23.1188 19.6416C23.1188 21.257 21.8048 22.571 20.1894 22.571Z" fill="#FCFCFC"/>
<path d="M32.1678 18.8015C32.1678 17.9638 31.4993 17.2806 30.6679 17.2539C29.559 12.3959 25.1921 8.89417 20.1885 8.89417C14.2618 8.89417 9.44006 13.7159 9.44006 19.6426C9.44006 25.5693 14.2618 30.391 20.1885 30.391C25.8978 30.391 30.5606 25.9865 30.9125 20.3198C31.6266 20.1819 32.1678 19.5539 32.1678 18.8015ZM20.1885 29.8253C14.5737 29.8253 10.0058 25.2574 10.0058 19.6426C10.0058 14.0278 14.5737 9.45988 20.1885 9.45988C24.9152 9.45988 29.0421 12.758 30.1075 17.3395C29.5032 17.5512 29.0678 18.1258 29.0678 18.8015C29.0678 19.5617 29.6206 20.1942 30.3457 20.3233C29.9934 25.6726 25.5843 29.8253 20.1885 29.8253ZM30.6179 19.7829C30.0751 19.7829 29.6334 19.3426 29.6334 18.8015C29.6334 18.2587 30.0751 17.817 30.6179 17.817C31.1607 17.817 31.6021 18.2587 31.6021 18.8015C31.6021 19.3426 31.1607 19.7829 30.6179 19.7829Z" fill="#FCFCFC"/>
</g>
<defs>
<clipPath id="clip0_1_33680">
<rect width="27.1711" height="27.1711" fill="white" transform="translate(6.60315 6.05737)"/>
</clipPath>
</defs>
</svg>
