<svg width="25" height="25" viewBox="0 0 25 25" fill="none" xmlns="http://www.w3.org/2000/svg">
<path d="M12.1287 23.4242C11.4387 23.4242 10.7887 23.0742 10.3287 22.4642L8.82866 20.4642C8.77097 20.4153 8.70238 20.381 8.62866 20.3642H8.12866C3.95866 20.3642 1.37866 19.2342 1.37866 13.6142V8.6142C1.37866 4.1942 3.70866 1.8642 8.12866 1.8642H16.1287C20.5487 1.8642 22.8787 4.1942 22.8787 8.6142V13.6142C22.8787 18.0342 20.5487 20.3642 16.1287 20.3642H15.6287C15.5487 20.3642 15.4787 20.4042 15.4287 20.4642L13.9287 22.4642C13.4687 23.0742 12.8187 23.4242 12.1287 23.4242ZM8.12866 3.3642C4.54866 3.3642 2.87866 5.0342 2.87866 8.6142V13.6142C2.87866 18.1342 4.42866 18.8642 8.12866 18.8642H8.62866C9.13866 18.8642 9.71866 19.1542 10.0287 19.5642L11.5287 21.5642C11.8787 22.0242 12.3787 22.0242 12.7287 21.5642L14.2287 19.5642C14.5587 19.1242 15.0787 18.8642 15.6287 18.8642H16.1287C19.7087 18.8642 21.3787 17.1942 21.3787 13.6142V8.6142C21.3787 5.0342 19.7087 3.3642 16.1287 3.3642H8.12866Z" fill="white"/>
<path d="M12.1287 12.6143C11.5687 12.6143 11.1287 12.1643 11.1287 11.6143C11.1287 11.0643 11.5787 10.6143 12.1287 10.6143C12.6787 10.6143 13.1287 11.0643 13.1287 11.6143C13.1287 12.1643 12.6887 12.6143 12.1287 12.6143ZM16.1287 12.6143C15.5687 12.6143 15.1287 12.1643 15.1287 11.6143C15.1287 11.0643 15.5787 10.6143 16.1287 10.6143C16.6787 10.6143 17.1287 11.0643 17.1287 11.6143C17.1287 12.1643 16.6887 12.6143 16.1287 12.6143ZM8.12866 12.6143C7.56866 12.6143 7.12866 12.1643 7.12866 11.6143C7.12866 11.0643 7.57866 10.6143 8.12866 10.6143C8.67866 10.6143 9.12866 11.0643 9.12866 11.6143C9.12866 12.1643 8.68866 12.6143 8.12866 12.6143Z" fill="white"/>
</svg>
