<svg width="19" height="19" viewBox="0 0 19 19" fill="none" xmlns="http://www.w3.org/2000/svg">
<g clip-path="url(#clip0_1_29147)">
<path d="M9.28708 18.0585C8.76659 18.0585 8.27627 17.7945 7.92928 17.3344L6.79778 15.8257C6.75425 15.7888 6.70251 15.7629 6.64691 15.7502H6.26974C3.12416 15.7502 1.17798 14.8978 1.17798 10.6585V6.88681C1.17798 3.55265 2.93558 1.79504 6.26974 1.79504H12.3044C15.6386 1.79504 17.3962 3.55265 17.3962 6.88681V10.6585C17.3962 13.9926 15.6386 15.7502 12.3044 15.7502H11.9273C11.8669 15.7502 11.8141 15.7804 11.7764 15.8257L10.6449 17.3344C10.2979 17.7945 9.80757 18.0585 9.28708 18.0585ZM6.26974 2.92655C3.56922 2.92655 2.30948 4.18629 2.30948 6.88681V10.6585C2.30948 14.0681 3.4787 14.6187 6.26974 14.6187H6.64691C7.03162 14.6187 7.46913 14.8375 7.70298 15.1468L8.83448 16.6555C9.0985 17.0024 9.47567 17.0024 9.73968 16.6555L10.8712 15.1468C11.1201 14.8149 11.5124 14.6187 11.9273 14.6187H12.3044C15.0049 14.6187 16.2647 13.359 16.2647 10.6585V6.88681C16.2647 4.18629 15.0049 2.92655 12.3044 2.92655H6.26974Z" fill="white"/>
<path d="M9.2873 9.90418C8.86487 9.90418 8.53297 9.56473 8.53297 9.14984C8.53297 8.73496 8.87242 8.39551 9.2873 8.39551C9.70219 8.39551 10.0416 8.73496 10.0416 9.14984C10.0416 9.56473 9.70973 9.90418 9.2873 9.90418ZM12.3046 9.90418C11.8822 9.90418 11.5503 9.56473 11.5503 9.14984C11.5503 8.73496 11.8898 8.39551 12.3046 8.39551C12.7195 8.39551 13.059 8.73496 13.059 9.14984C13.059 9.56473 12.7271 9.90418 12.3046 9.90418ZM6.26996 9.90418C5.84753 9.90418 5.51562 9.56473 5.51562 9.14984C5.51562 8.73496 5.85508 8.39551 6.26996 8.39551C6.68484 8.39551 7.0243 8.73496 7.0243 9.14984C7.0243 9.56473 6.69239 9.90418 6.26996 9.90418Z" fill="white"/>
</g>
<defs>
<clipPath id="clip0_1_29147">
<rect width="18.104" height="18.104" fill="white" transform="translate(0.235474 0.852051)"/>
</clipPath>
</defs>
</svg>
