<svg width="19" height="19" viewBox="0 0 19 19" fill="none" xmlns="http://www.w3.org/2000/svg">
<g clip-path="url(#clip0_1_29271)">
<path d="M13.1865 17.245C12.3341 17.245 11.4365 17.0413 10.5087 16.649C9.60345 16.2643 8.6907 15.7363 7.80059 15.0951C6.91802 14.4464 6.06562 13.7222 5.25848 12.9302C4.45888 12.123 3.73472 11.2706 3.09353 10.3956C2.44481 9.4904 1.92431 8.5852 1.55469 7.71017C1.16244 6.7748 0.966309 5.8696 0.966309 5.0172C0.966309 4.42882 1.07192 3.87061 1.27559 3.35012C1.4868 2.81454 1.82625 2.31668 2.2864 1.88671C2.86723 1.31341 3.53105 1.02676 4.24012 1.02676C4.53431 1.02676 4.83605 1.09465 5.09252 1.21535C5.38671 1.35113 5.63564 1.5548 5.81668 1.82636L7.56674 4.29304C7.72515 4.51179 7.84585 4.72301 7.92882 4.93422C8.02689 5.16052 8.07969 5.38682 8.07969 5.60558C8.07969 5.89223 7.99671 6.17133 7.8383 6.43535C7.69966 6.67099 7.52964 6.88669 7.3329 7.07653L6.81995 7.61211C6.82749 7.63474 6.83504 7.64983 6.84258 7.66491C6.9331 7.82332 7.11414 8.09488 7.46114 8.50223C7.83076 8.92465 8.17775 9.30936 8.52475 9.6639C8.96981 10.1014 9.33943 10.4484 9.68643 10.7351C10.1164 11.0971 10.3955 11.2782 10.5615 11.3612L10.5464 11.3989L11.097 10.8558C11.3309 10.6219 11.5572 10.4484 11.7759 10.3353C12.1908 10.0788 12.7189 10.0335 13.2469 10.2523C13.443 10.3353 13.6542 10.4484 13.8805 10.6068L16.3849 12.3871C16.664 12.5756 16.8677 12.817 16.9884 13.1037C17.1015 13.3903 17.1543 13.6543 17.1543 13.9184C17.1543 14.2804 17.0714 14.6425 16.913 14.982C16.7545 15.3214 16.5584 15.6156 16.3095 15.8872C15.8795 16.3624 15.4118 16.7018 14.8687 16.9206C14.3482 17.1318 13.7825 17.245 13.1865 17.245ZM4.24012 2.15827C3.82524 2.15827 3.44053 2.33931 3.0709 2.70139C2.72391 3.02575 2.48252 3.38029 2.33166 3.765C2.17325 4.15725 2.09781 4.57214 2.09781 5.0172C2.09781 5.71873 2.26377 6.48061 2.59567 7.26512C2.93512 8.06471 3.41036 8.89448 4.01382 9.72425C4.61729 10.554 5.30374 11.3612 6.05807 12.123C6.81241 12.8698 7.62709 13.5638 8.4644 14.1748C9.27908 14.7708 10.1164 15.2535 10.9462 15.6005C12.2361 16.1512 13.443 16.2794 14.4387 15.8645C14.8234 15.7061 15.1629 15.4647 15.4722 15.1177C15.6457 14.9292 15.7815 14.7255 15.8946 14.4841C15.9851 14.2955 16.0304 14.0994 16.0304 13.9033C16.0304 13.7826 16.0078 13.6619 15.9474 13.5261C15.8992 13.4327 15.8261 13.3543 15.7362 13.2998L13.2318 11.5196C13.0809 11.414 12.9452 11.3385 12.8169 11.2857C12.651 11.2178 12.5831 11.1499 12.3266 11.3084C12.1757 11.3838 12.04 11.4969 11.8891 11.6478L11.3158 12.2136C11.0216 12.5002 10.569 12.5681 10.222 12.4399L10.0183 12.3493C9.70905 12.1834 9.34697 11.9269 8.94718 11.5875C8.5851 11.2782 8.19284 10.9161 7.71761 10.4484C7.34799 10.0712 6.97836 9.67144 6.59365 9.22639C6.23911 8.8115 5.98264 8.45697 5.82423 8.16277L5.73371 7.93647C5.68845 7.76298 5.67336 7.66491 5.67336 7.55931C5.67336 7.28775 5.77142 7.04636 5.96001 6.85777L6.52576 6.26939C6.67663 6.11853 6.78978 5.9752 6.86521 5.84697C6.92556 5.7489 6.94819 5.66593 6.94819 5.59049C6.94819 5.53015 6.92556 5.43962 6.88784 5.3491C6.83504 5.22841 6.75206 5.09263 6.64645 4.94931L4.8964 2.47509C4.82578 2.37374 4.72944 2.29302 4.61729 2.24124C4.4966 2.18844 4.36836 2.15827 4.24012 2.15827ZM10.5464 11.4064L10.4257 11.9194L10.6293 11.3913C10.5916 11.3838 10.5615 11.3913 10.5464 11.4064Z" fill="#F9F9F9"/>
</g>
<defs>
<clipPath id="clip0_1_29271">
<rect width="18.104" height="18.104" fill="white" transform="translate(0.0234375 0.0838318)"/>
</clipPath>
</defs>
</svg>
