<svg width="24" height="24" viewBox="0 0 24 24" fill="none" xmlns="http://www.w3.org/2000/svg">
<path d="M17.45 22.7499C16.32 22.7499 15.13 22.4799 13.9 21.9599C12.7 21.4499 11.49 20.7499 10.31 19.8999C9.14 19.0399 8.01 18.0799 6.94 17.0299C5.88 15.9599 4.92 14.8299 4.07 13.6699C3.21 12.4699 2.52 11.2699 2.03 10.1099C1.51 8.86994 1.25 7.66994 1.25 6.53994C1.25 5.75994 1.39 5.01994 1.66 4.32994C1.94 3.61994 2.39 2.95994 3 2.38994C3.77 1.62994 4.65 1.24994 5.59 1.24994C5.98 1.24994 6.38 1.33994 6.72 1.49994C7.11 1.67994 7.44 1.94994 7.68 2.30994L10 5.57994C10.21 5.86994 10.37 6.14994 10.48 6.42994C10.61 6.72994 10.68 7.02994 10.68 7.31994C10.68 7.69994 10.57 8.06994 10.36 8.41994C10.1762 8.73232 9.95081 9.01827 9.69 9.26994L9.01 9.97994C9.02 10.0099 9.03 10.0299 9.04 10.0499C9.16 10.2599 9.4 10.6199 9.86 11.1599C10.35 11.7199 10.81 12.2299 11.27 12.6999C11.86 13.2799 12.35 13.7399 12.81 14.1199C13.38 14.5999 13.75 14.8399 13.97 14.9499L13.95 14.9999L14.68 14.2799C14.99 13.9699 15.29 13.7399 15.58 13.5899C16.13 13.2499 16.83 13.1899 17.53 13.4799C17.79 13.5899 18.07 13.7399 18.37 13.9499L21.69 16.3099C22.06 16.5599 22.33 16.8799 22.49 17.2599C22.64 17.6399 22.71 17.9899 22.71 18.3399C22.71 18.8199 22.6 19.2999 22.39 19.7499C22.18 20.1999 21.92 20.5899 21.59 20.9499C21.02 21.5799 20.4 22.0299 19.68 22.3199C18.99 22.5999 18.24 22.7499 17.45 22.7499ZM5.59 2.74994C5.04 2.74994 4.53 2.98994 4.04 3.46994C3.58 3.89994 3.26 4.36994 3.06 4.87994C2.85 5.39994 2.75 5.94994 2.75 6.53994C2.75 7.46994 2.97 8.47994 3.41 9.51994C3.86 10.5799 4.49 11.6799 5.29 12.7799C6.09 13.8799 7 14.9499 8 15.9599C9 16.9499 10.08 17.8699 11.19 18.6799C12.27 19.4699 13.38 20.1099 14.48 20.5699C16.19 21.2999 17.79 21.4699 19.11 20.9199C19.62 20.7099 20.07 20.3899 20.48 19.9299C20.71 19.6799 20.89 19.4099 21.04 19.0899C21.16 18.8399 21.22 18.5799 21.22 18.3199C21.22 18.1599 21.19 17.9999 21.11 17.8199C21.0461 17.6961 20.9492 17.5923 20.83 17.5199L17.51 15.1599C17.31 15.0199 17.13 14.9199 16.96 14.8499C16.74 14.7599 16.65 14.6699 16.31 14.8799C16.11 14.9799 15.93 15.1299 15.73 15.3299L14.97 16.0799C14.58 16.4599 13.98 16.5499 13.52 16.3799L13.25 16.2599C12.84 16.0399 12.36 15.6999 11.83 15.2499C11.35 14.8399 10.83 14.3599 10.2 13.7399C9.71 13.2399 9.22 12.7099 8.71 12.1199C8.24 11.5699 7.9 11.0999 7.69 10.7099L7.57 10.4099C7.51 10.1799 7.49 10.0499 7.49 9.90994C7.49 9.54994 7.62 9.22994 7.87 8.97994L8.62 8.19994C8.82 7.99994 8.97 7.80994 9.07 7.63994C9.15 7.50994 9.18 7.39994 9.18 7.29994C9.18 7.21994 9.15 7.09994 9.1 6.97994C9.03 6.81994 8.92 6.63994 8.78 6.44994L6.46 3.16994C6.36639 3.03558 6.23868 2.92858 6.09 2.85994C5.93 2.78994 5.76 2.74994 5.59 2.74994ZM13.95 15.0099L13.79 15.6899L14.06 14.9899C14.01 14.9799 13.97 14.9899 13.95 15.0099Z" fill="#F9F9F9"/>
</svg>
