<svg width="25" height="25" viewBox="0 0 25 25" fill="none" xmlns="http://www.w3.org/2000/svg">
<path d="M12.1287 23.5029C11.4387 23.5029 10.7887 23.1529 10.3287 22.5429L8.82866 20.5429C8.77097 20.4941 8.70238 20.4598 8.62866 20.4429H8.12866C3.95866 20.4429 1.37866 19.3129 1.37866 13.6929V8.69293C1.37866 4.27293 3.70866 1.94293 8.12866 1.94293H16.1287C20.5487 1.94293 22.8787 4.27293 22.8787 8.69293V13.6929C22.8787 18.1129 20.5487 20.4429 16.1287 20.4429H15.6287C15.5487 20.4429 15.4787 20.4829 15.4287 20.5429L13.9287 22.5429C13.4687 23.1529 12.8187 23.5029 12.1287 23.5029ZM8.12866 3.44293C4.54866 3.44293 2.87866 5.11293 2.87866 8.69293V13.6929C2.87866 18.2129 4.42866 18.9429 8.12866 18.9429H8.62866C9.13866 18.9429 9.71866 19.2329 10.0287 19.6429L11.5287 21.6429C11.8787 22.1029 12.3787 22.1029 12.7287 21.6429L14.2287 19.6429C14.5587 19.2029 15.0787 18.9429 15.6287 18.9429H16.1287C19.7087 18.9429 21.3787 17.2729 21.3787 13.6929V8.69293C21.3787 5.11293 19.7087 3.44293 16.1287 3.44293H8.12866Z" fill="white"/>
<path d="M12.1287 12.6931C11.5687 12.6931 11.1287 12.2431 11.1287 11.6931C11.1287 11.1431 11.5787 10.6931 12.1287 10.6931C12.6787 10.6931 13.1287 11.1431 13.1287 11.6931C13.1287 12.2431 12.6887 12.6931 12.1287 12.6931ZM16.1287 12.6931C15.5687 12.6931 15.1287 12.2431 15.1287 11.6931C15.1287 11.1431 15.5787 10.6931 16.1287 10.6931C16.6787 10.6931 17.1287 11.1431 17.1287 11.6931C17.1287 12.2431 16.6887 12.6931 16.1287 12.6931ZM8.12866 12.6931C7.56866 12.6931 7.12866 12.2431 7.12866 11.6931C7.12866 11.1431 7.57866 10.6931 8.12866 10.6931C8.67866 10.6931 9.12866 11.1431 9.12866 11.6931C9.12866 12.2431 8.68866 12.6931 8.12866 12.6931Z" fill="white"/>
</svg>
