<svg width="24" height="25" viewBox="0 0 24 25" fill="none" xmlns="http://www.w3.org/2000/svg">
<path d="M17.45 23.6713C16.32 23.6713 15.13 23.4013 13.9 22.8813C12.7 22.3713 11.49 21.6713 10.31 20.8213C9.14 19.9613 8.01 19.0013 6.94 17.9513C5.88 16.8813 4.92 15.7513 4.07 14.5913C3.21 13.3913 2.52 12.1913 2.03 11.0313C1.51 9.79132 1.25 8.59133 1.25 7.46133C1.25 6.68133 1.39 5.94133 1.66 5.25133C1.94 4.54133 2.39 3.88133 3 3.31133C3.77 2.55133 4.65 2.17133 5.59 2.17133C5.98 2.17133 6.38 2.26133 6.72 2.42133C7.11 2.60133 7.44 2.87133 7.68 3.23133L10 6.50133C10.21 6.79133 10.37 7.07133 10.48 7.35133C10.61 7.65133 10.68 7.95133 10.68 8.24133C10.68 8.62133 10.57 8.99133 10.36 9.34133C10.1762 9.6537 9.95081 9.93965 9.69 10.1913L9.01 10.9013C9.02 10.9313 9.03 10.9513 9.04 10.9713C9.16 11.1813 9.4 11.5413 9.86 12.0813C10.35 12.6413 10.81 13.1513 11.27 13.6213C11.86 14.2013 12.35 14.6613 12.81 15.0413C13.38 15.5213 13.75 15.7613 13.97 15.8713L13.95 15.9213L14.68 15.2013C14.99 14.8913 15.29 14.6613 15.58 14.5113C16.13 14.1713 16.83 14.1113 17.53 14.4013C17.79 14.5113 18.07 14.6613 18.37 14.8713L21.69 17.2313C22.06 17.4813 22.33 17.8013 22.49 18.1813C22.64 18.5613 22.71 18.9113 22.71 19.2613C22.71 19.7413 22.6 20.2213 22.39 20.6713C22.18 21.1213 21.92 21.5113 21.59 21.8713C21.02 22.5013 20.4 22.9513 19.68 23.2413C18.99 23.5213 18.24 23.6713 17.45 23.6713ZM5.59 3.67133C5.04 3.67133 4.53 3.91133 4.04 4.39133C3.58 4.82133 3.26 5.29133 3.06 5.80133C2.85 6.32133 2.75 6.87133 2.75 7.46133C2.75 8.39133 2.97 9.40133 3.41 10.4413C3.86 11.5013 4.49 12.6013 5.29 13.7013C6.09 14.8013 7 15.8713 8 16.8813C9 17.8713 10.08 18.7913 11.19 19.6013C12.27 20.3913 13.38 21.0313 14.48 21.4913C16.19 22.2213 17.79 22.3913 19.11 21.8413C19.62 21.6313 20.07 21.3113 20.48 20.8513C20.71 20.6013 20.89 20.3313 21.04 20.0113C21.16 19.7613 21.22 19.5013 21.22 19.2413C21.22 19.0813 21.19 18.9213 21.11 18.7413C21.0461 18.6175 20.9492 18.5136 20.83 18.4413L17.51 16.0813C17.31 15.9413 17.13 15.8413 16.96 15.7713C16.74 15.6813 16.65 15.5913 16.31 15.8013C16.11 15.9013 15.93 16.0513 15.73 16.2513L14.97 17.0013C14.58 17.3813 13.98 17.4713 13.52 17.3013L13.25 17.1813C12.84 16.9613 12.36 16.6213 11.83 16.1713C11.35 15.7613 10.83 15.2813 10.2 14.6613C9.71 14.1613 9.22 13.6313 8.71 13.0413C8.24 12.4913 7.9 12.0213 7.69 11.6313L7.57 11.3313C7.51 11.1013 7.49 10.9713 7.49 10.8313C7.49 10.4713 7.62 10.1513 7.87 9.90132L8.62 9.12133C8.82 8.92133 8.97 8.73133 9.07 8.56133C9.15 8.43133 9.18 8.32133 9.18 8.22133C9.18 8.14133 9.15 8.02133 9.1 7.90133C9.03 7.74133 8.92 7.56133 8.78 7.37133L6.46 4.09133C6.36639 3.95697 6.23868 3.84997 6.09 3.78133C5.93 3.71133 5.76 3.67133 5.59 3.67133ZM13.95 15.9313L13.79 16.6113L14.06 15.9113C14.01 15.9013 13.97 15.9113 13.95 15.9313Z" fill="#F9F9F9"/>
</svg>
