<svg width="19" height="19" viewBox="0 0 19 19" fill="none" xmlns="http://www.w3.org/2000/svg">
<g clip-path="url(#clip0_1_29332)">
<path d="M13.1865 17.245C12.3341 17.245 11.4364 17.0413 10.5086 16.649C9.60339 16.2643 8.69064 15.7363 7.80053 15.0951C6.91795 14.4464 6.06555 13.7222 5.25842 12.9302C4.45882 12.123 3.73466 11.2706 3.09347 10.3956C2.44474 9.4904 1.92425 8.5852 1.55463 7.71017C1.16237 6.7748 0.966248 5.8696 0.966248 5.0172C0.966248 4.42882 1.07185 3.87061 1.27553 3.35012C1.48674 2.81454 1.82619 2.31668 2.28633 1.88671C2.86717 1.31341 3.53099 1.02676 4.24006 1.02676C4.53425 1.02676 4.83599 1.09465 5.09246 1.21535C5.38665 1.35113 5.63558 1.5548 5.81662 1.82636L7.56668 4.29304C7.72509 4.51179 7.84579 4.72301 7.92876 4.93422C8.02683 5.16052 8.07963 5.38682 8.07963 5.60558C8.07963 5.89223 7.99665 6.17133 7.83824 6.43535C7.6996 6.67099 7.52958 6.88669 7.33284 7.07653L6.81989 7.61211C6.82743 7.63474 6.83498 7.64983 6.84252 7.66491C6.93304 7.82332 7.11408 8.09488 7.46107 8.50223C7.8307 8.92465 8.17769 9.30936 8.52469 9.6639C8.96975 10.1014 9.33937 10.4484 9.68636 10.7351C10.1163 11.0971 10.3954 11.2782 10.5614 11.3612L10.5463 11.3989L11.097 10.8558C11.3308 10.6219 11.5571 10.4484 11.7759 10.3353C12.1908 10.0788 12.7188 10.0335 13.2468 10.2523C13.443 10.3353 13.6542 10.4484 13.8805 10.6068L16.3849 12.3871C16.664 12.5756 16.8676 12.817 16.9883 13.1037C17.1015 13.3903 17.1543 13.6543 17.1543 13.9184C17.1543 14.2804 17.0713 14.6425 16.9129 14.982C16.7545 15.3214 16.5584 15.6156 16.3094 15.8872C15.8795 16.3624 15.4118 16.7018 14.8686 16.9206C14.3482 17.1318 13.7824 17.245 13.1865 17.245ZM4.24006 2.15827C3.82518 2.15827 3.44047 2.33931 3.07084 2.70139C2.72385 3.02575 2.48246 3.38029 2.33159 3.765C2.17318 4.15725 2.09775 4.57214 2.09775 5.0172C2.09775 5.71873 2.2637 6.48061 2.59561 7.26512C2.93506 8.06471 3.41029 8.89448 4.01376 9.72425C4.61723 10.554 5.30368 11.3612 6.05801 12.123C6.81235 12.8698 7.62703 13.5638 8.46434 14.1748C9.27902 14.7708 10.1163 15.2535 10.9461 15.6005C12.236 16.1512 13.443 16.2794 14.4387 15.8645C14.8234 15.7061 15.1628 15.4647 15.4721 15.1177C15.6456 14.9292 15.7814 14.7255 15.8945 14.4841C15.9851 14.2955 16.0303 14.0994 16.0303 13.9033C16.0303 13.7826 16.0077 13.6619 15.9473 13.5261C15.8991 13.4327 15.826 13.3543 15.7361 13.2998L13.2317 11.5196C13.0809 11.414 12.9451 11.3385 12.8169 11.2857C12.6509 11.2178 12.583 11.1499 12.3265 11.3084C12.1757 11.3838 12.0399 11.4969 11.889 11.6478L11.3157 12.2136C11.0215 12.5002 10.5689 12.5681 10.2219 12.4399L10.0183 12.3493C9.70899 12.1834 9.34691 11.9269 8.94712 11.5875C8.58503 11.2782 8.19278 10.9161 7.71755 10.4484C7.34792 10.0712 6.9783 9.67144 6.59359 9.22639C6.23905 8.8115 5.98258 8.45697 5.82417 8.16277L5.73365 7.93647C5.68839 7.76298 5.6733 7.66491 5.6733 7.55931C5.6733 7.28775 5.77136 7.04636 5.95995 6.85777L6.5257 6.26939C6.67657 6.11853 6.78972 5.9752 6.86515 5.84697C6.9255 5.7489 6.94813 5.66593 6.94813 5.59049C6.94813 5.53015 6.9255 5.43962 6.88778 5.3491C6.83498 5.22841 6.752 5.09263 6.64639 4.94931L4.89633 2.47509C4.82572 2.37374 4.72938 2.29302 4.61723 2.24124C4.49654 2.18844 4.3683 2.15827 4.24006 2.15827ZM10.5463 11.4064L10.4256 11.9194L10.6293 11.3913C10.5916 11.3838 10.5614 11.3913 10.5463 11.4064Z" fill="#F9F9F9"/>
</g>
<defs>
<clipPath id="clip0_1_29332">
<rect width="18.104" height="18.104" fill="white" transform="translate(0.0233765 0.0838318)"/>
</clipPath>
</defs>
</svg>
