<svg width="19" height="19" viewBox="0 0 19 19" fill="none" xmlns="http://www.w3.org/2000/svg">
<g clip-path="url(#clip0_1_29275)">
<path d="M9.28708 18.0585C8.76659 18.0585 8.27627 17.7945 7.92928 17.3344L6.79778 15.8257C6.75425 15.7888 6.70251 15.763 6.64691 15.7503H6.26974C3.12416 15.7503 1.17798 14.8979 1.17798 10.6585V6.88684C1.17798 3.55268 2.93558 1.79507 6.26974 1.79507H12.3044C15.6386 1.79507 17.3962 3.55268 17.3962 6.88684V10.6585C17.3962 13.9927 15.6386 15.7503 12.3044 15.7503H11.9273C11.8669 15.7503 11.8141 15.7805 11.7764 15.8257L10.6449 17.3344C10.2979 17.7945 9.80757 18.0585 9.28708 18.0585ZM6.26974 2.92658C3.56922 2.92658 2.30948 4.18632 2.30948 6.88684V10.6585C2.30948 14.0681 3.4787 14.6188 6.26974 14.6188H6.64691C7.03162 14.6188 7.46913 14.8375 7.70298 15.1468L8.83448 16.6555C9.0985 17.0025 9.47567 17.0025 9.73968 16.6555L10.8712 15.1468C11.1201 14.8149 11.5124 14.6188 11.9273 14.6188H12.3044C15.0049 14.6188 16.2647 13.359 16.2647 10.6585V6.88684C16.2647 4.18632 15.0049 2.92658 12.3044 2.92658H6.26974Z" fill="white"/>
<path d="M9.2873 9.90424C8.86487 9.90424 8.53297 9.56479 8.53297 9.1499C8.53297 8.73502 8.87242 8.39557 9.2873 8.39557C9.70219 8.39557 10.0416 8.73502 10.0416 9.1499C10.0416 9.56479 9.70973 9.90424 9.2873 9.90424ZM12.3046 9.90424C11.8822 9.90424 11.5503 9.56479 11.5503 9.1499C11.5503 8.73502 11.8898 8.39557 12.3046 8.39557C12.7195 8.39557 13.059 8.73502 13.059 9.1499C13.059 9.56479 12.7271 9.90424 12.3046 9.90424ZM6.26996 9.90424C5.84753 9.90424 5.51562 9.56479 5.51562 9.1499C5.51562 8.73502 5.85508 8.39557 6.26996 8.39557C6.68484 8.39557 7.0243 8.73502 7.0243 9.1499C7.0243 9.56479 6.69239 9.90424 6.26996 9.90424Z" fill="white"/>
</g>
<defs>
<clipPath id="clip0_1_29275">
<rect width="18.104" height="18.104" fill="white" transform="translate(0.235474 0.852112)"/>
</clipPath>
</defs>
</svg>
