<svg width="25" height="25" viewBox="0 0 25 25" fill="none" xmlns="http://www.w3.org/2000/svg">
<path d="M12.1287 23.5028C11.4387 23.5028 10.7887 23.1528 10.3287 22.5428L8.82866 20.5428C8.77097 20.4939 8.70238 20.4596 8.62866 20.4428H8.12866C3.95866 20.4428 1.37866 19.3128 1.37866 13.6928V8.69281C1.37866 4.27281 3.70866 1.94281 8.12866 1.94281H16.1287C20.5487 1.94281 22.8787 4.27281 22.8787 8.69281V13.6928C22.8787 18.1128 20.5487 20.4428 16.1287 20.4428H15.6287C15.5487 20.4428 15.4787 20.4828 15.4287 20.5428L13.9287 22.5428C13.4687 23.1528 12.8187 23.5028 12.1287 23.5028ZM8.12866 3.44281C4.54866 3.44281 2.87866 5.11281 2.87866 8.69281V13.6928C2.87866 18.2128 4.42866 18.9428 8.12866 18.9428H8.62866C9.13866 18.9428 9.71866 19.2328 10.0287 19.6428L11.5287 21.6428C11.8787 22.1028 12.3787 22.1028 12.7287 21.6428L14.2287 19.6428C14.5587 19.2028 15.0787 18.9428 15.6287 18.9428H16.1287C19.7087 18.9428 21.3787 17.2728 21.3787 13.6928V8.69281C21.3787 5.11281 19.7087 3.44281 16.1287 3.44281H8.12866Z" fill="white"/>
<path d="M12.1287 12.6929C11.5687 12.6929 11.1287 12.2429 11.1287 11.6929C11.1287 11.1429 11.5787 10.6929 12.1287 10.6929C12.6787 10.6929 13.1287 11.1429 13.1287 11.6929C13.1287 12.2429 12.6887 12.6929 12.1287 12.6929ZM16.1287 12.6929C15.5687 12.6929 15.1287 12.2429 15.1287 11.6929C15.1287 11.1429 15.5787 10.6929 16.1287 10.6929C16.6787 10.6929 17.1287 11.1429 17.1287 11.6929C17.1287 12.2429 16.6887 12.6929 16.1287 12.6929ZM8.12866 12.6929C7.56866 12.6929 7.12866 12.2429 7.12866 11.6929C7.12866 11.1429 7.57866 10.6929 8.12866 10.6929C8.67866 10.6929 9.12866 11.1429 9.12866 11.6929C9.12866 12.2429 8.68866 12.6929 8.12866 12.6929Z" fill="white"/>
</svg>
