<svg width="18" height="11" viewBox="0 0 18 11" fill="none" xmlns="http://www.w3.org/2000/svg">
<path opacity="0.63" d="M17.1719 10.9557H1.2561L1.82044 8.75977H16.608L17.1719 10.9557Z" fill="#440E37"/>
<path d="M8.91135 5.98142C8.74298 5.85901 8.57551 5.73481 8.4116 5.60571L2.12375 8.21433C1.65607 8.40842 1.46722 8.95284 1.70195 9.43005L9.31266 6.27256C9.17904 6.17507 9.04497 6.07891 8.91135 5.98142Z" fill="#402206"/>
<path d="M8.95458 5.99658C8.88332 5.94494 8.8125 5.89286 8.74212 5.84033L2.43468 8.45696C2.06366 8.61098 1.86857 8.98536 1.92068 9.3722L9.35545 6.28771C9.22227 6.19067 9.08821 6.09407 8.95458 5.99658Z" fill="#703D0B"/>
<path opacity="0.2" d="M6.40576 7.65833L9.31206 6.27256C9.17888 6.17507 9.04437 6.07847 8.91074 5.98142C8.74238 5.85901 8.5749 5.73481 8.41099 5.60571L6.96965 6.19688L7.04804 6.50048L6.40576 7.65833Z" fill="#821C4E"/>
<path d="M9.55903 5.98142C9.72739 5.85901 9.89487 5.73481 10.0588 5.60571L16.3466 8.21433C16.8143 8.40842 17.0032 8.95284 16.7684 9.43005L9.15771 6.27256C9.29134 6.17507 9.42541 6.07891 9.55903 5.98142Z" fill="#402206"/>
<path d="M9.5598 5.98145C9.63107 5.92981 9.70189 5.87772 9.77227 5.8252L16.0797 8.44182C16.4507 8.59585 16.6458 8.97022 16.5937 9.35706L9.15894 6.27258C9.29211 6.17509 9.42618 6.07893 9.5598 5.98145Z" fill="#703D0B"/>
<path opacity="0.2" d="M11.758 7.40236L9.15771 6.27256C9.29089 6.17507 9.42541 6.07847 9.55903 5.98142C9.72739 5.85901 9.89487 5.73481 10.0588 5.60571L11.5001 6.19688L11.4217 6.50048L11.758 7.40236Z" fill="#821C4E"/>
<path d="M16.8268 9.75173L10.2793 6.4687L16.8268 3.18567C17.2865 2.95508 17.4718 2.39597 17.2415 1.93701L9.91497 5.61089C9.44105 5.61089 9.04241 5.61089 8.56849 5.61089L1.24196 1.93701C1.01124 2.39641 1.19697 2.95553 1.65663 3.18567L8.20415 6.4687L1.65663 9.75173C1.19697 9.98232 1.01168 10.5414 1.24196 11.0004L9.24195 6.98909L17.2419 11.0004C17.4722 10.5414 17.2865 9.98232 16.8268 9.75173Z" fill="#8A4B0D"/>
<path d="M17.267 1.99178C17.2619 1.97351 17.2539 1.95478 17.2422 1.93652C17.2511 1.95478 17.2591 1.97351 17.267 1.99178Z" fill="#821C4E"/>
<path d="M17.267 1.99178C17.2619 1.97351 17.2539 1.95478 17.2422 1.93652C17.2511 1.95478 17.2591 1.97351 17.267 1.99178Z" fill="#942059"/>
<path d="M16.5631 9.95755L9.94124 6.63713L16.8264 3.1845C17.1912 3.00154 17.3831 2.61159 17.3315 2.2292C17.3208 2.14818 17.2981 2.06761 17.2651 1.98926C17.3292 2.21273 16.9315 2.42996 16.7596 2.51632L10.0597 5.87592H8.42283L1.72299 2.51632C1.55462 2.43219 1.16534 2.21228 1.21166 2.00217C1.18137 2.07651 1.16133 2.15263 1.15064 2.22964C1.09897 2.61248 1.29094 3.00199 1.65573 3.18495L8.54087 6.63758L1.91897 9.958C1.55418 10.141 1.36221 10.5309 1.41388 10.9133L9.24105 6.98836L17.0682 10.9133C17.1199 10.5305 16.9279 10.1405 16.5631 9.95755Z" fill="#B56311"/>
<path opacity="0.44" d="M9.24052 6.79013L1.60264 10.6202C1.65252 10.407 1.79417 10.2205 1.99816 10.1181L8.93764 6.63833L1.73493 3.02678C1.52068 2.91949 1.37503 2.71917 1.33228 2.49214C1.41779 2.55447 1.52113 2.6159 1.64228 2.67644L8.37999 6.05473H10.101L16.8388 2.67644C16.9599 2.61545 17.0632 2.55402 17.1488 2.4917C17.1064 2.71873 16.9608 2.91905 16.7461 3.02633L9.54339 6.63788L16.4829 10.1177C16.6869 10.2201 16.829 10.4061 16.8784 10.6198L9.24052 6.79013Z" fill="white"/>
<path d="M1.21094 2.00255C1.21993 1.98054 1.22981 1.95853 1.2406 1.93652C1.22577 1.95853 1.21588 1.98054 1.21094 2.00255Z" fill="#821C4E"/>
<path d="M1.21094 2.00255C1.21993 1.98054 1.22981 1.95853 1.2406 1.93652C1.22577 1.95853 1.21588 1.98054 1.21094 2.00255Z" fill="#942059"/>
<path d="M17.2456 1.94206L16.4163 1.07579C16.2729 0.934228 16.0542 0.903067 15.8769 0.99833L9.76231 4.29115L9.18506 4.32587L8.76415 4.3005L2.64957 1.00768C2.47229 0.912415 2.2536 0.943576 2.11018 1.08514L1.24341 1.94073L8.56683 5.62617H9.37079V5.61682H9.95962L17.2456 1.94206Z" fill="#402206"/>
<path d="M17.5659 1.60028L16.5286 0.908063C16.4907 0.876457 16.4373 0.869779 16.3927 0.891592L9.74768 4.15414L9.76015 4.50492C9.63321 4.4653 9.43322 4.41856 9.1829 4.41901C8.93391 4.41945 8.73526 4.4662 8.60921 4.50537L8.62168 4.15236L1.97662 0.889811C1.93208 0.867999 1.87908 0.874231 1.84077 0.906282L0.803416 1.5985C0.697854 1.75386 0.793171 1.87361 0.855083 1.90432C0.855083 1.90432 7.63644 5.28528 8.57269 5.74691C8.61367 5.76694 8.66088 5.76739 8.70275 5.74869C8.82746 5.6926 9.07021 5.63072 9.26352 5.63072C9.45504 5.63028 9.65681 5.70284 9.77084 5.74246C9.80959 5.75581 9.8519 5.75314 9.88843 5.73489C11.0189 5.1691 17.5147 1.9061 17.5147 1.9061C17.5762 1.87539 17.6715 1.75608 17.5659 1.60028Z" fill="#B3276B"/>
<path d="M9.17856 4.27442C8.89617 4.27486 8.67837 4.33496 8.55811 4.37636L8.68995 5.6081C9.26586 5.36995 9.49881 5.46565 9.86182 5.57872L9.80436 4.37636C9.68321 4.33496 9.46362 4.27397 9.17856 4.27442Z" fill="#360B2B"/>
<path d="M16.3929 0.703532L9.7478 3.96608L9.85203 5.58111L17.5144 1.71804C17.5763 1.68733 17.5866 1.60275 17.5331 1.55823L16.5287 0.720003C16.4904 0.687951 16.4374 0.681719 16.3929 0.703532Z" fill="#360B2B"/>
<path d="M2.03006 0.726969L8.67512 3.98952L8.69516 5.61033L0.908517 1.74148C0.846605 1.71076 0.83636 1.62618 0.889809 1.58167L1.89421 0.74344C1.93251 0.711389 1.98552 0.705157 2.03006 0.726969Z" fill="#360B2B"/>
<path d="M9.24438 4.42571C9.5958 3.16904 10.4171 2.28585 11.6474 1.83847C12.4161 1.55891 13.7394 1.11954 14.9986 1.03051C15.6899 1.05188 15.8872 1.02339 16.2823 0.924561L17.305 1.68088L9.28179 5.37746C9.25373 5.06629 9.23502 4.83081 9.24438 4.42571Z" fill="white"/>
<path d="M15.0587 1.10739C15.0997 1.17194 15.1358 1.2396 15.1754 1.30504C15.2097 1.36202 15.2476 1.41455 15.2895 1.46574C15.3425 1.52984 15.3928 1.59617 15.4418 1.66339C15.5402 1.79872 15.6329 1.93761 15.7291 2.07471C15.7767 2.14282 15.8253 2.21049 15.8756 2.27682C15.8872 2.29195 15.8992 2.30664 15.9112 2.32178L17.3049 1.67942L16.2823 0.923096C15.8885 1.02192 15.6908 1.04997 15.0044 1.02949C15.024 1.05486 15.0418 1.08113 15.0587 1.10739Z" fill="#BFC7C9"/>
<path d="M9.29468 5.39058C9.64121 4.11076 10.6897 3.15278 11.903 2.62305C12.6611 2.29185 14.1532 1.91169 15.395 1.73852C16.1001 1.73852 16.7397 1.73852 17.2381 1.70068L9.85455 5.50143C9.77394 5.46181 9.35392 5.38524 9.29468 5.39058Z" fill="#AEB4B8"/>
<path d="M9.52637 5.24571C9.69295 4.68437 10.0591 4.20182 10.4684 3.79183C11.3111 2.97541 12.4157 2.48218 13.5422 2.19595C14.107 2.05216 14.6833 1.96179 15.2619 1.91016C15.0027 1.94755 14.6553 2.00497 14.4032 2.05439C12.997 2.33662 11.5761 2.84632 10.5147 3.8408C10.0978 4.23521 9.72814 4.70173 9.52637 5.24571Z" fill="#AEB4B8"/>
<path d="M9.86694 5.36781C12.008 4.20907 14.2302 3.08416 16.4207 2.02246C14.2765 3.17319 12.0615 4.31323 9.86694 5.36781Z" fill="#AEB4B8"/>
<g opacity="0.69">
<path d="M10.1772 4.96529C11.8092 4.06341 13.4866 3.20159 15.1703 2.39941C13.5379 3.3013 11.8609 4.16357 10.1772 4.96529Z" fill="#AEB4B8"/>
</g>
<g opacity="0.69">
<path d="M9.97803 4.67801C11.2319 3.32697 12.5235 2.62317 14.3297 2.26393C14.5662 2.21764 14.8031 2.17579 15.0414 2.14062C14.8067 2.19315 14.5711 2.24346 14.3381 2.30222C12.4982 2.74426 11.3494 3.38751 9.97803 4.67801Z" fill="#AEB4B8"/>
</g>
<g opacity="0.69">
<path d="M10.4009 4.57879C11.4761 3.73478 12.7085 3.08396 14.0114 2.67041C12.7544 3.20682 11.5514 3.84384 10.4009 4.57879Z" fill="#AEB4B8"/>
</g>
<path d="M9.33327 4.42571C8.98185 3.16904 8.16051 2.28585 6.93029 1.83847C6.16152 1.55891 4.83821 1.11954 3.57903 1.03051C2.88776 1.05188 2.69044 1.02339 2.29536 0.924561L1.27271 1.68088L9.29586 5.37746C9.32392 5.06629 9.34307 4.83081 9.33327 4.42571Z" fill="white"/>
<path d="M3.5189 1.10739C3.47793 1.17194 3.44185 1.2396 3.40221 1.30504C3.36791 1.36202 3.33005 1.41455 3.28818 1.46574C3.23518 1.52984 3.18485 1.59617 3.13585 1.66339C3.03742 1.79872 2.94477 1.93761 2.84856 2.07471C2.8009 2.14282 2.75235 2.21049 2.70202 2.27682C2.69044 2.29195 2.67842 2.30664 2.66639 2.32178L1.27271 1.67942L2.29536 0.923096C2.68911 1.02192 2.88687 1.04997 3.57324 1.02949C3.55409 1.05486 3.53583 1.08113 3.5189 1.10739Z" fill="#BFC7C9"/>
<path d="M9.30538 5.39281C8.95886 4.11298 7.88898 3.15278 6.67569 2.62305C5.9176 2.29185 4.42548 1.91169 3.18368 1.73852C2.4786 1.73852 1.83899 1.73852 1.34058 1.70068L8.67958 5.47917C8.76065 5.43955 9.24614 5.38747 9.30538 5.39281Z" fill="#AEB4B8"/>
<path d="M9.05068 5.24616C8.84891 4.70218 8.47922 4.2361 8.06187 3.8408C7.00046 2.84587 5.5796 2.33617 4.17345 2.05439C3.92224 2.00408 3.57081 1.94799 3.3147 1.91016C3.89328 1.96179 4.47009 2.05216 5.03442 2.19595C6.16086 2.48218 7.26548 2.97542 8.10819 3.79183C8.51797 4.20227 8.8841 4.68481 9.05068 5.24616Z" fill="#AEB4B8"/>
<path d="M8.71049 5.36781C6.51596 4.31323 4.30138 3.17363 2.15674 2.02246C4.34726 3.08371 6.56941 4.20907 8.71049 5.36781Z" fill="#AEB4B8"/>
<g opacity="0.69">
<path d="M8.40271 4.967C6.71906 4.16528 5.04209 3.30301 3.40967 2.40112C5.09332 3.20329 6.77117 4.06512 8.40271 4.967Z" fill="#AEB4B8"/>
</g>
<g opacity="0.69">
<path d="M8.59954 4.67801C7.22724 3.38706 6.07808 2.74426 4.23943 2.30222C4.00649 2.24346 3.77131 2.1936 3.53613 2.14062C3.77443 2.17579 4.01138 2.21764 4.2479 2.26393C6.05448 2.62362 7.34616 3.32786 8.59954 4.67801Z" fill="#AEB4B8"/>
</g>
<g opacity="0.69">
<path d="M8.1747 4.57879C7.02376 3.84384 5.82115 3.20682 4.56421 2.67041C5.86703 3.08396 7.09948 3.73478 8.1747 4.57879Z" fill="#AEB4B8"/>
</g>
<path d="M9.38672 4.26392C9.38672 4.26392 9.65931 1.79464 14.7463 1.19189" stroke="#AEB4B8" stroke-width="0.198257" stroke-miterlimit="10"/>
<path d="M9.39917 4.29688C9.39917 4.29688 9.7702 1.82671 14.7868 1.24756" stroke="#AEB4B8" stroke-width="0.198257" stroke-miterlimit="10"/>
<path d="M9.41089 4.33135C9.41089 4.33135 9.8799 1.86029 14.8271 1.30518" stroke="#AEB4B8" stroke-width="0.198257" stroke-miterlimit="10"/>
<path d="M9.42383 4.36386C9.42383 4.36386 9.99128 1.89147 14.8681 1.36084" stroke="#AEB4B8" stroke-width="0.198257" stroke-miterlimit="10"/>
<path d="M9.43628 4.39833C9.43628 4.39833 10.1017 1.92504 14.9086 1.41846" stroke="#AEB4B8" stroke-width="0.198257" stroke-miterlimit="10"/>
<path d="M9.44922 4.43105C9.44922 4.43105 10.2131 1.95687 14.95 1.47388" stroke="#AEB4B8" stroke-width="0.198257" stroke-miterlimit="10"/>
<path d="M9.4624 4.46576C9.4624 4.46576 10.3243 1.99025 14.9913 1.53174" stroke="#AEB4B8" stroke-width="0.198257" stroke-miterlimit="10"/>
<path d="M9.47461 4.49925C9.47461 4.49925 10.4349 2.02285 15.0315 1.58838" stroke="#AEB4B8" stroke-width="0.198257" stroke-miterlimit="10"/>
<path d="M9.48755 4.53153C9.48755 4.53153 10.5458 2.05423 15.073 1.6438" stroke="#AEB4B8" stroke-width="0.198257" stroke-miterlimit="10"/>
<path d="M9.49878 4.56546C9.49878 4.56546 10.6555 2.08683 15.1123 1.70044" stroke="#AEB4B8" stroke-width="0.198257" stroke-miterlimit="10"/>
<path d="M9.17748 4.26392C9.17748 4.26392 8.90489 1.79464 3.81787 1.19189" stroke="#AEB4B8" stroke-width="0.198257" stroke-miterlimit="10"/>
<path d="M9.16501 4.29688C9.16501 4.29688 8.79399 1.82671 3.77734 1.24756" stroke="#AEB4B8" stroke-width="0.198257" stroke-miterlimit="10"/>
<path d="M9.15299 4.33135C9.15299 4.33135 8.68398 1.86029 3.73682 1.30518" stroke="#AEB4B8" stroke-width="0.198257" stroke-miterlimit="10"/>
<path d="M9.14028 4.36386C9.14028 4.36386 8.57283 1.89147 3.69604 1.36084" stroke="#AEB4B8" stroke-width="0.198257" stroke-miterlimit="10"/>
<path d="M9.12684 4.39833C9.12684 4.39833 8.4614 1.92504 3.65454 1.41846" stroke="#AEB4B8" stroke-width="0.198257" stroke-miterlimit="10"/>
<path d="M9.11384 4.43105C9.11384 4.43105 8.34996 1.95687 3.61304 1.47388" stroke="#AEB4B8" stroke-width="0.198257" stroke-miterlimit="10"/>
<path d="M9.10162 4.46576C9.10162 4.46576 8.23975 1.99025 3.57275 1.53174" stroke="#AEB4B8" stroke-width="0.198257" stroke-miterlimit="10"/>
<path d="M9.09013 4.49925C9.09013 4.49925 8.12983 2.02285 3.5332 1.58838" stroke="#AEB4B8" stroke-width="0.198257" stroke-miterlimit="10"/>
<path d="M9.07835 4.53153C9.07835 4.53153 8.02006 2.05423 3.49292 1.6438" stroke="#AEB4B8" stroke-width="0.198257" stroke-miterlimit="10"/>
<path d="M9.06491 4.56546C9.06491 4.56546 7.90818 2.08683 3.45142 1.70044" stroke="#AEB4B8" stroke-width="0.198257" stroke-miterlimit="10"/>
<path d="M8.67781 5.60368C8.67781 5.60368 9.21408 5.37665 9.80425 5.61035L9.9695 5.5231C9.9695 5.5231 9.26219 5.19458 8.54419 5.52845L8.67781 5.60368Z" fill="#360B2B"/>
</svg>
