<svg width="9" height="6" viewBox="0 0 9 6" fill="none" xmlns="http://www.w3.org/2000/svg">
<path opacity="0.63" d="M7.88319 5.04196H0.970093L1.21521 4.08813H7.63827L7.88319 5.04196Z" fill="#440E37"/>
<path d="M4.29524 2.88145C4.22211 2.82828 4.14937 2.77433 4.07818 2.71826L1.34702 3.85132C1.14388 3.93563 1.06186 4.1721 1.16381 4.37938L4.46956 3.00791C4.41152 2.96556 4.35328 2.9238 4.29524 2.88145Z" fill="#402206"/>
<path d="M4.31395 2.88794C4.28299 2.86551 4.25223 2.84288 4.22167 2.82007L1.482 3.95661C1.32085 4.02351 1.23611 4.18613 1.25874 4.35415L4.48807 3.01439C4.43022 2.97224 4.37199 2.93028 4.31395 2.88794Z" fill="#703D0B"/>
<path opacity="0.2" d="M3.20691 3.60982L4.46927 3.00791C4.41142 2.96556 4.353 2.92361 4.29496 2.88145C4.22183 2.82828 4.14909 2.77433 4.07789 2.71826L3.45184 2.97504L3.48589 3.10691L3.20691 3.60982Z" fill="#821C4E"/>
<path d="M4.57653 2.88145C4.64966 2.82828 4.72241 2.77433 4.7936 2.71826L7.52475 3.85132C7.72789 3.93563 7.80992 4.1721 7.70797 4.37938L4.40222 3.00791C4.46026 2.96556 4.51849 2.9238 4.57653 2.88145Z" fill="#402206"/>
<path d="M4.57683 2.88134C4.60778 2.85892 4.63854 2.83629 4.66911 2.81348L7.40878 3.95002C7.56993 4.01692 7.65467 4.17953 7.63203 4.34756L4.40271 3.0078C4.46056 2.96545 4.51879 2.92369 4.57683 2.88134Z" fill="#703D0B"/>
<path opacity="0.2" d="M5.53167 3.49864L4.40222 3.00791C4.46007 2.96556 4.51849 2.92361 4.57653 2.88145C4.64966 2.82828 4.72241 2.77433 4.7936 2.71826L5.41966 2.97504L5.38561 3.10691L5.53167 3.49864Z" fill="#821C4E"/>
<path d="M7.73331 4.51911L4.88937 3.09311L7.73331 1.66712C7.93297 1.56696 8.01345 1.32411 7.91343 1.12476L4.73112 2.72052C4.52527 2.72052 4.35212 2.72052 4.14627 2.72052L0.963958 1.12476C0.863743 1.3243 0.944418 1.56715 1.14407 1.66712L3.98802 3.09311L1.14407 4.51911C0.944418 4.61927 0.863936 4.86212 0.963958 5.06147L4.43879 3.31915L7.91362 5.06147C8.01364 4.86212 7.93297 4.61927 7.73331 4.51911Z" fill="#8A4B0D"/>
<path d="M7.9246 1.14851C7.92237 1.14058 7.91891 1.13244 7.91382 1.12451C7.91768 1.13244 7.92114 1.14058 7.9246 1.14851Z" fill="#821C4E"/>
<path d="M7.9246 1.14851C7.92237 1.14058 7.91891 1.13244 7.91382 1.12451C7.91768 1.13244 7.92114 1.14058 7.9246 1.14851Z" fill="#942059"/>
<path d="M7.61887 4.60852L4.74262 3.16629L7.7332 1.66662C7.89165 1.58715 7.97504 1.41777 7.95259 1.25168C7.94795 1.21649 7.93808 1.18149 7.92377 1.14746C7.95163 1.24453 7.77886 1.33888 7.70418 1.37639L4.79408 2.83565H4.08309L1.17299 1.37639C1.09986 1.33985 0.930768 1.24433 0.950888 1.15307C0.937732 1.18536 0.929026 1.21842 0.924383 1.25187C0.901941 1.41816 0.985325 1.58734 1.14377 1.66681L4.13436 3.16648L1.25811 4.60872C1.09966 4.68819 1.01628 4.85757 1.03872 5.02366L4.43849 3.31884L7.83826 5.02366C7.8607 4.85737 7.77731 4.68799 7.61887 4.60852Z" fill="#B56311"/>
<path opacity="0.44" d="M4.43827 3.23276L1.12073 4.89639C1.1424 4.80378 1.20392 4.72276 1.29253 4.67829L4.30672 3.16683L1.17819 1.59814C1.08513 1.55154 1.02187 1.46453 1.0033 1.36592C1.04044 1.39299 1.08533 1.41967 1.13795 1.44597L4.0645 2.91334H4.81205L7.7386 1.44597C7.79122 1.41948 7.83611 1.39279 7.87325 1.36572C7.85487 1.46433 7.79161 1.55134 7.69836 1.59794L4.56983 3.16663L7.58402 4.67809C7.67263 4.72257 7.73434 4.80339 7.75582 4.8962L4.43827 3.23276Z" fill="white"/>
<path d="M0.950562 1.15319C0.954466 1.14363 0.95876 1.13407 0.963445 1.12451C0.957003 1.13407 0.952709 1.14363 0.950562 1.15319Z" fill="#821C4E"/>
<path d="M0.950562 1.15319C0.954466 1.14363 0.95876 1.13407 0.963445 1.12451C0.957003 1.13407 0.952709 1.14363 0.950562 1.15319Z" fill="#942059"/>
<path d="M7.91523 1.1268L7.555 0.75053C7.4927 0.689043 7.39771 0.675508 7.32071 0.716886L4.66482 2.14714L4.41409 2.16222L4.23126 2.1512L1.57537 0.720947C1.49837 0.679568 1.40338 0.693103 1.34108 0.75459L0.9646 1.12622L4.14556 2.72701H4.49476V2.72295H4.75052L7.91523 1.1268Z" fill="#402206"/>
<path d="M8.05436 0.978487L7.60378 0.677819C7.58733 0.664091 7.56411 0.661191 7.54477 0.670665L4.65846 2.08777L4.66388 2.24013C4.60874 2.22292 4.52187 2.20262 4.41314 2.20281C4.305 2.20301 4.21871 2.22331 4.16396 2.24032L4.16938 2.08699L1.28307 0.669892C1.26372 0.660417 1.2407 0.663124 1.22406 0.677046L0.77348 0.977713C0.727629 1.04519 0.76903 1.09721 0.795922 1.11055C0.795922 1.11055 3.74143 2.57908 4.1481 2.77959C4.1659 2.78829 4.1864 2.78849 4.20459 2.78037C4.25876 2.756 4.3642 2.72913 4.44816 2.72913C4.53135 2.72893 4.61899 2.76045 4.66852 2.77766C4.68535 2.78346 4.70373 2.7823 4.71959 2.77437C5.21061 2.52862 8.03211 1.11132 8.03211 1.11132C8.05881 1.09798 8.10021 1.04616 8.05436 0.978487Z" fill="#B3276B"/>
<path d="M4.41122 2.13989C4.28856 2.14009 4.19396 2.16619 4.14172 2.18417L4.19899 2.71919C4.44914 2.61574 4.55032 2.65731 4.708 2.70643L4.68304 2.18417C4.63042 2.16619 4.53504 2.1397 4.41122 2.13989Z" fill="#360B2B"/>
<path d="M7.54476 0.589081L4.65845 2.00618L4.70372 2.70768L8.0319 1.02974C8.0588 1.0164 8.06325 0.979659 8.04003 0.960323L7.60377 0.596235C7.58713 0.582314 7.5641 0.579607 7.54476 0.589081Z" fill="#360B2B"/>
<path d="M1.30631 0.599091L4.19263 2.01619L4.20133 2.7202L0.819168 1.03975C0.792277 1.02641 0.787827 0.989669 0.811043 0.970333L1.24731 0.606245C1.26395 0.592323 1.28697 0.589616 1.30631 0.599091Z" fill="#360B2B"/>
<path d="M4.4399 2.20556C4.59254 1.65971 4.94929 1.2761 5.48365 1.08177C5.81757 0.960346 6.39235 0.769504 6.93928 0.730833C7.23954 0.740114 7.32524 0.727739 7.49685 0.684814L7.94104 1.01333L4.45615 2.61895C4.44396 2.48379 4.43584 2.38151 4.4399 2.20556Z" fill="white"/>
<path d="M6.96538 0.764375C6.98317 0.792412 6.99885 0.821802 7.01606 0.850225C7.03096 0.874975 7.04741 0.897791 7.06559 0.920027C7.08861 0.94787 7.11047 0.976679 7.13176 1.00588C7.17451 1.06466 7.21475 1.12498 7.25654 1.18454C7.27724 1.21412 7.29833 1.24351 7.32019 1.27232C7.32522 1.27889 7.33044 1.28527 7.33567 1.29185L7.94102 1.01284L7.49682 0.684326C7.3258 0.727251 7.2399 0.739432 6.94177 0.730538C6.95028 0.741559 6.95802 0.752967 6.96538 0.764375Z" fill="#BFC7C9"/>
<path d="M4.46179 2.6247C4.61231 2.0688 5.06773 1.6527 5.59473 1.42261C5.924 1.27875 6.57211 1.11362 7.11149 1.03841C7.41775 1.03841 7.69557 1.03841 7.91205 1.02197L4.70498 2.67284C4.66996 2.65563 4.48752 2.62238 4.46179 2.6247Z" fill="#AEB4B8"/>
<path d="M4.56238 2.56185C4.63473 2.31803 4.79376 2.10843 4.97156 1.93035C5.33759 1.57574 5.81739 1.3615 6.30666 1.23717C6.55198 1.17472 6.80232 1.13547 7.05363 1.11304C6.94104 1.12928 6.79013 1.15422 6.68063 1.17568C6.06986 1.29827 5.45271 1.51966 4.99168 1.95162C4.81059 2.12293 4.65002 2.32557 4.56238 2.56185Z" fill="#AEB4B8"/>
<path d="M4.71033 2.61493C5.64032 2.11163 6.60551 1.62302 7.55698 1.16187C6.62564 1.66169 5.66353 2.15687 4.71033 2.61493Z" fill="#AEB4B8"/>
<g opacity="0.69">
<path d="M4.84509 2.44018C5.55395 2.04845 6.28254 1.67411 7.01384 1.32568C6.30479 1.71742 5.57639 2.09195 4.84509 2.44018Z" fill="#AEB4B8"/>
</g>
<g opacity="0.69">
<path d="M4.75854 2.31526C5.30315 1.72843 5.8642 1.42273 6.6487 1.26669C6.75143 1.24659 6.85436 1.22841 6.95786 1.21313C6.8559 1.23595 6.75356 1.2578 6.65238 1.28332C5.85317 1.47532 5.35422 1.75472 4.75854 2.31526Z" fill="#AEB4B8"/>
</g>
<g opacity="0.69">
<path d="M4.94226 2.27227C5.40929 1.90567 5.94461 1.62299 6.51049 1.44336C5.96453 1.67635 5.44198 1.95304 4.94226 2.27227Z" fill="#AEB4B8"/>
</g>
<path d="M4.47844 2.20556C4.32579 1.65971 3.96904 1.2761 3.43469 1.08177C3.10077 0.960346 2.52599 0.769504 1.97906 0.730833C1.6788 0.740114 1.5931 0.727739 1.42149 0.684814L0.977295 1.01333L4.46219 2.61895C4.47438 2.48379 4.48269 2.38151 4.47844 2.20556Z" fill="white"/>
<path d="M1.95294 0.764375C1.93514 0.792412 1.91947 0.821802 1.90225 0.850225C1.88736 0.874975 1.87091 0.897791 1.85273 0.920027C1.8297 0.94787 1.80784 0.976679 1.78656 1.00588C1.7438 1.06466 1.70356 1.12498 1.66178 1.18454C1.64107 1.21412 1.61999 1.24351 1.59813 1.27232C1.5931 1.27889 1.58787 1.28527 1.58265 1.29185L0.977295 1.01284L1.42149 0.684326C1.59251 0.727251 1.67841 0.739432 1.97654 0.730538C1.96822 0.741559 1.96029 0.752967 1.95294 0.764375Z" fill="#BFC7C9"/>
<path d="M4.46638 2.62566C4.31587 2.06977 3.85116 1.6527 3.32416 1.42261C2.99489 1.27875 2.34678 1.11362 1.8074 1.03841C1.50114 1.03841 1.22332 1.03841 1.00684 1.02197L4.19457 2.66317C4.22978 2.64597 4.44065 2.62334 4.46638 2.62566Z" fill="#AEB4B8"/>
<path d="M4.35558 2.56204C4.26794 2.32576 4.10737 2.12332 3.92609 1.95162C3.46506 1.51947 2.84791 1.29808 2.23714 1.17568C2.12802 1.15383 1.97538 1.12947 1.86414 1.11304C2.11545 1.13547 2.36599 1.17472 2.61111 1.23717C3.10038 1.3615 3.58017 1.57574 3.94621 1.93035C4.1242 2.10862 4.28323 2.31822 4.35558 2.56204Z" fill="#AEB4B8"/>
<path d="M4.20773 2.61493C3.25453 2.15687 2.29262 1.66188 1.36108 1.16187C2.31255 1.62282 3.27775 2.11163 4.20773 2.61493Z" fill="#AEB4B8"/>
<g opacity="0.69">
<path d="M4.07414 2.44067C3.34284 2.09244 2.61445 1.71791 1.9054 1.32617C2.63669 1.6746 3.36548 2.04893 4.07414 2.44067Z" fill="#AEB4B8"/>
</g>
<g opacity="0.69">
<path d="M4.15964 2.31526C3.56357 1.75453 3.06443 1.47532 2.26581 1.28332C2.16463 1.2578 2.06248 1.23614 1.96033 1.21313C2.06383 1.22841 2.16675 1.24659 2.26949 1.26669C3.05418 1.42293 3.61523 1.72881 4.15964 2.31526Z" fill="#AEB4B8"/>
</g>
<g opacity="0.69">
<path d="M3.97521 2.27227C3.4753 1.95304 2.95294 1.67635 2.40698 1.44336C2.97287 1.62299 3.50819 1.90567 3.97521 2.27227Z" fill="#AEB4B8"/>
</g>
<path d="M4.50171 2.13537C4.50171 2.13537 4.62011 1.06283 6.82968 0.801025" stroke="#AEB4B8" stroke-width="0.0861137" stroke-miterlimit="10"/>
<path d="M4.50708 2.14968C4.50708 2.14968 4.66824 1.07675 6.84724 0.825195" stroke="#AEB4B8" stroke-width="0.0861137" stroke-miterlimit="10"/>
<path d="M4.51221 2.16477C4.51221 2.16477 4.71593 1.09146 6.86475 0.850342" stroke="#AEB4B8" stroke-width="0.0861137" stroke-miterlimit="10"/>
<path d="M4.51782 2.17864C4.51782 2.17864 4.7643 1.10475 6.88255 0.874268" stroke="#AEB4B8" stroke-width="0.0861137" stroke-miterlimit="10"/>
<path d="M4.52319 2.19374C4.52319 2.19374 4.81223 1.11945 6.90011 0.899414" stroke="#AEB4B8" stroke-width="0.0861137" stroke-miterlimit="10"/>
<path d="M4.52881 2.20804C4.52881 2.20804 4.8606 1.13337 6.91811 0.923584" stroke="#AEB4B8" stroke-width="0.0861137" stroke-miterlimit="10"/>
<path d="M4.53455 2.22289C4.53455 2.22289 4.9089 1.14764 6.93603 0.948486" stroke="#AEB4B8" stroke-width="0.0861137" stroke-miterlimit="10"/>
<path d="M4.53992 2.2375C4.53992 2.2375 4.95703 1.16186 6.95359 0.973145" stroke="#AEB4B8" stroke-width="0.0861137" stroke-miterlimit="10"/>
<path d="M4.54553 2.25161C4.54553 2.25161 5.00521 1.17559 6.97159 0.997314" stroke="#AEB4B8" stroke-width="0.0861137" stroke-miterlimit="10"/>
<path d="M4.55042 2.26641C4.55042 2.26641 5.05285 1.18981 6.98866 1.02197" stroke="#AEB4B8" stroke-width="0.0861137" stroke-miterlimit="10"/>
<path d="M4.41086 2.13537C4.41086 2.13537 4.29245 1.06283 2.08289 0.801025" stroke="#AEB4B8" stroke-width="0.0861137" stroke-miterlimit="10"/>
<path d="M4.40534 2.14968C4.40534 2.14968 4.24419 1.07675 2.06519 0.825195" stroke="#AEB4B8" stroke-width="0.0861137" stroke-miterlimit="10"/>
<path d="M4.40027 2.16477C4.40027 2.16477 4.19655 1.09146 2.04773 0.850342" stroke="#AEB4B8" stroke-width="0.0861137" stroke-miterlimit="10"/>
<path d="M4.39476 2.17864C4.39476 2.17864 4.14828 1.10475 2.03003 0.874268" stroke="#AEB4B8" stroke-width="0.0861137" stroke-miterlimit="10"/>
<path d="M4.38888 2.19374C4.38888 2.19374 4.09984 1.11945 2.01196 0.899414" stroke="#AEB4B8" stroke-width="0.0861137" stroke-miterlimit="10"/>
<path d="M4.38319 2.20804C4.38319 2.20804 4.0514 1.13337 1.9939 0.923584" stroke="#AEB4B8" stroke-width="0.0861137" stroke-miterlimit="10"/>
<path d="M4.3778 2.22289C4.3778 2.22289 4.00345 1.14764 1.97632 0.948486" stroke="#AEB4B8" stroke-width="0.0861137" stroke-miterlimit="10"/>
<path d="M4.3729 2.2375C4.3729 2.2375 3.95579 1.16186 1.95923 0.973145" stroke="#AEB4B8" stroke-width="0.0861137" stroke-miterlimit="10"/>
<path d="M4.36771 2.25161C4.36771 2.25161 3.90803 1.17559 1.94165 0.997314" stroke="#AEB4B8" stroke-width="0.0861137" stroke-miterlimit="10"/>
<path d="M4.36195 2.26641C4.36195 2.26641 3.85952 1.18981 1.92371 1.02197" stroke="#AEB4B8" stroke-width="0.0861137" stroke-miterlimit="10"/>
<path d="M4.19378 2.71736C4.19378 2.71736 4.42671 2.61875 4.68306 2.72027L4.75483 2.68237C4.75483 2.68237 4.44761 2.53967 4.13574 2.68469L4.19378 2.71736Z" fill="#360B2B"/>
</svg>
