<svg width="28" height="26" viewBox="0 0 28 26" fill="none" xmlns="http://www.w3.org/2000/svg">
<path d="M18.1366 14.2925C18.2226 14.2925 18.3052 14.2609 18.366 14.2046C18.4269 14.1483 18.4611 14.072 18.4611 13.9924C18.4611 13.9128 18.4269 13.8365 18.366 13.7803C18.3052 13.724 18.2226 13.6924 18.1366 13.6924H15.074C14.988 13.6924 14.9054 13.724 14.8446 13.7803C14.7837 13.8365 14.7495 13.9128 14.7495 13.9924C14.7495 14.072 14.7837 14.1483 14.8446 14.2046C14.9054 14.2609 14.988 14.2925 15.074 14.2925H15.9503C16.1539 14.2913 16.3528 14.3483 16.52 14.4557C16.6871 14.5631 16.8143 14.7157 16.884 14.8925H15.074C14.988 14.8925 14.9054 14.9242 14.8446 14.9804C14.7837 15.0367 14.7495 15.113 14.7495 15.1926C14.7495 15.2722 14.7837 15.3485 14.8446 15.4047C14.9054 15.461 14.988 15.4926 15.074 15.4926H16.884C16.8143 15.6695 16.6872 15.8221 16.5201 15.9295C16.3529 16.0369 16.1539 16.0939 15.9503 16.0927H15.0741C15.0088 16.0938 14.9454 16.1128 14.8918 16.1472C14.8382 16.1816 14.7968 16.23 14.773 16.2862C14.7491 16.3424 14.7438 16.4038 14.7577 16.4628C14.7716 16.5218 14.8042 16.5756 14.8512 16.6174L17.0413 18.5321C17.0722 18.5593 17.1085 18.5805 17.1483 18.5947C17.1881 18.6088 17.2306 18.6155 17.2732 18.6145C17.3158 18.6135 17.3578 18.6047 17.3967 18.5886C17.4356 18.5725 17.4707 18.5495 17.5 18.5209C17.5592 18.4623 17.5911 18.3844 17.5887 18.3042C17.5863 18.2241 17.5498 18.148 17.4871 18.0925L15.89 16.6928H15.9503C16.3273 16.697 16.6941 16.5793 16.9873 16.3602C17.2805 16.1411 17.4818 15.8343 17.5565 15.4926H18.1366C18.2226 15.4926 18.3052 15.461 18.366 15.4047C18.4269 15.3485 18.4611 15.2722 18.4611 15.1926C18.4611 15.113 18.4269 15.0367 18.366 14.9804C18.3052 14.9242 18.2226 14.8925 18.1366 14.8925H17.5565C17.5188 14.6704 17.4145 14.4625 17.2553 14.2925H18.1366Z" fill="#FCFCFC"/>
<path d="M16.7414 10.1457C16.6419 9.78597 16.409 9.46995 16.0834 9.25265C16.303 9.10656 16.482 8.9143 16.6054 8.69171C16.7289 8.46912 16.7933 8.22258 16.7935 7.97243C16.7936 7.72228 16.7294 7.47568 16.6062 7.25298C16.4829 7.03028 16.3042 6.83787 16.0847 6.69159C16.3778 6.4971 16.5964 6.22148 16.709 5.90456C16.8216 5.58764 16.8222 5.24584 16.7109 4.92856C16.5995 4.61127 16.382 4.33493 16.0896 4.13947C15.7972 3.94402 15.4452 3.83956 15.0844 3.84121H6.70386C6.34297 3.83998 5.99098 3.94478 5.6987 4.14049C5.40641 4.33621 5.18893 4.61271 5.07764 4.93011C4.96635 5.24751 4.96701 5.58939 5.07951 5.90642C5.19202 6.22345 5.41056 6.49924 5.7036 6.694C5.48417 6.83997 5.30544 7.03211 5.18216 7.25454C5.05888 7.47697 4.99458 7.72331 4.99458 7.97325C4.99458 8.22318 5.05888 8.46952 5.18216 8.69195C5.30544 8.91438 5.48417 9.10652 5.7036 9.25249C5.48416 9.39863 5.30543 9.5909 5.18216 9.81344C5.05889 10.036 4.99461 10.2824 4.99461 10.5325C4.99461 10.7825 5.05889 11.0289 5.18216 11.2515C5.30543 11.474 5.48416 11.6663 5.7036 11.8124C5.48413 11.9586 5.30539 12.1509 5.18211 12.3735C5.05883 12.5961 4.99454 12.8426 4.99454 13.0926C4.99454 13.3427 5.05883 13.5892 5.18211 13.8117C5.30539 14.0343 5.48413 14.2266 5.7036 14.3728C5.48416 14.519 5.30545 14.7113 5.18219 14.9339C5.05893 15.1564 4.99466 15.4029 4.99466 15.653C4.99466 15.903 5.05893 16.1495 5.18219 16.3721C5.30545 16.5947 5.48416 16.787 5.7036 16.9331C5.48415 17.0793 5.30543 17.2716 5.18217 17.4942C5.0589 17.7168 4.99462 17.9633 4.99462 18.2133C4.99462 18.4634 5.0589 18.7099 5.18217 18.9324C5.30543 19.155 5.48415 19.3473 5.7036 19.4935C5.41044 19.688 5.19177 19.9636 5.07919 20.2805C4.96661 20.5975 4.96594 20.9393 5.07729 21.2566C5.18864 21.5739 5.40623 21.8502 5.69862 22.0457C5.99101 22.2411 6.34305 22.3456 6.70386 22.3439H15.0844C15.4028 22.3463 15.7154 22.2655 15.9862 22.1109C16.19 22.1288 16.3963 22.1409 16.6051 22.1409C18.3147 22.1418 19.9555 21.5189 21.171 20.4075C22.3866 19.2962 23.0785 17.7862 23.0964 16.2057C23.1144 14.6253 22.4569 13.1022 21.2669 11.9674C20.0769 10.8327 18.4506 10.1781 16.7414 10.1458V10.1457ZM21.5093 15.9429C21.4607 14.9109 21.0312 13.9254 20.2923 13.1506L20.9517 12.5412C21.8642 13.4786 22.3914 14.6826 22.441 15.9429H21.5093ZM12.7086 20.162L13.3677 19.5527C14.1456 20.1866 15.1214 20.5755 16.154 20.6631V21.5273C14.8741 21.4361 13.6627 20.9561 12.7086 20.162ZM10.7808 16.5429H11.715C11.8059 17.5 12.2242 18.4054 12.9092 19.1278L12.2501 19.7372C11.3919 18.8519 10.8752 17.7286 10.7808 16.5429ZM19.8328 12.7268C18.9912 12.0444 17.9217 11.6498 16.8031 11.6089V10.7475C18.1686 10.7894 19.4745 11.2744 20.492 12.1173L19.8328 12.7268ZM16.154 10.7601V11.6242C15.1126 11.7127 14.1293 12.1074 13.3484 12.7506L12.6862 12.1436C13.6436 11.3388 14.8639 10.8519 16.154 10.7601ZM12.2303 12.5707L12.8925 13.1775C12.1689 13.9484 11.7489 14.9231 11.7009 15.9429H10.7692C10.8184 14.6962 11.3349 13.504 12.2303 12.5707ZM16.8031 20.6785C17.9109 20.638 18.971 20.2506 19.8093 19.5798L20.4686 20.1893C19.4543 21.0206 18.1578 21.4983 16.8031 21.5398V20.6785ZM16.6051 20.0824C15.7625 20.0825 14.9388 19.8515 14.2382 19.4187C13.5376 18.986 12.9915 18.3708 12.669 17.6511C12.3465 16.9314 12.2621 16.1395 12.4265 15.3754C12.5908 14.6113 12.9966 13.9095 13.5924 13.3586C14.1882 12.8078 14.9473 12.4326 15.7737 12.2806C16.6001 12.1287 17.4567 12.2066 18.2352 12.5047C19.0137 12.8029 19.679 13.3077 20.1472 13.9554C20.6153 14.6031 20.8652 15.3647 20.8652 16.1437C20.8639 17.1879 20.4147 18.189 19.616 18.9274C18.8174 19.6658 17.7346 20.0811 16.6051 20.0824V20.0824ZM5.64366 5.41642C5.64393 5.28801 5.67157 5.16091 5.725 5.04238C5.77844 4.92386 5.85663 4.81624 5.95509 4.72567C6.05355 4.6351 6.17036 4.56337 6.29883 4.51457C6.4273 4.46578 6.56492 4.44087 6.70381 4.44129H15.0844C15.3641 4.44129 15.6324 4.54402 15.8302 4.7269C16.028 4.90977 16.1391 5.1578 16.1391 5.41642C16.1391 5.67504 16.028 5.92307 15.8302 6.10594C15.6324 6.28882 15.3641 6.39155 15.0844 6.39155H6.70386C6.56497 6.39197 6.42735 6.36708 6.29887 6.31828C6.17039 6.26949 6.05357 6.19776 5.95511 6.10719C5.85664 6.01662 5.77845 5.909 5.72501 5.79047C5.67157 5.67194 5.64393 5.54483 5.64366 5.41642ZM5.64366 7.96677C5.64393 7.83836 5.67157 7.71126 5.725 7.59273C5.77844 7.47421 5.85663 7.36658 5.95509 7.27602C6.05355 7.18545 6.17036 7.11372 6.29883 7.06492C6.4273 7.01612 6.56492 6.99122 6.70381 6.99164H15.0844C15.3641 6.99164 15.6324 7.09437 15.8302 7.27725C16.028 7.46012 16.1391 7.70815 16.1391 7.96677C16.1391 8.22539 16.028 8.47342 15.8302 8.65629C15.6324 8.83917 15.3641 8.9419 15.0844 8.9419H6.70386C6.56497 8.94232 6.42735 8.91742 6.29887 8.86863C6.17039 8.81984 6.05357 8.74811 5.95511 8.65754C5.85664 8.56697 5.77845 8.45935 5.72501 8.34082C5.67157 8.22229 5.64393 8.09518 5.64366 7.96677ZM5.64366 10.5171C5.64393 10.3887 5.67157 10.2616 5.725 10.1431C5.77844 10.0246 5.85663 9.91693 5.95509 9.82637C6.05355 9.7358 6.17036 9.66407 6.29883 9.61527C6.4273 9.56647 6.56492 9.54157 6.70381 9.54198H15.0844C15.2948 9.54177 15.5006 9.59947 15.6755 9.70774C15.8503 9.81602 15.9864 9.96996 16.0663 10.15C14.7527 10.2509 13.5033 10.7191 12.4844 11.4923H6.70386C6.56497 11.4927 6.42735 11.4678 6.29887 11.419C6.17039 11.3702 6.05357 11.2985 5.95511 11.2079C5.85664 11.1173 5.77845 11.0097 5.72501 10.8912C5.67157 10.7726 5.64393 10.6455 5.64366 10.5171ZM5.64366 13.0925C5.64366 12.552 6.11927 12.0923 6.70381 12.0923H11.803C11.2468 12.6924 10.8058 13.3425 10.5143 14.0926H6.70386C6.11927 14.0926 5.64366 13.6329 5.64366 13.0925ZM5.64366 15.6678C5.64393 15.5394 5.67157 15.4123 5.725 15.2938C5.77844 15.1753 5.85663 15.0676 5.95509 14.9771C6.05355 14.8865 6.17036 14.8148 6.29883 14.766C6.4273 14.7172 6.56492 14.6923 6.70381 14.6927H10.3133C10.1804 15.1716 10.114 15.6642 10.1156 16.1586C10.1156 16.3237 10.1232 16.4929 10.1373 16.643H6.70386C6.56497 16.6434 6.42735 16.6185 6.29887 16.5697C6.17039 16.5209 6.05357 16.4492 5.95511 16.3586C5.85664 16.268 5.77845 16.1604 5.72501 16.0419C5.67157 15.9233 5.64393 15.7962 5.64366 15.6678ZM5.64366 18.2182C5.64393 18.0898 5.67157 17.9627 5.725 17.8441C5.77844 17.7256 5.85663 17.618 5.95509 17.5274C6.05355 17.4369 6.17036 17.3651 6.29883 17.3163C6.4273 17.2675 6.56492 17.2426 6.70381 17.243H10.2232C10.3628 17.9312 10.6321 18.5913 11.0188 19.1933H6.70386C6.56497 19.1937 6.42735 19.1688 6.29887 19.12C6.17039 19.0712 6.05357 18.9995 5.95511 18.9089C5.85664 18.8184 5.77845 18.7107 5.72501 18.5922C5.67157 18.4737 5.64393 18.3466 5.64366 18.2182ZM6.70381 21.7437C6.42408 21.7437 6.1558 21.6409 5.958 21.458C5.7602 21.2752 5.64907 21.0271 5.64907 20.7685C5.64907 20.5099 5.7602 20.2619 5.958 20.079C6.1558 19.8961 6.42408 19.7934 6.70381 19.7934H11.4582C12.1868 20.6935 13.1704 21.3436 14.3057 21.7437H6.70381ZM20.9307 19.7678L20.2716 19.1583C20.9737 18.4312 21.4029 17.5139 21.4952 16.5429H22.4294C22.3339 17.7426 21.8063 18.878 20.9307 19.7678H20.9307Z" fill="#FCFCFC"/>
</svg>
