<svg width="65" height="24" viewBox="0 0 65 24" fill="none" xmlns="http://www.w3.org/2000/svg">
<path d="M30.6556 5.3808H35.1867V19.3128H30.6556V5.3808ZM11.4454 15.252C11.4454 10.44 4.54729 11.3064 4.54729 9.4848L4.55 9.4896C4.55 8.8608 5.14042 8.616 6.08562 8.6064C7.65336 8.6359 9.19139 8.99102 10.576 9.6432V5.8416C9.15022 5.34298 7.62923 5.09281 6.09646 5.1048C2.4375 5.1048 0 6.8136 0 9.6696C0 14.1432 6.8575 13.416 6.8575 15.3456C6.8575 16.0896 6.13708 16.3368 5.12958 16.3368C3.63729 16.3368 1.70625 15.7824 0.192292 15.0456V18.684C1.74673 19.2841 3.42323 19.596 5.11875 19.6008C8.86708 19.5984 11.4454 18.1608 11.4454 15.252ZM30.6421 4.1568L35.1731 3.2928V0L30.6421 0.864V4.1568ZM44.6008 5.1096C43.2812 5.1047 42.0122 5.55885 41.0665 6.3744L40.8335 5.3736H36.8604V24L41.3698 23.1432L41.3806 18.5784C42.0306 19.0056 42.9948 19.5984 44.571 19.5984C47.8021 19.5984 50.746 17.4888 50.746 12.36C50.7569 7.6656 47.7723 5.1096 44.6008 5.1096ZM43.5256 16.248C42.4667 16.2504 41.841 15.9048 41.4023 15.4848L41.3725 9.4824C41.841 9.0192 42.491 8.6808 43.5256 8.6808C45.1696 8.6808 46.3071 10.3368 46.3071 12.4464C46.3206 14.6208 45.2021 16.248 43.5256 16.248ZM58.4783 5.1096C54.191 5.1096 51.5802 8.3736 51.5802 12.4872C51.5802 17.352 54.6569 19.6008 59.0471 19.6008C61.2002 19.6008 62.8144 19.164 64.044 18.5544V15.516C62.8144 16.0704 61.4033 16.4064 59.6158 16.4064C57.8581 16.4064 56.3144 15.852 56.1112 13.9608H64.9377C64.9567 13.752 64.9973 12.9048 64.9973 12.516C64.9973 8.376 62.7656 5.1096 58.4783 5.1096ZM56.0706 10.9848C56.0706 9.1656 57.3219 8.4024 58.4485 8.4024C59.5562 8.4024 60.7344 9.168 60.7344 10.9848H56.0706ZM20.1825 8.82V5.3808H16.7592L16.7483 1.8792L12.3473 2.7168L12.3283 15.6672C12.3283 18.06 14.3406 19.6056 17.011 19.6056C18.4952 19.6056 19.5812 19.3584 20.1825 19.068V15.9936C19.6029 16.2024 16.7592 16.9488 16.7592 14.5656V8.8176H20.1825V8.82ZM29.5669 9.0936V5.3832C28.9575 5.1912 26.8558 4.8384 25.7996 6.5736L25.5233 5.3832H21.6233V19.3152H26.1246V9.9384C27.1917 8.6832 28.99 8.9304 29.5669 9.0936Z" fill="#646FDE"/>
</svg>
