<svg width="371" height="53" viewBox="0 0 371 53" fill="none" xmlns="http://www.w3.org/2000/svg">
<g filter="url(#filter0_d_1_28069)">
<path d="M366.982 18.3578C367.034 12.8429 366.955 1.9206 366.955 1.76112C366.955 1.51946 366.912 0.354657 366.912 0.000233723C350.201 0.000225108 52.6387 0.027563 4.16221 7.09044e-09C4.11014 5.51488 4.05851 11.0402 4.00644 16.5547C4.00667 17.1501 3.99198 17.7857 4.00622 18.1321C4.06812 19.6015 4.02118 21.3945 4.00644 22.8652C3.98974 24.5986 4.02314 25.9633 4.00644 27.6966C3.99612 28.9566 4.01675 29.6183 4.00644 30.8782C5.96053 30.7216 8.76395 31.0006 10.3693 30.4166C12.287 29.7187 14.1846 30.153 15.7261 30.2728C17.4959 30.4104 18.9397 30.3244 20.5317 29.9915C21.1806 29.8559 21.914 29.9012 22.6086 29.8644C23.0723 29.419 23.7708 29.0122 23.9541 28.5201C24.4404 27.2135 26.0187 27.0474 27.5326 26.8632C28.0194 26.8042 28.995 27.0612 29.0898 27.2936C29.5599 28.4443 30.7433 28.5566 32.2007 28.4994C33.248 28.4584 34.3022 28.4981 35.3534 28.5014C35.793 28.3455 36.215 28.0878 36.6758 28.0513C38.592 27.8997 40.5176 27.7706 42.4442 27.7224C43.5308 27.6951 44.7731 27.6561 45.6701 27.9719C46.3013 28.1941 47.9641 28.1892 47.3741 29.2637C46.5513 30.6993 47.0961 31.8122 49.1224 32.5761C50.3126 34.0557 52.3291 34.0038 54.4915 34.0698C56.7359 34.1381 58.9518 34.6029 61.1829 34.8859C62.018 34.992 62.9081 35.2769 63.3546 34.4109C63.447 34.2316 64.2929 34.0531 64.6569 34.1364C67.6352 34.818 69.4026 33.4444 71.396 32.4392C72.3514 31.672 73.38 30.9393 74.2416 30.1274C75.0914 29.3264 76.1078 28.8937 77.6046 28.9095C81.2814 28.9482 84.9601 28.9226 88.6355 28.9846C89.4887 28.9991 90.3331 29.2601 91.1815 29.4075C92.6527 29.2748 94.1033 28.8258 95.6099 28.4883C96.5668 28.2739 97.6165 28.0966 98.6088 28.1278C101.173 28.2076 103.726 28.4361 106.29 28.5493C106.891 28.5759 107.582 28.4646 108.115 28.2723C110.432 27.4368 112.778 27.4289 115.223 27.9696C115.659 28.0661 116.216 27.9348 116.713 27.8905C118.256 27.7529 119.867 27.3458 121.323 27.5211C123.951 27.8376 126.272 27.6672 128.584 26.7812C129.825 26.3058 131.097 26.378 132.285 27.1105C132.857 27.463 133.79 27.6301 134.599 27.7165C135.575 27.8209 136.601 27.7037 137.589 27.7769C138.038 27.8104 138.75 28.0221 138.828 28.2371C139.301 29.5283 139.85 30.8618 138.211 32.0108C137.687 33.4536 137.07 34.9125 139.852 35.7053C139.984 35.7431 140.044 35.8977 140.134 35.9991C140.8 36.7473 141.668 37.2929 142.978 37.5523C144.647 37.8828 145.555 38.7252 145.972 39.8325C146.523 41.2947 148.437 41.8716 150.206 42.1647C153.584 42.7254 157.411 42.3269 159.957 44.4643C160.053 44.5444 160.272 44.5855 160.44 44.5953C162.191 44.6981 163.943 44.8737 165.694 44.8701C169.806 44.8612 173.921 44.8064 178.028 44.6813C179.341 44.6413 180.629 44.3048 181.938 44.1361C183.567 43.926 185.207 43.7543 186.84 43.5566C188.246 43.3866 189.698 43.3039 191.04 43.0018C192.834 42.5977 194.723 41.9284 196.442 42.6322C199.391 43.8403 202.625 43.4601 205.674 43.5084C209.433 43.5681 213.22 43.0537 216.981 42.7152C217.767 42.6443 218.488 42.256 219.243 42.0193C219.977 41.7895 220.728 41.3571 221.449 41.3771C224.547 41.4625 227.635 41.8046 230.73 41.8259C236.372 41.8646 242.016 41.7327 247.659 41.6972C248.408 41.6926 249.27 41.7018 249.889 41.9329C252.869 43.0478 256.092 42.6079 259.225 42.6489C260.476 42.6654 261.806 42.1375 262.982 42.2829C268.493 42.9651 273.268 41.7409 277.944 40.0358C278.611 39.7922 279.506 39.8046 280.303 39.7518C280.691 39.7262 281.117 39.8969 281.491 39.8519C283.592 39.5991 285.665 39.1973 287.78 39.0538C291.272 38.8168 294.79 38.7508 298.294 38.5883C301.693 38.4308 304.882 39.194 308.17 39.4997C312.802 39.9301 317.529 39.8946 322.207 40.1237C325.091 40.2652 327.959 40.5528 330.84 40.7314C335.178 40.9999 339.185 42.6466 343.719 42.104C343.988 42.0718 344.29 42.1726 344.579 42.2044C347.971 42.5797 351.367 42.9382 354.753 43.3347C356.355 43.5225 358.122 43.5589 359.49 44.0599C361.619 44.8393 364.583 45.038 366.982 44.9943C366.982 36.5701 366.982 28.4267 366.982 19.7618C366.988 19.3121 366.86 18.8062 366.982 18.3578Z" fill="#F2D2BA"/>
</g>
<defs>
<filter id="filter0_d_1_28069" x="0" y="0" width="371" height="53" filterUnits="userSpaceOnUse" color-interpolation-filters="sRGB">
<feFlood flood-opacity="0" result="BackgroundImageFix"/>
<feColorMatrix in="SourceAlpha" type="matrix" values="0 0 0 0 0 0 0 0 0 0 0 0 0 0 0 0 0 0 127 0" result="hardAlpha"/>
<feOffset dy="4"/>
<feGaussianBlur stdDeviation="2"/>
<feComposite in2="hardAlpha" operator="out"/>
<feColorMatrix type="matrix" values="0 0 0 0 0 0 0 0 0 0 0 0 0 0 0 0 0 0 0.25 0"/>
<feBlend mode="normal" in2="BackgroundImageFix" result="effect1_dropShadow_1_28069"/>
<feBlend mode="normal" in="SourceGraphic" in2="effect1_dropShadow_1_28069" result="shape"/>
</filter>
</defs>
</svg>
