<svg width="1230" height="825" viewBox="0 0 1230 825" fill="none" xmlns="http://www.w3.org/2000/svg">
<g filter="url(#filter0_d_1_21955)">
<path d="M4.72611 772.532C4.55096 763.34 5.66895 3.20102 5.66895 2.93522C5.66895 2.53246 5.8114 0.591122 5.8114 0.000416435C62.0237 0.000400837 1062.91 0.0459419 1225.97 1.28307e-09C1226.15 9.19147 1225.47 760.336 1225.65 769.527C1225.65 770.519 1225.7 771.578 1225.65 772.156C1225.44 774.605 1225.6 777.593 1225.65 780.044C1225.7 782.933 1225.59 785.208 1225.65 788.096C1225.68 790.196 1225.61 791.299 1225.65 793.399C1219.07 793.138 1209.65 793.603 1204.25 792.63C1197.79 791.467 1191.41 792.19 1186.23 792.39C1180.27 792.619 1175.42 792.476 1170.06 791.921C1167.88 791.695 1165.41 791.771 1163.08 791.71C1161.52 790.967 1159.17 790.289 1158.55 789.469C1156.92 787.291 1151.61 787.014 1146.51 786.708C1144.88 786.609 1141.6 787.037 1141.28 787.425C1139.7 789.343 1135.71 789.53 1130.81 789.435C1127.29 789.366 1123.74 789.432 1120.21 789.438C1118.73 789.178 1117.31 788.748 1115.76 788.688C1109.31 788.435 1102.84 788.22 1096.36 788.139C1092.7 788.094 1088.52 788.029 1085.51 788.555C1083.38 788.926 1077.79 788.917 1079.77 790.708C1082.54 793.101 1080.71 794.956 1073.89 796.229C1069.89 798.695 1063.11 798.608 1055.83 798.718C1048.29 798.832 1040.83 799.607 1033.33 800.079C1030.52 800.255 1027.52 800.73 1026.02 799.287C1025.71 798.988 1022.87 798.691 1021.64 798.83C1011.62 799.965 1005.68 797.676 998.974 796.001C995.76 794.722 992.3 793.501 989.402 792.148C986.544 790.813 983.125 790.092 978.091 790.118C965.723 790.182 953.349 790.14 940.986 790.243C938.116 790.267 935.276 790.702 932.423 790.948C927.474 790.727 922.595 789.978 917.527 789.416C914.308 789.059 910.777 788.763 907.44 788.815C898.815 788.948 890.226 789.329 881.604 789.518C879.582 789.562 877.257 789.376 875.465 789.056C867.671 787.663 859.781 787.65 851.556 788.551C850.089 788.712 848.216 788.493 846.544 788.42C841.354 788.19 835.933 787.512 831.036 787.804C822.198 788.331 814.392 788.047 806.613 786.571C802.44 785.778 798.162 785.899 794.165 787.12C792.24 787.707 789.104 787.986 786.382 788.13C783.099 788.304 779.649 788.108 776.325 788.23C774.815 788.286 772.42 788.639 772.156 788.997C770.565 791.149 768.721 793.372 774.231 795.287C775.994 797.691 778.07 800.123 768.714 801.444C768.268 801.507 768.068 801.765 767.764 801.934C765.524 803.181 762.604 804.09 758.199 804.523C752.585 805.074 749.529 806.478 748.127 808.323C746.273 810.76 739.835 811.721 733.887 812.21C722.523 813.145 709.65 812.48 701.084 816.043C700.764 816.176 700.025 816.245 699.46 816.261C693.571 816.432 687.678 816.725 681.787 816.719C667.956 816.704 654.116 816.613 640.301 816.404C635.886 816.338 631.552 815.777 627.151 815.496C621.67 815.145 616.153 814.859 610.661 814.53C605.932 814.246 601.046 814.109 596.535 813.605C590.498 812.932 584.145 811.816 578.363 812.989C568.443 815.003 557.567 814.369 547.31 814.449C534.665 814.549 521.927 813.692 509.277 813.128C506.634 813.009 504.208 812.362 501.67 811.968C499.202 811.585 496.674 810.864 494.248 810.897C483.827 811.04 473.441 811.61 463.029 811.645C444.053 811.71 425.07 811.49 406.088 811.431C403.57 811.423 400.668 811.439 398.588 811.824C388.564 813.682 377.721 812.949 367.185 813.017C362.975 813.044 358.504 812.165 354.548 812.407C336.011 813.544 319.948 811.504 304.221 808.662C301.976 808.256 298.967 808.277 296.285 808.188C294.98 808.146 293.547 808.43 292.288 808.355C285.223 807.934 278.248 807.264 271.135 807.025C259.389 806.63 247.557 806.52 235.77 806.249C224.337 805.987 213.608 807.259 202.549 807.768C186.968 808.486 171.071 808.426 155.333 808.808C145.632 809.044 135.987 809.523 126.297 809.821C111.705 810.269 98.2258 813.013 82.9767 812.109C82.0713 812.055 81.0535 812.223 80.0819 812.276C68.6745 812.902 57.252 813.499 45.8627 814.16C40.4713 814.473 34.5297 814.534 29.928 815.369C22.767 816.668 12.7959 816.999 4.72611 816.926C4.72611 802.886 4.72611 789.313 4.72611 774.872C4.70628 774.122 5.13753 773.279 4.72611 772.532Z" fill="white"/>
</g>
<defs>
<filter id="filter0_d_1_21955" x="0.70752" y="0" width="1229.29" height="824.935" filterUnits="userSpaceOnUse" color-interpolation-filters="sRGB">
<feFlood flood-opacity="0" result="BackgroundImageFix"/>
<feColorMatrix in="SourceAlpha" type="matrix" values="0 0 0 0 0 0 0 0 0 0 0 0 0 0 0 0 0 0 127 0" result="hardAlpha"/>
<feOffset dy="4"/>
<feGaussianBlur stdDeviation="2"/>
<feComposite in2="hardAlpha" operator="out"/>
<feColorMatrix type="matrix" values="0 0 0 0 0 0 0 0 0 0 0 0 0 0 0 0 0 0 0.25 0"/>
<feBlend mode="normal" in2="BackgroundImageFix" result="effect1_dropShadow_1_21955"/>
<feBlend mode="normal" in="SourceGraphic" in2="effect1_dropShadow_1_21955" result="shape"/>
</filter>
</defs>
</svg>
