<svg width="371" height="71" viewBox="0 0 371 71" fill="none" xmlns="http://www.w3.org/2000/svg">
<g filter="url(#filter0_d_1_28061)">
<path d="M366.982 26.2849C367.034 18.6849 366.955 3.63304 366.955 3.41326C366.955 3.08024 366.912 1.47504 366.912 0.98662C350.201 0.986608 52.6387 1.02428 4.16221 0.986298C4.11014 8.58626 4.05851 16.2006 4.00644 23.8001C4.00667 24.6205 3.99198 25.4965 4.00622 25.9738C4.06812 27.9987 4.02118 30.4697 4.00644 32.4965C3.98974 34.8852 4.02314 36.7658 4.00644 39.1545C3.99612 40.8908 4.01675 41.8027 4.00644 43.539C5.96053 43.3232 8.76395 43.7077 10.3693 42.9029C12.287 41.9411 14.1846 42.5396 15.7261 42.7047C17.4959 42.8943 18.9397 42.7758 20.5317 42.317C21.1806 42.1302 21.914 42.1926 22.6086 42.142C23.0723 41.528 23.7708 40.9675 23.9541 40.2894C24.4404 38.4888 26.0187 38.2599 27.5326 38.0061C28.0194 37.9246 28.995 38.2789 29.0898 38.5992C29.5599 40.1849 30.7433 40.3396 32.2007 40.2609C33.248 40.2043 34.3022 40.259 35.3534 40.2636C35.793 40.0487 36.215 39.6935 36.6758 39.6433C38.592 39.4343 40.5176 39.2565 42.4442 39.19C43.5308 39.1525 44.7731 39.0986 45.6701 39.5338C46.3013 39.8401 47.9641 39.8333 47.3741 41.3141C46.5513 43.2924 47.0961 44.8261 49.1224 45.8788C50.3126 47.9178 52.3291 47.8463 54.4915 47.9373C56.7359 48.0314 58.9518 48.672 61.1829 49.062C62.018 49.2081 62.9081 49.6008 63.3546 48.4073C63.447 48.1603 64.2929 47.9142 64.6569 48.0291C67.6352 48.9683 69.4026 47.0754 71.396 45.6902C72.3514 44.6329 73.38 43.6231 74.2416 42.5043C75.0914 41.4005 76.1078 40.8042 77.6046 40.8259C81.2814 40.8793 84.9601 40.844 88.6355 40.9295C89.4887 40.9494 90.3331 41.3091 91.1815 41.5122C92.6527 41.3294 94.1033 40.7106 95.6099 40.2455C96.5668 39.9501 97.6165 39.7058 98.6088 39.7487C101.173 39.8587 103.726 40.1735 106.29 40.3296C106.891 40.3663 107.582 40.2129 108.115 39.9478C110.432 38.7964 112.778 38.7856 115.223 39.5307C115.659 39.6637 116.216 39.4827 116.713 39.4216C118.256 39.2321 119.867 38.6711 121.323 38.9127C123.951 39.3488 126.272 39.114 128.584 37.893C129.825 37.2379 131.097 37.3374 132.285 38.3467C132.857 38.8326 133.79 39.0629 134.599 39.1819C135.575 39.3257 136.601 39.1642 137.589 39.2651C138.038 39.3113 138.75 39.6031 138.828 39.8994C139.301 41.6787 139.85 43.5164 138.211 45.0998C137.687 47.0881 137.07 49.0986 139.852 50.1912C139.984 50.2432 140.044 50.4563 140.134 50.5961C140.8 51.6271 141.668 52.379 142.978 52.7364C144.647 53.192 145.555 54.3529 145.972 55.8788C146.523 57.8938 148.437 58.6887 150.206 59.0927C153.584 59.8654 157.411 59.3162 159.957 62.2618C160.053 62.3722 160.272 62.4287 160.44 62.4423C162.191 62.5839 163.943 62.826 165.694 62.821C169.806 62.8088 173.921 62.7332 178.028 62.5608C179.341 62.5056 180.629 62.0419 181.938 61.8094C183.567 61.5199 185.207 61.2833 186.84 61.0109C188.246 60.7766 189.698 60.6626 191.04 60.2464C192.834 59.6895 194.723 58.767 196.442 59.737C199.391 61.4018 202.625 60.8779 205.674 60.9444C209.433 61.0268 213.22 60.3178 216.981 59.8514C217.767 59.7537 218.488 59.2185 219.243 58.8923C219.977 58.5756 220.728 57.9798 221.449 58.0074C224.547 58.125 227.635 58.5964 230.73 58.6258C236.372 58.6792 242.016 58.4974 247.659 58.4485C248.408 58.4422 249.27 58.4548 249.889 58.7733C252.869 60.3097 256.092 59.7035 259.225 59.76C260.476 59.7827 261.806 59.0552 262.982 59.2556C268.493 60.1957 273.268 58.5086 277.944 56.1589C278.611 55.8232 279.506 55.8404 280.303 55.7675C280.691 55.7322 281.117 55.9675 281.491 55.9055C283.592 55.5572 285.665 55.0034 287.78 54.8057C291.272 54.4791 294.79 54.3881 298.294 54.1642C301.693 53.947 304.882 54.9989 308.17 55.4201C312.802 56.0132 317.529 55.9643 322.207 56.2801C325.091 56.4751 327.959 56.8714 330.84 57.1175C335.178 57.4876 339.185 59.7569 343.719 59.009C343.988 58.9647 344.29 59.1036 344.579 59.1475C347.971 59.6646 351.367 60.1586 354.753 60.7051C356.355 60.9639 358.122 61.0141 359.49 61.7045C361.619 62.7785 364.583 63.0523 366.982 62.9922C366.982 51.3829 366.982 40.1607 366.982 28.2197C366.988 27.5999 366.86 26.9029 366.982 26.2849Z" fill="#FFEFE3"/>
</g>
<defs>
<filter id="filter0_d_1_28061" x="0" y="0.986298" width="371" height="70.0137" filterUnits="userSpaceOnUse" color-interpolation-filters="sRGB">
<feFlood flood-opacity="0" result="BackgroundImageFix"/>
<feColorMatrix in="SourceAlpha" type="matrix" values="0 0 0 0 0 0 0 0 0 0 0 0 0 0 0 0 0 0 127 0" result="hardAlpha"/>
<feOffset dy="4"/>
<feGaussianBlur stdDeviation="2"/>
<feComposite in2="hardAlpha" operator="out"/>
<feColorMatrix type="matrix" values="0 0 0 0 0 0 0 0 0 0 0 0 0 0 0 0 0 0 0.25 0"/>
<feBlend mode="normal" in2="BackgroundImageFix" result="effect1_dropShadow_1_28061"/>
<feBlend mode="normal" in="SourceGraphic" in2="effect1_dropShadow_1_28061" result="shape"/>
</filter>
</defs>
</svg>
